<svg xmlns="http://www.w3.org/2000/svg" viewBox="0 0 120 120" width="120" height="120"><defs><style>.a{fill:#497285}</style></defs><path d="M59.9 40.6a3 3 0 0 1 0-4.6l-2.2-3.8h-.6a1.8 1.8 0 0 1-1.8-1.4H49a1.1 1.1 0 0 1-1 .8h-.2l-3 5.4a1.9 1.9 0 0 1 0 2.8l3.1 5.4h.2a1 1 0 0 1 1 .7h6.6a1.5 1.5 0 0 1 1.4-1.1h.4Zm-10.3-9h5.2v.7h-5.2ZM55.1 45H50v-.8H55ZM74 44.8l-3-5.5h-.3a1 1 0 0 1-1-.6h-5.2a2.9 2.9 0 0 1-3 2.5 2.4 2.4 0 0 1-1-.2L58 45a1.5 1.5 0 0 1 0 2l2.9 5.2a1.3 1.3 0 0 1 .6-.1 1.8 1.8 0 0 1 1.8 1.4h5.9a1.6 1.6 0 0 1 1.4-1 .8.8 0 0 1 .4 0l3-5a1.9 1.9 0 0 1 0-2.8Zm-5 8.1h-5.2v-.7H69Zm3.4-8-2.6-4.4.6-.4 2.6 4.5Z" class="a"/><path d="M92.7 17.7H27.2A4.3 4.3 0 0 0 23 22v34.4a4.3 4.3 0 0 0 4.3 4.3h65.5a4.3 4.3 0 0 0 4.3-4.3V22a4.3 4.3 0 0 0-4.3-4.3ZM75.3 33.4a2.4 2.4 0 0 1-1.1-.2l-2.6 4.4a1 1 0 0 1 0 1.4l3 5.4a1.3 1.3 0 0 1 .7 0 1.9 1.9 0 0 1 1.9 1.7 1.8 1.8 0 0 1-1.8 1.9 1.5 1.5 0 0 1-.6-.1l-3 5a1.4 1.4 0 0 1 .5 1 1.5 1.5 0 0 1-1.5 1.5 1.5 1.5 0 0 1-1.5-1h-5.8a1.8 1.8 0 0 1-1.8 1.4 1.8 1.8 0 0 1-1.8-1.8 2 2 0 0 1 .6-1.4l-3-5a3.7 3.7 0 0 1-.4 0 1.3 1.3 0 0 1-1.4-1.1h-6.6a1.2 1.2 0 0 1-1 .8h-.3l-3 5.4a2 2 0 0 1 .5 1.4 1.8 1.8 0 0 1-1.8 1.8 1.8 1.8 0 0 1-1.8-1.8 1.8 1.8 0 0 1 1.8-1.8 1.5 1.5 0 0 1 .6 0l3.1-5.4a1 1 0 0 1 0-1.4l-3-5.5a1.3 1.3 0 0 1-.7.1 1.8 1.8 0 0 1-1.8-1.8 1.8 1.8 0 0 1 1.8-1.8 1.5 1.5 0 0 1 .6 0l3.1-5.3a1 1 0 0 1-.2-.7 1.1 1.1 0 0 1 1-1.1 1.1 1.1 0 0 1 1.1.7h6.3a1.8 1.8 0 0 1 1.8-1.4 1.7 1.7 0 0 1 .6 0l3.1-5.4a1 1 0 0 1-.3-.6 1.1 1.1 0 1 1 1.2 1h-.2l-3.1 5.5a1.7 1.7 0 0 1 .6 1.4 2 2 0 0 1-.6 1.3l2.1 3.8a2.7 2.7 0 0 1 1.2-.2 3 3 0 0 1 2.9 2.6h5.2a1.1 1.1 0 0 1 1-.8h.2l2.6-4.5a3 3 0 1 1 4.8-2.3 3.4 3.4 0 0 1-3.2 3Z" class="a"/><path d="M96.1 15a4.3 4.3 0 0 1 4.3 4.4V59a4.3 4.3 0 0 1-4.3 4.3H23.8a4.3 4.3 0 0 1-4.3-4.3V19.4a4.3 4.3 0 0 1 4.3-4.3Zm0-2.5H23.8a7 7 0 0 0-6.9 6.9V59a7 7 0 0 0 6.9 6.9h72.3a7 7 0 0 0 6.9-7V19.5a7 7 0 0 0-6.9-6.9ZM115.1 97.8v-.4l-11-28.8A4.3 4.3 0 0 0 100 66H20a4.4 4.4 0 0 0-4.1 2.7l-11 29h-.1A6.5 6.5 0 0 0 4 101a6.6 6.6 0 0 0 6.6 6.6h98.8a6.9 6.9 0 0 0 4.6-1.9 6.6 6.6 0 0 0 2-4.6 7.6 7.6 0 0 0-.9-3.2Zm-6.6 1.8H11.4a2.8 2.8 0 0 1-2.8-3.8L17.9 71a4 4 0 0 1 3.8-2.4h76.6A4 4 0 0 1 102 71l9.3 24.7a3 3 0 0 1-2.9 3.9Z" class="a"/><path d="m31.6 70.4-.6 2.7h-7.2l.9-2.7ZM40.8 70.4l-.4 2.7h-7.6l.6-2.7ZM50 70.4l-.2 2.7h-7.7l.5-2.7ZM59.1 70.4v2.7h-7.6l.2-2.7ZM68.4 73h-7.6v-2.6h7.4ZM77.8 73H70l-.2-2.6h7.4ZM87 73h-7.5l-.4-2.6h7.4ZM96.1 73H89l-.6-2.6h7ZM97.2 76.5h-7.5L89 74h7.3ZM87.8 76.5H80l-.3-2.6h7.6ZM101.3 88.5h-8.9l-.8-3.4h8.6ZM90.7 88.5h-9L81 85h8.7ZM80 88.5h-8.8L71 85h8.4ZM69.4 88.5h-8.6V85h8.5ZM59.1 85.1v3.4h-8.6l.2-3.4ZM49 85.1l-.3 3.4H40l.5-3.4ZM38.8 85.1l-.5 3.4h-9L30 85ZM28.3 85.1l-.8 3.4h-8.9l1.2-3.4ZM29.2 80.8l-.8 3.5H20l1.2-3.5ZM39.4 80.8l-.5 3.5h-8.6l.7-3.5ZM49.3 80.8l-.3 3.5h-8.4l.5-3.5ZM59.1 80.8v3.5h-8.4l.3-3.5ZM69.2 84.3h-8.4v-3.5H69ZM79.3 84.3H71l-.3-3.5h8.2ZM89.7 84.3H81l-.5-3.5H89ZM99.8 84.3h-8.3l-.9-3.5h8.1ZM98.4 80h-8l-.6-2.6h7.8ZM88.7 80h-8.3l-.3-2.6h8ZM78.7 80h-8.2l-.1-2.6h8ZM68.8 80h-8v-2.6h7.9ZM59.1 77.4V80h-8l.2-2.6ZM49.5 77.4l-.2 2.6h-8.1l.3-2.6ZM39.8 77.4l-.3 2.6h-8.3l.6-2.6ZM30 77.4l-.5 2.6h-8l.8-2.6ZM30.9 74l-.6 2.5h-7.7l.9-2.6ZM40.3 74l-.3 2.5h-8l.6-2.6ZM49.7 74l-.2 2.5h-7.8l.4-2.6ZM59.1 74v2.5h-7.8l.1-2.6ZM68.7 76.5h-7.9V74h7.7ZM78.2 76.5h-7.8l-.2-2.6h7.7ZM71.6 97.2H48.3l.9-7h21.5Z" class="a"/></svg>