<svg xmlns="http://www.w3.org/2000/svg" viewBox="0 0 120 120" width="120" height="120"><defs><style>.a{fill:#497285}</style></defs><path d="M62.8 26.2a18.7 18.7 0 1 1-18.7 18.7 18.7 18.7 0 0 1 18.7-18.7Zm0-1.7A20.3 20.3 0 1 0 83.2 45a20.4 20.4 0 0 0-20.4-20.4Z" class="a"/><path d="M97.8 44.9a37.5 37.5 0 0 1-.3 4.6 2.5 2.5 0 0 1-2.5 2.2H94a2.5 2.5 0 0 0-2.4 1.8 31.5 31.5 0 0 1-2.3 5.5 2.5 2.5 0 0 0 .4 3l.8.8a2.6 2.6 0 0 1 .3 3.3 36.1 36.1 0 0 1-6.6 6.6 2.5 2.5 0 0 1-3.3-.3l-.8-.8a2.5 2.5 0 0 0-1.8-.7 2.8 2.8 0 0 0-1.2.3 26.7 26.7 0 0 1-2.5 1.2 14.2 14.2 0 0 0-3.6-1.6 27.4 27.4 0 0 0 4.8-2 5.3 5.3 0 0 1 2.5-.6 5.2 5.2 0 0 1 3.7 1.5l.7.8a33.6 33.6 0 0 0 5.9-6l-.8-.6a5.2 5.2 0 0 1-.8-6.2 27.7 27.7 0 0 0 2-5 5.2 5.2 0 0 1 5-3.7h1a35.4 35.4 0 0 0 .3-4.1 30.6 30.6 0 0 0-.3-4.2h-1a5.2 5.2 0 0 1-5-3.7 27.7 27.7 0 0 0-2-5 5.2 5.2 0 0 1 .8-6.1l.8-.8a32.7 32.7 0 0 0-5.9-5.8l-.7.7a5.2 5.2 0 0 1-3.7 1.5 5.3 5.3 0 0 1-2.5-.6 27.8 27.8 0 0 0-5-2 5.2 5.2 0 0 1-3.7-5v-1a35.4 35.4 0 0 0-4.1-.3 30.4 30.4 0 0 0-4.2.2v1a5.2 5.2 0 0 1-3.7 5 26 26 0 0 0-5 2.1 5.3 5.3 0 0 1-2.5.7 5.2 5.2 0 0 1-3.7-1.6l-.7-.7a33.6 33.6 0 0 0-5.9 5.9l.8.7a5.2 5.2 0 0 1 .9 6.2 27.7 27.7 0 0 0-2 5 5.2 5.2 0 0 1-5.1 3.7h-1a35.4 35.4 0 0 0-.3 4.1 30.6 30.6 0 0 0 .3 4.2h1a5.2 5.2 0 0 1 5 3.7 27.7 27.7 0 0 0 2 5 5.2 5.2 0 0 1-.3 5.5 22.9 22.9 0 0 0-2.4-.1h-1.2a1.4 1.4 0 0 1 .3-.4l.8-.8a2.5 2.5 0 0 0 .5-3 29.6 29.6 0 0 1-2.3-5.5 2.5 2.5 0 0 0-2.4-1.8h-1.2a2.6 2.6 0 0 1-2.5-2.1 36.4 36.4 0 0 1 0-9.3 2.5 2.5 0 0 1 2.5-2.2h1.2a2.5 2.5 0 0 0 2.4-1.8 31.5 31.5 0 0 1 2.3-5.5 2.5 2.5 0 0 0-.5-3l-.8-.8a2.6 2.6 0 0 1-.2-3.3 34.5 34.5 0 0 1 6.6-6.6 2.5 2.5 0 0 1 1.5-.5 2.6 2.6 0 0 1 1.8.8l.8.8a2.5 2.5 0 0 0 1.8.7 2.8 2.8 0 0 0 1.2-.3 27.8 27.8 0 0 1 5.5-2.2A2.5 2.5 0 0 0 56 14v-1.2a2.6 2.6 0 0 1 2.1-2.5 36.4 36.4 0 0 1 9.3 0 2.5 2.5 0 0 1 2.2 2.5V14a2.5 2.5 0 0 0 1.8 2.4 29.6 29.6 0 0 1 5.5 2.2 2.5 2.5 0 0 0 3-.4l.8-.8a2.6 2.6 0 0 1 1.8-.8 2.5 2.5 0 0 1 1.5.5 34.5 34.5 0 0 1 6.6 6.6 2.5 2.5 0 0 1-.3 3.3l-.8.9a2.5 2.5 0 0 0-.4 3 29.6 29.6 0 0 1 2.2 5.4 2.5 2.5 0 0 0 2.5 1.8h1.1a2.6 2.6 0 0 1 2.5 2.2 23 23 0 0 1 .4 4.6Z" class="a"/><path d="M64.4 37.4v7.5a1.5 1.5 0 0 1-.5 1.3l-4.7 4.6a1.6 1.6 0 0 1-1.1.5 1.6 1.6 0 0 1-1.2-2.8l4.3-4.3v-6.8a1.6 1.6 0 0 1 1.6-1.7 1.6 1.6 0 0 1 1.6 1.7ZM63.6 31.7H62a1.3 1.3 0 0 1 0-2.7h1.6a1.3 1.3 0 1 1 0 2.7ZM52 36.5a1.3 1.3 0 0 1-1-.4 1.3 1.3 0 0 1 0-2l1.2-1A1.4 1.4 0 0 1 54 35L52.9 36a1.4 1.4 0 0 1-1 .4ZM48.3 47a1.3 1.3 0 0 1-1.4-1.3V44a1.3 1.3 0 0 1 2.7 0v1.6a1.3 1.3 0 0 1-1.3 1.3ZM53.1 57a1.3 1.3 0 0 1-1-.3l-1-1.2a1.4 1.4 0 0 1 1.8-1.9l1.2 1.2a1.3 1.3 0 0 1 0 1.9 1.4 1.4 0 0 1-1 .4ZM63.6 60.8H62a1.3 1.3 0 0 1 0-2.7h1.6a1.3 1.3 0 1 1 0 2.7ZM72.5 57a1.3 1.3 0 0 1-.9-.3 1.3 1.3 0 0 1 0-2l1.1-1a1.4 1.4 0 0 1 2 1.8l-1.2 1.2a1.5 1.5 0 0 1-1 .4ZM77.4 47a1.3 1.3 0 0 1-1.4-1.3V44a1.3 1.3 0 1 1 2.7 0v1.6a1.3 1.3 0 0 1-1.3 1.3ZM73.7 36.5a1.3 1.3 0 0 1-1-.4l-1-1.1a1.4 1.4 0 0 1 1.8-2l1.2 1.2a1.3 1.3 0 0 1 0 1.9 1.4 1.4 0 0 1-1 .4ZM103 80.2h-.3a250.8 250.8 0 0 0-6.2.4c-4.7.4-8 .4-11.5.5l-6.5.2a12.9 12.9 0 0 0-12-8.4H51a19.7 19.7 0 0 0-15-7h-10V65a1.6 1.6 0 0 0-1.7-1.6H11.5A1.6 1.6 0 0 0 10 65v32.4a1.6 1.6 0 0 0 1.6 1.6h13a1.6 1.6 0 0 0 1.6-1.6v-.8l23 11.6a19.6 19.6 0 0 0 14.9.6l11.7-6a87 87 0 0 1 16.4-6l12.4-2.8a7 7 0 0 0-1.4-13.8Zm.8 10.7L98.1 92l-6.7 1.5a90.4 90.4 0 0 0-17.2 6.3l-11.4 6a16.5 16.5 0 0 1-12.3-.6L26 93V69h10A16.3 16.3 0 0 1 46.6 73a17 17 0 0 1 3 3.2h16.9a9.6 9.6 0 0 1 9.4 8.3H51a1.3 1.3 0 0 0-1.2 1.6 1.4 1.4 0 0 0 1.3 1h27a1.3 1.3 0 0 0 1.3-1.3v-1.2l5.8-.1c3.5-.1 6.9-.2 11.7-.6H98l5.1-.4a3.8 3.8 0 0 1 .7 7.5Z" class="a"/></svg>