<svg xmlns="http://www.w3.org/2000/svg" viewBox="0 0 265 32"><defs><style>.a{fill:#f9a828;fill-rule:evenodd}.b{fill:#f9f9fa}</style></defs><path d="M5 0a5 5 0 0 0-5 5v1.4h10.6v13.4L24 6.4h8V5a5 5 0 0 0-5-5Z" class="a"/><path d="M32 10.9h-6.2L10.6 26H6.2V10.9H0V27a5 5 0 0 0 5 5h22a5 5 0 0 0 5-5Z" class="a"/><path d="M56.3 5.4v11h-3.1v-11H47V3h15.5v2.4h-6.2zM65 16.4V3h13.7v2.3H68.1v3h6.2v2.3h-6.2v3.3h10.7v2.5H65zM81.3 16.4l6.3-6.9L81.2 3h4.1l4.3 4.6L93.7 3h3.6l-5.9 6.2 7.2 7.2h-4.2l-4.9-5.2-4.6 5.2h-3.6zM100.7 16.4V3h3.1v5.2h9.7V3h3.2v13.4h-3.2v-5.8h-9.7v5.8h-3.1zM135.8 3.7a3.8 3.8 0 0 0-2.6-.7h-9.9a3.8 3.8 0 0 0-2.6.7 3.4 3.4 0 0 0-.7 2.5v7a3.5 3.5 0 0 0 .7 2.6 3.9 3.9 0 0 0 2.6.6h9.9a3.9 3.9 0 0 0 2.6-.7 3.4 3.4 0 0 0 .7-2.5v-7a3.5 3.5 0 0 0-.7-2.5Zm-2.4 10.2H123V5.4h10.3ZM153.8 10.3a2.8 2.8 0 0 0-1.8-.8 3 3 0 0 0 1.7-.7 2 2 0 0 0 .6-1.6V5.6a2.5 2.5 0 0 0-.7-2 3.5 3.5 0 0 0-2.3-.6h-11.5v13.4h10.6a5.5 5.5 0 0 0 3-.6 2.2 2.2 0 0 0 1-2V12a2.4 2.4 0 0 0-.7-1.8Zm-11-5.1h7.2a2 2 0 0 1 1 .2.9.9 0 0 1 .4.7v1.3a.9.9 0 0 1-.3.8 2.1 2.1 0 0 1-1.1.2h-7.2Zm8.7 7.6a1.2 1.2 0 0 1-.4 1 1.9 1.9 0 0 1-1.1.2h-7.2v-3.4h7.2a1.9 1.9 0 0 1 1.2.3 1.1 1.1 0 0 1 .3.9ZM167.2 3h-3l-7.6 13.4h3l1.6-3h8.5l1.6 3h3.6Zm-4.6 8 3-5.4 2.8 5.5ZM177.9 16.4V3h3.1v5.6l7.5-5.6h4.5l-8.9 6.3 10 7.1h-5l-8.1-5.9v5.9h-3.1zM198.2 16.4l3.9-5.6L194 3h4.2l5.3 5.5 3.9-5.5h3.7l-9.8 13.4h-3.1zM215.3 16.4l4-5.6-8.1-7.8h4.1l5.4 5.5 3.9-5.5h3.6l-9.7 13.4h-3.2zM230.5 16.4V3h2.5l6.3 8.1 6.2-8.1h2.5v13.4h-2.9V7.5l.1-.8-.4.9-.4.5-5 6.7h-.6l-5.1-6.7-.5-.7-.3-.7.1.8v8.9h-2.5zM55 28.4a2.9 2.9 0 0 1-.6 2 2 2 0 0 1-1.3.6H51a10.4 10.4 0 0 1-2.5-.2 1.7 1.7 0 0 1-1.2-1 6.5 6.5 0 0 1-.3-2.4 6.6 6.6 0 0 1 .3-2.5 1.8 1.8 0 0 1 1.2-1 10.5 10.5 0 0 1 2.5-.1h2a2 2 0 0 1 1.4.6 2.9 2.9 0 0 1 .6 1.9h-1.1q0-1.2-.5-1.4a7.7 7.7 0 0 0-2.4-.2 11.4 11.4 0 0 0-2 .1 1 1 0 0 0-.8.7 6.8 6.8 0 0 0-.1 1.9 6.4 6.4 0 0 0 .1 1.9 1 1 0 0 0 .9.7 11.2 11.2 0 0 0 1.9 0 8 8 0 0 0 2.4-.1q.5-.3.5-1.5ZM67.2 24.8H64v6.1h-1v-6.1h-3.2v-1h7.4v1zM77.8 23.9H72v7h1v-2.6h4.8a2 2 0 0 0 1.5-.6 2.4 2.4 0 0 0 .5-1.6c0-1.5-.7-2.3-2-2.3Zm0 3.5H73v-2.6h4.6c.7 0 1 .4 1 1.3s-.3 1.3-1 1.3ZM93.5 23.8 90 29.6a2.5 2.5 0 0 1-2.3 1.3h-2.3v-1h2.3a1.2 1.2 0 0 0 1.2-.5L84 23.8h1.4l4.3 4.7 2.7-4.7ZM99.9 22.8h3.2v.9h-3.2zM105.9 30.9h-1v-6.1l-6 6.1h-1.6v-7.1h1V30l6.1-6.2h1.5v7.1zM119.7 30.9h-1.1v-3.1h-6v3.1h-1.1v-7.1h1.1v3h6v-3h1.1v7.1zM129.9 23.9h-1.7l-3.7 7h1.2l.9-1.6h5l.8 1.6h1.2Zm-2.9 4.5 2-3.7h.2l2 3.7ZM140.2 23.9a1.7 1.7 0 0 0-1.5.6 2.6 2.6 0 0 0-.4 1.6 3 3 0 0 0 .1 1 1.4 1.4 0 0 0 .8.8 1.3 1.3 0 0 0-1 1.3v1.7h1.1v-1.7a.7.7 0 0 1 .4-.6 1.5 1.5 0 0 1 .8-.3h5V31h1v-7Zm5.2 3.5h-4.8a1.3 1.3 0 0 1-1-.3 1.5 1.5 0 0 1-.3-1 1.3 1.3 0 0 1 .4-1.1 1.5 1.5 0 0 1 .9-.2h4.8ZM168.8 24.8h-3.2v6.1h-1v-6.1h-3.2v-1h7.4v1zM180.4 30.9h-6.8v-7.1h6.8v1h-5.7v2.1h5.5v.9h-5.5V30h5.7v.9zM194.2 30.9h-1.4l-3-3-3 3h-1.4l3.6-3.5-3.6-3.6h1.4l3 3 2.9-3h1.5l-3.6 3.6 3.6 3.5zM207.3 30.9h-1.1v-3.1h-6.1v3.1h-1v-7.1h1v3h6.1v-3h1.1v7.1zM221.2 30.9h-1.1v-6.1l-6 6.1h-1.6v-7.1h1.1V30l6-6.2h1.6v7.1zM235.2 30.9h-1.7l-4.7-3.2h-1v3.2h-1.1v-7.1h1.1v2.9h1l4.3-2.9h1.8l-5 3.4 5.3 3.7zM244.3 23.9h-1.7l-3.7 7h1.2l.9-1.6h5l.8 1.6h1.2Zm-2.9 4.5 2-3.7h.2l2 3.7Z" class="b"/></svg>