<svg xmlns="http://www.w3.org/2000/svg" viewBox="0 0 265 32"><defs><style>.a{fill:#f9a828;fill-rule:evenodd}.b{fill:#f9f9fa}</style></defs><path d="M5 0a5 5 0 0 0-5 5v1.4h10.6v13.4L24 6.4h8V5a5 5 0 0 0-5-5Z" class="a"/><path d="M32 10.9h-6.2L10.6 26H6.2V10.9H0V27a5 5 0 0 0 5 5h22a5 5 0 0 0 5-5Z" class="a"/><path d="M56.3 5.4v11h-3.1v-11H47V3h15.5v2.4h-6.2zM65 16.4V3h13.7v2.3H68.1v3h6.2v2.3h-6.2v3.3h10.7v2.5H65zM93.6 5.4h-8.4v8.5h8.4V11l3 .7v1.5a3.5 3.5 0 0 1-.6 2.5 3.8 3.8 0 0 1-2.6.7h-8a4 4 0 0 1-2.7-.6 3.5 3.5 0 0 1-.7-2.6v-7a3.5 3.5 0 0 1 .7-2.5 3.8 3.8 0 0 1 2.7-.7h8a3.8 3.8 0 0 1 2.6.7 3.5 3.5 0 0 1 .7 2.5v1.2l-3.1.5ZM99.8 16.4V3h3.2v5.2h9.7V3h3.2v13.4h-3.2v-5.8H103v5.8h-3.2zM119.4 16.4V3h2.1l9.5 8 .4.3.4.4a7.6 7.6 0 0 1 .7.7l-.1-1.6V3h2.8v13.4H133l-9.8-8.3-.6-.5a2.7 2.7 0 0 1-.3-.3 3.3 3.3 0 0 1-.2-.3v9.4ZM154.3 3.7a3.8 3.8 0 0 0-2.7-.7h-9.8a3.8 3.8 0 0 0-2.7.7 3.5 3.5 0 0 0-.7 2.5v7a3.5 3.5 0 0 0 .7 2.6 3.9 3.9 0 0 0 2.7.6h9.8a3.8 3.8 0 0 0 2.7-.7 3.4 3.4 0 0 0 .7-2.5v-7a3.5 3.5 0 0 0-.7-2.5Zm-2.5 10.2h-10.3V5.4h10.3ZM164.8 16.4 157 3h3.6l5.4 9.7 5.2-9.7h3.1l-7.4 13.4h-2.1zM182.7 3h-3l-7.6 13.4h3.2l1.5-3h8.5l1.6 3h3.5Zm-4.5 8 3-5.4 2.8 5.5ZM204.3 5.4h-8.4v8.5h8.4V11l3.1.7v1.5a3.4 3.4 0 0 1-.7 2.5 3.8 3.8 0 0 1-2.6.7h-8a4 4 0 0 1-2.7-.6 3.5 3.5 0 0 1-.7-2.6v-7a3.5 3.5 0 0 1 .7-2.5 3.8 3.8 0 0 1 2.7-.7h8a3.8 3.8 0 0 1 2.6.7 3.5 3.5 0 0 1 .7 2.5v1.2l-3.1.5ZM213.7 3v10.9h8.9V3h3v10.2a3.4 3.4 0 0 1-.6 2.5 3.8 3.8 0 0 1-2.7.7H214a4 4 0 0 1-2.7-.6 3.5 3.5 0 0 1-.7-2.6V3ZM232.4 3v10.9h8.9V3h3v10.2a3.4 3.4 0 0 1-.6 2.5 3.8 3.8 0 0 1-2.6.7h-8.5a4 4 0 0 1-2.7-.6 3.5 3.5 0 0 1-.6-2.6V3ZM247.5 16.4V3h2.5l6.3 8.1 6.2-8.1h2.5v13.4h-2.9V7.5l.1-.8-.4.9-.4.5-5 6.7h-.6l-5.1-6.7-.5-.7-.3-.7.1.8v8.9h-2.5zM53.9 28.3q0 1.9-.7 2.3a6 6 0 0 1-2.7.4 5.5 5.5 0 0 1-2.8-.4q-.7-.5-.7-2.3h1a2.7 2.7 0 0 0 .3 1.3 1 1 0 0 0 .8.4h2.8a1 1 0 0 0 .7-.4 2.8 2.8 0 0 0 .3-1.3v-4.5h1ZM66.1 30.9h-6.7v-7.1h6.7v1h-5.7v2.1h5.5v.9h-5.5V30h5.7v.9zM79.1 24.8H76v6.1h-1.1v-6.1h-3.1v-1h7.3v1zM101.9 24.7c-.3-.6-1-.9-2.1-.9h-6V31h6a2.5 2.5 0 0 0 1.8-.5 4.6 4.6 0 0 0 .7-3 6.2 6.2 0 0 0-.4-2.7Zm-.8 4.4a1.2 1.2 0 0 1-1.3.8h-4.9v-5h4.9a1.2 1.2 0 0 1 1.3.7 6.5 6.5 0 0 1 .1 1.8 6.5 6.5 0 0 1-.1 1.7ZM114.8 30.9H108v-7.1h6.8v1h-5.7v2.1h5.5v.9h-5.5V30h5.7v.9zM129.1 23.8l-3.8 7.1H124l-3.8-7.1h1.1l3.2 6.2h.2l3.3-6.2h1.1zM133.7 23.8h1.1v7.1h-1.1zM148.5 28.4a2.9 2.9 0 0 1-.5 2 2 2 0 0 1-1.4.6h-2a10.4 10.4 0 0 1-2.6-.2 1.8 1.8 0 0 1-1.2-1 6.6 6.6 0 0 1-.3-2.4 6.6 6.6 0 0 1 .3-2.5 1.8 1.8 0 0 1 1.2-1 10.5 10.5 0 0 1 2.5-.1h2a2 2 0 0 1 1.5.6 2.9 2.9 0 0 1 .5 1.9h-1q0-1.2-.6-1.4a7.7 7.7 0 0 0-2.4-.2 11.4 11.4 0 0 0-2 .1 1 1 0 0 0-.8.7 6.8 6.8 0 0 0-.1 1.9 6.4 6.4 0 0 0 .2 1.9 1 1 0 0 0 .8.7 11.4 11.4 0 0 0 2 0 8 8 0 0 0 2.3-.1q.5-.3.5-1.5ZM160.7 30.9H154v-7.1h6.7v1H155v2.1h5.5v.9H155V30h5.7v.9zM174.5 29a1.7 1.7 0 0 1-1 1.7 9.5 9.5 0 0 1-3.2.3 6.2 6.2 0 0 1-3.3-.6 2.3 2.3 0 0 1-.6-1.9h1q0 1 .5 1.3a6.4 6.4 0 0 0 2.5.2 10 10 0 0 0 2.4-.1.9.9 0 0 0 .6-1q0-.6-.4-.8a8.9 8.9 0 0 0-2.4-.2 6.2 6.2 0 0 1-3.3-.6 1.9 1.9 0 0 1-.6-1.6 1.6 1.6 0 0 1 .7-1.6 8.8 8.8 0 0 1 3.2-.4 5.6 5.6 0 0 1 3.1.6 2.2 2.2 0 0 1 .6 1.8h-1q0-1-.5-1.2a5.8 5.8 0 0 0-2.2-.2 17.4 17.4 0 0 0-1.8 0q-1 .2-1 1a1 1 0 0 0 .5 1 8 8 0 0 0 2.7.3 8.2 8.2 0 0 1 2.7.2q.8.4.8 1.8Z" class="b"/></svg>