<svg xmlns="http://www.w3.org/2000/svg" viewBox="0 0 120 120" width="120" height="120"><defs><style>.a{fill:#497285}</style></defs><path d="M103.7 23.8a1.5 1.5 0 0 1-.4.3h-.2l-7 2.8-.6.3 1.8 28.4-1.3.5-.4-13.3-.4 13.6-1 .4-.4-14-.5 14-1-.4-.4-13.6-.3 13.3-1.3-.5L92 28.5l.1-1.9V26a1.6 1.6 0 0 1-.6-.6 3 3 0 0 1-.3-3.8 2 2 0 0 0 .3-.7v-.1l.1-.3a.3.3 0 0 1 .1-.2.4.4 0 0 1 0-.3v-1a.9.9 0 0 0 0-.3.3.3 0 0 0 0-.2l-.1-.3-.1-.3v-.1l-.2-.2v-.1l-.2-.3s0-.2-.2-.2v-.1l-.2-.2-.4-.4-.5-.4c-.1-.1-.2-.3-.4-.3l-.5-.2a1.3 1.3 0 0 0-.4-.2h-.3l-.4-.1h-.4a3.3 3.3 0 0 0-.9 0l.7.3 1.2.5.7.2.1.1a3.7 3.7 0 0 1 2 3.3 3.7 3.7 0 0 1-.5 2 3.2 3.2 0 0 0-.4 1 1.5 1.5 0 0 0-.1.5v.3a3.9 3.9 0 0 0 .8 2.4 2 2 0 0 0 .6.5l-.2 2.6-7 2.8V22c0-4.4-12.6-6.5-24.4-6.5s-24.4 2-24.4 6.5v9.5L17 24a1.4 1.4 0 0 1 0-2.6l40.4-16a7.4 7.4 0 0 1 5.4 0l20.4 8.1a7.4 7.4 0 0 1 4.3-1.4 7.2 7.2 0 0 1 7.1 6l.3.1.7.3 7.5 3a1.4 1.4 0 0 1 .7 2.2ZM95.5 27.2l.7-.3Z" class="a"/><path d="M81.6 39.5a41 41 0 0 1-18 3.5l-3.7.1h-3.6c-9.8-.4-16-2.2-18-3.6A41 41 0 0 1 50 37.3a136 136 0 0 1 20 0 41 41 0 0 1 11.6 2.2Z" class="a"/><path d="M82.4 22.1v15.6a28.4 28.4 0 0 0-8.3-2 129.3 129.3 0 0 0-14-.8 129.3 129.3 0 0 0-14.2.8 28.4 28.4 0 0 0-8.2 2V22c0-1.5 7.9-4.4 22.3-4.4s22.4 3 22.4 4.4Z" class="a"/><path d="m91 16.6.2.1H91ZM38 74.1a26.7 26.7 0 0 1 7.8-7.8 25.9 25.9 0 0 1 8.2-3.5 23.9 23.9 0 0 1 2.6-.5 26.3 26.3 0 0 1 3.7-.2H62a26.3 26.3 0 0 1 16.8 7.4 13.5 13.5 0 0 1 1.1 1.2 25.5 25.5 0 0 1 2.4 3 19 19 0 0 1 1.4 2.2 26 26 0 0 1 3.2 12.6A26.5 26.5 0 1 1 38 74.1Zm22.3 37a22.5 22.5 0 1 0-22.5-22.6A22.5 22.5 0 0 0 60.3 111ZM69.4 58.5a9.6 9.6 0 0 0-4 .9 35 35 0 0 0-2.2-.3 10.7 10.7 0 0 1 6.2-2A10.8 10.8 0 0 1 80 66.5l-1.6-1.4a9.6 9.6 0 0 0-9.1-6.6Z" class="a"/><path d="m86 69.5.2-1.5-.1-1.5a3.5 3.5 0 0 1-3.3-2.6 13 13 0 0 0-1.1-2.5 3.5 3.5 0 0 1 .5-4.2 24 24 0 0 0-2-2.1 3.6 3.6 0 0 1-2.5 1 3.4 3.4 0 0 1-1.7-.5 13 13 0 0 0-2.6-1 3.5 3.5 0 0 1-2.6-3.4H68a3.5 3.5 0 0 1-2.6 3.4 13 13 0 0 0-2.5 1 3.8 3.8 0 0 1-1.8.5 3.5 3.5 0 0 1-2.4-1 24 24 0 0 0-2 2.1 3.8 3.8 0 0 1 .8 1.9l-2.2.3a1.3 1.3 0 0 0-.3-.7l-.5-.4a1.4 1.4 0 0 1-.1-1.8 19.6 19.6 0 0 1 3.6-3.6 1.4 1.4 0 0 1 1.8.1l.4.5a1.4 1.4 0 0 0 1 .4 1.2 1.2 0 0 0 .7-.2 17.4 17.4 0 0 1 3-1.3 1.4 1.4 0 0 0 .9-1.3v-.6a1.3 1.3 0 0 1 1.2-1.3 18 18 0 0 1 5 0 1.4 1.4 0 0 1 1.2 1.3v.7a1.4 1.4 0 0 0 1 1.3 17.4 17.4 0 0 1 3 1.2 1.2 1.2 0 0 0 .6.2 1.4 1.4 0 0 0 1-.4l.4-.4a1.4 1.4 0 0 1 1-.4 1.5 1.5 0 0 1 .8.2 19.6 19.6 0 0 1 3.6 3.6 1.4 1.4 0 0 1-.2 1.8l-.4.5a1.3 1.3 0 0 0-.2 1.6 17.4 17.4 0 0 1 1.2 3 1.4 1.4 0 0 0 1.3 1h.6a1.3 1.3 0 0 1 1.4 1.1 15.2 15.2 0 0 1 .2 2.5 16 16 0 0 1-.2 2.5 1.4 1.4 0 0 1-1.4 1.2h-.6a1.3 1.3 0 0 0-1.1.6 14 14 0 0 0-1.4-1.8 3.5 3.5 0 0 1 2.4-1ZM44.3 76.5a1.7 1.7 0 0 0 1.3.6h.7a1.7 1.7 0 0 1 1.6 1.2 20.6 20.6 0 0 0 1.5 3.6 1.7 1.7 0 0 1-.3 2l-.5.5a1.6 1.6 0 0 0-.1 2.2 24 24 0 0 0 4.3 4.4 1.8 1.8 0 0 0 1 .4 1.7 1.7 0 0 0 1.2-.5l.6-.6a1.7 1.7 0 0 1 1.2-.4 1.7 1.7 0 0 1 .8.2 17.7 17.7 0 0 0 3.6 1.5 1.7 1.7 0 0 1 1.2 1.6v.8a1.7 1.7 0 0 0 1.5 1.6 24.2 24.2 0 0 0 3 .3 23.7 23.7 0 0 0 3.2-.3 1.7 1.7 0 0 0 1.4-1.6v-.8a1.7 1.7 0 0 1 1.2-1.6 20.6 20.6 0 0 0 3.7-1.5 1.8 1.8 0 0 1 .8-.2 1.7 1.7 0 0 1 1.1.4l.7.6a1.7 1.7 0 0 0 1.2.5 22.3 22.3 0 0 0 .2-2.5l-.2.1-.2-.2a3.8 3.8 0 0 0-2.7-1.2 4.4 4.4 0 0 0-1.9.5 16.5 16.5 0 0 1-3.2 1.4 3.8 3.8 0 0 0-2.8 3.7v.3a21.4 21.4 0 0 1-2.4.1 20.8 20.8 0 0 1-2.3 0v-.4a4 4 0 0 0-2.8-3.7 17.6 17.6 0 0 1-3.2-1.4 3.8 3.8 0 0 0-1.9-.5 3.7 3.7 0 0 0-2.7 1.2l-.2.2a21.9 21.9 0 0 1-3.4-3.3l.2-.3a3.8 3.8 0 0 0 .7-4.5 17.6 17.6 0 0 1-1.4-3.3 3.8 3.8 0 0 0-3.7-2.8H46v-.3a17.8 17.8 0 0 0-1.7 2Z" class="a"/><path d="M53.6 72.5a13.4 13.4 0 0 0 24.7 7.2 14.6 14.6 0 0 0-1-1.8 11.6 11.6 0 0 1-21.9-5.4 11.9 11.9 0 0 1 .6-3.6l-2 .5a12.1 12.1 0 0 0-.4 3.1ZM48.6 104.8l1.6 1a11.4 11.4 0 0 1 6.1-1.7 11.5 11.5 0 0 1 8.7 4 14.5 14.5 0 0 0 1.8-.6 13.5 13.5 0 0 0-10.5-5.1 13.7 13.7 0 0 0-7.7 2.4Z" class="a"/><path d="M42.2 97.1a19.7 19.7 0 0 0 1.6 2.7 3.7 3.7 0 0 0 2.3.8 4.4 4.4 0 0 0 1.8-.5 14 14 0 0 1 3.3-1.3 3.8 3.8 0 0 0 2.8-3.7v-.3a21.4 21.4 0 0 1 2.3-.2 20.2 20.2 0 0 1 2.4.2v.3a4 4 0 0 0 2.7 3.7 21 21 0 0 1 3.3 1.3 3.8 3.8 0 0 0 1.9.5 3.7 3.7 0 0 0 2.7-1.2l.2-.2a21.9 21.9 0 0 1 3.4 3.4l-.2.2a3.6 3.6 0 0 0-1.2 2.4 18.9 18.9 0 0 0 3.7-3.2 1.3 1.3 0 0 0-.3-.5 24 24 0 0 0-4.4-4.3 1.8 1.8 0 0 0-1-.4 1.7 1.7 0 0 0-1.2.5l-.5.5a1.7 1.7 0 0 1-1.2.5 1.3 1.3 0 0 1-.8-.2 17.7 17.7 0 0 0-3.6-1.5A1.7 1.7 0 0 1 61 95v-.8a1.7 1.7 0 0 0-1.5-1.7 21.7 21.7 0 0 0-6.2 0 1.7 1.7 0 0 0-1.4 1.7v.8a1.7 1.7 0 0 1-1.2 1.6 20.6 20.6 0 0 0-3.7 1.5 1.8 1.8 0 0 1-.8.2 1.7 1.7 0 0 1-1.2-.5l-.5-.5a1.8 1.8 0 0 0-1.2-.5 2.2 2.2 0 0 0-1 .3ZM22 55.9a5.3 5.3 0 0 0 1.7 3.9l12.2 12.1a29 29 0 0 1 7.7-7.8L31.5 52a5.5 5.5 0 0 0-7.8 0 5.3 5.3 0 0 0-1.6 3.9Z" class="a"/></svg>