<svg xmlns="http://www.w3.org/2000/svg" viewBox="0 0 600 415" width="600" height="415"><defs><style>.a{fill:#07617d;}.b{fill:#d27332;}.c{fill:#b05f1f;}.d{fill:#f78536;}.e{fill:#497285;}.f{fill:#fff;}.g{fill:#3d91a6;}.h{fill:#ff892e;}.i{fill:#306b8c;}.j{fill:#1a1d2e;}.k{fill:#1f5887;}.l{opacity:0.15;isolation:isolate;}.m{fill:#0a0b12;}.n{fill:#20485e;}.o{fill:#cf4e1f;}.p{fill:#1f6678;}.q{fill:#2b4450;}</style></defs><title>jau_oil__TEST</title><path class="a" d="M494.6,127.1h1.1v47.6h-1Zm74.4,17v-2.8H529.7v33.4h-1V140.2H569v-2.8l12.3,3.3L569,144ZM439.1,48.8V181.4H438V50.1H157.5V87.7h2.7L157,99.9l-3.3-12.3h2.8V49Z"/><path class="a" d="M269.7,68.2V218.9h-1.1V69.3H189.8V79.7h2.7L189.2,92,186,79.7h2.8V68.2ZM193.9,223.6l3.3,12.3,3.3-12.3Zm399.4-53.2,3.3-12.3,3.3,12.3Zm-101.4-25,3.3,12.3,3.3-12.3Zm74.9,123.8v-2.7H556.4v-1.1h10.4v-2.8L579,266Zm-53-74v35.6H462.1v2.7l-12.2-3.3L462,227v2.7h50.6V195ZM81.9,370v-2.7H71.4v-1.2H81.8v-2.7l12.3,3.3ZM188.8,127h1.1v47.6h-1.1Z"/><path class="a" d="M220,138.3l3.2-12.3,3.3,12.3Zm-111.7,33,3.3-12.3,3.3,12.3Zm0,168.9,3.3-12.3,3.3,12.3ZM186,145.4l3.3,12.3,3.3-12.3ZM131,69.5l3.4,12.3,3.3-12.3Z"/><path class="a" d="M293.1,104.4v-2.8h-20a2.1,2.1,0,0,0,0-1.1,3.9,3.9,0,0,0-4.6-3.3,4,4,0,0,0-3.3,3.3,2.1,2.1,0,0,0,0,1.1H223.8v73.1h-1.1V100.5h41.6c0-1.8,2.2-4.3,4.9-4.3a4.9,4.9,0,0,1,4.8,4.3h19V97.8l12.3,3.3Zm70.8,129.1v-2.7h-9.8V313h-242v43h-1V299.4h1v12.4H228.3v-81H217V195.1h1.1v34.6h21.2v-2.8l12.3,3.3-12.3,3.3v-2.7h-9.8v81H353v-81H341.6V195.1h1.2v34.6h21.1v-2.8l12.3,3.3ZM168.5,103.8v-2.7H133.7V50H43.1V81.7H41.9V48.9h93v51h33.5V97.2l12.3,3.3Z"/><path class="a" d="M322.4,195.1v71.4H232.8a2.1,2.1,0,0,0,0-1.1,3.9,3.9,0,0,0-4.8-3,3.9,3.9,0,0,0-3,3,2.1,2.1,0,0,0,0,1.1H112.2V279H111V69.3H56.1V81.8H55V68.2h57.2V265.4h84.4V195h1.1v70.3h26.1a5.1,5.1,0,0,1,5.8-4.3,5,5,0,0,1,4.3,4.3h87.3V195ZM289,315.7l12.2-3.3-12.3-3.3Zm-123.6,0,12.3-3.3-12.3-3.3v6.6Z"/><path class="a" d="M294.3,269.2,282,266l12.3-3.2Zm-131.5,0-12.3-3.3,12.3-3.2ZM90.6,52.8l12.3-3.3L90.6,46.2Zm4.2,19.3L82.5,68.8l12.3-3.3Zm299.5-3.9V218.9h-1.1V69.3H314.4V79.7h2.8L313.9,92l-3.3-12.3h2.7V68.2Zm202.9,0v187H596V69.3H495.7V79.7h2.8L495.2,92l-3.3-12.3h2.7V68.2ZM318.5,223.6l3.3,12.3,3.3-12.3Zm-5.2-96.5h1.1v47.6h-1Z"/><path class="a" d="M344.6,138.3l3.3-12.3,3.3,12.3Zm-34,7.1,3.3,12.3,3.3-12.3Z"/><path class="a" d="M474.4,104.4v-2.8h-32a2.1,2.1,0,0,0,0-1.1,3.9,3.9,0,0,0-4.8-3,3.9,3.9,0,0,0-3,3,2.1,2.1,0,0,0,0,1.1h-37a2.1,2.1,0,0,0,0-1.1,3.9,3.9,0,0,0-4.8-3,3.9,3.9,0,0,0-3,3,2.1,2.1,0,0,0,0,1.1H348.4v73.1h-1V100.5h41.3a5.1,5.1,0,0,1,5.8-4.3,5,5,0,0,1,4.3,4.3h34.6c0-1.9,2.3-4.2,5.1-4.2s5.1,2.5,5.1,4.2h30.8V97.8l12.3,3.3Zm62.7,161v1.1H438V242.7h1.1v22.7Z"/><path class="b" d="M495.2,102.2l-9,26h18Z"/><path class="c" d="M495.2,102.2v26h-9Z"/><path class="d" d="M486.7,92h17v17h-17Z"/><path class="b" d="M486.7,92h8.5v17h-8.5Z"/><path class="d" d="M540.5,185c0,6.2-2.5,11.2-5.7,11.2H489.5c-3.1,0-5.7-5-5.7-11.3s2.6-11.3,5.7-11.3h45.3c3.2,0,5.7,5,5.7,11.3Z"/><path class="b" d="M540.5,185c0,6.2-2.5,11.2-5.7,11.2H489.5c-3.1,0-5.7-5-5.7-11.3Z"/><path class="c" d="M491.2,197.4a1.1,1.1,0,0,1-1.1-1.1h0V173.6a1.1,1.1,0,0,1,2.2,0v22.7a1.1,1.1,0,0,1-1,1Zm42,0a1.1,1.1,0,0,1-1.2-1h0V173.6a1.2,1.2,0,0,1,1.2-1.2,1.2,1.2,0,0,1,1.1,1.2h0v22.7a1.1,1.1,0,0,1-1.1,1Z"/><path class="e" d="M494,194h3.5v6.8H494Zm33,0h3.3v6.8H527Z"/><path class="a" d="M492.8,200.8h5.7v1.1h-5.7Zm33,0h5.6v1.1h-5.6Z"/><path class="f" d="M500,182.7h1.2V195H500Z"/><path class="e" d="M591,263.7l-8.6,14.7h17Z"/><path class="b" d="M593.2,266V254H600v12Z"/><circle class="d" cx="590.9" cy="265.9" r="9.1"/><path class="b" d="M579,264h12v3.9H579Z"/><circle class="c" cx="590.9" cy="265.9" r="3.4"/><path class="a" d="M581.9,277.3H600v1.1H581.9Z"/><circle class="d" cx="546.2" cy="265.9" r="9.1"/><path class="b" d="M555.3,266a9.1,9.1,0,1,1-18.2,0Z"/><path class="e" d="M556.4,265.4v1.1h-3.2l-3.8,3.9-.8.8-.6-1-2.5-4.3h1.3l2,3.5,2.8-2.9,1.1-1.1Z"/><path class="g" d="M546.8,266h-1.3l-2-3.5-2.8,2.9-1,1.1H536v-1.1h3.1l3.9-3.9.8-.8,3,5.2Z"/><path class="e" d="M263.5,228,255,242.7h17Z"/><path class="b" d="M265.7,230.2V218.3h6.8v12Z"/><circle class="d" cx="263.4" cy="230.3" r="9.1"/><path class="b" d="M251.6,228.3h11.9v3.9h-12Z"/><circle class="c" cx="263.4" cy="230.3" r="3.4"/><path class="a" d="M254.4,241.6h18.1v1.1H254.4Z"/><path class="e" d="M106,364.5l-8.5,14.7h17Z"/><path class="b" d="M108.2,366.8v-12H115v12Z"/><circle class="d" cx="106" cy="366.8" r="9.1"/><path class="b" d="M94,364.8h12v4H94Z"/><circle class="c" cx="106" cy="366.8" r="3.4"/><path class="a" d="M96.9,378.1H115v1.2H97Z"/><path class="b" d="M189.2,102.2l-9,26h18.1Z"/><path class="c" d="M189.2,102.2v26h-9Z"/><path class="d" d="M180.7,92h17v17h-17Z"/><path class="b" d="M180.7,92h8.5v17h-8.5Z"/><path class="d" d="M234.6,185c0,6.2-2.6,11.2-5.7,11.2H183.6c-3.2,0-5.7-5-5.7-11.3s2.5-11.3,5.7-11.3h45.3c3.1,0,5.7,5,5.7,11.3Z"/><path class="b" d="M234.6,185c0,6.2-2.6,11.2-5.7,11.2H183.6c-3.2,0-5.7-5-5.7-11.3Z"/><path class="c" d="M185.3,197.4a1.1,1.1,0,0,1-1.2-1h0V173.6a1.2,1.2,0,0,1,1.2-1.2,1.2,1.2,0,0,1,1.1,1.2v22.7a1.1,1.1,0,0,1-1.1,1Zm41.9,0a1.1,1.1,0,0,1-1.1-1.1h0V173.6a1.1,1.1,0,0,1,2.2,0v22.7a1.1,1.1,0,0,1-1.1,1Z"/><path class="e" d="M188.1,194h3.4v6.8h-3.4Zm32.9,0h3.4v6.8H221Z"/><path class="a" d="M186.9,200.8h5.6v1.1H187Zm33,0h5.6v1.1h-5.7Z"/><path class="f" d="M194,182.7h1.2V195h-1.1Z"/><path class="h" d="M22.6,85.3H74.8V122H22.7Z"/><circle class="f" cx="48.7" cy="103.8" r="9.4"/><path class="i" d="M48.7,95.5a8.3,8.3,0,1,1-8.2,8.4h0A8.4,8.4,0,0,1,48.7,95.5Zm0-1.2a9.4,9.4,0,1,0,.1,0h-.1Z"/><path class="j" d="M48.7,98.5s-6.5,9.6,0,9.6Z"/><path class="k" d="M48.7,98.5v9.6C55.3,108.1,48.7,98.5,48.7,98.5Zm2,7c-.2,0-.5-.3-.5-.8s0-1,.3-1,.5.4.5.9S51,105.5,50.7,105.5Z"/><path class="l" d="M22.6,103.8H74.8V122H22.7Z"/><path class="c" d="M76.8,83.5a2,2,0,0,1,2,2V122a2,2,0,0,1-4,0V85.5A2,2,0,0,1,76.8,83.5Zm-56.1,0a2,2,0,0,1,2,2V122a2,2,0,0,1-4,0V85.5A2,2,0,0,1,20.7,83.5Z"/><path class="h" d="M78.9,122h-.2V85.3h.2c7,0,8.2,4.9,8.2,10.9v15C87.1,117.2,85.8,122,78.9,122Z"/><path class="l" d="M78.9,122h-.2V103.8h8.4v7.4C87.1,117.2,85.8,122,78.9,122Z"/><path class="h" d="M18.6,85.3h.1V122h-.1c-7,0-8.3-4.9-8.3-10.9v-15C10.3,90.1,11.6,85.3,18.6,85.3Z"/><path class="l" d="M18.6,122h.1V103.8H10.3v7.4C10.3,117.2,11.6,122,18.6,122Z"/><path class="c" d="M41.3,83.5H56.2v1.8h-15Z"/><rect class="h" x="38.8" y="80.7" width="19.9" height="2.9" rx="1.4"/><path class="j" d="M35.2,82.1a.6.6,0,0,0-.6.6v1.7H26V82.7a.8.8,0,0,0-.7-.7.8.8,0,0,0-.7.8v26.6a.7.7,0,0,0,1.4,0V108h8.5v1.3a.7.7,0,0,0,.9.4.8.8,0,0,0,.4-.4V82.7a.7.7,0,0,0-.7-.6Zm-.7,3V89H26V85ZM26.1,98.2v-4h8.4v4Zm8.4.7v4H26v-4ZM26,93.6v-4h8.5v4Zm0,13.9v-4h8.5v4Z"/><path class="m" d="M26.2,137.6H21l-3.3-6.3h12Zm50.5,0H71.4l-3.3-6.3H80Z"/><path class="j" d="M23.4,122H74v4.3H23.4Z"/><path class="g" d="M6.8,126.3H90.6v3H6.8Z"/><path class="j" d="M16,129.3H81.4v2H16Z"/><path class="n" d="M22.3,137.6a7.6,7.6,0,0,1-7.7,7.6,7.7,7.7,0,1,1,.1-15.3,7.6,7.6,0,0,1,7.6,7.6Z"/><path class="j" d="M14.6,143.5a6,6,0,1,1,5.9-6.1h0a6,6,0,0,1-6,6Zm0-11a5.1,5.1,0,1,0,5,5.2v-.2A5.2,5.2,0,0,0,14.6,132.5Z"/><path class="j" d="M16.7,137.6a2.2,2.2,0,1,1-2.2-2.2h.1A2.2,2.2,0,0,1,16.7,137.6Z"/><path class="n" d="M40.5,137.6a7.6,7.6,0,0,1-7.7,7.6,7.7,7.7,0,1,1,7.7-7.7Z"/><path class="j" d="M32.8,143.5a6,6,0,1,1,5.9-6.1h0a6,6,0,0,1-6,6Zm0-11a5.1,5.1,0,1,0,5,5.2v-.2A5.2,5.2,0,0,0,32.8,132.5Z"/><path class="j" d="M35,137.6a2.2,2.2,0,1,1-2.2-2.2h0a2.2,2.2,0,0,1,2.1,2.2Z"/><path class="n" d="M72.6,137.6a7.6,7.6,0,0,1-7.7,7.6,7.7,7.7,0,1,1,7.7-7.7Z"/><path class="j" d="M65,143.5a6,6,0,1,1,5.8-6.2h0a6,6,0,0,1-6,6Zm0-11a5.1,5.1,0,1,0,5,5.2v-.2A5.2,5.2,0,0,0,65,132.5Z"/><path class="j" d="M67,137.6a2.2,2.2,0,1,1-2.2-2.2h.1A2.2,2.2,0,0,1,67,137.6Z"/><path class="n" d="M90.8,137.6a7.6,7.6,0,0,1-7.7,7.6,7.7,7.7,0,1,1,7.7-7.7Z"/><path class="j" d="M83.1,143.5a6,6,0,1,1,6-6.1h0A6,6,0,0,1,83.1,143.5Zm0-11a5.1,5.1,0,1,0,5,5.2v-.2A5.2,5.2,0,0,0,83.1,132.5Z"/><path class="j" d="M85.3,137.6a2.2,2.2,0,1,1-2.2-2.2h0a2.2,2.2,0,0,1,2.1,2.2Z"/><path class="m" d="M90.6,126.7h2.6v2H90.6Z"/><path class="j" d="M0,124.2l4.2,2.5v2.2L0,131.3Zm97.4,0-4.2,2.5v2.2l4.2,2.4Z"/><path class="m" d="M4.2,126.7H6.8v2.1H4.2Z"/><path class="h" d="M5.9,307h62v73H6Z"/><path class="o" d="M12.1,337.5H28.5a1.6,1.6,0,0,1,1.6,1.6h0v23.4a1.6,1.6,0,0,1-1.5,1.7H12.1a1.6,1.6,0,0,1-1.6-1.6h0V339.1a1.6,1.6,0,0,1,1.6-1.6Z"/><path class="i" d="M0,314.2H73.8v2H0ZM0,308H73.8v1H0Zm69.7,1h.8v5.2h-.8Zm-11,0h.7v5.2h-.7Zm-11.1,0h.8v5.2h-.8Zm-11,0h.7v5.2h-.7Zm-11.1,0h.7v5.2h-.7Zm-11,0h.7v5.2h-.8ZM3.4,309H4v5.2H3.3Z"/><path class="l" d="M5.9,316.1h62v3.2H6Z"/><path class="j" d="M37.3,314.2h1.3v9.7H37.3Zm1.3,8h7.7v.4H38.5Zm0-3h7.7v.4H38.5Zm0-3h7.7v.4H38.5Zm7.7-2h1.3v9.7H46.3ZM36,323.9H64.3v1.4H36Zm0,11H64.3v1.5H36Zm0-3.2H64.3v.7H36ZM36,346H64.3v1.4H36Zm0,11H64.3v1.5H36Zm0,11.1H64.3v1.4H36Z"/><path class="j" d="M63.4,325.3H62l-9.4,9.6h1.3Zm-26.5,11h1.4l9.4,9.7H46.4Zm0,22.2h1.4l9.4,9.6H46.4Zm26.5-11H62l-9.4,9.6h1.3Zm0,22H62L51.7,380.1h1.4ZM3.3,380.1H70.6v3.1H3.3Zm60.2-47.7h.3v2.5h-.3Zm-3,0h.3v2.5h-.3Zm-3,0h.2v2.5h-.3Z"/><path class="j" d="M54.4,332.4h.3v2.5h-.3Zm-3,0h.3v2.5h-.3Zm-3,0h.3v2.5h-.3Zm-3,0h.3v2.5h-.3Zm-3,0h.3v2.5h-.3Zm-3,0h.3v2.5h-.3Zm-3,0h.3v2.5h-.3Zm-.5,10.3H64.2v.7H36Zm27.6.7h.3V346h-.3Zm-3,0h.3V346h-.3Zm-3,0h.2V346h-.3Zm-3,0h.2V346h-.3Zm-3,0h.2V346h-.3Zm-3,0h.2V346h-.3Zm-3.1,0h.3V346h-.3Zm-3,0h.3V346h-.3Zm-3,0h.3V346h-.3Zm-3,0h.3V346h-.3Zm-.5,10.4H64.2v.7H36Zm27.6.7h.3V357h-.3Zm-3,0h.3V357h-.3Zm-3,0h.2V357h-.3Zm-3,0h.2V357h-.3Zm-3,0h.2V357h-.3Zm-3,0h.2V357h-.3Zm-3.1,0h.3V357h-.3Zm-3,0h.3V357h-.3Zm-3,0h.3V357h-.3Zm-3,0h.3V357h-.3Zm-.5,10.3H64.2v.7H36Zm27.6.7h.3v2.6h-.3Zm-3,0h.3v2.6h-.3Zm-3,0h.2v2.6h-.3Zm-3,0h.2v2.6h-.3Zm-3,0h.2v2.6h-.3Zm-3,0h.2v2.6h-.3Zm-3.1,0h.3v2.6h-.3Zm-3,0h.3v2.6h-.3Zm-3,0h.3v2.6h-.3Zm-3,0h.3v2.6h-.3Zm-.5-44.9H64.2v.7H36Zm27.6.7h.3v2.6h-.3Zm-3,0h.3v2.6h-.3Zm-3,0h.2v2.6h-.3Zm-3,0h.2v2.6h-.3Zm-3,0h.2v2.6h-.3Zm-3,0h.2v2.6h-.3Zm-3.1,0h.3v2.6h-.3Zm-3,0h.3v2.6h-.3Zm-3,0h.3v2.6h-.3Zm-3,0h.3v2.6h-.3Z"/><path class="p" d="M24.7,302.8H51.1V307H24.7Z"/><path class="o" d="M1.7,318.5H5.9v11H1.7Zm66.2,42.8h4.3v11H67.9Z"/><circle class="f" cx="20.6" cy="354.9" r="6"/><path class="j" d="M20.6,351s-5,7.4,0,7.4Z"/><path class="k" d="M20.6,351v7.4C25.6,358.4,20.6,351,20.6,351Zm1.5,5.4c-.2,0-.4-.3-.4-.7s0-.7.2-.7.4.3.5.7A.5.5,0,0,1,22.1,356.4Z"/><path class="f" d="M14.9,342.6a2.4,2.4,0,0,1,2.1-2.7h.3c1.4,0,2.3,1,2.3,2.7s-1,2.7-2.3,2.7a2.5,2.5,0,0,1-2.4-2.6Zm3.5,0c0-1-.4-1.7-1.1-1.7s-1.2.6-1.2,1.7.5,1.7,1.2,1.7S18.4,343.6,18.4,342.6Zm2.2-2.6h1.2v5.2H20.6Zm2.4,0h1.2v4.2h2.1v1H23Z"/><path class="d" d="M438.5,243.3c-6.2,0-11.3-2.6-11.3-5.7v-51c0-3.1,5-5.7,11.3-5.7s11.4,2.6,11.4,5.7v51C449.9,240.7,444.8,243.3,438.5,243.3Z"/><path class="b" d="M438.5,243.3c-6.2,0-11.3-2.6-11.3-5.7v-51c0-3.1,5-5.7,11.3-5.7Z"/><path class="c" d="M426,188.3a1.1,1.1,0,0,1,1.1-1.1h22.8a1.1,1.1,0,0,1,1.1,1.1,1.1,1.1,0,0,1-1.1,1.2H427.2a1.1,1.1,0,0,1-1.1-1.1H426Zm0,47.6a1.1,1.1,0,0,1,1.1-1.1h22.8a1.1,1.1,0,1,1,0,2.2H427.2a1.1,1.1,0,0,1-1.1-1Z"/><path class="e" d="M444.2,240.4h3.4v6.8h-3.4Z"/><path class="a" d="M443.6,247.2h5.7v1.2h-5.7Z"/><path class="e" d="M432.9,247.3h-3.4v-6.9h3.4Z"/><path class="a" d="M433.4,248.4h-5.6v-1.2h5.6Z"/><path class="f" d="M428.3,200.2V224h20.4V200.2Zm11,12,8.3-10V222Zm7.7-10.8-8.5,9.9-8.4-10Zm-17.5.8,8.3,10-8.3,9.8Zm.6,20.7,8.4-10,8.5,10Z"/><path class="b" d="M111.6,289.2l5.7-11.4H106Z"/><path class="d" d="M111.6,289.2l5.7,11.3H106Z"/><path class="c" d="M111.6,277.8h5.7l-5.7,11.4Z"/><path class="b" d="M111.6,289.2l5.7,11.3h-5.7Z"/><path class="e" d="M388.1,228l-8.5,14.7h17Z"/><path class="b" d="M390.4,230.3v-12h6.8v12Z"/><circle class="d" cx="388.1" cy="230.3" r="9.1"/><path class="b" d="M376.2,228.3h11.9v3.9H376.2Z"/><circle class="c" cx="388.1" cy="230.3" r="3.4"/><path class="a" d="M379,241.6h18.2v1.1H379Z"/><path class="b" d="M313.9,102.2l-9,26h18Z"/><path class="c" d="M313.9,102.2v26h-9Z"/><path class="d" d="M305.4,92h17v17h-17Z"/><path class="b" d="M305.4,92h8.5v17h-8.5Z"/><path class="d" d="M359.2,185c0,6.2-2.5,11.2-5.7,11.2H308.2c-3.1,0-5.7-5-5.7-11.3s2.6-11.3,5.7-11.3h45.3c3.2,0,5.7,5,5.7,11.3Z"/><path class="b" d="M359.2,185c0,6.2-2.5,11.2-5.7,11.2H308.2c-3.1,0-5.7-5-5.7-11.3Z"/><path class="c" d="M310,197.4a1.1,1.1,0,0,1-1.2-1h0V173.6a1.1,1.1,0,0,1,2.2,0v22.7a1.1,1.1,0,0,1-1,1Zm41.8,0a1.1,1.1,0,0,1-1-1.1V173.6a1.1,1.1,0,0,1,2.2,0v22.7a1.1,1.1,0,0,1-1.1,1Z"/><path class="e" d="M312.8,194h3.3v6.8h-3.4Zm32.8,0H349v6.8h-3.4Z"/><path class="a" d="M311.5,200.8h5.7v1.1h-5.7Zm33,0h5.6v1.1h-5.6Z"/><path class="f" d="M318.7,182.7h1.2V195h-1.2Z"/><path class="q" d="M335,158l-2,.3a1.4,1.4,0,0,0-.5-1,1.1,1.1,0,0,0-.8-.3,1.4,1.4,0,0,0-1.2.6,5.8,5.8,0,0,0-.6,2.6,2.6,2.6,0,0,1,2-1,3.1,3.1,0,0,1,2.4,1,3.8,3.8,0,0,1,1,2.7,4.2,4.2,0,0,1-1,2.8,3.7,3.7,0,0,1-5.2,0H329l-.2-.2a6.9,6.9,0,0,1-1.1-4.4,6.5,6.5,0,0,1,1.1-4.5,3.7,3.7,0,0,1,3-1.4,3.4,3.4,0,0,1,2.2.7,3.5,3.5,0,0,1,1,2.1Zm-4.9,4.8a3,3,0,0,0,.5,1.6,1.4,1.4,0,0,0,1.1.6,1.2,1.2,0,0,0,1-.5,2.6,2.6,0,0,0,.4-1.5,2.5,2.5,0,0,0-.4-1.7,1.4,1.4,0,0,0-2-.1h-.1a2.1,2.1,0,0,0-.5,1.5Zm-127.7.7,2.2-.3a1.8,1.8,0,0,0,.5,1.2,1.6,1.6,0,0,0,2.2-.1,2.6,2.6,0,0,0,.5-1.7,2.7,2.7,0,0,0-.5-1.5,1.4,1.4,0,0,0-1.2-.6,2.2,2.2,0,0,0-1.7.9l-1.7-.3,1-6h5.8v2.1h-4l-.4,2a3.4,3.4,0,0,1,4,.7,3.8,3.8,0,0,1,1,2.7,3.8,3.8,0,0,1-.9,2.5,3.6,3.6,0,0,1-3,1.5,4.1,4.1,0,0,1-2.6-.9,3.2,3.2,0,0,1-1.2-2.2Zm276.7-35.2V126h-4.7v-2l5-7.1h1.8v7.2h1.4V126h-1.4v2.3Zm0-4.2v-4l-2.6,4Zm-186.4,1,2.2-.3a1.8,1.8,0,0,0,.5,1.2,1.5,1.5,0,0,0,2.1,0h.1a2.4,2.4,0,0,0,.5-1.4,2.1,2.1,0,0,0-.5-1.3,1.2,1.2,0,0,0-1-.5l-1,.2.2-1.8a2,2,0,0,0,1.3-.4,1.2,1.2,0,0,0,.5-1,1.2,1.2,0,0,0-1.1-1.3h-.1a1.7,1.7,0,0,0-1,.3,1.8,1.8,0,0,0-.5,1.2l-2-.4a4.6,4.6,0,0,1,.7-1.6,3.5,3.5,0,0,1,1.1-1,4.7,4.7,0,0,1,1.7-.3,3.2,3.2,0,0,1,2.6,1,2.7,2.7,0,0,1,.1,3.7,2.8,2.8,0,0,1-.9.6,2.4,2.4,0,0,1,1.5.9,2.8,2.8,0,0,1,.6,1.8,3.5,3.5,0,0,1-1,2.5,4,4,0,0,1-5.4.2,3.8,3.8,0,0,1-1.1-2.3Zm-117.7,1v2h-7.7a5.4,5.4,0,0,1,.8-2.1,15.5,15.5,0,0,1,2.4-2.7,10.7,10.7,0,0,0,1.8-1.9,2.1,2.1,0,0,0,.5-1.3,1.4,1.4,0,0,0-.4-1.2,1.8,1.8,0,0,0-2.2,0,2,2,0,0,0-.4,1.5l-2.2-.3a3.4,3.4,0,0,1,1.2-2.6,4.1,4.1,0,0,1,2.6-.7,3.9,3.9,0,0,1,2.6.9,3.2,3.2,0,0,1,1,2.2,4,4,0,0,1-.3,1.5,4.2,4.2,0,0,1-.9,1.4l-1.4,1.5-1.3,1.2-.4.6ZM27.5,75H25.4V66.8a7.5,7.5,0,0,1-2.9,1.6v-2a6.9,6.9,0,0,0,1.9-1,4.9,4.9,0,0,0,1.4-1.8h1.7Zm482,82.6v-2h7.4v1.6a9.7,9.7,0,0,0-1.9,2.6,14.2,14.2,0,0,0-1.4,3.6,12.7,12.7,0,0,0-.5,3.4H511a15.8,15.8,0,0,1,1-4.8,17,17,0,0,1,2.4-4.4Zm-256,51.5a2.4,2.4,0,0,1-1.7-2.3,2.8,2.8,0,0,1,1-2.1,4.2,4.2,0,0,1,5,0,2.5,2.5,0,0,1,.9,2,2.6,2.6,0,0,1-.4,1.5,2.9,2.9,0,0,1-1.2,1,2.7,2.7,0,0,1,1.9,2.7,3.2,3.2,0,0,1-1,2.6,3.5,3.5,0,0,1-2.6,1,4,4,0,0,1-2.6-.8,3.7,3.7,0,0,1-.8-4.4,2.9,2.9,0,0,1,1.5-1.2Zm.2,2.7a2.4,2.4,0,0,0,.5,1.4,1.5,1.5,0,0,0,2.2,0,2.4,2.4,0,0,0,.5-1.4,1.8,1.8,0,0,0-.5-1.2,1.6,1.6,0,0,0-1.1-.5,1.3,1.3,0,0,0-1.2.5A1.7,1.7,0,0,0,253.7,211.8Zm.2-4.9a1.3,1.3,0,0,0,.4,1,1.5,1.5,0,0,0,2,0,1.7,1.7,0,0,0,.3-1,1.2,1.2,0,0,0-1.1-1.3h-.2a1.4,1.4,0,0,0-1.4,1.4Zm122.3,5.7,2.1-.2a1.3,1.3,0,0,0,.4,1,1.4,1.4,0,0,0,.9.3,1.2,1.2,0,0,0,1.1-.7,5.4,5.4,0,0,0,.6-2.5,2.6,2.6,0,0,1-2,1,3,3,0,0,1-2.3-1.1,4.4,4.4,0,0,1,0-5.5,3.7,3.7,0,0,1,5.2,0h.1c0,.1.1.3.2.3a6.8,6.8,0,0,1,1,4.4,7,7,0,0,1-1,4.5,3.7,3.7,0,0,1-3,1.4,3.4,3.4,0,0,1-2.2-.7,3.9,3.9,0,0,1-1.1-2.2Zm5-4.7a2.3,2.3,0,0,0-.6-1.6,1.3,1.3,0,0,0-1-.6,1.3,1.3,0,0,0-1,.4,2.4,2.4,0,0,0-.5,1.6,3,3,0,0,0,.5,1.6,1.2,1.2,0,0,0,1,.5,1.6,1.6,0,0,0,1.1-.5,2.3,2.3,0,0,0,.4-1.4ZM577,249.3h-2.2V241a7.8,7.8,0,0,1-2.8,1.6v-2a5.2,5.2,0,0,0,1.8-1,4.9,4.9,0,0,0,1.4-1.8H577Zm6.9-11.4a2.9,2.9,0,0,1,2.6,1.1,10.2,10.2,0,0,1,0,9.3,3.2,3.2,0,0,1-2.6,1.2,3.4,3.4,0,0,1-2.7-1.3,10.3,10.3,0,0,1,.1-9.2,2.9,2.9,0,0,1,2.6-1.1Zm0,1.8a.8.8,0,0,0-.7.2,1.4,1.4,0,0,0-.5,1,16.9,16.9,0,0,0,0,5.5,1.9,1.9,0,0,0,.5,1,1.2,1.2,0,0,0,1.4,0,1.6,1.6,0,0,0,.5-.9,17.5,17.5,0,0,0,0-5.6,1.9,1.9,0,0,0-.5-1A.8.8,0,0,0,583.9,239.7Zm-40.2,9.8h-2.2v-8.3a8.1,8.1,0,0,1-2.8,1.7v-2a6.9,6.9,0,0,0,1.9-1,4.9,4.9,0,0,0,1.4-1.8h1.7Zm8,0h-2.2v-8.3a8.1,8.1,0,0,1-2.8,1.7v-2a5.2,5.2,0,0,0,1.8-1,4.9,4.9,0,0,0,1.4-1.8h1.8Zm-132.2-76h-2.2v-8.1a7.8,7.8,0,0,1-2.8,1.6v-2a5.2,5.2,0,0,0,1.8-1,4.9,4.9,0,0,0,1.4-1.8h1.8Zm10.6-2v2h-7.7a5,5,0,0,1,.8-2,16.1,16.1,0,0,1,2.4-2.8,10.7,10.7,0,0,0,1.8-1.9,2.1,2.1,0,0,0,.5-1.3,1.5,1.5,0,0,0-.4-1.1,1.8,1.8,0,0,0-2.2,0,2.3,2.3,0,0,0-.4,1.4l-2.2-.3a3.3,3.3,0,0,1,1.2-2.5,4,4,0,0,1,2.6-.8,3.9,3.9,0,0,1,2.6.9,3.2,3.2,0,0,1,1,2.2,4,4,0,0,1-.3,1.5,6,6,0,0,1-.9,1.5,9.3,9.3,0,0,1-1.4,1.4l-1.3,1.3-.5.6ZM90,351.4H87.8V343a7.8,7.8,0,0,1-2.8,1.6v-2a6.9,6.9,0,0,0,1.9-1,4.6,4.6,0,0,0,1.3-1.8H90Zm3.2-3,2-.3a1.6,1.6,0,0,0,.6,1.3,1.6,1.6,0,0,0,2.2-.1,2.4,2.4,0,0,0,.5-1.4,2,2,0,0,0-.4-1.3,1.6,1.6,0,0,0-1.1-.5l-1,.2.2-1.8a2.3,2.3,0,0,0,1.4-.4,1.3,1.3,0,0,0,.4-1,1.2,1.2,0,0,0-1.1-1.3h-.1a1.3,1.3,0,0,0-1,.4,1.6,1.6,0,0,0-.5,1.1l-2-.3a5.1,5.1,0,0,1,.7-1.7,3.5,3.5,0,0,1,1.1-1,4.7,4.7,0,0,1,1.7-.3,3.2,3.2,0,0,1,2.6,1,2.7,2.7,0,0,1,.1,3.7l-.9.6a2.5,2.5,0,0,1,1.5,1,2.7,2.7,0,0,1,.6,1.7,3.5,3.5,0,0,1-1,2.5,4,4,0,0,1-5.4.2,3.8,3.8,0,0,1-1.1-2.3Zm-59-52.3H32.1v-8.2a7.5,7.5,0,0,1-2.9,1.6v-2a6.9,6.9,0,0,0,1.9-1,4.9,4.9,0,0,0,1.4-1.8h1.7Zm7.6,0v-2.3H37.1v-2l5-7.1H44v7.2h1.4v1.9H44v2.3Zm0-4.2V288l-2.7,3.9ZM549.2,134V122.7h2.3V134Zm7.4,0-4-11.3H555l2.9,8.4,2.8-8.4h2.4l-4,11.3ZM128.3,258.6V247.2h2.3v11.4Zm4.5,0V247.2h2.3v11.4Zm4.4,0V247.2h2.3v11.4ZM130.6,305V293.7h2.3V305Zm4.4,0V293.7h2.3V305ZM117.4,42.1V30.8h2.3V42Z"/><path class="f" d="M60.4,99.1a2.4,2.4,0,0,1,2.1-2.7h.3c1.4,0,2.3,1,2.3,2.7s-1,2.7-2.3,2.7a2.5,2.5,0,0,1-2.4-2.6Zm3.5,0c0-1-.4-1.7-1.1-1.7s-1.2.6-1.2,1.7.5,1.7,1.2,1.7S63.9,100.1,63.9,99.1Zm2.2-2.6h1.2v5.2H66.1Zm2.4,0h1.2v4.2h2.1v1H68.5Z"/></svg>