<svg xmlns="http://www.w3.org/2000/svg" viewBox="0 0 480 366"><defs><style>.a{fill:#07617d}.b{fill:#d27332}.c{fill:#b05f1f}.d{fill:#f78536}.e{fill:#497285}.f{fill:#3d91a6}.g{fill:#fff}.h{fill:#20485e}.i{fill:#2b4450}</style></defs><path d="M201.5 217.9v126.4h-86.4v-2h84.3V217.9h2.1zM311.4 64.8h24.7v2.1h-24.7z" class="a"/><path d="M222.7 287.6v-4.9h154.5v-2.1H222.7v-5l-22.3 6 22.3 6zM.2 225.8l6-22.3 5.9 22.3H.2zM291.9 43.2h2.1V22.3h4.9l-6-22.3-5.9 22.3h4.9v20.9zM75 0h2.1v63H82l-5.9 22.3-6-22.3H75V0zM354.9 219.8v-5H243.6v-2h111.3v-5l22.3 6-22.3 6zM450.9 71.8v-5H480v-2h-29.1v-5l-22.3 6 22.3 6z" class="a"/><path d="M38.4 106.7v-4.9H7.2v220.9H5.1v-223h33.3v-5l22.2 6-22.2 6zM281.8 182.1l-22.3 6 22.3 6v-12zM169.3 337.3l-22.3 6 22.3 6v-12zM60.3 349.3v-5h18.8v-2H60.3v-5l-22.3 6 22.3 6zM250.1 133.4v-4.9h-19.9v52.4h-2v-54.5h21.9v-4.9l22.3 6-22.3 5.9z" class="a"/><path d="M291.9 152.1v35h-46.2v2H294v-37h-2.1zM161.6 156.6h4.9v-54.8h-42.1v-2.1h44.2v56.9h4.9l-6 22.2-5.9-22.2z" class="a"/><path d="m79.1 100.7 47.3 16.5V84.3l-47.3 16.4z" class="b"/><path d="M79.1 100.7h47.3v16.5l-47.3-16.5z" class="c"/><path d="M60.6 116.2V85.4h30.8v30.8z" class="d"/><path d="M60.6 116.1v-15.4h30.8v15.4z" class="b"/><path d="m16.4 339.2 15.5 26.7H1l15.4-26.7z" class="e"/><path d="M0 343.3v-21.6h12.3v21.6z" class="b"/><circle cx="16.4" cy="343.3" r="16.4" class="d"/><path d="M38 346.9H16.6v-7.1H38z" class="b"/><circle cx="16.4" cy="343.3" r="6.2" class="c"/><path d="M32.9 365.9h-33v-2.1h33z" class="a"/><circle cx="97.6" cy="343.3" r="16.4" class="d"/><path d="M81.2 343.3a16.4 16.4 0 0 0 32.9 0Z" class="b"/><path d="M79.1 342.3v2h5.8l6.9 7 1.5 1.6 1.1-1.9 4.4-7.7h-2.3l-3.6 6.2-5.1-5.2-2.1-2h-6.6z" class="e"/><path d="M96.5 343.3h2.3l3.6-6.2 5.1 5.2 2.1 2h6.5v-2h-5.7l-6.9-7-1.5-1.6-5.5 9.6z" class="f"/><path d="M249.8 199.4c0 11.3-4.6 20.6-10.3 20.6h-82.2c-5.7 0-10.3-9.3-10.3-20.6s4.6-20.6 10.3-20.6h82.2c5.7 0 10.3 9.3 10.3 20.6Z" class="d"/><path d="M249.8 199.4c0 11.3-4.6 20.6-10.3 20.6h-82.2c-5.7 0-10.3-9.3-10.3-20.6Z" class="b"/><path d="M160.3 222a2 2 0 0 1-2-2v-41.2a2 2 0 0 1 4.1 0V220a2 2 0 0 1-2 2ZM236.4 222a2 2 0 0 1-2-2v-41.2a2 2 0 1 1 4 0V220a2 2 0 0 1-2 2Z" class="c"/><path d="M165.5 215.8h6.2v12.3h-6.2zM225.1 215.8h6.2v12.3h-6.2z" class="e"/><path d="M163.3 228.2h10.3v2.1h-10.3zM223 228.2h10.3v2.1H223z" class="a"/><path d="M176.3 195.3h2.1v22.6h-2.1z" class="g"/><path d="M293 153.1c-11.4 0-20.6-4.6-20.6-10.2V50.4c0-5.7 9.2-10.3 20.5-10.3s20.6 4.6 20.6 10.3v92.5c0 5.6-9.2 10.2-20.6 10.2Z" class="d"/><path d="M293 153.1c-11.4 0-20.6-4.6-20.6-10.2V50.4c0-5.7 9.2-10.3 20.5-10.3Z" class="b"/><path d="M270.3 53.4a2 2 0 0 1 2-2h41.2a2 2 0 1 1 0 4.1h-41.1a2 2 0 0 1-2-2ZM270.3 139.8a2 2 0 0 1 2-2h41.2a2 2 0 0 1 0 4h-41.1a2 2 0 0 1-2-2Z" class="c"/><path d="M303.2 148h6.2v12.3h-6.2z" class="e"/><path d="M302.2 160.3h10.3v2.1h-10.3z" class="a"/><path d="M282.6 160.4h-6.2V148h6.2z" class="e"/><path d="M283.7 162.4h-10.3v-2h10.3z" class="a"/><path d="M274.4 75v43.2h37V75Zm19.8 21.6 15.2-18v36Zm14-19.5L293 95l-15.3-18Zm-31.7 1.6 15.2 18-15.2 17.9Zm1.1 37.4 15.3-18 15.3 18Z" class="g"/><path d="M334 61.7h8.2v8.2H334zM420.4 61.7h8.2v8.2h-8.2z" class="a"/><path d="M410.1 38.4v14.4h-9.6v-12a1 1 0 0 0-1-1h-16.8v-9.6h19.2a8.2 8.2 0 0 1 8.2 8.2Z" class="f"/><path d="M384 28.8V41h-13.6a2 2 0 0 0-2 2V46H356v-4.8a12.3 12.3 0 0 1 12.3-12.3Z" class="e"/><path d="M352.5 45.2h19.2v7.5h-19.2zM419.7 88.4h4.8v2.7h-4.8zM419.7 95.2h4.8v2.7h-4.8z" class="a"/><path d="M422.4 65.8c0 7.5-3 13.7-6.8 13.7H347c-3.8 0-6.9-6.2-6.9-13.7s3-13.7 6.9-13.7h68.5c3.8 0 6.8 6.1 6.8 13.7ZM421 93.2c0 5.3-2.9 9.6-6.6 9.6h-66.2c-3.6 0-6.6-4.3-6.6-9.6s3-9.6 6.6-9.6h66.2c3.7 0 6.7 4.3 6.7 9.6Z" class="d"/><path d="M422.4 65.8c0 7.5-3 13.7-6.8 13.7H347c-3.8 0-6.9-6.2-6.9-13.7ZM421 93.2c0 5.3-2.9 9.6-6.6 9.6h-66.2c-3.6 0-6.6-4.3-6.6-9.6Z" class="b"/><path d="M349.8 104.2a1.4 1.4 0 0 1-1.4-1.4V52a1.4 1.4 0 0 1 2.8 0v50.7a1.4 1.4 0 0 1-1.4 1.4ZM412.8 104.2a1.4 1.4 0 0 1-1.3-1.4V52a1.4 1.4 0 0 1 2.7 0v50.7a1.4 1.4 0 0 1-1.4 1.4Z" class="c"/><path d="M347.9 99.4h4.1v8.2h-4.1zM410.8 99.4h4.1v8.2h-4.1z" class="e"/><path d="M346.4 107.6h6.9v1.4h-6.9zM409.4 107.6h6.9v1.4h-6.9z" class="a"/><path d="M362.1 96a4.8 4.8 0 0 1-4.8-4.9V72a4.8 4.8 0 0 1 9.6 0v19.2a4.8 4.8 0 0 1-4.8 4.8Z" class="h"/><path d="M382 62.4h25.4v32.2H382z" class="e"/><path d="M397.8 68.5h3.4v3.4h-3.4zM397.8 75.4h3.4v3.4h-3.4zM397.8 82.2h3.4v3.4h-3.4z" class="h"/><path d="m388.9 119.8-3.8.4a2.8 2.8 0 0 0-.7-1.8 2.1 2.1 0 0 0-1.6-.5 2.6 2.6 0 0 0-2.1 1.1q-.9 1.1-1 4.7a4.6 4.6 0 0 1 3.6-1.8 5.6 5.6 0 0 1 4.2 2 6.8 6.8 0 0 1 1.8 4.8 7 7 0 0 1-1.9 5 6.8 6.8 0 0 1-9.9-.4q-2-2.5-2-8 0-5.7 2.1-8.2a6.8 6.8 0 0 1 5.5-2.5 5.8 5.8 0 0 1 3.8 1.4 6.2 6.2 0 0 1 2 3.8Zm-9 8.6a4.5 4.5 0 0 0 1 3 2.6 2.6 0 0 0 2 1 2.3 2.3 0 0 0 1.8-.9 4.3 4.3 0 0 0 .7-2.8 4.5 4.5 0 0 0-.8-3 2.5 2.5 0 0 0-3.9 0 3.9 3.9 0 0 0-.7 2.7ZM247 76.6l3.9-.4a3.4 3.4 0 0 0 1 2 2.7 2.7 0 0 0 1.9.9 2.7 2.7 0 0 0 2-1 4.6 4.6 0 0 0 1-3 4.1 4.1 0 0 0-1-3 2.8 2.8 0 0 0-2.1-.9 4 4 0 0 0-3 1.5l-3.3-.4 2-10.7H260v3.7h-7.5l-.6 3.5A6 6 0 0 1 259 70a6.9 6.9 0 0 1 1.8 5 7.4 7.4 0 0 1-1.5 4.5 6.5 6.5 0 0 1-5.6 2.7 7 7 0 0 1-4.6-1.5 6.3 6.3 0 0 1-2.2-4.1ZM31.5 316.6v-4.2H23V309l9-13.1h3.3v13h2.5v3.5h-2.5v4.2Zm0-7.6v-7l-4.8 7ZM90.2 310.8l3.8-.5a3.6 3.6 0 0 0 1 2.2 2.8 2.8 0 0 0 4-.1 3.6 3.6 0 0 0 .9-2.5 3.4 3.4 0 0 0-.8-2.4 2.6 2.6 0 0 0-2-.9 6.9 6.9 0 0 0-1.8.3l.4-3.2a3.5 3.5 0 0 0 2.5-.7 2.5 2.5 0 0 0 .8-2 2.1 2.1 0 0 0-2.2-2.2 2.4 2.4 0 0 0-1.8.7 3.3 3.3 0 0 0-.8 2l-3.7-.6a8.1 8.1 0 0 1 1.2-3 5.2 5.2 0 0 1 2-1.7 7.2 7.2 0 0 1 3.2-.7 6.1 6.1 0 0 1 4.6 1.9 4.8 4.8 0 0 1 1.5 3.4q0 2.7-3 4.3a4.8 4.8 0 0 1 2.8 1.7 5 5 0 0 1 1.1 3.2 6.2 6.2 0 0 1-2 4.7 7.4 7.4 0 0 1-9.5.3 6.3 6.3 0 0 1-2.2-4.2ZM207.3 162.8v3.7h-13.9a9.5 9.5 0 0 1 1.4-4 26.3 26.3 0 0 1 4.4-4.9 28 28 0 0 0 3.3-3.3 4.3 4.3 0 0 0 .8-2.5 2.8 2.8 0 0 0-.7-2 3 3 0 0 0-4 0 3.8 3.8 0 0 0-.8 2.5l-3.9-.4a6.4 6.4 0 0 1 2.2-4.7 7.4 7.4 0 0 1 4.6-1.4 6.7 6.7 0 0 1 4.8 1.7 5.4 5.4 0 0 1 1.8 4 7.1 7.1 0 0 1-.5 2.7 10.8 10.8 0 0 1-1.6 2.6 25.3 25.3 0 0 1-2.6 2.7l-2.4 2.2a6.9 6.9 0 0 0-.8 1.1ZM110.6 74h-4V59.1a13.6 13.6 0 0 1-5 3v-3.6a11.5 11.5 0 0 0 3.3-1.9 7.3 7.3 0 0 0 2.5-3.3h3.2ZM338.8 269.3l-7.3-20.6h4.5l5.2 15.2 5-15.2h4.4l-7.3 20.6ZM325.4 201.5v-20.6h4.2v20.6ZM338.8 201.5l-7.3-20.6h4.5l5.2 15.2 5-15.2h4.4l-7.3 20.6ZM458.6 55.5V34.9h4.2v20.6ZM466.6 55.5V34.9h4.2v20.6ZM474.6 55.5V34.9h4.2v20.6ZM259 22.6V2h4.2v20.6ZM267 22.6V2h4.2v20.6ZM93.5 22.6V2h4.2v20.6Z" class="i"/></svg>