<svg xmlns="http://www.w3.org/2000/svg" viewBox="0 0 600 415" width="600" height="415"><defs><style>.a{fill:#07617d}.b{fill:#d27332}.c{fill:#b05f1f}.d{fill:#f78536}.e{fill:#497285}.f{fill:#3d91a6}.g{fill:#fff}.h{fill:#20485e}</style></defs><path d="M259.39 247.14V390.5h-98v-2.27h95.62V247.14ZM384.04 73.5h28.01v2.38h-28.01Z" class="a"/><path d="M283.44 326.2v-5.56h175.23v-2.39H283.44v-5.67l-25.3 6.8ZM31.08 256.1l6.8-25.3 6.7 25.3ZM361.92 49h2.38V25.3h5.56L363.06 0l-6.7 25.3h5.56Zm-246-49h2.38v71.45h5.55l-6.69 25.3-6.8-25.3h5.56Zm317.46 249.3v-5.68H307.14v-2.26h126.24v-5.68l25.29 6.81-25.3 6.8ZM542.26 81.42v-5.67h33V73.5h-33v-5.68l-25.3 6.81Z" class="a"/><path d="M74.4 121.02v-5.56H39.02V366h-2.38V113.08H74.4v-5.67l25.18 6.8-25.18 6.8Zm276.07 85.52-25.3 6.8 25.3 6.8Zm-127.6 176.02-25.3 6.8 25.3 6.81ZM99.24 396.17v-5.67h21.33v-2.27H99.24v-5.67l-25.29 6.8ZM314.51 151.3v-5.56h-22.57v59.43h-2.27v-61.8h24.84v-5.57l25.3 6.8-25.3 6.7Z" class="a"/><path d="M361.92 172.51v39.7h-52.4v2.27h54.78V172.5Zm-147.78 5.1h5.55v-62.15h-47.75v-2.38h50.14v64.53h5.55l-6.8 25.18Z" class="a"/><path d="m120.57 114.21 53.64 18.72V95.6Z" class="b"/><path d="M120.57 114.21h53.64v18.72Z" class="c"/><path d="M99.58 131.8V96.85h34.94v34.93Z" class="d"/><path d="M99.58 131.68V114.2h34.94v17.47Z" class="b"/><path d="M49.45 384.72 67.03 415H32Z" class="e"/><path d="M30.85 389.37v-24.5H44.8v24.5Z" class="b"/><circle cx="49.45" cy="389.37" r="18.6" class="d"/><path d="M73.95 393.45H49.68v-8.05h24.27Z" class="b"/><circle cx="49.45" cy="389.37" r="7.03" class="c" transform="rotate(-89 49.45 389.37)"/><path d="M68.17 415H30.74v-2.38h37.43Z" class="a"/><circle cx="141.55" cy="389.37" r="18.6" class="d"/><path d="M122.95 389.37a18.66 18.66 0 1 0 37.31 0Z" class="b"/><path d="M120.57 388.23v2.27h6.57l7.83 7.94 1.7 1.82 1.25-2.16 4.99-8.73h-2.61l-4.08 7.03-5.79-5.9-2.38-2.27Z" class="e"/><path d="M140.3 389.37h2.6l4.1-7.03 5.78 5.9 2.38 2.26h7.37v-2.27h-6.46l-7.83-7.94-1.7-1.81Z" class="f"/><path d="M314.17 226.16c0 12.81-5.22 23.36-11.68 23.36h-93.23c-6.47 0-11.68-10.55-11.68-23.36s5.21-23.37 11.68-23.37h93.23c6.46 0 11.68 10.55 11.68 23.37Z" class="d"/><path d="M314.17 226.16c0 12.81-5.22 23.36-11.68 23.36h-93.23c-6.47 0-11.68-10.55-11.68-23.36Z" class="b"/><path d="M212.66 251.79a2.27 2.27 0 0 1-2.27-2.27V202.8a2.33 2.33 0 1 1 4.65 0v46.73a2.27 2.27 0 0 1-2.27 2.27Zm86.31 0a2.27 2.27 0 0 1-2.26-2.27V202.8a2.27 2.27 0 0 1 4.53 0v46.73a2.27 2.27 0 0 1-2.27 2.27Z" class="c"/><path d="M218.56 244.76h7.03v13.95h-7.03Zm67.6 0h7.03v13.95h-7.03Z" class="e"/><path d="M216.06 258.82h11.69v2.38h-11.69Zm67.72 0h11.68v2.38h-11.68Z" class="a"/><path d="M230.8 221.5h2.4v25.64h-2.4Z" class="g"/><path d="M363.17 173.64c-12.93 0-23.37-5.21-23.37-11.56V57.16c0-6.46 10.44-11.68 23.26-11.68s23.36 5.22 23.36 11.68v104.92c0 6.35-10.43 11.56-23.36 11.56Z" class="d"/><path d="M363.17 173.64c-12.93 0-23.37-5.21-23.37-11.56V57.16c0-6.46 10.44-11.68 23.26-11.68Z" class="b"/><path d="M337.42 60.57a2.27 2.27 0 0 1 2.27-2.27h46.73a2.33 2.33 0 1 1 0 4.65H339.8a2.27 2.27 0 0 1-2.26-2.27Zm0 97.99a2.27 2.27 0 0 1 2.27-2.27h46.73a2.27 2.27 0 0 1 0 4.54H339.8a2.27 2.27 0 0 1-2.26-2.27Z" class="c"/><path d="M374.74 167.86h7.03v13.95h-7.03Z" class="e"/><path d="M373.6 181.81h11.69v2.38H373.6Z" class="a"/><path d="M351.37 181.92h-7.03v-14.06h7.03Z" class="e"/><path d="M352.62 184.2h-11.68v-2.28h11.68Z" class="a"/><path d="M342.07 85.06v49h41.97v-49Zm22.46 24.5 17.24-20.41v40.83Zm15.88-22.11-17.24 20.3-17.35-20.42Zm-35.96 1.81 17.24 20.42-17.24 20.3Zm1.25 42.42 17.36-20.42 17.35 20.42Z" class="g"/><path d="M409.67 69.98h9.3v9.3h-9.3Zm98 0h9.3v9.3h-9.3Z" class="a"/><path d="M495.98 43.55V59.9H485.1V46.28a1.13 1.13 0 0 0-1.13-1.14h-19.05V34.25h21.77a9.3 9.3 0 0 1 9.3 9.3Z" class="f"/><path d="M466.38 32.66V46.5h-15.43a2.27 2.27 0 0 0-2.26 2.27v3.4h-14.07v-5.44a13.95 13.95 0 0 1 13.95-13.95Z" class="e"/><path d="M430.65 51.27h21.78v8.5h-21.78Zm76.22 49h5.44v3.05h-5.44Zm0 7.7h5.44v3.07h-5.44Z" class="a"/><path d="M509.93 74.63c0 8.5-3.4 15.54-7.71 15.54h-77.8c-4.31 0-7.83-7.03-7.83-15.54s3.4-15.54 7.83-15.54h77.69c4.3 0 7.71 6.92 7.71 15.54Zm-1.58 31.08c0 6-3.3 10.88-7.5 10.88h-75.07c-4.09 0-7.49-4.87-7.49-10.88s3.4-10.9 7.49-10.9h75.08c4.2 0 7.6 4.89 7.6 10.9Z" class="d"/><path d="M509.93 74.63c0 8.5-3.4 15.54-7.71 15.54h-77.8c-4.31 0-7.83-7.03-7.83-15.54Zm-1.58 31.08c0 6-3.3 10.88-7.5 10.88h-75.07c-4.09 0-7.49-4.87-7.49-10.88Z" class="b"/><path d="M427.6 118.18a1.59 1.59 0 0 1-1.6-1.59V58.98a1.59 1.59 0 0 1 3.18 0v57.5a1.59 1.59 0 0 1-1.59 1.59Zm71.44 0a1.59 1.59 0 0 1-1.47-1.59V58.98a1.59 1.59 0 0 1 3.06 0v57.5a1.59 1.59 0 0 1-1.59 1.59Z" class="c"/><path d="M425.44 112.74h4.65v9.3h-4.65Zm71.34 0h4.65v9.3h-4.65Z" class="e"/><path d="M423.73 122.04h7.83v1.59h-7.83Zm71.46 0H503v1.59h-7.82Z" class="a"/><path d="M441.54 108.88a5.44 5.44 0 0 1-5.44-5.44V81.66a5.44 5.44 0 1 1 10.89 0v21.78a5.44 5.44 0 0 1-5.45 5.44Z" class="h"/><path d="M464.11 70.77h28.81v36.52h-28.8Z" class="e"/><path d="M482.03 77.7h3.86v3.85h-3.86Zm0 7.82h3.86v3.85h-3.86Zm0 7.71h3.86v3.86h-3.86Z" class="h"/><path fill="#2b4450" d="m471.94 135.88-4.31.45a3.18 3.18 0 0 0-.8-2.04 2.38 2.38 0 0 0-1.81-.57 2.95 2.95 0 0 0-2.38 1.25q-1.02 1.25-1.14 5.33a5.22 5.22 0 0 1 4.09-2.04 6.35 6.35 0 0 1 4.76 2.27 7.71 7.71 0 0 1 2.04 5.44 7.94 7.94 0 0 1-2.15 5.67 7.71 7.71 0 0 1-10.91-.1q-.17-.17-.32-.35-2.27-2.84-2.27-9.08 0-6.46 2.38-9.3a7.71 7.71 0 0 1 6.24-2.83 6.58 6.58 0 0 1 4.3 1.59 7.03 7.03 0 0 1 2.28 4.3Zm-10.21 9.75a5.1 5.1 0 0 0 1.13 3.4 2.95 2.95 0 0 0 2.27 1.14 2.6 2.6 0 0 0 2.04-1.02 4.88 4.88 0 0 0 .8-3.18 5.1 5.1 0 0 0-.9-3.4 2.84 2.84 0 0 0-4.43 0 4.42 4.42 0 0 0-.8 3.06ZM311 86.88l4.42-.45a3.86 3.86 0 0 0 1.13 2.26 2.81 2.81 0 0 0 4.43-.11 5.22 5.22 0 0 0 1.13-3.4 4.65 4.65 0 0 0-1.13-3.4 3.18 3.18 0 0 0-2.38-1.03 4.54 4.54 0 0 0-3.4 1.7l-3.75-.45 2.27-12.13h12.02v4.2h-8.5l-.69 3.96a6.8 6.8 0 0 1 8.06 1.36 7.83 7.83 0 0 1 2.04 5.67 8.4 8.4 0 0 1-1.7 5.1 7.37 7.37 0 0 1-6.35 3.07 7.94 7.94 0 0 1-5.22-1.7 7.15 7.15 0 0 1-2.5-4.65ZM66.58 359.08v-4.76h-9.64v-3.86l10.2-14.85h3.75v14.74h2.83v3.97H70.9v4.76Zm0-8.62v-7.93l-5.45 7.93Zm66.58 2.05 4.3-.57a4.08 4.08 0 0 0 1.14 2.5 3.18 3.18 0 0 0 4.49-.07l.05-.05a4.08 4.08 0 0 0 1.02-2.83 3.86 3.86 0 0 0-.91-2.73 2.95 2.95 0 0 0-2.27-1.02 7.83 7.83 0 0 0-2.04.34l.45-3.63a3.97 3.97 0 0 0 2.84-.8 2.84 2.84 0 0 0 .9-2.26 2.38 2.38 0 0 0-2.26-2.5h-.23a2.72 2.72 0 0 0-2.04.8 3.74 3.74 0 0 0-.9 2.27l-4.2-.68a9.19 9.19 0 0 1 1.36-3.4 5.9 5.9 0 0 1 2.26-1.93 8.16 8.16 0 0 1 3.63-.8 6.92 6.92 0 0 1 5.22 2.16 5.44 5.44 0 0 1 1.7 3.85q0 3.07-3.4 4.88a5.44 5.44 0 0 1 3.18 1.93 5.67 5.67 0 0 1 1.24 3.63 7.03 7.03 0 0 1-2.26 5.33 8.4 8.4 0 0 1-10.78.34 7.15 7.15 0 0 1-2.5-4.76Zm132.8-167.86v4.2H250.2a10.77 10.77 0 0 1 1.6-4.54 29.83 29.83 0 0 1 4.98-5.56 31.77 31.77 0 0 0 3.74-3.74 4.88 4.88 0 0 0 .91-2.84 3.18 3.18 0 0 0-.8-2.27 3.4 3.4 0 0 0-4.53 0 4.31 4.31 0 0 0-.9 2.84l-4.43-.46a7.26 7.26 0 0 1 2.5-5.33 8.4 8.4 0 0 1 5.21-1.59 7.6 7.6 0 0 1 5.45 1.93 6.12 6.12 0 0 1 2.04 4.54 8.05 8.05 0 0 1-.57 3.06 12.25 12.25 0 0 1-1.81 2.95 28.7 28.7 0 0 1-2.95 3.06l-2.72 2.5a7.82 7.82 0 0 0-.91 1.25ZM156.3 83.93h-4.53v-16.9a15.42 15.42 0 0 1-5.68 3.4v-4.08a13.04 13.04 0 0 0 3.75-2.15 8.28 8.28 0 0 0 2.83-3.75h3.63Zm258.82 221.5-8.27-23.36h5.1l5.9 17.24 5.67-17.24h4.99l-8.28 23.37Zm-15.2-76.9v-23.36h4.77v23.37Zm15.2 0-8.27-23.36h5.1l5.9 17.24 5.67-17.24h4.99l-8.28 23.37ZM551 62.96V39.58h4.76v23.37Zm9.07 0V39.58h4.77v23.37Zm9.08 0V39.58h4.76v23.37ZM324.6 25.63V2.27h4.76v23.36Zm9.07 0V2.27h4.76v23.36Zm-196.78 0V2.27h4.76v23.36Z"/></svg>