<svg xmlns="http://www.w3.org/2000/svg" viewBox="0 0 480 282"><defs><style>.a{fill:#07617d}.b{fill:#d27332}.c{fill:#b05f1f}.d{fill:#f78536}.e{fill:#497285}.f{fill:#fff}.g{fill:#3d91a6}.h{fill:#ff892e}.i{fill:#306b8c}.j{fill:#1a1d2e}.k{fill:#1f5887}.l{opacity:.15}.m{fill:#0a0b12}.n{fill:#20485e}.o{fill:#cf4e1f}.q{fill:#2b4450}</style></defs><path d="M395.69 77.07h.91v38.07h-.91zM455.22 90.59v-2.18H423.8v26.74h-.91V87.5h32.33v-2.19l9.82 2.64-9.82 2.64zM351.28 14.52v106.07h-.91V15.43H126.01v30.06h2.18l-2.64 9.83-2.64-9.83h2.19V14.52h226.18z" class="a"/><path d="M215.75 29.93V150.5h-.91V30.84h-63v8.31h2.19l-2.64 9.82-2.64-9.82h2.19v-9.22h64.81zM155.1 154.27l2.63 9.83 2.64-9.83h-5.27zM474.65 111.67l2.63-9.83 2.63 9.83h-5.26zM393.51 91.72l2.64 9.83 2.63-9.83h-5.27zM453.4 190.76v-2.18h-8.3v-.91h8.3v-2.19l9.83 2.64-9.83 2.64zM411.11 131.46v28.56h-41.4v2.18l-9.82-2.63 9.82-2.64v2.18h40.49v-27.65h.91zM65.41 271.44v-2.18h-8.3v-.91h8.3v-2.19l9.83 2.64-9.83 2.64zM150.93 77.07h.91v38.07h-.91z" class="a"/><path d="m175.95 85.99 2.63-9.82 2.64 9.82h-5.27zM86.66 112.43l2.63-9.83 2.64 9.83h-5.27zM86.66 247.5l2.63-9.83 2.64 9.83h-5.27zM148.75 91.72l2.64 9.83 2.63-9.83h-5.27zM104.79 30.99l2.63 9.82 2.64-9.82h-5.27z" class="a"/><path d="M234.48 58.86v-2.18h-16.05a2.85 2.85 0 0 0 0-.91 3.17 3.17 0 0 0-6.27 0 2.85 2.85 0 0 0 0 .9h-33.12v58.48h-.91V55.77h33.12a4.08 4.08 0 0 1 8.1 0h15.13v-2.18l9.83 2.63ZM291.14 162.2v-2.18h-7.85v65.72H89.75v34.45h-.91v-45.33h.91v9.98h92.91v-64.82h-9.06v-28.56h.9v27.65h16.92v-2.18l9.83 2.64-9.83 2.63v-2.18h-7.85v64.82h98.81v-64.82h-9.07v-28.56h.91v27.65h16.92v-2.18l9.82 2.64-9.82 2.63zM134.76 58.41v-2.19h-27.79V15.43H34.45v25.38h-.91V14.52h74.34v40.8h26.88v-2.19l9.83 2.64-9.83 2.64z" class="a"/><path d="M257.9 131.46v57.11h-71.65a2.85 2.85 0 0 0 0-.9 3.17 3.17 0 0 0-6.27 0 2.85 2.85 0 0 0 0 .9H89.75v9.98h-.91V30.85H44.9l-.03 9.96h-.9V29.93h45.78v157.74h67.53v-56.2h.9v56.2h20.88a4.08 4.08 0 0 1 8.1 0H257v-56.2ZM231.16 227.92l9.83-2.63-9.83-2.63v5.26zM132.35 227.92l9.83-2.63-9.83-2.63v5.26z" class="a"/><path d="m235.41 190.76-9.83-2.64 9.83-2.63v5.27zM130.25 190.76l-9.83-2.64 9.83-2.63v5.27zM72.52 17.61l9.83-2.63-9.83-2.64v5.27zM75.86 33.02l-9.83-2.63 9.83-2.64v5.27zM315.47 29.93V150.5h-.91V30.84h-63v8.31h2.18l-2.63 9.82-2.64-9.82h2.18v-9.22h64.82zM477.73 29.93v149.58h-.9V30.84H396.6v8.31h2.19l-2.64 9.82-2.64-9.82h2.18v-9.22h82.04zM254.82 154.27l2.63 9.83 2.63-9.83h-5.26zM250.65 77.07h.91v38.07h-.91z" class="a"/><path d="m275.67 85.99 2.63-9.82 2.63 9.82h-5.26zM248.47 91.72l2.64 9.83 2.63-9.83h-5.27z" class="a"/><path d="M379.52 58.86v-2.18h-25.56a2.86 2.86 0 0 0 0-.91 3.17 3.17 0 0 0-6.27 0 2.85 2.85 0 0 0 0 .9h-29.54a2.85 2.85 0 0 0 0-.9 3.17 3.17 0 0 0-6.27 0 2.86 2.86 0 0 0 0 .9h-33.13v58.48h-.9V55.77h33.11a4.08 4.08 0 0 1 8.1 0h27.7a4.08 4.08 0 0 1 8.11 0h24.65v-2.18l9.83 2.63ZM429.69 187.67v.91h-79.32v-19.04h.91v18.13h78.41z" class="a"/><path d="m396.15 57.13-7.25 20.85h14.5l-7.25-20.85z" class="b"/><path d="M396.15 57.13v20.85h-7.25l7.25-20.85z" class="c"/><path d="M389.35 48.97h13.6v13.6h-13.6z" class="d"/><path d="M389.35 48.97h6.8v13.6h-6.8z" class="b"/><path d="M432.4 123.3c0 5.01-2.02 9.07-4.52 9.07H391.6c-2.5 0-4.53-4.06-4.53-9.06s2.03-9.07 4.53-9.07h36.27c2.5 0 4.53 4.06 4.53 9.07Z" class="d"/><path d="M432.4 123.3c0 5.01-2.02 9.07-4.52 9.07H391.6c-2.5 0-4.53-4.06-4.53-9.06Z" class="b"/><path d="M392.97 133.28a.9.9 0 0 1-.9-.9v-18.14a.9.9 0 1 1 1.81 0v18.13a.9.9 0 0 1-.9.9ZM426.52 133.28a.9.9 0 0 1-.91-.9v-18.14a.9.9 0 1 1 1.81 0v18.13a.9.9 0 0 1-.9.9Z" class="c"/><path d="M395.24 130.56h2.72V136h-2.72zM421.53 130.56h2.72V136h-2.72z" class="e"/><path d="M394.26 136h4.53v.91h-4.53zM420.62 136h4.53v.91h-4.53z" class="a"/><path d="M400.03 121.49h.91v9.97h-.91z" class="f"/><path d="m472.75 186.31-6.8 11.78h13.6l-6.8-11.78z" class="e"/><path d="M474.56 188.12v-9.52H480v9.52z" class="b"/><circle cx="472.75" cy="188.12" r="7.25" class="d"/><path d="M463.23 186.55h9.52v3.13h-9.52z" class="b"/><circle cx="472.75" cy="188.12" r="2.72" class="c"/><path d="M465.5 197.19H480v.91h-14.5z" class="a"/><circle cx="436.94" cy="188.12" r="7.25" class="d"/><path d="M444.2 188.12a7.25 7.25 0 1 1-14.51 0Z" class="b"/><path d="M445.1 187.67v.91h-2.53l-3.05 3.09-.67.67-.46-.81-1.97-3.41h1.05l1.58 2.74 2.25-2.28.89-.91h2.91z" class="e"/><path d="M437.47 188.12h-1.05l-1.59-2.74-2.25 2.29-.89.91h-2.91v-.91h2.53l3.06-3.1.66-.67 2.44 4.22z" class="g"/><path d="m210.77 157.75-6.8 11.79h13.59l-6.79-11.79z" class="e"/><path d="M212.58 159.56v-9.52h5.44v9.52z" class="b"/><circle cx="210.76" cy="159.57" r="7.25" class="d"/><path d="M201.25 158h9.52v3.13h-9.52z" class="b"/><circle cx="210.76" cy="159.57" r="2.72" class="c"/><path d="M203.51 168.63h14.5v.91h-14.5z" class="a"/><path d="m84.76 266.99-6.8 11.78h13.6l-6.8-11.78z" class="e"/><path d="M86.57 268.8v-9.52h5.44v9.52z" class="b"/><circle cx="84.76" cy="268.8" r="7.25" class="d"/><path d="M75.24 267.23h9.52v3.13h-9.52z" class="b"/><circle cx="84.76" cy="268.8" r="2.72" class="c"/><path d="M77.51 277.87h14.5v.91h-14.5z" class="a"/><path d="m151.39 57.13-7.25 20.85h14.5l-7.25-20.85z" class="b"/><path d="M151.39 57.13v20.85h-7.25l7.25-20.85z" class="c"/><path d="M144.59 48.97h13.6v13.6h-13.6z" class="d"/><path d="M144.59 48.97h6.8v13.6h-6.8z" class="b"/><path d="M187.65 123.3c0 5.01-2.03 9.07-4.53 9.07h-36.26c-2.5 0-4.54-4.06-4.54-9.06s2.03-9.07 4.54-9.07h36.26c2.5 0 4.53 4.06 4.53 9.07Z" class="d"/><path d="M187.65 123.3c0 5.01-2.03 9.07-4.53 9.07h-36.26c-2.5 0-4.54-4.06-4.54-9.06Z" class="b"/><path d="M148.22 133.28a.9.9 0 0 1-.91-.9v-18.14a.9.9 0 1 1 1.81 0v18.13a.9.9 0 0 1-.9.9ZM181.76 133.28a.9.9 0 0 1-.91-.9v-18.14a.9.9 0 1 1 1.81 0v18.13a.9.9 0 0 1-.9.9Z" class="c"/><path d="M150.48 130.56h2.72V136h-2.72zM176.77 130.56h2.72V136h-2.72z" class="e"/><path d="M149.5 136h4.53v.91h-4.53zM175.86 136h4.53v.91h-4.53z" class="a"/><path d="M155.27 121.49h.91v9.97h-.91z" class="f"/><path d="M18.12 43.62h41.71v29.33H18.12z" class="h"/><path d="M48.28 54.63a1.93 1.93 0 1 1 3.83 0 1.93 1.93 0 1 1-3.83 0Zm2.85 0c0-.84-.36-1.35-.94-1.35s-.94.5-.94 1.35c0 .84.37 1.38.94 1.38s.94-.54.94-1.38ZM52.9 52.54h.95v4.21h-.95ZM54.85 52.54h.95v3.41h1.67v.8h-2.62ZM46.5 58.38a7.53 7.53 0 1 1-7.52-7.53 7.53 7.53 0 0 1 7.52 7.53Z" class="f"/><path d="M38.98 51.78a6.6 6.6 0 1 1-6.6 6.6 6.6 6.6 0 0 1 6.6-6.6Zm0-.93a7.53 7.53 0 1 0 7.52 7.53 7.53 7.53 0 0 0-7.52-7.53Z" class="i"/><path d="M38.97 54.13s-5.24 7.75 0 7.75Z" class="j"/><path d="M38.97 54.13v7.75c5.25 0 0-7.75 0-7.75Zm1.61 5.64c-.19.02-.38-.28-.43-.67s.06-.72.25-.75.37.28.42.67-.05.72-.24.75Z" class="k"/><path d="M18.12 58.38h41.71v14.58H18.12z" class="l"/><path d="M61.4 42.2h.03a1.57 1.57 0 0 1 1.56 1.57v29.22a1.57 1.57 0 0 1-1.56 1.56h-.03A1.57 1.57 0 0 1 59.83 73V43.77a1.57 1.57 0 0 1 1.57-1.57ZM16.53 42.2h.03a1.57 1.57 0 0 1 1.56 1.57v29.22a1.57 1.57 0 0 1-1.56 1.56h-.03A1.56 1.56 0 0 1 14.96 73V43.77a1.57 1.57 0 0 1 1.57-1.57Z" class="c"/><path d="M63.1 72.95H63V43.62h.1c5.56 0 6.6 3.88 6.6 8.67v12c0 4.78-1.04 8.66-6.6 8.66Z" class="h"/><path d="M63.1 72.95H63V58.38h6.7v5.91c0 4.78-1.04 8.66-6.6 8.66Z" class="l"/><path d="M14.86 43.62h.1v29.33h-.1c-5.56 0-6.6-3.88-6.6-8.66v-12c0-4.79 1.04-8.67 6.6-8.67Z" class="h"/><path d="M14.86 72.95h.1V58.38h-6.7v5.91c0 4.78 1.04 8.66 6.6 8.66Z" class="l"/><path d="M33 42.2h11.96v1.42H33z" class="c"/><rect width="15.89" height="2.29" x="31.04" y="39.91" class="h" rx="1.13"/><path d="M28.17 41.05a.52.52 0 0 0-.53.52v1.3h-6.8v-1.3a.52.52 0 0 0-.52-.52h-.01a.52.52 0 0 0-.52.52v21.3a.52.52 0 0 0 .52.52.52.52 0 0 0 .53-.52v-1h6.8v1a.52.52 0 0 0 .52.52h.01a.52.52 0 0 0 .52-.52v-21.3a.52.52 0 0 0-.52-.52Zm-.53 2.33v3.18h-6.8v-3.18Zm-6.8 10.57v-3.17h6.8v3.17Zm6.8.52v3.18h-6.8v-3.18Zm-6.8-4.21v-3.18h6.8v3.18Zm0 11.09v-3.18h6.8v3.18Z" class="j"/><path d="M20.98 85.43h-4.23l-2.63-5.01h9.5l-2.64 5.01zM61.35 85.43h-4.22l-2.64-5.01h9.5l-2.64 5.01z" class="m"/><path d="M18.68 72.95h40.56v3.45H18.68z" class="j"/><path d="M5.47 76.41h67.02v2.42H5.47z" class="g"/><path d="M12.83 78.83h52.3v1.59h-52.3z" class="j"/><path d="M17.84 85.43a6.19 6.19 0 1 1-6.18-6.2 6.19 6.19 0 0 1 6.18 6.2Z" class="n"/><path d="M11.66 90.17a4.74 4.74 0 1 1 4.74-4.74 4.75 4.75 0 0 1-4.74 4.74Zm0-8.83a4.09 4.09 0 1 0 4.08 4.09 4.1 4.1 0 0 0-4.08-4.1Z" class="j"/><path d="M13.38 85.43a1.73 1.73 0 1 1-1.72-1.73 1.73 1.73 0 0 1 1.72 1.73Z" class="j"/><path d="M32.4 85.43a6.19 6.19 0 1 1-6.18-6.2 6.19 6.19 0 0 1 6.18 6.2Z" class="n"/><path d="M26.22 90.17a4.74 4.74 0 1 1 4.74-4.74 4.75 4.75 0 0 1-4.74 4.74Zm0-8.83a4.09 4.09 0 1 0 4.08 4.09 4.1 4.1 0 0 0-4.08-4.1Z" class="j"/><path d="M27.94 85.43a1.73 1.73 0 1 1-1.72-1.73 1.73 1.73 0 0 1 1.72 1.73Z" class="j"/><path d="M57.93 85.43a6.19 6.19 0 1 1-6.19-6.2 6.19 6.19 0 0 1 6.2 6.2Z" class="n"/><path d="M51.74 90.17a4.74 4.74 0 1 1 4.75-4.74 4.75 4.75 0 0 1-4.75 4.74Zm0-8.83a4.09 4.09 0 1 0 4.1 4.09 4.1 4.1 0 0 0-4.1-4.1Z" class="j"/><path d="M53.47 85.43a1.73 1.73 0 1 1-1.73-1.73 1.73 1.73 0 0 1 1.73 1.73Z" class="j"/><path d="M72.5 85.43a6.19 6.19 0 1 1-6.2-6.2 6.19 6.19 0 0 1 6.2 6.2Z" class="n"/><path d="M66.3 90.17a4.74 4.74 0 1 1 4.75-4.74 4.75 4.75 0 0 1-4.75 4.74Zm0-8.83a4.09 4.09 0 1 0 4.1 4.09 4.1 4.1 0 0 0-4.1-4.1Z" class="j"/><path d="M68.03 85.43a1.73 1.73 0 1 1-1.73-1.73 1.73 1.73 0 0 1 1.73 1.73ZM77.96 80.45l-3.38-1.99V76.7l3.38-2v5.75z" class="j"/><path d="M72.49 76.7h2.09v1.7h-2.09z" class="m"/><path d="m0 74.7 3.38 2v1.76L0 80.45V74.7z" class="j"/><path d="M3.38 76.75h2.09v1.7H3.38z" class="m"/><path d="M4.7 220.96h49.67v58.47H4.7z" class="h"/><path d="M9.68 245.34H22.8a1.3 1.3 0 0 1 1.3 1.3v18.76a1.3 1.3 0 0 1-1.3 1.3H9.68a1.3 1.3 0 0 1-1.3-1.3v-18.75a1.3 1.3 0 0 1 1.3-1.3Z" class="o"/><path d="M0 226.7h59.07v1.56H0zM0 221.74h59.07v.78H0z" class="i"/><path d="M55.76 222.52h.6v4.18h-.6zM46.92 222.52h.6v4.18h-.6zM38.08 222.52h.6v4.18h-.6zM29.24 222.52h.6v4.18h-.6zM20.39 222.52h.6v4.18h-.6zM11.55 222.52h.6v4.18h-.6zM2.71 222.52h.6v4.18h-.6z" class="i"/><path d="M4.7 228.26h49.67v2.55H4.7z" class="l"/><path d="M29.84 226.7h1v7.79h-1zM30.84 233.09h6.23v.38h-6.23zM30.84 230.68h6.23v.38h-6.23zM30.84 228.27h6.23v.38h-6.23zM37.07 226.7h1v7.79h-1zM28.73 234.49h22.64v1.14H28.73zM28.73 243.33h22.64v1.14H28.73zM28.73 240.72h22.64v.57H28.73zM28.73 252.17h22.64v1.14H28.73zM28.73 261.02h22.64v1.14H28.73zM28.73 269.86h22.64V271H28.73z" class="j"/><path d="M50.7 235.63h-1.07l-7.57 7.7h1.07l7.57-7.7zM29.54 244.47h1.07l7.57 7.71H37.1l-7.56-7.71zM29.54 262.15h1.07l7.57 7.71H37.1l-7.56-7.71zM50.7 253.31h-1.07l-7.57 7.71h1.07l7.57-7.71zM50.7 271h-1.07l-8.24 8.43h1.07L50.7 271zM2.61 279.43h53.85v2.51H2.61zM50.79 241.29h.23v2.04h-.23zM48.38 241.29h.23v2.04h-.23zM45.96 241.29h.23v2.04h-.23z" class="j"/><path d="M43.55 241.29h.23v2.04h-.23zM41.14 241.29h.23v2.04h-.23zM38.73 241.29h.23v2.04h-.23zM36.32 241.29h.23v2.04h-.23zM33.91 241.29h.23v2.04h-.23zM31.5 241.29h.23v2.04h-.23zM29.09 241.29h.23v2.04h-.23zM28.73 249.56h22.64v.57H28.73zM50.79 250.13h.23v2.04h-.23zM48.38 250.13h.23v2.04h-.23zM45.96 250.13h.23v2.04h-.23zM43.55 250.13h.23v2.04h-.23zM41.14 250.13h.23v2.04h-.23zM38.73 250.13h.23v2.04h-.23zM36.32 250.13h.23v2.04h-.23zM33.91 250.13h.23v2.04h-.23zM31.5 250.13h.23v2.04h-.23zM29.09 250.13h.23v2.04h-.23zM28.73 258.4h22.64v.57H28.73zM50.79 258.97h.23v2.04h-.23zM48.38 258.97h.23v2.04h-.23zM45.96 258.97h.23v2.04h-.23zM43.55 258.97h.23v2.04h-.23zM41.14 258.97h.23v2.04h-.23zM38.73 258.97h.23v2.04h-.23zM36.32 258.97h.23v2.04h-.23zM33.91 258.97h.23v2.04h-.23zM31.5 258.97h.23v2.04h-.23zM29.09 258.97h.23v2.04h-.23zM28.73 267.24h22.64v.57H28.73zM50.79 267.81h.23v2.04h-.23zM48.38 267.81h.23v2.04h-.23zM45.96 267.81h.23v2.04h-.23zM43.55 267.81h.23v2.04h-.23zM41.14 267.81h.23v2.04h-.23zM38.73 267.81h.23v2.04h-.23zM36.32 267.81h.23v2.04h-.23zM33.91 267.81h.23v2.04h-.23zM31.5 267.81h.23v2.04h-.23zM29.09 267.81h.23v2.04h-.23zM28.73 231.88h22.64v.57H28.73zM50.79 232.45h.23v2.04h-.23zM48.38 232.45h.23v2.04h-.23zM45.96 232.45h.23v2.04h-.23zM43.55 232.45h.23v2.04h-.23zM41.14 232.45h.23v2.04h-.23zM38.73 232.45h.23v2.04h-.23zM36.32 232.45h.23v2.04h-.23zM33.91 232.45h.23v2.04h-.23zM31.5 232.45h.23v2.04h-.23zM29.09 232.45h.23v2.04h-.23z" class="j"/><path fill="#1f6678" d="M19.79 217.58h21.1V221h-21.1z"/><path d="M1.34 230.18H4.7v8.81H1.34zM54.38 264.43h3.36v8.81h-3.36z" class="o"/><path d="M11.9 249.39a1.92 1.92 0 1 1 3.82 0 1.92 1.92 0 1 1-3.81 0Zm2.84 0c0-.84-.36-1.34-.93-1.34s-.93.5-.93 1.34c0 .84.36 1.37.93 1.37s.93-.53.93-1.37ZM16.5 247.31h.95v4.2h-.95ZM18.44 247.31h.94v3.4h1.66v.8h-2.6ZM16.44 264.19a4.78 4.78 0 1 1 4.79-4.79 4.79 4.79 0 0 1-4.79 4.79Z" class="f"/><path d="M16.47 256.17s-3.99 5.9 0 5.9Z" class="j"/><path d="M16.47 256.17v5.9c4 0 0-5.9 0-5.9Zm1.23 4.3c-.15 0-.3-.22-.33-.51s.04-.56.19-.57.28.2.32.5-.04.55-.18.57Z" class="k"/><path d="M350.82 170c-5 0-9.06-2.04-9.06-4.54v-40.8c0-2.5 4.06-4.53 9.06-4.53s9.07 2.03 9.07 4.54v40.79c0 2.5-4.06 4.53-9.07 4.53Z" class="d"/><path d="M350.82 170c-5 0-9.06-2.04-9.06-4.54v-40.8c0-2.5 4.06-4.53 9.06-4.53Z" class="b"/><path d="M340.85 126.03a.9.9 0 0 1 .9-.91h18.14a.9.9 0 1 1 0 1.81h-18.13a.9.9 0 0 1-.91-.9ZM340.85 164.1a.9.9 0 0 1 .9-.9h18.14a.9.9 0 0 1 0 1.8h-18.13a.9.9 0 0 1-.91-.9Z" class="c"/><path d="M355.35 167.72h2.72v5.44h-2.72z" class="e"/><path d="M354.9 173.16h4.53v.91h-4.53z" class="a"/><path d="M346.29 173.17h-2.72v-5.44h2.72z" class="e"/><path d="M346.74 174.07h-4.53v-.9h4.53z" class="a"/><path d="M342.66 135.54v19.04h16.32v-19.04Zm8.71 9.52 6.7-7.9v15.81Zm6.2-8.61-6.75 7.96-6.75-7.96Zm-14 .7 6.7 7.91-6.7 7.91Zm.5 16.52 6.75-7.96 6.75 7.96Z" class="f"/><path d="m89.29 206.71 4.53-9.07h-9.06l4.53 9.07z" class="b"/><path d="m89.29 206.71 4.53 9.06h-9.06l4.53-9.06z" class="d"/><path d="M89.29 197.64h4.53l-4.53 9.07v-9.07z" class="c"/><path d="m89.29 206.71 4.53 9.06h-4.53v-9.06z" class="b"/><path d="m310.48 157.75-6.8 11.79h13.6l-6.8-11.79z" class="e"/><path d="M312.3 159.57v-9.52h5.44v9.52z" class="b"/><circle cx="310.48" cy="159.57" r="7.25" class="d"/><path d="M300.96 158h9.52v3.13h-9.52z" class="b"/><circle cx="310.48" cy="159.57" r="2.72" class="c"/><path d="M303.23 168.63h14.5v.91h-14.5z" class="a"/><path d="m251.11 57.13-7.26 20.85h14.51l-7.25-20.85z" class="b"/><path d="M251.11 57.13v20.85h-7.26l7.26-20.85z" class="c"/><path d="M244.31 48.97h13.6v13.6h-13.6z" class="d"/><path d="M244.31 48.97h6.8v13.6h-6.8z" class="b"/><path d="M287.37 123.3c0 5.01-2.04 9.07-4.54 9.07h-36.26c-2.5 0-4.53-4.06-4.53-9.06s2.03-9.07 4.53-9.07h36.26c2.5 0 4.54 4.06 4.54 9.07Z" class="d"/><path d="M287.37 123.3c0 5.01-2.04 9.07-4.54 9.07h-36.26c-2.5 0-4.53-4.06-4.53-9.06Z" class="b"/><path d="M247.93 133.28a.9.9 0 0 1-.9-.9v-18.14a.9.9 0 1 1 1.8 0v18.13a.9.9 0 0 1-.9.9ZM281.47 133.28a.9.9 0 0 1-.9-.9v-18.14a.9.9 0 1 1 1.81 0v18.13a.9.9 0 0 1-.9.9Z" class="c"/><path d="M250.2 130.56h2.72V136h-2.72zM276.49 130.56h2.72V136h-2.72z" class="e"/><path d="M249.22 136h4.53v.91h-4.53zM275.58 136h4.53v.91h-4.53z" class="a"/><path d="M254.98 121.49h.91v9.97h-.91z" class="f"/><path d="m268.04 101.79-1.68.18a1.23 1.23 0 0 0-.32-.77.94.94 0 0 0-.68-.24 1.14 1.14 0 0 0-.93.5 4.19 4.19 0 0 0-.48 2.06 2.03 2.03 0 0 1 1.61-.77 2.47 2.47 0 0 1 1.87.83 3.01 3.01 0 0 1 .78 2.14 3.08 3.08 0 0 1-.82 2.24 2.98 2.98 0 0 1-4.36-.23 5.5 5.5 0 0 1-.89-3.5 5.6 5.6 0 0 1 .93-3.6 2.98 2.98 0 0 1 2.4-1.1 2.54 2.54 0 0 1 1.7.57 2.71 2.71 0 0 1 .87 1.69Zm-3.94 3.8a1.97 1.97 0 0 0 .39 1.3 1.15 1.15 0 0 0 .89.47 1.01 1.01 0 0 0 .8-.38 1.9 1.9 0 0 0 .33-1.24 2 2 0 0 0-.35-1.3 1.12 1.12 0 0 0-1.72-.02 1.7 1.7 0 0 0-.34 1.17ZM161.92 106.15l1.74-.18a1.5 1.5 0 0 0 .44.93 1.2 1.2 0 0 0 .84.35 1.17 1.17 0 0 0 .92-.45 2.02 2.02 0 0 0 .38-1.33 1.82 1.82 0 0 0-.37-1.26 1.25 1.25 0 0 0-.98-.42 1.77 1.77 0 0 0-1.34.67l-1.42-.2.9-4.74h4.6v1.63h-3.28l-.28 1.55a2.66 2.66 0 0 1 3.16.55 3.03 3.03 0 0 1 .8 2.19 3.28 3.28 0 0 1-.65 2 2.88 2.88 0 0 1-2.46 1.2 3.05 3.05 0 0 1-2.05-.68 2.78 2.78 0 0 1-.95-1.81ZM383.25 77.98v-1.83h-3.71v-1.52l3.94-5.77h1.46v5.76h1.13v1.53h-1.13v1.83Zm0-3.36v-3.1l-2.08 3.1ZM234.2 75.41l1.7-.2a1.6 1.6 0 0 0 .43.99 1.23 1.23 0 0 0 1.76-.07 1.59 1.59 0 0 0 .37-1.1 1.48 1.48 0 0 0-.36-1.05 1.13 1.13 0 0 0-.86-.38 3.04 3.04 0 0 0-.8.13l.2-1.42a1.53 1.53 0 0 0 1.07-.3 1.1 1.1 0 0 0 .38-.87.94.94 0 0 0-1-1 1.05 1.05 0 0 0-.76.3 1.46 1.46 0 0 0-.39.9l-1.6-.26a3.57 3.57 0 0 1 .5-1.32 2.28 2.28 0 0 1 .94-.78 3.17 3.17 0 0 1 1.36-.28 2.7 2.7 0 0 1 2.06.82 2.07 2.07 0 0 1-.67 3.42 2.11 2.11 0 0 1 1.24.75 2.17 2.17 0 0 1 .47 1.4 2.73 2.73 0 0 1-.87 2.05 3.26 3.26 0 0 1-4.22.13 2.8 2.8 0 0 1-.94-1.86ZM139.9 76.36v1.62h-6.1a4.2 4.2 0 0 1 .6-1.74 11.58 11.58 0 0 1 1.95-2.18 12.31 12.31 0 0 0 1.45-1.48 1.92 1.92 0 0 0 .36-1.07 1.21 1.21 0 0 0-.32-.9 1.33 1.33 0 0 0-1.73.02 1.69 1.69 0 0 0-.37 1.1l-1.73-.18a2.84 2.84 0 0 1 .97-2.07 3.27 3.27 0 0 1 2.04-.62 2.96 2.96 0 0 1 2.12.72 2.38 2.38 0 0 1 .76 1.8 3.15 3.15 0 0 1-.22 1.18 4.75 4.75 0 0 1-.7 1.16 11.18 11.18 0 0 1-1.13 1.16q-.83.75-1.05 1a3.03 3.03 0 0 0-.35.48ZM22.02 35.37h-1.74v-6.56a6 6 0 0 1-2.25 1.32v-1.58a5.05 5.05 0 0 0 1.48-.84 3.22 3.22 0 0 0 1.1-1.46h1.41ZM407.56 101.46v-1.62h5.96v1.26a9.38 9.38 0 0 0-1.5 2.09 12.1 12.1 0 0 0-1.16 2.88 10.65 10.65 0 0 0-.4 2.73h-1.67a11.7 11.7 0 0 1 .77-3.84 12.82 12.82 0 0 1 1.96-3.5ZM202.78 142.68a1.95 1.95 0 0 1-1.3-1.88 2.2 2.2 0 0 1 .72-1.68 3.39 3.39 0 0 1 4.02 0 2.2 2.2 0 0 1 .72 1.68 1.98 1.98 0 0 1-.33 1.13 2.07 2.07 0 0 1-.92.75 2.43 2.43 0 0 1 1.15.88 2.34 2.34 0 0 1 .4 1.35 2.74 2.74 0 0 1-.81 2.04 2.92 2.92 0 0 1-2.14.8 3.23 3.23 0 0 1-2.06-.66 2.54 2.54 0 0 1-.97-2.1 2.6 2.6 0 0 1 .36-1.36 2.35 2.35 0 0 1 1.16-.95Zm.2 2.14a1.6 1.6 0 0 0 .36 1.12 1.2 1.2 0 0 0 .92.4 1.16 1.16 0 0 0 .9-.39 1.6 1.6 0 0 0 .35-1.11 1.45 1.45 0 0 0-.36-1.03 1.2 1.2 0 0 0-.91-.39 1.09 1.09 0 0 0-.95.44 1.61 1.61 0 0 0-.32.96Zm.15-3.9a1.1 1.1 0 0 0 .3.82 1.07 1.07 0 0 0 .78.29 1.08 1.08 0 0 0 .8-.3 1.1 1.1 0 0 0 .3-.81 1.01 1.01 0 0 0-1.08-1.08 1.08 1.08 0 0 0-.8.3 1.06 1.06 0 0 0-.3.79ZM300.96 145.48l1.7-.19a1.22 1.22 0 0 0 .31.77.95.95 0 0 0 .7.24 1.12 1.12 0 0 0 .9-.5 4.22 4.22 0 0 0 .5-2.05 2.08 2.08 0 0 1-1.65.76 2.45 2.45 0 0 1-1.85-.82 3.01 3.01 0 0 1-.78-2.16 3.06 3.06 0 0 1 .82-2.22 2.97 2.97 0 0 1 4.36.22 5.52 5.52 0 0 1 .89 3.51 5.6 5.6 0 0 1-.93 3.6 2.99 2.99 0 0 1-2.4 1.1 2.55 2.55 0 0 1-1.72-.56 2.74 2.74 0 0 1-.85-1.7Zm3.95-3.8a1.99 1.99 0 0 0-.4-1.31 1.14 1.14 0 0 0-.89-.47 1 1 0 0 0-.8.38 1.94 1.94 0 0 0-.32 1.25 1.99 1.99 0 0 0 .35 1.3 1.09 1.09 0 0 0 .87.4 1.07 1.07 0 0 0 .84-.39 1.73 1.73 0 0 0 .35-1.17ZM461.58 174.78h-1.74v-6.56a6 6 0 0 1-2.25 1.32v-1.58a5.06 5.06 0 0 0 1.48-.85 3.22 3.22 0 0 0 1.1-1.45h1.4ZM467.12 165.66a2.48 2.48 0 0 1 2.07.94 8.15 8.15 0 0 1-.01 7.4 2.48 2.48 0 0 1-2.06.94 2.6 2.6 0 0 1-2.13-1.02 8.3 8.3 0 0 1 .08-7.33 2.48 2.48 0 0 1 2.05-.93Zm0 1.44a.87.87 0 0 0-.56.2 1.35 1.35 0 0 0-.39.73 14.75 14.75 0 0 0-.01 4.47 1.54 1.54 0 0 0 .4.8.9.9 0 0 0 1.13 0 1.35 1.35 0 0 0 .38-.73 14.72 14.72 0 0 0 .02-4.46 1.57 1.57 0 0 0-.4-.8.86.86 0 0 0-.57-.2ZM434.99 174.94h-1.75v-6.57a6 6 0 0 1-2.25 1.32v-1.58a5.05 5.05 0 0 0 1.49-.84 3.22 3.22 0 0 0 1.1-1.45h1.4ZM441.34 174.94h-1.74v-6.57a6 6 0 0 1-2.25 1.32v-1.58a5.06 5.06 0 0 0 1.48-.84 3.22 3.22 0 0 0 1.1-1.45h1.41ZM335.57 114.24h-1.74v-6.56a6 6 0 0 1-2.25 1.32v-1.58a5.06 5.06 0 0 0 1.48-.85 3.22 3.22 0 0 0 1.1-1.45h1.41ZM344.05 112.62v1.62h-6.1a4.22 4.22 0 0 1 .6-1.74 11.58 11.58 0 0 1 1.95-2.18 12.31 12.31 0 0 0 1.45-1.48 1.91 1.91 0 0 0 .36-1.07 1.21 1.21 0 0 0-.32-.9 1.33 1.33 0 0 0-1.73.02 1.68 1.68 0 0 0-.37 1.1l-1.73-.18a2.84 2.84 0 0 1 .97-2.07 3.27 3.27 0 0 1 2.04-.62 2.96 2.96 0 0 1 2.12.72 2.38 2.38 0 0 1 .76 1.8 3.15 3.15 0 0 1-.22 1.18 4.78 4.78 0 0 1-.7 1.16 11.13 11.13 0 0 1-1.13 1.16q-.83.75-1.05 1a3.09 3.09 0 0 0-.35.48ZM72.08 256.4h-1.74v-6.55a6 6 0 0 1-2.25 1.32v-1.58a5.06 5.06 0 0 0 1.48-.85 3.22 3.22 0 0 0 1.1-1.45h1.4ZM74.62 254l1.68-.2a1.6 1.6 0 0 0 .44.98 1.19 1.19 0 0 0 .85.34 1.17 1.17 0 0 0 .9-.41 1.58 1.58 0 0 0 .38-1.1 1.48 1.48 0 0 0-.35-1.04 1.13 1.13 0 0 0-.87-.39 3.04 3.04 0 0 0-.8.13l.2-1.42a1.53 1.53 0 0 0 1.07-.3 1.1 1.1 0 0 0 .38-.87.94.94 0 0 0-1-1 1.05 1.05 0 0 0-.76.3 1.45 1.45 0 0 0-.39.91l-1.6-.27a3.58 3.58 0 0 1 .5-1.32 2.29 2.29 0 0 1 .94-.77 3.17 3.17 0 0 1 1.36-.28 2.7 2.7 0 0 1 2.06.81 2.07 2.07 0 0 1-.67 3.43 2.11 2.11 0 0 1 1.24.75 2.17 2.17 0 0 1 .47 1.4 2.73 2.73 0 0 1-.87 2.04 3.26 3.26 0 0 1-4.22.13 2.8 2.8 0 0 1-.94-1.85ZM27.46 212.14h-1.74v-6.56a6 6 0 0 1-2.25 1.32v-1.58a5.05 5.05 0 0 0 1.48-.84 3.22 3.22 0 0 0 1.1-1.46h1.41ZM33.48 212.14v-1.82h-3.72v-1.53l3.94-5.77h1.47v5.77h1.12v1.53h-1.12v1.82Zm0-3.35v-3.1l-2.09 3.1ZM439.45 82.51v-9.08h1.84v9.08ZM445.35 82.51l-3.24-9.08h1.98l2.3 6.72 2.23-6.72h1.94l-3.25 9.08ZM102.68 182.23v-9.09h1.83v9.09ZM106.2 182.23v-9.09h1.84v9.09ZM109.73 182.23v-9.09h1.84v9.09ZM104.44 219.4v-9.09h1.84v9.09ZM107.97 219.4v-9.09h1.83v9.09ZM93.95 9.08V0h1.84v9.08Z" class="q"/></svg>