<svg xmlns="http://www.w3.org/2000/svg" viewBox="0 0 480 369"><defs><style>.a{fill:#07617d}.b{fill:#d27332}.c{fill:#b05f1f}.d{fill:#f78536}.e{fill:#497285}.h{fill:#2b4450}</style></defs><path d="M474 0v318h-2.4V2.4H91.2v20.8H97l-7 26-7-26h5.8V0H474zM88.8 75.6h2.4v124.8h-2.4z" class="a"/><path d="M246.4 135.4v-5.8h-83.2v70.8h-2.4v-73.2h85.6v-5.8l26 7-26 7zM246.4 245.8V240h-65.2v-2.4h65.2v-5.8l26 7-26 7zM409.6 349v-5.8h-22v-2.4h22V335l26 7-26 7zM121.4 280l7 26 7-26h-14zM224.4 349l26-7-26-7v14zM321 316.2h-5.8v-58h-2.4v58H307l7 26 7-26z" class="a"/><path d="M346.8 340.8v2.4H127.2v-99.6h2.4v97.2h217.2zM465.8 143.2l7-26 7 26h-14zM83 152.8l7 26 7-26H83zM46 75.4v-5.8H0v-2.4h46v-5.8l26 7-26 7z" class="a"/><path d="M90 70.8 70.8 126h38.4L90 70.8z" class="b"/><path d="M90 70.8V126H70.8L90 70.8z" class="c"/><path d="M72 49.2h36v36H72z" class="d"/><path d="M72 49.2h18v36H72z" class="b"/><path d="m460.8 337.2-18 31.2h36l-18-31.2z" class="e"/><path d="M465.6 342v-25.2H480V342z" class="b"/><circle cx="460.8" cy="342" r="19.2" class="d"/><path d="M435.6 337.9h25.2v8.3h-25.2z" class="b"/><circle cx="460.8" cy="342" r="7.2" class="c"/><path d="M441.6 366H480v2.4h-38.4z" class="a"/><path d="M186 222c0 13.2-5.4 24-12 24H78c-6.6 0-12-10.8-12-24s5.4-24 12-24h96c6.6 0 12 10.8 12 24Z" class="d"/><path d="M186 222c0 13.2-5.4 24-12 24H78c-6.6 0-12-10.8-12-24Z" class="b"/><path d="M81.6 248.4a2.4 2.4 0 0 1-2.4-2.4v-48a2.4 2.4 0 0 1 4.8 0v48a2.4 2.4 0 0 1-2.4 2.4ZM170.4 248.4a2.4 2.4 0 0 1-2.4-2.4v-48a2.4 2.4 0 0 1 4.8 0v48a2.4 2.4 0 0 1-2.4 2.4Z" class="c"/><path d="M87.6 241.2h7.2v14.4h-7.2zM157.2 241.2h7.2v14.4h-7.2z" class="e"/><path d="M85 255.6h12v2.4H85zM154.8 255.6h12v2.4h-12z" class="a"/><path fill="#fff" d="M100.3 217.2h2.4v26.4h-2.4z"/><circle cx="366" cy="342" r="19.2" class="d"/><path d="M385.2 342a19.2 19.2 0 1 1-38.4 0Z" class="b"/><path d="M387.6 340.8v2.4h-6.7l-8.1 8.2-1.7 1.8-1.3-2.2-5.2-9h2.8l4.2 7.2 5.9-6 2.4-2.4h7.7z" class="e"/><path fill="#3d91a6" d="M367.4 342h-2.8l-4.2-7.2-5.9 6-2.4 2.4h-7.7v-2.4h6.7l8.1-8.2 1.7-1.8 6.5 11.2z"/><path d="M444.7 308.4v-4.8h-9.9v-4l10.5-15.4h3.8v15.3h3v4h-3v4.9Zm0-8.9v-8.2l-5.6 8.2ZM359.7 301.6l4.4-.5a4.2 4.2 0 0 0 1.2 2.6 3.2 3.2 0 0 0 4.6-.2 4.2 4.2 0 0 0 1-3 4 4 0 0 0-1-2.7 3 3 0 0 0-2.2-1 8 8 0 0 0-2.1.3l.5-3.7a4 4 0 0 0 2.8-.8 2.9 2.9 0 0 0 1-2.3 2.5 2.5 0 0 0-2.6-2.7 2.8 2.8 0 0 0-2 .9 3.9 3.9 0 0 0-1 2.3l-4.3-.7a9.5 9.5 0 0 1 1.3-3.5 6 6 0 0 1 2.5-2 8.4 8.4 0 0 1 3.6-.8 7.2 7.2 0 0 1 5.5 2.2 5.7 5.7 0 0 1 1.7 4q0 3.2-3.5 5a5.6 5.6 0 0 1 3.3 2 5.8 5.8 0 0 1 1.2 3.8 7.2 7.2 0 0 1-2.3 5.4 8.6 8.6 0 0 1-11.1.3 7.4 7.4 0 0 1-2.5-4.9ZM134 179.3v4.3h-16.2a11.1 11.1 0 0 1 1.6-4.6 30.7 30.7 0 0 1 5.2-5.8 32.6 32.6 0 0 0 3.8-4 5 5 0 0 0 1-2.7 3.2 3.2 0 0 0-.9-2.4 3.5 3.5 0 0 0-4.5 0 4.5 4.5 0 0 0-1 3l-4.6-.5q.4-3.8 2.6-5.5a8.7 8.7 0 0 1 5.4-1.7 7.8 7.8 0 0 1 5.6 2 6.3 6.3 0 0 1 2 4.7 8.3 8.3 0 0 1-.6 3.1 12.6 12.6 0 0 1-1.8 3.1 29.6 29.6 0 0 1-3 3l-2.8 2.7a8 8 0 0 0-1 1.3ZM131.5 78H127V60.6a15.9 15.9 0 0 1-6 3.5V60a13.4 13.4 0 0 0 4-2.2 8.5 8.5 0 0 0 2.9-3.9h3.7ZM271.9 291.6v-24h4.8v24ZM287.5 291.6l-8.6-24h5.2l6.1 17.7 6-17.8h5l-8.5 24.1ZM213 224.4v-24h4.8v24ZM222.3 224.4v-24h4.8v24ZM231.6 224.4v-24h4.9v24ZM222.3 114V90h4.8v24ZM231.6 114V90h4.9v24ZM14.7 51.6v-24h4.9v24Z" class="h"/></svg>