<svg xmlns="http://www.w3.org/2000/svg" viewBox="0 0 600 415" width="600" height="415"><defs><style>.a{fill:#07617d}.b{fill:#d27332}.c{fill:#b05f1f}.d{fill:#f78536}.e{fill:#497285}</style></defs><path d="M558.6 0v358.2h-2.7V2.7H127.4v23.4h6.5L126 55.4l-7.9-29.3h6.6V0Zm-434 85.2h2.8v140.5h-2.7Z" class="a"/><path d="M302.2 152.5V146h-93.7v79.7h-2.7v-82.4h96.4v-6.5l29.3 7.8Zm0 124.4v-6.5h-73.4v-2.7h73.4V261l29.3 8ZM486.1 393v-6.5h-24.8V384H486v-6.5l29.2 7.9Zm-324.7-77.7 7.9 29.3 7.9-29.3Zm116 77.7 29.3-7.8-29.3-8Zm108.8-36.9h-6.5v-65.3H377v65.3h-6.5l7.9 29.3Z" class="a"/><path d="M415.3 384v2.6H168V274.4h2.7V384Zm134-222.7 8-29.3 7.8 29.3Zm-431.2 10.8 8 29.3 7.8-29.3ZM76.5 85v-6.5H24.6v-2.7h51.9v-6.5l29.2 7.9Z" class="a"/><path d="m126 79.8-21.6 62.1h43.3Z" class="b"/><path d="M126 79.8v62.1h-21.6Z" class="c"/><path d="M105.7 55.4h40.6V96h-40.6Z" class="d"/><path d="M105.7 55.4H126V96h-20.3Z" class="b"/><path d="M543.7 379.9 523.5 415H564Z" class="e"/><path d="M549.1 385.3v-28.4h16.3v28.4Z" class="b"/><circle cx="543.7" cy="385.3" r="21.6" class="d"/><path d="M515.3 380.6h28.4v9.4h-28.4Z" class="b"/><circle cx="543.7" cy="385.3" r="8.1" class="c"/><path d="M522.1 412.3h43.3v2.7H522Z" class="a"/><path d="M234.2 250c0 15-6.1 27.1-13.5 27.1H112.5c-7.4 0-13.5-12.1-13.5-27s6-27 13.5-27h108.2c7.4 0 13.5 12.1 13.5 27Z" class="d"/><path d="M234.2 250c0 15-6.1 27.1-13.5 27.1H112.5c-7.4 0-13.5-12.1-13.5-27Z" class="b"/><path d="M116.6 279.8a2.7 2.7 0 0 1-2.7-2.7v-54a2.7 2.7 0 1 1 5.4 0v54a2.7 2.7 0 0 1-2.7 2.7Zm100 0a2.7 2.7 0 0 1-2.7-2.7v-54a2.7 2.7 0 0 1 5.4 0v54a2.7 2.7 0 0 1-2.7 2.7Z" class="c"/><path d="M123.3 271.7h8.1V288h-8Zm78.4 0h8.1V288h-8Z" class="e"/><path d="M120.4 288h13.5v2.6h-13.5Zm78.6 0h13.5v2.6H199Z" class="a"/><path fill="#fff" d="M137.6 244.7h2.7v29.7h-2.7Z"/><circle cx="436.9" cy="385.3" r="21.6" class="d"/><path d="M458.6 385.3a21.6 21.6 0 1 1-43.3 0Z" class="b"/><path d="M461.3 384v2.6h-7.6l-9.1 9.2-2 2-1.4-2.4-5.8-10.1h3.1l4.7 8 6.7-6.7 2.7-2.7h8.7Z" class="e"/><path fill="#3d91a6" d="M438.5 385.3h-3.1l-4.8-8.2-6.6 6.8-2.7 2.7h-8.7V384h7.6l9-9.2 2-2 7.3 12.6Z"/><path fill="#2b4450" d="M525.6 347.4V342h-11.2v-4.5l11.9-17.4h4.3v17.3h3.3v4.5h-3.4v5.5Zm0-10V328l-6.3 9.3Zm-95.8 2.4 5-.6a4.7 4.7 0 0 0 1.3 3 3.6 3.6 0 0 0 5.1-.2l.1-.1a4.7 4.7 0 0 0 1.2-3.4 4.5 4.5 0 0 0-1.2-3 3.4 3.4 0 0 0-2.4-1.2 9 9 0 0 0-2.4.4l.6-4.2a4.5 4.5 0 0 0 3.1-.9 3.3 3.3 0 0 0 1.1-2.6 2.8 2.8 0 0 0-2.9-3 3.2 3.2 0 0 0-2.3 1 4.4 4.4 0 0 0-1 2.6l-5-.8a10.7 10.7 0 0 1 1.5-4 6.8 6.8 0 0 1 2.9-2.2 9.5 9.5 0 0 1 4-.9 8.1 8.1 0 0 1 6.2 2.5 6.4 6.4 0 0 1 2 4.5q0 3.6-4 5.6a6.3 6.3 0 0 1 3.7 2.3 6.5 6.5 0 0 1 1.4 4.2 8.1 8.1 0 0 1-2.6 6.1 9.7 9.7 0 0 1-12.5.4 8.3 8.3 0 0 1-2.9-5.5ZM175.6 202v4.8h-18.3a12.5 12.5 0 0 1 1.8-5.2 34.6 34.6 0 0 1 5.9-6.5 36.7 36.7 0 0 0 4.3-4.5 5.6 5.6 0 0 0 1.1-3 3.6 3.6 0 0 0-1-2.7 4 4 0 0 0-5 0 5 5 0 0 0-1.2 3.3l-5.2-.5q.5-4.3 3-6.2a9.8 9.8 0 0 1 6-2 8.8 8.8 0 0 1 6.3 2.3 7.1 7.1 0 0 1 2.3 5.3 9.4 9.4 0 0 1-.7 3.5 14.2 14.2 0 0 1-2 3.5 33.3 33.3 0 0 1-3.4 3.4l-3.1 3a9 9 0 0 0-1.2 1.5Zm-2.8-114.1h-5V68.3a18 18 0 0 1-6.9 4v-4.7a15.1 15.1 0 0 0 4.6-2.5 9.6 9.6 0 0 0 3.2-4.4h4.2Zm158.1 240.6v-27h5.4v27Zm17.6 0-9.7-27h5.9l6.9 19.9 6.7-20h5.6l-9.5 27Zm-84-75.7v-27h5.5v27Zm10.6 0v-27h5.4v27Zm10.4 0v-27h5.6v27Zm-10.4-124.4v-27h5.4v27Zm10.4 0v-27h5.6v27ZM41.2 58.1v-27h5.5v27Z"/></svg>