<svg xmlns="http://www.w3.org/2000/svg" viewBox="0 0 600 415" width="600" height="415"><defs><style>.c{fill:#07617d}.d{fill:#2b4450}.e{stroke:#07617d}.f{stroke:#2b4450}</style></defs><path fill="#d27332" d="M251.1 228.4 135 222v-17l116.1-6.5v30Z" opacity=".8"/><path fill="#f78536" d="M553.8 246.7 384 229.8h-133v-32.6h133l169.6-17Z" opacity=".6"/><path d="M382.9 199h1.2v28.8H383ZM553 180.9h1.3v65.3H553Zm-253.6 18.3h1.2v28.7h-1.2Zm-118.1-5.2h1.2v39.2h-1.3Z" class="c"/><path d="M234.8 156v23.6H223v-1.4h10.5V173H223v-1.4h10.5v-7.8H223v-1.3h10.5v-5.3H223v-1.2Zm-32.7 5.3h5.3v1.3H202Zm-71.7-58.7h52.1v1.2h-52.1ZM202 173h5.3v1.2H202Zm32.7 74.2v23.5H223v-1.2h10.5v-5.3H223v-1.2h10.5v-8H223V254h10.5v-5.2H223v-1.4Zm-32.7 5.3h5.3v1.2H202Zm0 11.7h5.3v1.3H202Zm-26-62h1.3v22.1H176ZM88.8 192H90v43h-1.3Zm45.6 11.2h1.2v20.8h-1.2Zm-88.8-35.3H47v91.3h-1.3Zm136.9 3.3c0 4.2-13.4 6.5-26 6.5s-26.1-2.3-26.1-6.5h1.2c0 2 9.5 5.2 25 5.2s24.7-3.1 24.7-5.2Z" class="c"/><path d="M554.4 243v47.4H536v-34.8l-152.7-16H300l-75.6 4v29.8H206v-28.8h-2.6v28.8h-22.3v-7.7H64v24.7H45.6v-35.2h43.1v-22.4l13-3.2 23.5-5.8 10-2.5 42.2 1.9v3.4l-41.2 3.8-34.4 8.7v16h79.5v-23.5l22.2-1.2 73-3.8 23.5-1.4h83.5l23.5 2.4 129.1 13.6 18.3 1.9Zm0-106.4v47.2l-18.3 1.9L407 199.3l-23.5 2.4H300l-23.5-1.3-73-3.8-22.3-1.2v-92.8h60v18.2h-41.6v32.6h3.9v28.8l2.6.1v-28.9h18.3v30l75.6 4h83.5l152.6-16v-34.8Zm-377 63.8v3.3l-42.3 2-9.8-2.5-23.5-5.9-13-3.2v-22.4H45.5v-35.1H64v24.7h49.6v-40.5H71.7v-18.2h60v69h-30V188l34.5 8.7Z" class="c"/><path d="M0 213.4h28" class="e"/><path d="m25.6 217 13.5-3.6-13.5-3.6Z" class="c"/><path d="M156.5 57v28" class="e"/><path d="m152.9 82.6 3.6 13.5 3.6-13.5Z" class="c"/><path d="M560.9 213.4h28" class="e"/><path d="m586.5 217 13.5-3.6-13.5-3.6Z" class="c"/><path d="m193.6 317.2-2-4.6 2-4.7-11 4.7Zm95.4 0 2-4.6-2-4.7 11 4.7Z" class="d"/><path d="M190.1 312.6h102.4" class="f"/><path d="M307.5 312.6h238.1" class="f"/><path d="M181.3 277.3h1.2v41.8h-1.3Zm-58.2 11-1.2-.4 21.6-72.2 1.3.4Zm176.3-44.9h1.2v75.7h-1.2Zm253.6 51h1.3V319H553Z" class="d"/><path d="m311 317.2-2-4.6 2-4.7-11 4.7Zm231.1 0 1.9-4.6-1.9-4.7 10.9 4.7ZM11.2 205.7v-13.1H14v13Zm158-130.5v-13h2.4v13Zm5 0v-13h2.6v13Zm394 130.5v-13.1h2.5v13Zm5 0v-13.1h2.7v13Zm5.2 0v-13.1h2.5v13ZM121 304.8h-2.5v-9.5a8.8 8.8 0 0 1-3.2 1.9v-2.3a7.3 7.3 0 0 0 2.1-1.2 4.6 4.6 0 0 0 1.6-2h2Zm127.3-2.4v2.4h-8.8a6.1 6.1 0 0 1 .9-2.5 16.6 16.6 0 0 1 2.8-3.1 17.8 17.8 0 0 0 2-2.3 2.8 2.8 0 0 0 .6-1.5 1.8 1.8 0 0 0-.5-1.2 1.9 1.9 0 0 0-2.5 0 2.5 2.5 0 0 0-.5 1.6l-2.5-.2a4.1 4.1 0 0 1 1.3-3 4.8 4.8 0 0 1 3-1 4.3 4.3 0 0 1 3 1 3.4 3.4 0 0 1 1.2 2.6 4.5 4.5 0 0 1-.4 1.7 6.9 6.9 0 0 1-1 1.8 16 16 0 0 1-1.6 1.6l-1.5 1.4a4.5 4.5 0 0 0-.5.7Zm175.3-1.3 2.6-.3a2.3 2.3 0 0 0 .4 1.4 1.7 1.7 0 0 0 2.6-.1 2.3 2.3 0 0 0 .6-1.5 2.1 2.1 0 0 0-.5-1.5 1.6 1.6 0 0 0-1.3-.7 4.4 4.4 0 0 0-1.2.3l.4-2.1a2.3 2.3 0 0 0 1.4-.4 1.6 1.6 0 0 0 .6-1.3 1.3 1.3 0 0 0-1.4-1.5 1.5 1.5 0 0 0-1.1.5 2.1 2.1 0 0 0-.6 1.3l-2.3-.4a5.1 5.1 0 0 1 .7-1.9 3.3 3.3 0 0 1 1.4-1 4.6 4.6 0 0 1 2-.5 3.9 3.9 0 0 1 2.9 1.3 3 3 0 0 1-.9 4.9 3 3 0 0 1 1.8 1 3.1 3.1 0 0 1 .6 2 3.9 3.9 0 0 1-1.3 3 4.8 4.8 0 0 1-6 0 4 4 0 0 1-1.4-2.4Z" class="d"/></svg>