<svg xmlns="http://www.w3.org/2000/svg" viewBox="0 0 480 210"><defs><style>.c{fill:#07617d}.d{fill:#2b4450}.e,.f{fill:none;stroke-miterlimit:10}.e{stroke:#07617d}.f{stroke:#2b4450}</style></defs><path fill="#d27332" d="M200.9 137.2 108 132v-13.6l92.9-5.2v24z" opacity=".8"/><path fill="#f78536" d="m443 151.8-135.7-13.5H200.9v-26.1h106.4L443 98.6v53.2z" opacity=".6"/><path d="M306.3 113.7h1v23h-1zM442.4 99.1h1v52.2h-1zM239.5 113.7h1v23h-1zM145 109.6h1v31.3h-1z" class="c"/><path d="M145 176.3h1v33.4h-1zM98.5 185.1l-1-.3 17.3-57.8 1 .3-17.3 57.8zM239.5 149.2h1v60.5h-1zM442.4 189.9h1v19.8h-1z" class="d"/><path d="M187.8 79.3v18.8h-9.4V97h8.4v-4.1h-8.4v-1.1h8.4v-6.2h-8.4v-1.1h8.4v-4.2h-8.4v-1h9.4zM161.7 83.5h4.2v1h-4.2zM104.3 36.5H146v1h-41.7zM161.7 92.9h4.2v1h-4.2zM187.8 152.3v18.8h-9.4v-1h8.4v-4.2h-8.4v-1h8.4v-6.3h-8.4v-1h8.4v-4.2h-8.4v-1.1h9.4zM161.7 156.5h4.2v1h-4.2zM161.7 165.9h4.2v1h-4.2zM140.9 116.3h1V134h-1zM71 108h1v34.4h-1zM107.5 116.9h1v16.7h-1zM36.5 88.7h1v73h-1zM146 91.3c0 3.4-10.7 5.2-20.8 5.2s-20.9-1.8-20.9-5.2h1c0 1.7 7.6 4.2 20 4.2S145 93 145 91.3Z" class="c"/><path d="M443.5 148.9v37.9h-14.6v-27.9l-122.2-12.8H240l-60.5 3.3v23.8h-14.6v-23.1l-2.1.1v23H145V167H51.1v19.8H36.5v-28.2H71v-17.9l10.4-2.6 18.8-4.6 7.9-2 33.8 1.5v2.7l-32.9 3.1-27.6 6.9v12.9H145v-18.9l17.8-.9 58.4-3.1 18.8-1.1h66.8l18.8 1.9 103.3 10.9 14.6 1.5zM443.5 63.7v37.8l-14.6 1.5-103.3 10.9-18.8 1.9H240l-18.8-1-58.4-3.1-17.8-.9V36.5h48v14.6h-33.3v26.1h3.1v23l2.1.1V77.2h14.6v23.9l60.5 3.2h66.8l122.1-12.8V63.7h14.6zM141.9 114.8v2.6l-33.8 1.6-7.9-2-18.8-4.7-10.4-2.6V91.8H36.5V63.7h14.6v19.8h39.7V51.1H57.4V36.5h48v55.3h-24v13l27.6 6.9 32.9 3.1z" class="c"/><path d="M0 125.2h22.4" class="e"/><path d="m20.5 128.1 10.8-2.9-10.8-2.9v5.8z" class="c"/><path d="M125.2 0v22.4" class="e"/><path d="m122.3 20.5 2.9 10.8 2.9-10.8h-5.8z" class="c"/><path d="M448.7 125.2h22.4" class="e"/><path d="m469.2 128.1 10.8-2.9-10.8-2.9v5.8z" class="c"/><path d="M152.1 204.5H234" class="f"/><path d="m154.9 208.2-1.6-3.7 1.6-3.7-8.8 3.7 8.8 3.7zM231.2 208.2l1.6-3.7-1.6-3.7 8.8 3.7-8.8 3.7z" class="d"/><path d="M246 204.5h190.5" class="f"/><path d="m248.8 208.2-1.6-3.7 1.6-3.7-8.8 3.7 8.8 3.7zM433.7 208.2l1.5-3.7-1.5-3.7 8.7 3.7-8.7 3.7zM9 119v-10.5h2.1V119ZM135.3 14.6V4.2h2v10.4ZM139.3 14.6V4.2h2.1v10.4ZM454.6 119v-10.5h2V119ZM458.6 119v-10.5h2.1V119ZM462.7 119v-10.5h2V119ZM96.9 198.3h-2v-7.6a7 7 0 0 1-2.6 1.5v-1.8a5.8 5.8 0 0 0 1.7-1 3.7 3.7 0 0 0 1.3-1.6h1.6ZM198.7 196.4v1.9h-7a4.9 4.9 0 0 1 .7-2 13.3 13.3 0 0 1 2.2-2.5 14.2 14.2 0 0 0 1.7-1.8 2.2 2.2 0 0 0 .4-1.2 1.4 1.4 0 0 0-.4-1 1.5 1.5 0 0 0-2 0 2 2 0 0 0-.4 1.3l-2-.2a3.3 3.3 0 0 1 1.1-2.4 3.8 3.8 0 0 1 2.4-.7 3.4 3.4 0 0 1 2.4.8 2.7 2.7 0 0 1 .9 2 3.6 3.6 0 0 1-.3 1.4 5.5 5.5 0 0 1-.8 1.4 12.8 12.8 0 0 1-1.3 1.3l-1.2 1.1a3.6 3.6 0 0 0-.4.6ZM339 195.3l2-.2a1.8 1.8 0 0 0 .4 1.1 1.4 1.4 0 0 0 1 .4 1.4 1.4 0 0 0 1-.5 1.8 1.8 0 0 0 .5-1.2 1.7 1.7 0 0 0-.4-1.2 1.3 1.3 0 0 0-1-.5 3.5 3.5 0 0 0-1 .2l.3-1.7a1.8 1.8 0 0 0 1.2-.3 1.3 1.3 0 0 0 .4-1 1 1 0 0 0-1.1-1.2 1.2 1.2 0 0 0-.9.4 1.7 1.7 0 0 0-.4 1l-1.9-.3a4.1 4.1 0 0 1 .6-1.5 2.6 2.6 0 0 1 1.1-.9 3.7 3.7 0 0 1 1.6-.3 3.1 3.1 0 0 1 2.3 1 2.4 2.4 0 0 1-.7 3.9 2.4 2.4 0 0 1 1.4.8 2.5 2.5 0 0 1 .5 1.6 3.1 3.1 0 0 1-1 2.4 3.8 3.8 0 0 1-4.8.1 3.2 3.2 0 0 1-1.1-2Z" class="d"/></svg>