<svg xmlns="http://www.w3.org/2000/svg" viewBox="0 0 480 283"><defs><style>.a{fill:#07617d}.b{fill:#497285}.c{fill:#d27332}.d{fill:#f78536}.e{fill:#b05f1f}.f{fill:#fff}.g{fill:#3d91a6}.h{fill:#2b4450}</style></defs><path d="M90.8 59v-2.4H72v-1h18.8v-2.4l10.7 2.9L90.8 59zM294.9 59v-2.4h-21.4v30h-1v-31h22.4v-2.4l10.6 2.9-10.6 2.9zM469.3 59v-2.4h-28.2v30h-1v-31h29.2v-2.4l10.7 2.9-10.7 2.9zM469.3 269.9v-2.4h-74.1v-1h74.1v-2.4L480 267l-10.7 2.9zM480 98v1h-18.9v2.3l-10.7-2.8 10.7-2.9V98H480zM230.8 5.7l10.7-2.8L230.8 0v5.7zM167.7 219.6l10.7-2.9-10.7-2.8v5.7zM172.3 269.9l-10.7-2.9 10.7-2.9v5.8zM422.7 166.4l-10.7-2.9 10.7-2.8v5.7zM363.5 166.4l-10.6-2.9 10.6-2.8v5.7zM30 93.4l-2.9-10.7-2.9 10.7H30zM140.9 93.4 138 82.7l-2.9 10.7h5.8zM344.9 93.4 342 82.7l-2.9 10.7h5.8zM180.8 166.3l-2.9-10.7-2.9 10.7h5.8zM106.4 219.5l-2.9-10.6-2.9 10.6h5.8zM243.8 166.3l-2.8-10.7-2.9 10.7h5.7zM393.7 188l-2.9-10.7-2.9 10.7h5.8zM330.1 178.5l-2.9 10.6-2.8-10.6h5.7zM111.3 109.5l-2.9 10.7-2.8-10.7h2.3V78.8h1v30.7h2.4zM66.9 73l-2.8 10.7L61.2 73h2.4V63h1v10h2.3zM275.9 178.5l-2.9 10.6-2.8-10.6h2.3v-38.6h1v38.6h2.4z" class="a"/><path d="M441 139.9V164h-46.8a3.1 3.1 0 0 0 0-1 3.4 3.4 0 0 0-6.8 0 3.1 3.1 0 0 0 0 1h-50.8V139h1V163h48.8a4.4 4.4 0 0 1 8.8 0h44.9V140ZM56.2 55.6v1H27.6v65.5h-1V55.6h29.6zM288.3 207.9v64.5h-31.2v2.4l-10.7-2.9 10.7-2.8v2.3h30.2v-63.5h1zM226.7 266.5v1h-147v2.4L69 267l10.7-2.9v2.4H103V164H72.9v-1h38.6v-2.3l10.7 2.8-10.7 2.9V164H104v102.5h122.7z" class="a"/><path d="M132.2 239.3V237h-9.5v-98.1h1V236h8.5v-2.4l10.7 2.9-10.7 2.8zM215 239.3V237h-9v-1h9v-2.4l10.7 2.9-10.7 2.8zM420 130.9v-2.4h-9.5V3.4h-68v117.7h-1V3.4h-203v117.7h-1V2.4h274v125.1h8.5v-2.3l10.7 2.8-10.7 2.9z" class="a"/><path d="M391.3 22v204.6h-1V23.1h-44.9a3.1 3.1 0 0 0 0-1 3.4 3.4 0 0 0-6.8 0 3.1 3.1 0 0 0 0 1h-25.7v14.4h2.4l-2.9 10.7-2.8-10.7h2.4V22.1h25.6a4.4 4.4 0 0 1 8.8 0ZM315.3 109.5l-2.9 10.7-2.8-10.7h2.4V78.8h.9v30.7h2.4zM252.5 101.3V99h-8.1a3.1 3.1 0 0 0 0-1 3.4 3.4 0 0 0-6.8 0 3.1 3.1 0 0 0 0 1h-59.2v137h9.9v1h-10.9v-19.8h-18.7v9.4h-1v-10.3h19.7V98h59.2a4.4 4.4 0 0 1 8.8 0h7v-2.4l10.8 2.9Z" class="a"/><path d="M241.5 22v204.6h-1V23.1h-99.1a3.1 3.1 0 0 0 0-1 3.4 3.4 0 0 0-6.8 0 3.1 3.1 0 0 0 0 1h-25.7v14.4h2.4l-2.9 10.7-2.8-10.7h2.3V22.1h25.7a4.4 4.4 0 0 1 8.8 0ZM364.8 274.8v-2.4h-38.1V138.9h1V236h10.4v1h-10.4v34.4h37.1v-2.3l10.7 2.8-10.7 2.9z" class="a"/><path d="M364.8 239.3V237h-9v-1h9v-2.4l10.7 2.9-10.7 2.8zM311 167.5h-1a3.5 3.5 0 1 0-7 0V190h-.9v-22.6a4.4 4.4 0 0 1 1-2.8 4.4 4.4 0 0 1 7.9 2.8Z" class="a"/><path d="m236.1 270 7.4 12.8h-14.8l7.4-12.8z" class="b"/><path d="M236 270h-10.2v-6H236z" class="c"/><circle cx="236.1" cy="271.9" r="7.9" class="d"/><path d="M246.4 273.7H236v-3.4h10.3z" class="c"/><circle cx="236.1" cy="271.9" r="3" class="e"/><path d="M244 282.8H228v-1H244z" class="a"/><path d="m385.9 270-7.4 12.8h14.8l-7.4-12.8z" class="b"/><path d="M385.9 264.1h10.3v5.9h-10.3z" class="c"/><circle cx="385.9" cy="271.9" r="7.9" class="d"/><path d="M375.5 270.2h10.3v3.4h-10.3z" class="c"/><circle cx="385.9" cy="271.9" r="3" class="e"/><path d="M378 281.8h15.8v1H378z" class="a"/><path d="m153.3 234.5-7.4 12.8h14.8l-7.4-12.8z" class="b"/><path d="M155.2 236.5v-10.3h6v10.3z" class="c"/><circle cx="153.3" cy="236.5" r="7.9" class="d"/><path d="M142.9 234.8h10.3v3.4h-10.3z" class="c"/><circle cx="153.3" cy="236.5" r="3" class="e"/><path d="M145.4 246.3h15.8v1h-15.8z" class="a"/><path d="m236.1 234.5-7.4 12.8h14.8l-7.4-12.8z" class="b"/><path d="M238 236.5v-10.3h5.9v10.3z" class="c"/><circle cx="236.1" cy="236.5" r="7.9" class="d"/><path d="M225.7 234.8H236v3.4h-10.3z" class="c"/><circle cx="236.1" cy="236.5" r="3" class="e"/><path d="M228.2 246.3H244v1h-15.8z" class="a"/><path d="m385.9 234.5-7.4 12.8h14.8l-7.4-12.8z" class="b"/><path d="M387.8 236.5v-10.3h6v10.3z" class="c"/><circle cx="385.9" cy="236.5" r="7.9" class="d"/><path d="M375.5 234.8h10.3v3.4h-10.3z" class="c"/><circle cx="385.9" cy="236.5" r="3" class="e"/><path d="M378 246.3h15.8v1H378z" class="a"/><path d="M440.6 140.4c-5.5 0-9.9-2.2-9.9-5V91.1c0-2.7 4.4-5 9.9-5s9.8 2.3 9.8 5v44.3c0 2.8-4.4 5-9.8 5Z" class="d"/><path d="M440.6 140.4c-5.5 0-9.9-2.2-9.9-5V91.1c0-2.7 4.4-5 9.9-5Z" class="c"/><path d="M429.7 92.6a1 1 0 0 1 1-1h19.7a1 1 0 0 1 0 2h-19.7a1 1 0 0 1-1-1ZM429.7 134a1 1 0 0 1 1-1h19.7a1 1 0 1 1 0 2h-19.7a1 1 0 0 1-1-1Z" class="e"/><path d="M445.5 137.9h3v5.9h-3z" class="b"/><path d="M445 143.8h4.9v1H445z" class="a"/><path d="M435.6 143.8h-3v-5.9h3z" class="b"/><path d="M436.2 144.8h-5v-1h5z" class="a"/><path d="M431.7 102.9v20.7h17.7v-20.7Zm9.5 10.4 7.3-8.6v17.2Zm6.7-9.4-7.3 8.6-7.4-8.6Zm-15.2.8 7.3 8.6-7.3 8.6Zm.5 18 7.4-8.7 7.3 8.6Z" class="f"/><path d="M273 140.4c-5.4 0-9.8-2.2-9.8-5V91.1c0-2.7 4.4-5 9.8-5s9.9 2.3 9.9 5v44.3c0 2.8-4.4 5-9.9 5Z" class="d"/><path d="M273 140.4c-5.4 0-9.8-2.2-9.8-5V91.1c0-2.7 4.4-5 9.8-5Z" class="c"/><path d="M262.2 92.6a1 1 0 0 1 1-1h19.7a1 1 0 1 1 0 2h-19.7a1 1 0 0 1-1-1ZM262.2 134a1 1 0 0 1 1-1h19.7a1 1 0 1 1 0 2h-19.7a1 1 0 0 1-1-1Z" class="e"/><path d="M277.9 137.9h3v5.9h-3z" class="b"/><path d="M277.5 143.8h4.9v1h-4.9z" class="a"/><path d="M268.1 143.8h-3v-5.9h3z" class="b"/><path d="M268.5 144.8h-4.9v-1h5z" class="a"/><path d="M264.1 102.9v20.7H282v-20.7Zm9.5 10.4 7.3-8.6v17.2Zm6.8-9.4-7.4 8.6-7.3-8.6Zm-15.3.8 7.3 8.6-7.3 8.6Zm.6 18 7.3-8.7 7.4 8.6Z" class="f"/><path d="M147.8 130c0 5.4-2.2 9.9-4.9 9.9h-39.4c-2.7 0-5-4.5-5-9.9s2.3-9.8 5-9.8h39.4c2.7 0 5 4.4 5 9.8Z" class="d"/><path d="M147.8 130c0 5.4-2.2 9.9-4.9 9.9h-39.4c-2.7 0-5-4.5-5-9.9Z" class="c"/><path d="M105 140.9a1 1 0 0 1-1-1v-19.7a1 1 0 0 1 2 0v19.7a1 1 0 0 1-1 1ZM141.4 140.9a1 1 0 0 1-1-1v-19.7a1 1 0 0 1 2 0v19.7a1 1 0 0 1-1 1Z" class="e"/><path d="M107.4 137.9h3v5.9h-3zM136 137.9h3v5.9h-3z" class="b"/><path d="M106.4 143.8h4.9v1h-4.9zM135 143.8h4.9v1H135z" class="a"/><path d="M112.6 128h1v10.8h-1z" class="f"/><path d="M312.4 199c0 5.4-2.2 9.9-4.9 9.9h-39.4c-2.7 0-5-4.5-5-9.9s2.3-9.9 5-9.9h39.4c2.7 0 5 4.5 5 9.9Z" class="d"/><path d="M312.4 199c0 5.4-2.2 9.9-4.9 9.9h-39.4c-2.7 0-5-4.5-5-9.9Z" class="c"/><path d="M269.6 209.8a1 1 0 0 1-1-1v-19.7a1 1 0 1 1 2 0V209a1 1 0 0 1-1 1ZM306 209.8a1 1 0 0 1-1-1v-19.7a1 1 0 0 1 2 0V209a1 1 0 0 1-1 1Z" class="e"/><path d="M272 206.9h3v5.9h-3zM300.6 206.9h3v5.9h-3z" class="b"/><path d="M271 212.8h4.9v1H271zM299.6 212.8h4.9v1h-4.9z" class="a"/><path d="M277.2 197h1v10.8h-1z" class="f"/><path d="M351.9 130c0 5.4-2.2 9.9-5 9.9h-39.4c-2.7 0-5-4.5-5-9.9s2.3-9.8 5-9.8H347c2.8 0 5 4.4 5 9.8Z" class="d"/><path d="M351.9 130c0 5.4-2.2 9.9-5 9.9h-39.4c-2.7 0-5-4.5-5-9.9Z" class="c"/><path d="M309 140.9a1 1 0 0 1-1-1v-19.7a1 1 0 0 1 2 0v19.7a1 1 0 0 1-1 1ZM345.5 140.9a1 1 0 0 1-1-1v-19.7a1 1 0 1 1 2 0v19.7a1 1 0 0 1-1 1Z" class="e"/><path d="M311.5 137.9h3v5.9h-3zM340 137.9h3v5.9h-3z" class="b"/><path d="M310.4 143.8h4.9v1h-4.9zM339.1 143.8h4.9v1h-4.9z" class="a"/><path d="M316.7 128h1v10.8h-1z" class="f"/><circle cx="64.1" cy="56.1" r="7.9" class="d"/><path d="M72 56a7.9 7.9 0 1 1-15.8 0Z" class="c"/><path d="M72.9 55.6v1h-2.7l-3.3 3.3-.8.8-.5-.9-2.1-3.7h1.1l1.8 3 2.4-2.5 1-1h3.1z" class="b"/><path d="M64.6 56.1h-1.1l-1.7-3-2.5 2.5-.9 1h-3.2v-1h2.7l3.4-3.4.7-.7 2.6 4.6z" class="g"/><circle cx="197.1" cy="236.5" r="7.9" class="d"/><path d="M205 236.5a7.9 7.9 0 1 1-15.8 0Z" class="c"/><path d="M206 236v1h-2.8l-3.3 3.3-.7.7-.5-.8-2.1-3.7h1.1l1.7 2.9 2.5-2.4.9-1h3.2z" class="b"/><path d="M197.7 236.5h-1.1l-1.8-3-2.4 2.5-1 1h-3.1v-1h2.7l3.3-3.4.7-.7 2.7 4.6z" class="g"/><path d="M27.1 229.6c-10.9 0-19.7-4.5-19.7-9.9V131c0-5.4 8.8-9.9 19.7-9.9s19.7 4.5 19.7 9.9v88.7c0 5.4-8.8 9.9-19.7 9.9Z" class="d"/><path d="M27.1 229.6c-10.9 0-19.7-4.5-19.7-9.9V131c0-5.4 8.8-9.9 19.7-9.9Z" class="c"/><path d="M6.4 137a1 1 0 0 1 1-1H32a1 1 0 1 1 0 1.9H7.4a1 1 0 0 1-1-1ZM6.4 161.5a1 1 0 0 1 1-1H32a1 1 0 1 1 0 2H7.4a1 1 0 0 1-1-1ZM6.4 186.2a1 1 0 0 1 1-1H32a1 1 0 1 1 0 2H7.4a1 1 0 0 1-1-1ZM6.4 210.8a1 1 0 0 1 1-1H32a1 1 0 1 1 0 2H7.4a1 1 0 0 1-1-1Z" class="e"/><path d="M4.9 221.2h44.4v24.6H4.9z" class="b"/><path d="M40.9 148.2v73h-2v-21.7H34v-2h4.9v-22.6H34v-2h4.9v-22.7H34v-2h6.9z" class="h"/><path d="M0 244.3h54.2v3H0zM3.4 219.7h47.3v3H3.4z" class="a"/><path d="m108.4 57.1-7.9 22.6h15.8l-7.9-22.6z" class="c"/><path d="M108.4 57.1v22.6h-7.9l7.9-22.6z" class="e"/><path d="M101 48.2h14.8V63H101z" class="d"/><path d="M101 48.2h7.4V63H101zM312.4 57.1l-7.8 22.6h15.7l-7.9-22.6z" class="c"/><path d="M312.4 57.1v22.6h-7.8l7.8-22.6z" class="e"/><path d="M305.1 48.2h14.8V63h-14.8z" class="d"/><path d="M305.1 48.2h7.4V63h-7.4z" class="c"/><circle cx="346.9" cy="236.5" r="7.9" class="d"/><path d="M354.8 236.5a7.9 7.9 0 1 1-15.7 0Z" class="c"/><path d="M355.8 236v1h-2.7l-3.4 3.3-.7.7-.5-.8-2.1-3.7h1.1l1.7 2.9 2.5-2.4 1-1h3.1z" class="b"/><path d="M347.5 236.5h-1.1l-1.8-3-2.4 2.5-1 1h-3.1v-1h2.7l3.3-3.4.8-.7 2.6 4.6z" class="g"/><path d="M65.6 42.3h-1.8v-7.1a6.5 6.5 0 0 1-2.5 1.4v-1.7a5.5 5.5 0 0 0 1.6-1 3.5 3.5 0 0 0 1.2-1.5h1.5ZM126.9 59.3V61h-6.7a4.6 4.6 0 0 1 .7-1.9 12.6 12.6 0 0 1 2.1-2.3 13.4 13.4 0 0 0 1.6-1.7 2 2 0 0 0 .4-1.1 1.3 1.3 0 0 0-.4-1 1.4 1.4 0 0 0-1.8 0 1.8 1.8 0 0 0-.4 1.2l-2-.2a3 3 0 0 1 1.1-2.2 3.6 3.6 0 0 1 2.3-.7 3.2 3.2 0 0 1 2.2.8 2.6 2.6 0 0 1 .9 2 3.4 3.4 0 0 1-.3 1.2 5.2 5.2 0 0 1-.7 1.3 12 12 0 0 1-1.3 1.2l-1 1.1a3.4 3.4 0 0 0-.5.6ZM324.3 58.2l1.8-.2a1.7 1.7 0 0 0 .5 1 1.3 1.3 0 0 0 1 .4 1.3 1.3 0 0 0 .9-.4 1.7 1.7 0 0 0 .4-1.2 1.6 1.6 0 0 0-.4-1.1 1.2 1.2 0 0 0-1-.4 3.3 3.3 0 0 0-.8 0l.2-1.4a1.7 1.7 0 0 0 1.2-.4 1.2 1.2 0 0 0 .4-1 1 1 0 0 0-1.1-1 1.1 1.1 0 0 0-.8.3 1.6 1.6 0 0 0-.4 1l-1.8-.3a3.9 3.9 0 0 1 .6-1.4 2.5 2.5 0 0 1 1-.9 3.4 3.4 0 0 1 1.5-.3 3 3 0 0 1 2.2 1 2.3 2.3 0 0 1-.7 3.6 2.3 2.3 0 0 1 1.3.9 2.4 2.4 0 0 1 .5 1.5 3 3 0 0 1-1 2.2 3.5 3.5 0 0 1-4.5.1 3 3 0 0 1-1-2ZM149 116.2v-2h-4.1v-1.6l4.3-6.3h1.6v6.3h1.2v1.6h-1.2v2Zm0-3.6v-3.4l-2.3 3.4ZM349 113.5l1.8-.2a1.6 1.6 0 0 0 .5 1 1.3 1.3 0 0 0 .9.4 1.3 1.3 0 0 0 1-.5 2.2 2.2 0 0 0 .4-1.4 2 2 0 0 0-.4-1.4 1.4 1.4 0 0 0-1-.5 2 2 0 0 0-1.5.8l-1.6-.3 1-5.1h5v1.8h-3.6l-.3 1.6a2.9 2.9 0 0 1 3.5.6 3.3 3.3 0 0 1 .9 2.4 3.6 3.6 0 0 1-.8 2.2 3.1 3.1 0 0 1-2.6 1.3 3.3 3.3 0 0 1-2.3-.7 3 3 0 0 1-1-2ZM291.1 176.6l-1.8.2a1.3 1.3 0 0 0-.4-.8 1 1 0 0 0-.7-.3 1.2 1.2 0 0 0-1 .5 4.6 4.6 0 0 0-.5 2.3 2.2 2.2 0 0 1 1.7-.9 2.7 2.7 0 0 1 2 1 3.3 3.3 0 0 1 .9 2.3 3.3 3.3 0 0 1-.9 2.4 3.2 3.2 0 0 1-4.7-.2 6 6 0 0 1-1-3.9 6 6 0 0 1 1-3.9 3.2 3.2 0 0 1 2.6-1.2 2.8 2.8 0 0 1 1.9.7 3 3 0 0 1 1 1.8Zm-4.3 4.1a2.1 2.1 0 0 0 .4 1.4 1.2 1.2 0 0 0 1 .5 1.1 1.1 0 0 0 .9-.4 2 2 0 0 0 .3-1.3 2.2 2.2 0 0 0-.3-1.4 1.2 1.2 0 0 0-2 0 1.9 1.9 0 0 0-.3 1.2ZM143 216.6V215h6.5v1.4a10.2 10.2 0 0 0-1.6 2.2 13.2 13.2 0 0 0-1.3 3.2 11.6 11.6 0 0 0-.4 3h-1.9a12.7 12.7 0 0 1 .9-4.2 14 14 0 0 1 2.1-3.9ZM228 219.1a2.1 2.1 0 0 1-1.5-2 2.4 2.4 0 0 1 .8-1.8 3.7 3.7 0 0 1 4.4 0 2.4 2.4 0 0 1 .7 1.8 2.2 2.2 0 0 1-.3 1.2 2.3 2.3 0 0 1-1 .8 2.6 2.6 0 0 1 1.2 1 2.5 2.5 0 0 1 .5 1.5 3 3 0 0 1-1 2.2 3.2 3.2 0 0 1-2.2.8 3.5 3.5 0 0 1-2.3-.7 2.8 2.8 0 0 1-1-2.3 2.8 2.8 0 0 1 .4-1.4 2.6 2.6 0 0 1 1.2-1Zm.1 2.3a1.7 1.7 0 0 0 .4 1.3 1.3 1.3 0 0 0 1 .4 1.3 1.3 0 0 0 1-.4 1.7 1.7 0 0 0 .4-1.2 1.6 1.6 0 0 0-.4-1.1 1.3 1.3 0 0 0-1-.5 1.2 1.2 0 0 0-1 .5 1.8 1.8 0 0 0-.4 1Zm.2-4.2a1.2 1.2 0 0 0 .3.9 1.2 1.2 0 0 0 .9.3 1.2 1.2 0 0 0 .8-.3 1.2 1.2 0 0 0 .4-.9 1.1 1.1 0 0 0-1.2-1.2 1.2 1.2 0 0 0-.9.4 1.2 1.2 0 0 0-.3.8ZM214.6 280.3l1.9-.2a1.3 1.3 0 0 0 .3.8 1 1 0 0 0 .8.3 1.2 1.2 0 0 0 1-.5 4.6 4.6 0 0 0 .5-2.3 2.3 2.3 0 0 1-1.8.9 2.7 2.7 0 0 1-2-1 3.3 3.3 0 0 1-.9-2.3 3.3 3.3 0 0 1 1-2.4 3.2 3.2 0 0 1 4.7.3 6 6 0 0 1 1 3.8 6 6 0 0 1-1 3.9 3.2 3.2 0 0 1-2.7 1.2 2.8 2.8 0 0 1-1.9-.6 3 3 0 0 1-.9-1.9Zm4.3-4.1a2.2 2.2 0 0 0-.4-1.4 1.2 1.2 0 0 0-1-.5 1 1 0 0 0-.9.4 2.1 2.1 0 0 0-.3 1.3 2.2 2.2 0 0 0 .4 1.4 1.2 1.2 0 0 0 1 .5 1.2 1.2 0 0 0 .8-.4 1.9 1.9 0 0 0 .4-1.3ZM405.2 242.2h-1.9v-7.1a6.5 6.5 0 0 1-2.4 1.4v-1.7a5.5 5.5 0 0 0 1.6-1 3.5 3.5 0 0 0 1.2-1.5h1.5ZM411.2 232.3a2.7 2.7 0 0 1 2.3 1 8.9 8.9 0 0 1 0 8 2.7 2.7 0 0 1-2.3 1 2.8 2.8 0 0 1-2.3-1 9 9 0 0 1 .1-8 2.7 2.7 0 0 1 2.2-1Zm0 1.6a1 1 0 0 0-.6.2 1.5 1.5 0 0 0-.4.8 16 16 0 0 0 0 4.8 1.7 1.7 0 0 0 .4.9 1 1 0 0 0 1.2 0 1.5 1.5 0 0 0 .5-.8 16 16 0 0 0 0-4.9 1.7 1.7 0 0 0-.5-.8 1 1 0 0 0-.6-.2ZM405.2 282.8h-1.9v-7.2a6.5 6.5 0 0 1-2.4 1.5v-1.7a5.5 5.5 0 0 0 1.6-1 3.5 3.5 0 0 0 1.2-1.5h1.5ZM412.1 282.8h-1.9v-7.2a6.5 6.5 0 0 1-2.4 1.5v-1.7a5.5 5.5 0 0 0 1.6-1 3.5 3.5 0 0 0 1.2-1.5h1.5ZM194.5 222.7h-2v-7.2a6.5 6.5 0 0 1-2.4 1.5v-1.8a5.5 5.5 0 0 0 1.6-.9 3.5 3.5 0 0 0 1.2-1.6h1.6ZM203.7 220.9v1.8H197a4.6 4.6 0 0 1 .6-2 12.6 12.6 0 0 1 2.1-2.3 13.4 13.4 0 0 0 1.6-1.6 2 2 0 0 0 .4-1.2 1.3 1.3 0 0 0-.4-1 1.4 1.4 0 0 0-1.8 0 1.8 1.8 0 0 0-.4 1.3l-2-.2a3 3 0 0 1 1.1-2.3 3.6 3.6 0 0 1 2.3-.7 3.2 3.2 0 0 1 2.3.8 2.6 2.6 0 0 1 .8 2 3.4 3.4 0 0 1-.3 1.3 5.2 5.2 0 0 1-.7 1.2 12.1 12.1 0 0 1-1.2 1.3l-1.2 1a3.4 3.4 0 0 0-.4.6ZM344.5 222.5h-2v-7.1a6.5 6.5 0 0 1-2.4 1.4V215a5.5 5.5 0 0 0 1.7-1 3.5 3.5 0 0 0 1.1-1.5h1.6ZM347.2 219.9l1.9-.3a1.7 1.7 0 0 0 .5 1.1 1.3 1.3 0 0 0 .9.4 1.3 1.3 0 0 0 1-.5 1.7 1.7 0 0 0 .4-1.2 1.6 1.6 0 0 0-.4-1 1.2 1.2 0 0 0-1-.5 3.3 3.3 0 0 0-.8.1l.2-1.5a1.7 1.7 0 0 0 1.2-.3 1.2 1.2 0 0 0 .4-1 1 1 0 0 0-1.1-1 1.1 1.1 0 0 0-.8.3 1.6 1.6 0 0 0-.5 1l-1.7-.3a3.9 3.9 0 0 1 .5-1.5 2.5 2.5 0 0 1 1-.8 3.4 3.4 0 0 1 1.5-.3 3 3 0 0 1 2.3.9 2.3 2.3 0 0 1-.8 3.7 2.3 2.3 0 0 1 1.4.8 2.4 2.4 0 0 1 .5 1.5 3 3 0 0 1-1 2.2 3.5 3.5 0 0 1-4.5.2 3 3 0 0 1-1-2ZM257.8 82.7h-2v-7.1a6.5 6.5 0 0 1-2.4 1.4v-1.7a5.5 5.5 0 0 0 1.6-1 3.5 3.5 0 0 0 1.2-1.5h1.6ZM264.3 82.7v-2h-4v-1.6l4.2-6.3h1.6V79h1.3v1.7H266v2Zm0-3.7v-3.3L262 79ZM424.7 82.5h-1.9v-7.1a6.5 6.5 0 0 1-2.4 1.4v-1.7a5.5 5.5 0 0 0 1.6-1 3.5 3.5 0 0 0 1.2-1.5h1.5ZM427.6 80l1.9-.2a1.6 1.6 0 0 0 .5 1 1.3 1.3 0 0 0 .9.4 1.3 1.3 0 0 0 1-.5 2.2 2.2 0 0 0 .4-1.5 2 2 0 0 0-.4-1.3 1.4 1.4 0 0 0-1-.5 2 2 0 0 0-1.5.8l-1.6-.3 1-5.1h5v1.8h-3.6l-.3 1.6a2.9 2.9 0 0 1 3.5.6 3.3 3.3 0 0 1 .8 2.4 3.6 3.6 0 0 1-.7 2.2 3.1 3.1 0 0 1-2.6 1.3 3.3 3.3 0 0 1-2.3-.7 3 3 0 0 1-1-2ZM37.3 50.2v-9.9h2v9.9ZM458 50.2v-9.9h2v9.9ZM462.5 50.2v-9.9h2v9.9ZM465.7 92.6v-10h2v10ZM470.1 92.6v-10h2v10ZM474.5 92.6v-10h2v10ZM456 261.1v-9.9h2v9.9ZM463 261.1l-3.6-9.9h2.2l2.5 7.3 2.4-7.3h2.1l-3.5 9.9ZM79.1 157.6l-3.5-9.9h2.1l2.5 7.3 2.4-7.3h2.2l-3.6 10ZM79.1 261.1l-3.5-9.9h2.1l2.5 7.3 2.4-7.3h2.2l-3.6 9.9ZM86.3 261.1v-9.9h2v9.9Z" class="h"/></svg>