<svg xmlns="http://www.w3.org/2000/svg" viewBox="0 0 480 360"><defs><style>.a{fill:#07617d}.b{fill:#497285}.c{fill:#d27332}.d{fill:#f78536}.e{fill:#b05f1f}.f{fill:#fff}.g{fill:#3d91a6}.h{fill:#2b4450}.i{fill:#20485e}</style></defs><path d="M319.3 66.5V63h-55.2v28.5h-1.4v-30h56.6V58l15.8 4.2-15.8 4.3zM459.5 218.1v1.4h-74.9v3.6l-15.8-4.3 15.8-4.2v3.5h74.9zM443.6 173.3v-3.5H401v-1.5h42.6v-3.5l15.9 4.3-15.9 4.2zM443.6 122.1v-3.5h-52.9v28.5h-1.4v-30h54.3v-3.5l15.9 4.2-15.9 4.3zM242.8 74.2 238.5 90l-4.2-15.8h3.5v-50H41v39.5h-1.5v-41h199.8v51.5h3.5zM242.8 176.6l-4.3 15.9-4.2-15.9h3.5v-58.8h1.5v58.8h3.5zM350.4 129.8l-4.3 15.8-4.3-15.8h3.6V95.9h1.4v33.9h3.6z" class="a"/><path d="M397.3 262v1.4h-30v-90h1.5V262h28.5zM202.7 61.5v30h-1.5V63h-96.6v228.3H120v1.4h-16.8V61.5h99.5zM476.3 22.7v225.4h-1.4V24.2H346.8v11.2h3.6l-4.3 15.9-4.3-15.9h3.6V22.7h130.9zM202.7 117.8v174.9h-16.8v-1.4h15.3V117.8h1.5zM123.2 310.8v1.4h-72v3.5l-15.8-4.2 15.8-4.3v3.6h72zM242.7 310.8v1.4H200v3.5l-15.9-4.2 15.9-4.3v3.6h42.7z" class="a"/><path d="M259.8 220.3v135.3H51.2v3.6l-15.8-4.3 15.8-4.2v3.5h207.1V220.3h1.5zM437.1 267v-3.6h-13.4V262h13.4v-3.5l15.8 4.2-15.8 4.3zM88 27.7l15.9-4.3L88 19.2v8.5zM206.2 171.8l-4.2-15.9-4.3 15.9h8.5zM479.9 144.2l-4.3-15.9-4.2 15.9h8.5zM108.2 155.9l-4.3 15.9-4.2-15.9h8.5z" class="a"/><path d="m263.3 278.8-4.3 15.9-4.2-15.9h8.5z" class="a"/><path d="m468.3 259.8-11 19h22l-11-19z" class="b"/><path d="M471.2 262.7v-15.4h8.8v15.4z" class="c"/><circle cx="468.3" cy="262.7" r="11.7" class="d"/><path d="M452.9 260.2h15.4v5.1h-15.4z" class="c"/><circle cx="468.3" cy="262.7" r="4.4" class="e"/><path d="M456.6 277.3H480v1.5h-23.4z" class="a"/><path d="M295.6 207.1c0 8-3.3 14.6-7.3 14.6h-58.5c-4 0-7.4-6.5-7.4-14.6s3.3-14.6 7.4-14.6h58.5c4 0 7.3 6.5 7.3 14.6Z" class="d"/><path d="M295.6 207.1c0 8-3.3 14.6-7.3 14.6h-58.5c-4 0-7.4-6.5-7.4-14.6Z" class="c"/><path d="M232 223.2a1.5 1.5 0 0 1-1.5-1.5v-29.2a1.5 1.5 0 0 1 3 0v29.2a1.5 1.5 0 0 1-1.5 1.5ZM286.1 223.2a1.5 1.5 0 0 1-1.5-1.5v-29.2a1.5 1.5 0 0 1 3 0v29.2a1.5 1.5 0 0 1-1.5 1.5Z" class="e"/><path d="M235.6 218.8h4.4v8.8h-4.4zM278 218.8h4.4v8.8H278z" class="b"/><path d="M234 227.6h7.3v1.5H234zM276.6 227.6h7.3v1.5h-7.3z" class="a"/><path d="M243.3 204.2h1.5v16.1h-1.5z" class="f"/><path d="M404.6 160.3c0 8-3.2 14.6-7.3 14.6h-58.5c-4 0-7.3-6.5-7.3-14.6s3.2-14.7 7.3-14.7h58.5c4 0 7.3 6.6 7.3 14.7Z" class="d"/><path d="M404.6 160.3c0 8-3.2 14.6-7.3 14.6h-58.5c-4 0-7.3-6.5-7.3-14.6Z" class="c"/><path d="M341 176.4a1.5 1.5 0 0 1-1.5-1.5v-29.3a1.5 1.5 0 0 1 3 0V175a1.5 1.5 0 0 1-1.5 1.5ZM395.1 176.4a1.5 1.5 0 0 1-1.4-1.5v-29.3a1.5 1.5 0 0 1 2.9 0V175a1.5 1.5 0 0 1-1.5 1.5Z" class="e"/><path d="M344.6 172h4.4v8.8h-4.4zM387.1 172h4.4v8.8h-4.4z" class="b"/><path d="M343 180.8h7.3v1.5H343zM385.6 180.8h7.3v1.5h-7.3z" class="a"/><path d="M352.4 157.3h1.5v16.1h-1.5z" class="f"/><circle cx="410.5" cy="262.7" r="11.7" class="d"/><path d="M422.2 262.7a11.7 11.7 0 1 1-23.4 0Z" class="c"/><path d="M423.7 262v1.4h-4.1l-5 5-1 1.1-.8-1.3-3.2-5.5h1.7l2.6 4.4 3.6-3.7 1.5-1.4h4.7z" class="b"/><path d="M411.3 262.7h-1.7l-2.5-4.4-3.7 3.7-1.4 1.4h-4.7V262h4.1l4.9-5 1.1-1.1 3.9 6.8z" class="g"/><path d="M40.2 223.2c-16.1 0-29.2-6.6-29.2-14.6V76.9c0-8.1 13-14.7 29.2-14.7S69.5 68.8 69.5 77v131.7c0 8-13.1 14.6-29.3 14.6Z" class="d"/><path d="M40.2 223.2c-16.1 0-29.2-6.6-29.2-14.6V76.9c0-8.1 13-14.7 29.2-14.7Z" class="c"/><path d="M9.5 85.6a1.5 1.5 0 0 1 1.5-1.4h36.6a1.5 1.5 0 1 1 0 2.9H11a1.5 1.5 0 0 1-1.5-1.5ZM9.5 122.2a1.5 1.5 0 0 1 1.5-1.4h36.6a1.5 1.5 0 1 1 0 2.9H11a1.5 1.5 0 0 1-1.5-1.5ZM9.5 158.8a1.5 1.5 0 0 1 1.5-1.5h36.6a1.5 1.5 0 1 1 0 3H11a1.5 1.5 0 0 1-1.5-1.5ZM9.5 195.4a1.5 1.5 0 0 1 1.5-1.5h36.6a1.5 1.5 0 1 1 0 3H11a1.5 1.5 0 0 1-1.5-1.5Z" class="e"/><path d="M7.3 210.8h65.9v36.6H7.3z" class="b"/><path d="M60.7 102.5v108.3h-2.9v-32.2h-7.3v-3h7.3V142h-7.3v-2.9h7.3v-33.7h-7.3v-2.9h10.2z" class="h"/><path d="M0 245.2h80.5v4.4H0zM5.1 208.6h70.2v4.4H5.1z" class="a"/><path d="m346.1 64.4-11.7 33.7h23.4l-11.7-33.7z" class="c"/><path d="M346.1 64.4v33.7h-11.7l11.7-33.7z" class="e"/><path d="M335.1 51.3h22v22h-22z" class="d"/><path d="M335.1 51.3h11v22h-11z" class="c"/><path d="M279.4 104.7c0 8-3.3 14.6-7.3 14.6h-73.2c-4 0-7.3-6.6-7.3-14.6s3.3-14.7 7.3-14.7h73.2c4 0 7.3 6.6 7.3 14.7Z" class="d"/><path d="M279.4 104.7c0 8-3.3 14.6-7.3 14.6h-73.2c-4 0-7.3-6.6-7.3-14.6Z" class="c"/><path d="M208.4 120.8a1.5 1.5 0 0 1-1.5-1.5V90a1.5 1.5 0 0 1 3 0v29.3a1.5 1.5 0 0 1-1.5 1.5ZM269.9 120.8a1.5 1.5 0 0 1-1.5-1.5V90a1.5 1.5 0 0 1 3 0v29.3a1.5 1.5 0 0 1-1.5 1.5Z" class="e"/><path d="M212.1 116.4h4.4v8.8h-4.4zM261.8 116.4h4.4v8.8h-4.4z" class="b"/><path d="M210.5 125.2h7.3v1.5h-7.3zM260.4 125.2h7.3v1.5h-7.3zM119.3 289.1h5.9v5.9h-5.9zM180.7 289.1h5.9v5.9h-5.9z" class="a"/><path d="M173.4 272.5v10.2h-6.8v-8.5a.7.7 0 0 0-.7-.8h-12v-6.8h13.7a5.9 5.9 0 0 1 5.8 5.9Z" class="g"/><path d="M154.9 265.6v8.8H145a1.5 1.5 0 0 0-1.4 1.5v2h-8.8v-3.5a8.8 8.8 0 0 1 8.8-8.8Z" class="b"/><path d="M132.4 277.3h13.7v5.4h-13.7zM180.7 310.5h3.4v2h-3.4zM121.7 310.5h3.4v2h-3.4z" class="a"/><path d="M182.2 292c0 5.4-2.2 9.7-4.9 9.7h-48.8c-2.7 0-4.8-4.3-4.8-9.7s2.1-9.8 4.8-9.8h48.8c2.7 0 4.9 4.4 4.9 9.8ZM181.2 311.5c0 3.8-2 6.8-4.7 6.8h-47.2c-2.6 0-4.7-3-4.7-6.8s2.1-6.8 4.7-6.8h47.2c2.6 0 4.7 3 4.7 6.8Z" class="d"/><path d="M182.2 292c0 5.4-2.2 9.7-4.9 9.7h-48.8c-2.7 0-4.8-4.3-4.8-9.7ZM181.2 311.5c0 3.8-2 6.8-4.7 6.8h-47.2c-2.6 0-4.7-3-4.7-6.8Z" class="c"/><path d="M130.5 319.3a1 1 0 0 1-1-1v-36a1 1 0 0 1 2 0v36a1 1 0 0 1-1 1ZM175.4 319.3a1 1 0 0 1-1-1v-36a1 1 0 0 1 2 0v36a1 1 0 0 1-1 1Z" class="e"/><path d="M129.1 315.9h2.9v5.9h-2.9zM173.9 315.9h2.9v5.9h-2.9z" class="b"/><path d="M128 321.7h4.9v1H128zM172.9 321.7h4.9v1h-4.9z" class="a"/><path d="M139.3 313.4a3.4 3.4 0 0 1-3.4-3.4v-13.6a3.4 3.4 0 1 1 6.8 0V310a3.4 3.4 0 0 1-3.4 3.4Z" class="i"/><path d="M153.4 289.5h18v22.9h-18z" class="b"/><path d="M164.6 293.9h2.4v2.4h-2.4zM164.6 298.8h2.4v2.4h-2.4zM164.6 303.7h2.4v2.4h-2.4z" class="i"/><path d="M151 14.7V0h3v14.7ZM147.7 53.4V38.8h3v14.6ZM154.2 53.4V38.8h3v14.6ZM218.3 302.7V288h3v14.7ZM224.8 302.7V288h3v14.7ZM231.3 302.7V288h3v14.7ZM57.4 302.7V288h3v14.7ZM67.8 302.7 62.5 288h3.2l3.8 10.9L73 288h3L71 302.7ZM62.3 346.1l-5.2-14.6h3.2l3.7 10.8 3.6-10.8h3.1L65.5 346ZM287.7 53.4l-5.3-14.6h3.2l3.8 10.8 3.5-10.8h3.2l-5.3 14.6ZM298.3 53.4V38.8h3v14.6ZM421.4 109l-5.2-14.6h3.2l3.7 10.8 3.6-10.8h3.1l-5.2 14.7ZM431.3 109V94.5h3V109ZM437 109V94.5h3V109ZM415.7 210l-5.2-14.6h3.2l3.7 10.8 3.6-10.8h3.1L419 210ZM425.6 210v-14.6h3V210ZM431.3 210v-14.6h3V210ZM437 210v-14.6h3V210ZM422 160.3v-14.7h3v14.7ZM426.3 160.3l5-7.7-4.6-7h3.5l3 4.7 2.8-4.7h3.5l-4.6 7.1 5 7.6h-3.6l-3.2-5.1-3.3 5ZM182.9 112h-2.8v-10.6a9.7 9.7 0 0 1-3.6 2.2V101a8.2 8.2 0 0 0 2.3-1.4 5.2 5.2 0 0 0 1.8-2.3h2.3ZM312.8 211.9v2.6h-9.9a6.8 6.8 0 0 1 1-2.8 18.7 18.7 0 0 1 3.1-3.6 19.9 19.9 0 0 0 2.4-2.4 3 3 0 0 0 .6-1.7 2 2 0 0 0-.5-1.4 2.1 2.1 0 0 0-2.8 0 2.7 2.7 0 0 0-.6 1.8l-2.8-.3a4.6 4.6 0 0 1 1.5-3.3 5.3 5.3 0 0 1 3.3-1 4.8 4.8 0 0 1 3.4 1.1 3.8 3.8 0 0 1 1.3 3 5 5 0 0 1-.4 1.8 7.7 7.7 0 0 1-1.1 1.9 18 18 0 0 1-1.8 1.9l-1.7 1.6a5 5 0 0 0-.6.8ZM150 252.7l2.7-.3a2.6 2.6 0 0 0 .7 1.6 2 2 0 0 0 1.4.5 1.9 1.9 0 0 0 1.5-.6 2.6 2.6 0 0 0 .6-1.8 2.4 2.4 0 0 0-.6-1.7 1.8 1.8 0 0 0-1.4-.6 4.9 4.9 0 0 0-1.3.2l.3-2.3a2.5 2.5 0 0 0 1.8-.5 1.8 1.8 0 0 0 .6-1.4 1.5 1.5 0 0 0-1.6-1.6 1.7 1.7 0 0 0-1.3.5 2.3 2.3 0 0 0-.6 1.5l-2.6-.5a5.8 5.8 0 0 1 .8-2.1 3.7 3.7 0 0 1 1.6-1.3 5.1 5.1 0 0 1 2.1-.4 4.4 4.4 0 0 1 3.4 1.3 3.3 3.3 0 0 1-1.1 5.5 3.4 3.4 0 0 1 2 1.2 3.5 3.5 0 0 1 .7 2.3 4.4 4.4 0 0 1-1.4 3.3 5.3 5.3 0 0 1-6.8.2 4.5 4.5 0 0 1-1.5-3ZM370.4 69.6v-3h-6v-2.4l6.4-9.3h2.3v9.3h1.8v2.4h-1.8v3Zm0-5.4v-5l-3.4 5ZM365.5 134.3l2.8-.3a2.4 2.4 0 0 0 .7 1.5 2 2 0 0 0 1.3.6 1.9 1.9 0 0 0 1.5-.7 3.3 3.3 0 0 0 .6-2.2 3 3 0 0 0-.6-2 2 2 0 0 0-1.5-.7 2.9 2.9 0 0 0-2.2 1l-2.3-.3 1.4-7.6h7.5v2.6h-5.3l-.5 2.5a4.3 4.3 0 0 1 5.1 1 4.9 4.9 0 0 1 1.3 3.5 5.3 5.3 0 0 1-1 3.2 4.7 4.7 0 0 1-4 2 5 5 0 0 1-3.3-1.2 4.5 4.5 0 0 1-1.5-2.9ZM415.1 288l-2.7.3a2 2 0 0 0-.5-1.3 1.5 1.5 0 0 0-1.1-.4 1.8 1.8 0 0 0-1.5.8 6.8 6.8 0 0 0-.8 3.4 3.3 3.3 0 0 1 2.6-1.3 4 4 0 0 1 3 1.4 4.9 4.9 0 0 1 1.3 3.4 5 5 0 0 1-1.3 3.6 4.8 4.8 0 0 1-7-.3q-1.5-1.8-1.5-5.7 0-4 1.5-5.8a4.8 4.8 0 0 1 3.9-1.8 4.1 4.1 0 0 1 2.7 1 4.4 4.4 0 0 1 1.4 2.7Zm-6.4 6.1a3.2 3.2 0 0 0 .7 2.1 1.9 1.9 0 0 0 1.4.8 1.6 1.6 0 0 0 1.3-.6 3 3 0 0 0 .5-2 3.2 3.2 0 0 0-.5-2.1 1.8 1.8 0 0 0-2.8 0 2.8 2.8 0 0 0-.6 1.8ZM463.9 287.4v-2.6h9.6v2a15.1 15.1 0 0 0-2.4 3.4 19.5 19.5 0 0 0-1.9 4.7 17.2 17.2 0 0 0-.6 4.4h-2.7a18.9 18.9 0 0 1 1.2-6.2 20.7 20.7 0 0 1 3.2-5.7Z" class="h"/></svg>