<svg xmlns="http://www.w3.org/2000/svg" viewBox="0 0 600 415" width="600" height="415"><defs><style>.a{fill:#07617d}.b{fill:#f78536}.c{fill:#d27332}.d{fill:#b05f1f}.e{fill:#497285}.g{fill:#2b4450}</style></defs><path d="M452.4 6.2V23h4.3l-5.2 19.7-5.4-19.7h4.4V6.2H306.4V23h4.3l-5.2 19.7L300 23h4.5V6.2H160.3V23h4.5l-5.3 19.7-5.3-19.7h4.4V4.4h440.7v1.8Zm127 138.5v-4.4h-63.2v53.9h-1.7v-55.7h65v-4.4l19.8 5.3Zm-115 158.8V299h-81.3v35.7h-2v-37.4h83.4v-4.5l19.8 5.4-19.8 5.3ZM256 398.7v4.5h81.5v-35.7h1.9v37.4h-83.4v4.4l-19.7-5.3ZM125 55.2V51H51.8v132.3H50v-134h75v-4.6L145 50Zm33.6 44h1.9v95h-2Zm169.7 161.5v74h-1.9v-72h-135V227h1.9v33.7Zm9.1-33.7h1.9v107.6h-1.9Z" class="a"/><path d="M487 227v35.6H350.1v72h-1.7v-73.9h136.8V227Zm-268-73.2 5.3-19.9 5.2 19.9ZM154.1 136l5.3 19.9 5.3-19.9Z" class="a"/><path d="M271 62.6v-4.4h-45.8v136h-1.9V56.4h47.8V52l19.8 5.2Zm33.6 36.7h1.9v94.9h-1.9Zm59.5 54.5 5.2-19.9 5.4 19.9ZM389.1 0l-19.8 5.4 19.9 5.2Zm146 0-19.7 5.4 19.7 5.2ZM243 0l-19.8 5.4 19.8 5.2Z" class="a"/><path d="m300.1 136 5.4 19.9 5.2-19.9Zm117-73.4v-4.4h-46.9v136h-1.7V56.4H417V52l19.8 5.2Zm33.4 36.7h1.9v94.9h-1.9Z" class="a"/><path d="m446.1 136 5.4 19.9 5.2-19.9Z" class="a"/><path d="M400.4 351c0 10.1-4.1 18.4-9.1 18.4h-73c-5 0-9.2-8.3-9.2-18.4s4.1-18.2 9.1-18.2h73c5 0 9.2 8.3 9.2 18.2Z" class="b"/><path d="M400.4 351c0 10.1-4.1 18.4-9.1 18.4h-73c-5 0-9.2-8.3-9.2-18.4Z" class="c"/><path d="M321 371.1a1.9 1.9 0 0 1-1.8-1.7v-36.6a1.9 1.9 0 0 1 3.6 0v36.6a1.9 1.9 0 0 1-1.9 1.7Zm67.5 0a1.9 1.9 0 0 1-1.8-1.7v-36.6a1.9 1.9 0 1 1 3.7 0v36.6a1.9 1.9 0 0 1-1.9 1.7Z" class="d"/><path d="M325.6 365.7h5.4v11h-5.4Zm52.8 0h5.5v11h-5.5Z" class="e"/><path d="M323.6 376.6h9v1.9h-9Zm53 0h9.2v1.9h-9.1Z" class="a"/><path fill="#fff" d="M353.4 347.4h1.8v20h-1.8Z"/><path d="M50.9 382c-20.1 0-36.5-8-36.5-18.1V199.5c0-10 16.2-18.3 36.5-18.3s36.5 8.2 36.5 18.3v164.2c0 10-16.3 18.3-36.6 18.3Z" class="b"/><path d="M50.9 382c-20.1 0-36.5-8-36.5-18.1V199.5c0-10 16.2-18.3 36.5-18.3Z" class="c"/><path d="M12.6 210.6a1.9 1.9 0 0 1 1.8-1.9h45.7a1.9 1.9 0 1 1 0 3.8H14.4a1.9 1.9 0 0 1-1.8-1.9Zm0 45.5a1.9 1.9 0 0 1 1.8-1.7h45.7a1.9 1.9 0 1 1 0 3.7H14.4a1.9 1.9 0 0 1-1.8-1.8v-.2Zm0 45.7a1.9 1.9 0 0 1 1.8-1.8h45.7a1.9 1.9 0 1 1 0 3.6H14.4a1.9 1.9 0 0 1-1.8-1.8Zm0 45.6a1.9 1.9 0 0 1 1.8-1.7h45.7a1.9 1.9 0 1 1 0 3.6H14.4a1.9 1.9 0 0 1-1.8-1.9Z" class="d"/><path d="M9.8 366.6H92v45.7H9.8Z" class="e"/><path d="M76.4 231.6v135h-3.6v-40.1h-9.1v-3.7h9.1v-42h-9.1v-3.6h9.1v-42h-9.1v-3.6Z" class="g"/><path d="M.7 409.5h100.4v5.5H.7ZM7.1 364h87.5v5.5H7.1Z" class="a"/><path d="M241.6 210.6c0 10-4 18.2-9 18.2h-91.3c-5 0-9.1-8.2-9.1-18.2s4-18.3 9-18.3h91.3c5 0 9.1 8.2 9.1 18.3Z" class="b"/><path d="M241.6 210.6c0 10-4 18.2-9 18.2h-91.3c-5 0-9.1-8.2-9.1-18.2Z" class="c"/><path d="M153.1 230.7a1.9 1.9 0 0 1-1.9-1.9v-36.5a1.9 1.9 0 1 1 3.8 0v36.5a1.9 1.9 0 0 1-1.9 1.9Zm76.7 0a1.9 1.9 0 0 1-1.9-1.9v-36.5a1.9 1.9 0 0 1 3.8 0v36.5a1.9 1.9 0 0 1-2 1.9Z" class="d"/><path d="M157.7 225.2h5.5v11h-5.5Zm62 0h5.5v11h-5.5Z" class="e"/><path d="M155.7 236.2h9.1v1.9h-9Zm62.1 0h9.1v1.9h-9Z" class="a"/><path d="M387.5 210.6c0 10-4 18.2-9 18.2h-91.2c-5 0-9.2-8.2-9.2-18.2s4-18.3 9.2-18.3h91.1c5 0 9.1 8.2 9.1 18.3Z" class="b"/><path d="M387.5 210.6c0 10-4 18.2-9 18.2h-91.2c-5 0-9.2-8.2-9.2-18.2Z" class="c"/><path d="M299.1 230.7a1.9 1.9 0 0 1-1.8-1.9v-36.5a1.9 1.9 0 0 1 3.7 0v36.5a1.9 1.9 0 0 1-1.9 1.9Zm76.6 0a1.9 1.9 0 0 1-1.8-1.9v-36.5a1.9 1.9 0 0 1 3.7 0v36.5a1.9 1.9 0 0 1-2 1.9Z" class="d"/><path d="M303.6 225.2h5.5v11h-5.5Zm62.1 0h5.5v11h-5.5Z" class="e"/><path d="M301.6 236.2h9.1v1.9h-9Zm62.2 0h9.1v1.9h-9Z" class="a"/><path d="M533.6 210.6c0 10-4.2 18.2-9.1 18.2h-91.3c-5 0-9.1-8.2-9.1-18.2s4-18.3 9-18.3h91.4c5 0 9 8.2 9 18.3Z" class="b"/><path d="M533.6 210.6c0 10-4.2 18.2-9.1 18.2h-91.3c-5 0-9.1-8.2-9.1-18.2Z" class="c"/><path d="M445 230.7a1.9 1.9 0 0 1-1.7-1.9v-36.5a1.9 1.9 0 0 1 3.6 0v36.5a1.9 1.9 0 0 1-1.9 1.9Zm76.7 0a1.9 1.9 0 0 1-1.9-1.9v-36.5a1.9 1.9 0 0 1 3.8 0v36.5a1.9 1.9 0 0 1-1.9 1.9Z" class="d"/><path d="M449.6 225.2h5.5v11h-5.5Zm62.1 0h5.5v11h-5.5Z" class="e"/><path d="M447.6 236.2h9.1v1.9h-9Zm62.3 0h9v1.9h-9Z" class="a"/><path d="m305.5 59.1-14.6 42h29.2l-14.6-42Z" class="c"/><circle cx="305.5" cy="57.2" r="14.6" class="b" transform="rotate(-77 305.5 57.2)"/><path d="M305.5 59.1v42h-14.6Z" class="d"/><path d="M305.5 42.6a14.6 14.6 0 0 0 0 29.2Zm-146 16.5-14.6 42H174Z" class="c"/><circle cx="159.5" cy="57.2" r="14.6" class="b"/><path d="M159.5 59.1v42h-14.6Z" class="d"/><path d="M159.5 42.6a14.6 14.6 0 0 0 0 29.2Zm292 16.5-14.6 42h29.2l-14.6-42Z" class="c"/><circle cx="451.5" cy="57.2" r="14.6" class="b"/><path d="M451.5 59.1v42H437Z" class="d"/><path d="M451.5 42.6a14.6 14.6 0 1 0 0 29.2Z" class="c"/><path d="m332.2 176 3.5-.3a3 3 0 0 0 .8 1.9 2.5 2.5 0 0 0 1.8.6 2.4 2.4 0 0 0 1.9-.9 4.1 4.1 0 0 0 .7-2.6 3.7 3.7 0 0 0-.7-2.5 2.5 2.5 0 0 0-2-.9 3.6 3.6 0 0 0-2.8 1.3l-2.9-.4 2-9.5h9.1v3.3H337l-.5 3a5.4 5.4 0 0 1 6.3 1.2 6.1 6.1 0 0 1 1.7 4.4 6.6 6.6 0 0 1-1.4 4 5.9 5.9 0 0 1-5 2.5 6.2 6.2 0 0 1-4-1.4 5.6 5.6 0 0 1-2-3.7Zm-140.3 5v-3.7h-7.5v-3l8-11.6h3v11.6h2.2v3h-2.3v3.8Zm0-6.7v-6.2l-4.1 6.2Zm284-113 3.3-.4a3.2 3.2 0 0 0 .9 2 2.5 2.5 0 0 0 3.5 0v-.2a3.2 3.2 0 0 0 .8-2.2 3 3 0 0 0-.7-2.1 2.2 2.2 0 0 0-1.8-.8 6.2 6.2 0 0 0-1.6.3l.4-3a3.1 3.1 0 0 0 2.2-.5 2.2 2.2 0 0 0 .8-1.8 1.9 1.9 0 0 0-2-2 2.1 2.1 0 0 0-1.6.7 3 3 0 0 0-.8 1.8l-3.2-.6a7.2 7.2 0 0 1 1-2.6 4.6 4.6 0 0 1 2-1.6 6.4 6.4 0 0 1 2.6-.5 5.5 5.5 0 0 1 4.2 1.6 4.1 4.1 0 0 1-1.3 6.8 4.2 4.2 0 0 1 2.4 1.5 4.4 4.4 0 0 1 1 2.9 5.5 5.5 0 0 1-1.8 4.1 6.6 6.6 0 0 1-8.5.3 5.6 5.6 0 0 1-1.9-3.8ZM340.7 63v3.4h-12.4a8.5 8.5 0 0 1 1.3-3.7 23.3 23.3 0 0 1 3.8-4.3 24.8 24.8 0 0 0 3-3 3.7 3.7 0 0 0 .8-2.1 2.5 2.5 0 0 0-.6-1.8 2.6 2.6 0 0 0-3.5 0 3.4 3.4 0 0 0-.8 2.1l-3.5-.2a5.7 5.7 0 0 1 1.9-4.2 6.6 6.6 0 0 1 4.1-1.3 6 6 0 0 1 4.3 1.5 4.7 4.7 0 0 1 1.6 3.7 6.2 6.2 0 0 1-.5 2.3 9.6 9.6 0 0 1-1.4 2.4 22.5 22.5 0 0 1-2.2 2.2l-2.2 2.1a6.1 6.1 0 0 0-.7.9ZM191 66.5h-3.5V53.2a12 12 0 0 1-4.5 2.5v-3a10.2 10.2 0 0 0 3-1.7 6.5 6.5 0 0 0 2.1-3h3ZM490 167l-3.4.3a2.5 2.5 0 0 0-.7-1.6 1.9 1.9 0 0 0-1.2-.5 2.2 2.2 0 0 0-2 1 8.5 8.5 0 0 0-1 4.3 4.1 4.1 0 0 1 3.2-1.7 5 5 0 0 1 3.8 1.8 6.1 6.1 0 0 1 1.6 4.2 6.2 6.2 0 0 1-1.6 4.5 6 6 0 0 1-8.5 0l-.3-.4q-1.8-2.2-1.8-7 0-5 1.8-7.3a6 6 0 0 1 4.9-2.2 5.1 5.1 0 0 1 3.5 1.2 5.5 5.5 0 0 1 1.6 3.4Zm-8 7.6a4 4 0 0 0 .8 2.6 2.4 2.4 0 0 0 1.8 1 2 2 0 0 0 1.6-.9 3.7 3.7 0 0 0 .7-2.5 4 4 0 0 0-.7-2.5 2.2 2.2 0 0 0-3.5 0 3.5 3.5 0 0 0-.6 2.3ZM408.8 376v-3.2h12v2.4a18.8 18.8 0 0 0-3 4.3 24.3 24.3 0 0 0-2.4 5.8 21.5 21.5 0 0 0-.7 5.5h-3.4a23.6 23.6 0 0 1 1.5-7.7 25.8 25.8 0 0 1 4-7.1Zm-145.6 17v-18.4h3.7v18.4Zm12 0-6.6-18.4h4l4.6 13.6 4.4-13.6h4l-6.6 18.4Zm279.3-264.7v-18.3h3.7v18.3Zm7 0v-18.3h3.7v18.3Zm7 0v-18.3h3.8v18.3Zm-7-93.9V16.3h3.7v18.2Zm7 0V16.3h3.8v18.2Zm-129 292.8v-18h3.8v18.2Zm7 0v-18h3.7v18.2Zm7.1 0v-18h3.7v18.2ZM91.3 37.2V19H95v18.2Z" class="g"/></svg>