<svg xmlns="http://www.w3.org/2000/svg" viewBox="0 0 480 375"><defs><style>.a{fill:#07617d}.b{fill:#d27332}.c{fill:#b05f1f}.d{fill:#f78536}.e{fill:#497285}.f{fill:#fff}.g{fill:#3d91a6}.h{fill:#2b4450}</style></defs><path d="M302.4 50.3v-3.8h-14a5 5 0 0 0 0-1.6 5.6 5.6 0 0 0-11 0 5 5 0 0 0 0 1.6h-89v151.4h-1.7V45h89a7.2 7.2 0 0 1 14.3 0h12.4V41l17.3 4.7ZM476 0v340.6h-1.6V1.6H332.6v13.9h3.8l-4.6 17.4-4.7-17.4h3.9V0h145zM331 82.5h1.6v115.4H331zM138.6 82.5h1.6v115.4h-1.6z" class="a"/><path d="M436.2 154.5v-3.8h-55.6v47.2H379V149h57.2v-3.8l17.4 4.7-17.4 4.6zM110 50.3v-3.8H44.9v100.1h-1.6V44.9H110V41l17.4 4.7-17.4 4.6zM453.6 291.7v1.6h-78.8v3.9l-17.4-4.7 17.4-4.7v3.9h78.8zM436.2 228.2v-3.8h-43.5v-1.6h43.5v-3.9l17.4 4.7-17.4 4.6zM433 361.3v-3.9h-14.7v-1.6H433v-3.9l17.4 4.7-17.4 4.7z" class="a"/><path d="M389.4 355.8v1.6h-32.8V226.8h1.6v129h31.2zM182.9 146.4l4.6-17.4 4.7 17.4h-9.3zM278.2 146.4l4.7-17.4 4.6 17.4h-9.3z" class="a"/><path d="m352.7 251.1 4.7 17.3 4.7-17.3h-9.4zM283.7 0v340.6h-1.6V1.6H140.2v13.9h3.9l-4.7 17.4-4.6-17.4h3.8V0h145.1z" class="a"/><path d="M261.2 291.7v1.6h-78.8v3.9l-17.3-4.7 17.3-4.7v3.9h78.8zM243.9 228.2v-3.8h-43.6v-1.6h43.6v-3.9l17.3 4.7-17.3 4.6zM240.7 361.3v-3.9H226v-1.6h14.7v-3.9l17.3 4.7-17.3 4.7z" class="a"/><path d="M197.1 355.8v1.6h-32.8V226.8h1.6v129h31.2z" class="a"/><path d="m160.4 251.1 4.7 17.3 4.6-17.3h-9.3zM470.5 191.8l4.7-17.4 4.6 17.4h-9.3zM327.1 130.9l4.7 17.3 4.6-17.3h-9.3zM134.8 130.9l4.6 17.3 4.7-17.3h-9.3z" class="a"/><path d="m139.4 47.3-12.8 36.8h25.7l-12.9-36.8z" class="b"/><path d="M139.4 47.3v36.8h-12.8l12.8-36.8z" class="c"/><path d="M127.4 32.9h24v24h-24z" class="d"/><path d="M127.4 32.9h12v24h-12zM331.8 47.3l-12.9 36.8h25.7l-12.8-36.8z" class="b"/><path d="M331.8 47.3v36.8h-12.9l12.9-36.8z" class="c"/><path d="M319.7 32.9h24v24h-24z" class="d"/><path d="M319.7 32.9h12v24h-12z" class="b"/><path d="m467.2 353.4-12 20.8h24l-12-20.8z" class="e"/><path d="M470.4 356.6v-16.8h9.6v16.8z" class="b"/><circle cx="467.2" cy="356.6" r="12.8" class="d"/><path d="M450.4 353.8h16.8v5.5h-16.8z" class="b"/><circle cx="467.2" cy="356.6" r="4.8" class="c"/><path d="M454.4 372.6H480v1.6h-25.6z" class="a"/><path d="M395.9 212.4c0 8.8-3.6 16-8 16h-64.2c-4.4 0-8-7.2-8-16s3.6-16 8-16h64.1c4.5 0 8 7.1 8 16Z" class="d"/><path d="M395.9 212.4c0 8.8-3.6 16-8 16h-64.2c-4.4 0-8-7.2-8-16Z" class="b"/><path d="M326.1 230a1.6 1.6 0 0 1-1.6-1.6v-32a1.6 1.6 0 1 1 3.2 0v32a1.6 1.6 0 0 1-1.6 1.6ZM385.4 230a1.6 1.6 0 0 1-1.6-1.6v-32a1.6 1.6 0 1 1 3.2 0v32a1.6 1.6 0 0 1-1.6 1.6Z" class="c"/><path d="M330.2 225.2h4.8v9.6h-4.8zM376.6 225.2h4.8v9.6h-4.8z" class="e"/><path d="M328.4 234.8h8v1.6h-8zM375 234.8h8v1.6h-8z" class="a"/><path d="M338.6 209.1h1.6v17.6h-1.6z" class="f"/><circle cx="403.9" cy="356.6" r="12.8" class="d"/><path d="M416.7 356.6a12.8 12.8 0 0 1-25.7 0Z" class="b"/><path d="M418.3 355.8v1.6h-4.5l-5.4 5.5-1.1 1.2-.9-1.5-3.5-6h1.9l2.8 4.8 4-4 1.6-1.6h5.1z" class="e"/><path d="M404.8 356.6h-1.9l-2.8-4.8-3.9 4-1.6 1.6h-5.2v-1.6h4.5l5.4-5.5 1.2-1.2 4.3 7.5z" class="g"/><path d="M44 321.3c-17.6 0-32-7.1-32-16V161.1c0-8.9 14.4-16 32-16s32.1 7.1 32.1 16v144.2c0 8.9-14.3 16-32 16Z" class="d"/><path d="M44 321.3c-17.6 0-32-7.1-32-16V161.1c0-8.9 14.4-16 32-16Z" class="b"/><path d="M10.4 170.7A1.6 1.6 0 0 1 12 169h40a1.6 1.6 0 1 1 0 3.2H12a1.6 1.6 0 0 1-1.6-1.6ZM10.4 210.8A1.6 1.6 0 0 1 12 209h40a1.6 1.6 0 1 1 0 3.3H12a1.6 1.6 0 0 1-1.6-1.6ZM10.4 250.8a1.6 1.6 0 0 1 1.6-1.6h40a1.6 1.6 0 1 1 0 3.2H12a1.6 1.6 0 0 1-1.6-1.6ZM10.4 290.9a1.6 1.6 0 0 1 1.6-1.6h40a1.6 1.6 0 1 1 0 3.2H12a1.6 1.6 0 0 1-1.6-1.6Z" class="c"/><path d="M8 307.7h72.1v40.1H8z" class="e"/><path d="M66.5 189.1v118.6h-3.2v-35.2h-8v-3.3h8v-36.8h-8v-3.2h8v-36.9h-8v-3.2h11.2z" class="h"/><path d="M0 345.4h88.1v4.8H0zM5.6 305.3h76.9v4.8H5.6z" class="a"/><path d="m274.9 353.4-12.1 20.8h24.1l-12-20.8z" class="e"/><path d="M278 356.6v-16.8h9.7v16.8z" class="b"/><circle cx="274.9" cy="356.6" r="12.8" class="d"/><path d="M258 353.8h16.8v5.5H258z" class="b"/><circle cx="274.9" cy="356.6" r="4.8" class="c"/><path d="M262 372.6h25.6v1.6H262z" class="a"/><path d="M203.5 212.4c0 8.8-3.6 16-8 16h-64c-4.5 0-8-7.2-8-16s3.5-16 8-16h64c4.4 0 8 7.1 8 16Z" class="d"/><path d="M203.5 212.4c0 8.8-3.6 16-8 16h-64c-4.5 0-8-7.2-8-16Z" class="b"/><path d="M133.8 230a1.6 1.6 0 0 1-1.6-1.6v-32a1.6 1.6 0 1 1 3.2 0v32a1.6 1.6 0 0 1-1.6 1.6ZM193.1 230a1.6 1.6 0 0 1-1.6-1.6v-32a1.6 1.6 0 1 1 3.2 0v32a1.6 1.6 0 0 1-1.6 1.6Z" class="c"/><path d="M137.8 225.2h4.8v9.6h-4.8zM184.3 225.2h4.8v9.6h-4.8z" class="e"/><path d="M136.1 234.8h8v1.6h-8zM182.7 234.8h8v1.6h-8z" class="a"/><path d="M146.3 209.1h1.6v17.6h-1.6z" class="f"/><circle cx="211.6" cy="356.6" r="12.8" class="d"/><path d="M224.4 356.6a12.8 12.8 0 1 1-25.7 0Z" class="b"/><path d="M226 355.8v1.6h-4.5l-5.4 5.5-1.2 1.2-.8-1.5-3.5-6h1.9l2.8 4.8 4-4 1.5-1.6h5.2z" class="e"/><path d="M212.5 356.6h-1.9l-2.8-4.8-4 4-1.5 1.6h-5.2v-1.6h4.5l5.4-5.5 1.2-1.2 4.3 7.5z" class="g"/><path d="M453.5 325.2a3.4 3.4 0 0 1-2.2-3.3 3.9 3.9 0 0 1 1.2-3 6 6 0 0 1 7.1 0 3.9 3.9 0 0 1 1.3 3 3.5 3.5 0 0 1-.6 2 3.7 3.7 0 0 1-1.6 1.3 4.3 4.3 0 0 1 2 1.6 4.1 4.1 0 0 1 .7 2.3 4.8 4.8 0 0 1-1.4 3.7 5.2 5.2 0 0 1-3.8 1.4 5.7 5.7 0 0 1-3.6-1.2 4.5 4.5 0 0 1-1.7-3.7 4.6 4.6 0 0 1 .6-2.4 4.2 4.2 0 0 1 2-1.7Zm.4 3.8a2.8 2.8 0 0 0 .6 2 2.1 2.1 0 0 0 1.7.7 2 2 0 0 0 1.6-.7 2.8 2.8 0 0 0 .6-2 2.6 2.6 0 0 0-.7-1.8 2.1 2.1 0 0 0-1.6-.7 2 2 0 0 0-1.7.8 2.9 2.9 0 0 0-.5 1.7Zm.3-6.9a2 2 0 0 0 .5 1.4 1.9 1.9 0 0 0 1.4.6 2 2 0 0 0 1.4-.6 2 2 0 0 0 .5-1.4 1.8 1.8 0 0 0-1.9-2 2 2 0 0 0-1.4.6 1.9 1.9 0 0 0-.5 1.4ZM260.9 321.2v-2.9h10.5v2.2a16.6 16.6 0 0 0-2.7 3.7 21.4 21.4 0 0 0-2 5.1 18.8 18.8 0 0 0-.7 4.9h-3a20.7 20.7 0 0 1 1.4-6.8 22.7 22.7 0 0 1 3.5-6.2ZM409.8 321.8l-3 .3a2.2 2.2 0 0 0-.6-1.4 1.7 1.7 0 0 0-1.2-.4 2 2 0 0 0-1.6.9 7.4 7.4 0 0 0-.9 3.6 3.6 3.6 0 0 1 2.9-1.3 4.4 4.4 0 0 1 3.3 1.4 5.3 5.3 0 0 1 1.4 3.8 5.4 5.4 0 0 1-1.5 4 5.3 5.3 0 0 1-7.7-.4q-1.5-2-1.6-6.2 0-4.4 1.7-6.4a5.3 5.3 0 0 1 4.2-2 4.5 4.5 0 0 1 3 1 4.8 4.8 0 0 1 1.6 3Zm-7 6.7a3.5 3.5 0 0 0 .7 2.3 2 2 0 0 0 1.6.8 1.8 1.8 0 0 0 1.4-.7 3.4 3.4 0 0 0 .6-2.2 3.5 3.5 0 0 0-.7-2.3 2 2 0 0 0-3 0 3 3 0 0 0-.6 2ZM206.1 329.8l3.1-.4a2.6 2.6 0 0 0 .8 1.7 2.1 2.1 0 0 0 1.5.6 2 2 0 0 0 1.6-.8 3.6 3.6 0 0 0 .7-2.4 3.2 3.2 0 0 0-.7-2.2 2.2 2.2 0 0 0-1.7-.7 3.1 3.1 0 0 0-2.4 1.2l-2.5-.4 1.6-8.4h8.1v3h-5.8l-.5 2.7a4.7 4.7 0 0 1 5.6 1 5.4 5.4 0 0 1 1.4 3.8 5.8 5.8 0 0 1-1.1 3.5 5.1 5.1 0 0 1-4.4 2.2 5.4 5.4 0 0 1-3.6-1.2 5 5 0 0 1-1.7-3.2ZM357 186.7v-3.2h-6.5v-2.7l7-10.2h2.5v10.2h2v2.7h-2v3.2Zm0-6v-5.4l-3.7 5.5ZM159.2 182.2l3-.4a2.8 2.8 0 0 0 .8 1.8 2.2 2.2 0 0 0 3.1-.2 2.8 2.8 0 0 0 .7-2 2.6 2.6 0 0 0-.7-1.8 2 2 0 0 0-1.5-.6 5.4 5.4 0 0 0-1.4.2l.3-2.5a2.7 2.7 0 0 0 2-.6 2 2 0 0 0 .6-1.5 1.7 1.7 0 0 0-1.8-1.8 1.9 1.9 0 0 0-1.3.6 2.6 2.6 0 0 0-.7 1.6l-2.8-.5a6.3 6.3 0 0 1 .9-2.3 4 4 0 0 1 1.6-1.4 5.6 5.6 0 0 1 2.4-.5 4.8 4.8 0 0 1 3.7 1.5 3.7 3.7 0 0 1-1.2 6 3.7 3.7 0 0 1 2.2 1.3 3.8 3.8 0 0 1 .8 2.5 4.8 4.8 0 0 1-1.5 3.6 5.8 5.8 0 0 1-7.5.3 5 5 0 0 1-1.7-3.3ZM362.7 50.8v2.9H352a7.4 7.4 0 0 1 1.1-3 20.5 20.5 0 0 1 3.5-4 21.8 21.8 0 0 0 2.5-2.6 3.4 3.4 0 0 0 .6-1.8 2.1 2.1 0 0 0-.5-1.6 2.4 2.4 0 0 0-3 0 3 3 0 0 0-.7 2l-3-.4a5 5 0 0 1 1.6-3.6 5.8 5.8 0 0 1 3.6-1.1 5.2 5.2 0 0 1 3.8 1.2 4.2 4.2 0 0 1 1.3 3.2 5.6 5.6 0 0 1-.4 2.1 8.4 8.4 0 0 1-1.2 2 19.8 19.8 0 0 1-2 2.1q-1.5 1.3-1.8 1.8a5.4 5.4 0 0 0-.7.8ZM167.2 53.7H164V42a10.6 10.6 0 0 1-4 2.3v-2.8a9 9 0 0 0 2.6-1.5 5.7 5.7 0 0 0 2-2.5h2.5ZM409.3 282.9l-5.7-16h3.5l4 11.8 4-11.9h3.4l-5.7 16ZM420 282.9v-16h3.3v16ZM426.3 282.9v-16h3.3v16ZM415.5 214l-5.7-16.1h3.5l4 11.9 4-11.9h3.5l-5.8 16ZM426.3 214v-16.1h3.3v16ZM229.9 282.9l-5.8-16h3.5l4.1 11.8 4-11.9h3.4l-5.8 16ZM219.4 214v-16.1h3.3v16ZM229.9 214l-5.8-16.1h3.5l4.1 11.9 4-11.9h3.4l-5.8 16ZM413.9 138.6v-16h3.2v16ZM420 138.6v-16h3.3v16ZM426.3 138.6v-16h3.3v16ZM229.2 34.5V18.4h3.2v16ZM235.4 34.5V18.4h3.3v16ZM79.6 34.5V18.4h3.2v16Z" class="h"/></svg>