<svg xmlns="http://www.w3.org/2000/svg" viewBox="0 0 600 415" width="600" height="415"><defs><style>.a{fill:#07617d}.b{fill:#d27332}.c{fill:#b05f1f}.d{fill:#f78536}.e{fill:#497285}.f{fill:#fff}.h{fill:#2b4450}</style></defs><path d="M328.5 61.2v-3H235a4.1 4.1 0 0 0 0-1.4 4.6 4.6 0 0 0-9 0 4.1 4.1 0 0 0 0 1.3h-93.4v29.4h-1.2V56.8h93.1a5.9 5.9 0 0 1 11.7 0h92.2v-3.1l14.1 3.7Zm92 0v-3H380v123.3h-1.3V56.8h42v-3.1l14.1 3.7Zm-34.8 343.2v-3h-12.3V283.1h1.3V400h11v-3.1l14.2 3.7Z" class="a"/><path d="M356.9 32.8 353 47l-3.8-14.2h3.1V21.6H231.1v292.9h-1.2V20.3h123.9v12.5Zm205-12.5v277.3h-1.3v-276H445.2v11.2h3L444.6 47l-3.8-14.2h3.1V20.3ZM444 87.5h1.3v94h-1.4Zm-87 156.7-3.8 14.2-3.8-14.2h3.1V205h1.4v39.3Zm-4.5-156.7h1.4v94h-1.4Zm-165 265.7-4 14.2-3.7-14.2h3.2v-12h1.2v12Z" class="a"/><path d="M293.1 393.4v1.3H132.4v3.2l-14.2-3.8 14.2-3.8v3.1h84.3V356h-3l3.7-14.1 3.8 14.1H218v37.4Z" class="a"/><path d="M275.5 123.3v245.4H222a4.1 4.1 0 0 0 0-1.3 4.6 4.6 0 0 0-9 0 4.1 4.1 0 0 0 0 1.3h-80.6v3.1l-14.2-3.8 14.2-3.8v3.2h79.2a5.9 5.9 0 0 1 11.7 0h50.9V124.7H235a4.1 4.1 0 0 0 0-1.4 4.6 4.6 0 0 0-9 0 4.1 4.1 0 0 0 0 1.4h-68.6v-1.4h67.2a5.9 5.9 0 0 1 11.7 0Z" class="a"/><path d="m187.3 309.5-3.8 14.1-3.8-14.1h3.2v-11.3H92.2V297h90.7v-94h-25.5v-1.3h26.7v107.9ZM346 283.2v118.1h-12.8v3.1l-14.3-3.8 14.3-3.7v3h11.4V283.3Zm183.5-137.1v-3.2h-45.3v38.6H483v-39.9h46.5v-3.1l14.2 3.8Zm14.2 111.6v1.3h-64.2v3.2l-14.2-3.8 14.2-3.8v3.1Zm-14.2-51.6v-3.2H494v-1.3h35.5v-3.1l14.2 3.8-14.2 3.8ZM527 314.4v-3.1h-12v-1.4h12v-3.1l14.1 3.8Z" class="a"/><path d="M491.5 310v1.3h-26.9V204.8h1.4v105h25.5Zm38 87.9v-3.2H426.2v-1.3h103.3v-3.1l14.2 3.8Zm-355-336.7 14.2-3.8-14.2-3.7Zm28.5 66.6-14-3.8 14-3.8Zm23.6 126.5 3.8-14.2 3.8 14.2Zm44.5 0 3.7-14.2 3.8 14.2Z" class="a"/><path d="m461.5 224.6 3.8 14.2 3.8-14.2Zm96-48.2 3.8-14.2 3.8 14.2ZM370.2 335.6l3.8 14.2 3.8-14.2Zm-28.7 0 3.8 14.2 3.8-14.2Zm99.2-208.8 3.8 14.1 3.8-14.1Zm-91.4 0 3.8 14.1 3.8-14.1ZM179.7 242.9l3.8 14.1 3.7-14.1Zm62.5 129 14.2-3.9-14.2-3.8ZM130 301.2l14.2-3.7-14.2-3.8Z" class="a"/><path d="m444.5 58.8-10.5 30h21Z" class="b"/><path d="M444.5 58.8v30H434Z" class="c"/><path d="M434.7 47h19.6v19.6h-19.6Z" class="d"/><path d="M434.7 47h9.8v19.6h-9.8Z" class="b"/><path d="m305.5 398 9.8 17h-19.6Z" class="e"/><path d="M305.6 398h-13.7v-7.8h13.7Z" class="b"/><circle cx="305.5" cy="400.6" r="10.5" class="d" transform="rotate(-81 305.5 400.6)"/><path d="M319.2 402.9h-13.6v-4.6h13.6Z" class="b"/><circle cx="305.5" cy="400.6" r="3.9" class="c"/><path d="M315.8 415H295v-1.3h20.8Z" class="a"/><path d="m554.7 308-9.8 17h19.6l-9.8-17Z" class="e"/><path d="M557.4 310.6v-13.7h7.8v13.7Z" class="b"/><circle cx="554.7" cy="310.6" r="10.5" class="d"/><path d="M541 308.4h13.7v4.5H541Z" class="b"/><circle cx="554.7" cy="310.6" r="3.9" class="c"/><path d="M544.2 323.6h21v1.3h-21Z" class="a"/><path d="m413.1 398-9.7 17H423Z" class="e"/><path d="M413.1 390.2h13.7v7.8h-13.7Z" class="b"/><circle cx="413.1" cy="400.6" r="10.5" class="d"/><path d="M399.4 398.4h13.7v4.6h-13.7Z" class="b"/><circle cx="413.1" cy="400.6" r="3.9" class="c"/><path d="M402.8 413.7h20.9v1.3h-21Z" class="a"/><path d="M496.7 193.1c0 7.3-3 13-6.6 13H438c-3.5 0-6.4-5.7-6.4-13s2.9-13 6.4-13h52.2c3.6 0 6.6 5.8 6.6 13Z" class="d"/><path d="M496.7 193.1c0 7.3-3 13-6.6 13H438c-3.5 0-6.4-5.7-6.4-13Z" class="b"/><path d="M440 207.5a1.3 1.3 0 0 1-1.4-1.3v-26a1.3 1.3 0 0 1 2.6 0v26a1.3 1.3 0 0 1-1.3 1.3Zm48.1 0a1.3 1.3 0 0 1-1.2-1.3v-26a1.3 1.3 0 0 1 2.6 0v26a1.3 1.3 0 0 1-1.4 1.3Z" class="c"/><path d="M443.2 203.6h3.9v7.8h-4Zm37.8 0h4v7.8h-4Z" class="e"/><path d="M441.7 211.4h6.6v1.3h-6.6Zm38 0h6.5v1.3h-6.5Z" class="a"/><path d="M450 190.6h1.4v14.3h-1.3Z" class="f"/><path d="M405.3 271.4c0 7.2-2.9 13.1-6.6 13.1h-52c-3.7 0-6.6-5.9-6.6-13.1s2.9-13 6.5-13H399c3.5 0 6.4 5.9 6.4 13Z" class="d"/><path d="M405.3 271.4c0 7.2-2.9 13.1-6.6 13.1h-52c-3.7 0-6.6-5.9-6.6-13.1Z" class="b"/><path d="M348.5 285.8a1.3 1.3 0 0 1-1.3-1.3v-26.2a1.3 1.3 0 1 1 2.7 0v26.1a1.3 1.3 0 0 1-1.4 1.2Zm48.4 0a1.3 1.3 0 0 1-1.4-1.3v-26.2a1.3 1.3 0 1 1 2.7 0v26.1a1.3 1.3 0 0 1-1.3 1.2Z" class="c"/><path d="M351.9 281.9h3.9v7.8h-4Zm37.7 0h4v7.8h-4Z" class="e"/><path d="M350.4 289.7h6.6v1.3h-6.6Zm38 0h6.6v1.3h-6.6Z" class="a"/><path d="M358.7 268.8h1.3v14.4h-1.3Z" class="f"/><path d="M201.8 323.3v18.9h-21c-3.5 0-6.5-4.2-6.5-9.5s3-9.4 6.6-9.4Z" class="d"/><path d="M252.7 328.2c0 7.8-3 14-6.6 14h-47v-19l13-9h34c3.6 0 6.6 6.2 6.6 14Z" class="d"/><path d="M252.7 328.2c0 7.8-3 14.1-6.6 14.1H181c-3.6 0-6.6-4.3-6.6-9.6h24.8l13-4.4Z" class="b"/><path d="M189.4 343.2c-.7 0-1.4-.4-1.4-.9v-19c0-.6.7-1 1.4-1s1.3.4 1.3 1v18.9c0 .6-.6 1-1.3 1Z" class="c"/><path d="M192.6 339.3h3.9v7.8h-4Zm44.4 0h3.9v7.8H237Z" class="e"/><path d="M191.2 347h6.6v1.4h-6.6Zm44.5 0h6.5v1.4h-6.5Z" class="a"/><path d="M392.3 193.1c0 7.3-3 13-6.6 13h-65.2c-3.6 0-6.5-5.7-6.5-13s3-13 6.5-13h65.2c3.7 0 6.6 5.8 6.6 13Z" class="d"/><path d="M392.3 193.1c0 7.3-3 13-6.6 13h-65.2c-3.6 0-6.5-5.7-6.5-13Z" class="b"/><path d="M329 207.5a1.3 1.3 0 0 1-1.3-1.3v-26a1.3 1.3 0 0 1 2.6 0v26a1.3 1.3 0 0 1-1.4 1.3Zm54.7 0a1.3 1.3 0 0 1-1.2-1.3v-26a1.3 1.3 0 0 1 2.6 0v26a1.3 1.3 0 0 1-1.3 1.3Z" class="c"/><path d="M332.3 203.6h3.9v7.8h-4Zm44.3 0h3.9v7.8h-4Z" class="e"/><path d="M330.8 211.4h6.6v1.3h-6.6Zm44.6 0h6.5v1.3h-6.5Z" class="a"/><circle cx="503.2" cy="310.6" r="10.5" class="d"/><path d="M513.6 310.6a10.5 10.5 0 0 1-21 0Z" class="b"/><path d="M515 310v1.3h-3.7l-4.4 4.4-1 1-.6-1.2-3-5h1.6l2.3 4 3.3-3.3 1.2-1.3Z" class="e"/><path fill="#3d91a6" d="M504 310.6h-1.6l-2.2-4-3.3 3.3-1.3 1.4h-4.1v-1.4h3.5l4.5-4.4.9-1Z"/><path d="M66.7 325c-14.5 0-26-6-26-13V194.4c0-7.3 11.6-13 26-13s26.1 5.7 26.1 13v117.4c0 7.1-11.7 13-26.1 13Z" class="d"/><path d="M66.7 325c-14.5 0-26-6-26-13V194.4c0-7.3 11.6-13 26-13Z" class="b"/><path d="M39.3 202.3a1.3 1.3 0 0 1 1.3-1.4h32.5a1.3 1.3 0 0 1 0 2.7H40.6a1.3 1.3 0 0 1-1.3-1.3Zm0 32.6a1.3 1.3 0 0 1 1.3-1.4h32.5a1.3 1.3 0 0 1 0 2.7H40.6a1.3 1.3 0 0 1-1.3-1.3Zm0 32.6a1.3 1.3 0 0 1 1.3-1.3h32.5a1.3 1.3 0 0 1 0 2.6H40.6a1.3 1.3 0 0 1-1.3-1.3Zm0 32.6a1.3 1.3 0 0 1 1.3-1.3h32.5a1.3 1.3 0 1 1 0 2.7H40.6a1.3 1.3 0 0 1-1.3-1.4Z" class="c"/><path d="M37.4 313.8h58.7v32.6H37.4Z" class="e"/><path d="M85 217.3v96.5h-2.6v-28.7h-6.6v-2.6h6.6v-30h-6.6v-2.6h6.6v-30h-6.6v-2.6Z" class="h"/><path d="M30.8 344.5h71.8v4H30.8Zm4.6-32.6h62.7v4H35.4Z" class="a"/><path d="M132 229.7c-14.4 0-26.1-5.8-26.1-13V99.1c0-7.2 11.7-13 26-13s26.2 5.8 26.2 13v117.4c0 7.3-11.7 13-26.2 13Z" class="d"/><path d="M132 229.7c-14.4 0-26.1-5.8-26.1-13V99.1c0-7.2 11.7-13 26-13Z" class="b"/><path d="M104.5 107a1.3 1.3 0 0 1 1.4-1.2h32.6a1.3 1.3 0 0 1 0 2.5h-32.6a1.3 1.3 0 0 1-1.4-1.3Zm0 32.6a1.3 1.3 0 0 1 1.4-1.2h32.6a1.3 1.3 0 0 1 0 2.5h-32.6a1.3 1.3 0 0 1-1.4-1.3Zm0 32.7a1.3 1.3 0 0 1 1.4-1.3h32.6a1.3 1.3 0 0 1 0 2.5h-32.6a1.3 1.3 0 0 1-1.4-1.2Zm0 32.5a1.3 1.3 0 0 1 1.4-1.2h32.6a1.3 1.3 0 0 1 0 2.6h-32.6a1.3 1.3 0 0 1-1.4-1.3Z" class="c"/><path d="M102.6 218.6h58.7v32.6h-58.7Z" class="e"/><path d="M150.3 122v96.6h-2.7V190H141v-2.7h6.6v-29.9H141v-2.7h6.6v-30H141V122Z" class="h"/><path d="M96 249.2H168v4H96Zm4.6-32.6h62.7v4h-62.7Z" class="a"/><path d="m353.1 58.8-10.5 30h21Z" class="b"/><circle cx="353.1" cy="57.4" r="10.5" class="d"/><path d="M353.1 58.8v30h-10.5Z" class="c"/><path d="M353.1 47a10.5 10.5 0 0 0 0 21Z" class="b"/><path d="M552.5 345.8h-2.6v-9.4a8.7 8.7 0 0 1-3.3 1.9v-2.2a7.2 7.2 0 0 0 2.2-1.4 4.7 4.7 0 0 0 1.6-2h2Zm12.1-2.3v2.3h-8.8a6.1 6.1 0 0 1 1-2.5 16.7 16.7 0 0 1 2.7-3.1 17.8 17.8 0 0 0 2.1-2.2 2.8 2.8 0 0 0 .6-1.5 1.8 1.8 0 0 0-.5-1.3 1.9 1.9 0 0 0-2.5 0 2.4 2.4 0 0 0-.6 1.7l-2.4-.4a4.1 4.1 0 0 1 1.3-2.9 4.7 4.7 0 0 1 3-.9 4.2 4.2 0 0 1 3 1 3.3 3.3 0 0 1 1.1 2.6 4.5 4.5 0 0 1-.3 1.7 6.9 6.9 0 0 1-1 1.6 16 16 0 0 1-1.6 1.7l-1.5 1.5a4.5 4.5 0 0 0-.6.7Zm-63.8 2.3h-2.5v-9.4a8.7 8.7 0 0 1-3.3 1.9v-2.2a7.2 7.2 0 0 0 2.3-1.4 4.7 4.7 0 0 0 1.5-2h2Zm9.2 0h-2.5v-9.4a8.7 8.7 0 0 1-3.3 1.9v-2.2a7.2 7.2 0 0 0 2.2-1.4 4.7 4.7 0 0 0 1.5-2h2Zm-49.4-176.4h-2.3V160a8.7 8.7 0 0 1-3.3 1.9v-2.3a7.2 7.2 0 0 0 2.2-1.2 4.7 4.7 0 0 0 1.5-2.1h2Zm8-13.1a3.6 3.6 0 0 1 3 1.3q1.3 1.7 1.3 5.4t-1.4 5.3a3.6 3.6 0 0 1-2.8 1.4 3.8 3.8 0 0 1-3.2-1.5q-1-1.4-1-5.2 0-3.7 1.1-5.4a3.6 3.6 0 0 1 3-1.3Zm0 2.1a1.2 1.2 0 0 0-.7.2 2 2 0 0 0-.6 1.1 21.2 21.2 0 0 0 0 6.5 2.2 2.2 0 0 0 .6 1.1 1.3 1.3 0 0 0 1.5 0 1.9 1.9 0 0 0 .6-1.1 21.2 21.2 0 0 0 0-6.3 2.2 2.2 0 0 0-.6-1.2 1.2 1.2 0 0 0-.7-.3Zm-5.8-73 2.3-.1a1.8 1.8 0 0 0 .4 1 1.3 1.3 0 0 0 1.1.4 1.7 1.7 0 0 0 1.3-.8 6.1 6.1 0 0 0 .6-2.9 3 3 0 0 1-2.2 1.2 3.6 3.6 0 0 1-2.8-1.3 4.3 4.3 0 0 1-1-3 4.5 4.5 0 0 1 1-3.3 4.2 4.2 0 0 1 6.4.3q1.3 1.6 1.3 5.1t-1.3 5.2a4.3 4.3 0 0 1-3.5 1.5 3.7 3.7 0 0 1-2.5-.8 3.9 3.9 0 0 1-1.1-2.4Zm5.5-5.5a2.9 2.9 0 0 0-.5-1.8 1.7 1.7 0 0 0-1.3-.6 1.4 1.4 0 0 0-1 .5 2.8 2.8 0 0 0-.6 1.8 2.9 2.9 0 0 0 .5 2 1.6 1.6 0 0 0 2.5 0 2.4 2.4 0 0 0 .4-1.8Zm-57.9 295.2a2.8 2.8 0 0 1-1.7-2.7 3.1 3.1 0 0 1 1-2.5 4.9 4.9 0 0 1 5.7 0 3.1 3.1 0 0 1 1.2 2.5 2.9 2.9 0 0 1-.6 1.5 3 3 0 0 1-1.2 1.1 3.5 3.5 0 0 1 1.5 1.4 3.3 3.3 0 0 1 .7 1.9 3.9 3.9 0 0 1-1.1 3 4.2 4.2 0 0 1-3.1 1 4.7 4.7 0 0 1-3-1 3.7 3.7 0 0 1-1.5-3 3.8 3.8 0 0 1 .6-1.8 3.3 3.3 0 0 1 1.6-1.5Zm.4 3a2.2 2.2 0 0 0 .5 1.6 1.8 1.8 0 0 0 1.4.7 1.7 1.7 0 0 0 1.3-.6 2.2 2.2 0 0 0 .4-1.6 2.1 2.1 0 0 0-.4-1.5 1.7 1.7 0 0 0-1.3-.6 1.6 1.6 0 0 0-1.4.7 2.2 2.2 0 0 0-.5 1.4Zm.3-5.5a1.6 1.6 0 0 0 3.1 0 1.4 1.4 0 0 0-1.5-1.6 1.4 1.4 0 0 0-1.6 1.5Zm-109.2-.8v-2.3h8.6v1.8a13.5 13.5 0 0 0-2.3 3 17.5 17.5 0 0 0-1.5 4 15.4 15.4 0 0 0-.6 4h-2.5a16.8 16.8 0 0 1 1-5.5 18.5 18.5 0 0 1 2.9-5Zm92.6-131.3-2.4.2a1.8 1.8 0 0 0-.5-1.1 1.3 1.3 0 0 0-1-.4 1.7 1.7 0 0 0-1.3.8 6 6 0 0 0-.7 2.9 2.9 2.9 0 0 1 2.2-1.1 3.6 3.6 0 0 1 2.8 1.2 4.3 4.3 0 0 1 1.1 3.1 4.5 4.5 0 0 1-1 3.3 4.3 4.3 0 0 1-6.2-.1l-.2-.3a7.9 7.9 0 0 1-1.4-5q0-3.7 1.4-5.2a4.3 4.3 0 0 1 3.4-1.6 3.7 3.7 0 0 1 2.5.8 3.9 3.9 0 0 1 1.3 2.5Zm-5.7 5.5a2.8 2.8 0 0 0 .6 1.8 1.7 1.7 0 0 0 1.2.7 1.4 1.4 0 0 0 1.1-.6 2.8 2.8 0 0 0 .6-1.8 2.9 2.9 0 0 0-.6-1.9 1.6 1.6 0 0 0-2.4 0 2.4 2.4 0 0 0-.5 1.7Zm-59.6-80 2.4-.1a2.2 2.2 0 0 0 .7 1.3 1.8 1.8 0 0 0 2.5-.2 2.9 2.9 0 0 0 .6-2 2.7 2.7 0 0 0-.6-1.7 1.8 1.8 0 0 0-1.4-.7 2.6 2.6 0 0 0-1.9 1l-2-.3 1.2-6.7h6.7v2.3h-4.9l-.3 2.2a3.8 3.8 0 0 1 4.4.8 4.5 4.5 0 0 1 1.1 3.2 4.7 4.7 0 0 1-.8 2.9 4.1 4.1 0 0 1-3.5 1.7 4.5 4.5 0 0 1-3-1 4 4 0 0 1-1.3-2.6Zm1.4-77.3v-2.5h-5.3v-2.3l5.7-8.3h2.2v8.3h1.5v2.3h-1.6v2.5Zm0-4.8v-4.4l-3 4.4ZM202.3 303l2.4-.3a2.2 2.2 0 0 0 .6 1.4 1.8 1.8 0 0 0 2.5 0 2.5 2.5 0 0 0 0-3.2 1.7 1.7 0 0 0-1.2-.6 4.5 4.5 0 0 0-1.1.3l.2-2a2.2 2.2 0 0 0 1.6-.5 1.6 1.6 0 0 0 .5-1.3 1.3 1.3 0 0 0-1.2-1.5 1.4 1.4 0 0 0-.2 0 1.6 1.6 0 0 0-1.1.5 2.1 2.1 0 0 0-.6 1.3l-2.2-.3a5.1 5.1 0 0 1 .7-2 3.3 3.3 0 0 1 1.3-1 4.6 4.6 0 0 1 2-.5 3.9 3.9 0 0 1 2.9 1.1 3 3 0 0 1-.9 5 3 3 0 0 1 1.8 1.2 3.1 3.1 0 0 1 .6 2 3.9 3.9 0 0 1-1.3 2.9 4.7 4.7 0 0 1-6 .2 4 4 0 0 1-1.3-2.7ZM122.6 77v2.4h-8.8a6 6 0 0 1 .9-2.5 16.7 16.7 0 0 1 2.7-3.1 17.8 17.8 0 0 0 2.3-2.2 2.8 2.8 0 0 0 .4-1.5 1.8 1.8 0 0 0-.4-1.3 1.9 1.9 0 0 0-2.6 0 2.5 2.5 0 0 0-.4 1.6L114 70a4.1 4.1 0 0 1 1.4-3 4.7 4.7 0 0 1 3-.9 4.2 4.2 0 0 1 3 1.1 3.3 3.3 0 0 1 1 2.6 4.5 4.5 0 0 1-.2 1.7 6.8 6.8 0 0 1-1 1.6 16.2 16.2 0 0 1-1.6 1.7l-1.6 1.5a4.5 4.5 0 0 0-.4.6Zm-67.3 96.7h-2.5V164a8.7 8.7 0 0 1-3.4 1.9v-2.2a7.2 7.2 0 0 0 2.2-1.2 4.7 4.7 0 0 0 1.6-2.2h2ZM508 250.5l4.5-6.7-4-6.4h3.1l2.6 4.3 2.5-4.3h3.1l-4 6.4 4.4 6.7H517l-3-4.5-2.8 4.5Zm13.5 0v-13h2.7v13Zm-9.6-56 4.5-7-4-6.2h3.1l2.6 4.3 2.5-4.3h3.1l-4 6.4 4.4 6.7h-3.1l-3-4.5-2.8 4.5Zm-3.7-60v-13.2h2.6v13.2Zm3.7 0 4.5-7-4-6.2h3.1l2.6 4.3 2.5-4.3h3.1l-4 6.4 4.4 6.7h-3.1l-3-4.5-2.8 4.5Zm-10 280.5-4.9-13.1h3l3.3 9.6 3.2-9.6h2.8l-4.7 13.1Zm8.6 0v-13.1h2.7V415Zm5.1 0v-13.1h2.6V415Zm5.1 0v-13.1h2.6V415Zm-376.8 0-4.7-13.1h3l3.3 9.6 3.1-9.6h2.9l-4.8 13.1Zm8.8 0v-13.1h2.7V415Zm5.1 0v-13.1h2.6V415ZM395.3 48.3l-4.7-13.1h2.8l3.3 9.7 3.3-9.7h2.8l-4.6 13.1Zm8.7 0V35.2h2.6v13.1ZM289 13l-4.8-13h2.9l3.3 9.7 3.1-9.7h3l-4.8 13ZM140.5 360.1v-13h2.5v13Zm8.4 0-4.6-13h2.9l3.3 9.7 3.1-9.7h2.8l-4.7 13Zm-41.3-70.4v-13h2.7v13Zm5 0v-13h2.7v13Zm5.2 0v-13h2.6v13Zm54-95.2v-13.2h2.7v13.2Zm5.2 0v-13.2h2.5v13.2ZM151.7 49.6v-13h2.7v13Z" class="h"/></svg>