<svg xmlns="http://www.w3.org/2000/svg" viewBox="0 0 600 415" width="600" height="415"><defs><style>.a{fill:#07617d}.b{fill:#497285}.c{fill:#d27332}.d{fill:#f78536}.e{fill:#b05f1f}.f{fill:#fff}.g{fill:#3d91a6}.h{fill:#2b4450}.i{fill:#20485e}</style></defs><path d="M389.6 76.8v-4h-63.8v33h-1.6V71h65.4v-4l18.3 4.8Zm162 175.2v1.6h-86.5v4.2l-18.3-5 18.3-4.9v4Zm-18.4-51.8v-4H484v-1.8h49.2v-4l18.4 5Zm0-59.1v-4h-61V170h-1.7v-34.7h62.7v-4l18.4 4.8Zm-232-55.4-5 18.3-4.8-18.3h4V28H68.2v45.6h-1.7V26.2h230.8v59.5Zm0 118.3-5 18.4-4.8-18.4h4v-67.9h1.8v68Zm124.4-54-5 18.2-5-18.2h4.2v-39.2h1.6V150Z" class="a"/><path d="M479.7 302.7v1.6h-34.6v-104h1.7v102.4ZM255 71.1v34.6h-1.7v-33H141.6v263.9h17.8v1.6h-19.5V71ZM571 26.2v260.4h-1.6V28h-148v12.9h4.2l-5 18.4-5-18.4h4.2V26.2ZM255 136.1v202h-19.5v-1.5h17.7V136Zm-92 223v1.6H80v4L61.6 360l18.3-5v4.2Zm138.1 0v1.6h-49.3v4l-18.4-4.8 18.4-5v4.2Z" class="a"/><path d="M320.9 254.5v156.3h-241v4.2l-18.3-5 18.3-4.8v4H319V254.5h1.8Zm204.8 54v-4.2h-15.5v-1.6h15.5v-4l18.3 4.8ZM122.4 32l18.4-5-18.4-4.8Zm136.5 166.5-4.8-18.4-5 18.4Zm316.3-31.9-5-18.4-4.9 18.4Zm-429.5 13.5-5 18.4L136 180Z" class="a"/><path d="m325 322.1-5 18.4L315 322Z" class="a"/><path d="m561.8 300.2-12.7 22h25.4Z" class="b"/><path d="M565.1 303.5v-17.8h10.2v17.8Z" class="c"/><circle cx="561.8" cy="303.5" r="13.5" class="d"/><path d="M544 300.6h17.8v6H544Z" class="c"/><circle cx="561.8" cy="303.5" r="5.1" class="e"/><path d="M548.2 320.4h27v1.7h-27Z" class="a"/><path d="M362.2 239.3c0 9.2-3.8 16.8-8.4 16.8h-67.6c-4.6 0-8.5-7.5-8.5-16.8s3.8-16.9 8.5-16.9h67.6c4.6 0 8.4 7.5 8.4 16.9Z" class="d"/><path d="M362.2 239.3c0 9.2-3.8 16.8-8.4 16.8h-67.6c-4.6 0-8.5-7.5-8.5-16.8Z" class="c"/><path d="M288.8 257.9a1.7 1.7 0 0 1-1.8-1.8v-33.7a1.7 1.7 0 0 1 3.5 0v33.7a1.7 1.7 0 0 1-1.7 1.8Zm62.5 0a1.7 1.7 0 0 1-1.8-1.8v-33.7a1.7 1.7 0 1 1 3.5 0v33.7a1.7 1.7 0 0 1-1.7 1.8Z" class="e"/><path d="M293 252.8h5V263h-5Zm48.9 0h5V263h-5Z" class="b"/><path d="M291 263h8.5v1.7h-8.4Zm49.3 0h8.4v1.7h-8.4Z" class="a"/><path d="M301.8 236h1.7v18.5h-1.7Z" class="f"/><path d="M488.2 185.2c0 9.2-3.7 16.9-8.5 16.9h-67.6c-4.6 0-8.4-7.5-8.4-16.9s3.7-17 8.4-17h67.6c4.7 0 8.5 7.6 8.5 17Z" class="d"/><path d="M488.2 185.2c0 9.2-3.7 16.9-8.5 16.9h-67.6c-4.6 0-8.4-7.5-8.4-16.9Z" class="c"/><path d="M414.7 203.8a1.7 1.7 0 0 1-1.7-1.7v-33.9a1.7 1.7 0 0 1 3.4 0v34a1.7 1.7 0 0 1-1.7 1.7Zm62.5 0a1.7 1.7 0 0 1-1.6-1.7v-33.9a1.7 1.7 0 0 1 3.3 0v34a1.7 1.7 0 0 1-1.7 1.7Z" class="e"/><path d="M418.8 198.7h5.1V209h-5Zm49.2 0h5V209h-5Z" class="b"/><path d="M417 208.9h8.4v1.7H417Zm49.2 0h8.5v1.7h-8.5Z" class="a"/><path d="M427.9 181.7h1.7v18.6h-1.7Z" class="f"/><circle cx="495" cy="303.5" r="13.5" class="d"/><path d="M508.5 303.5a13.5 13.5 0 0 1-27 0Z" class="c"/><path d="M510.2 302.7v1.6h-4.7l-5.8 5.8-1.1 1.3-1-1.5-3.7-6.4h2l3 5 4.2-4.2 1.7-1.6h5.4Z" class="b"/><path d="M496 303.5h-2l-3-5-4.2 4.2-1.6 1.6h-5.5v-1.6h4.8l5.6-5.8 1.3-1.2 4.5 7.8Z" class="g"/><path d="M67.2 257.9c-18.6 0-33.8-7.7-33.8-16.9V88.8c0-9.3 15-17 33.8-17S101 79.6 101 89V241c0 9.3-15.1 16.9-33.8 16.9Z" class="d"/><path d="M67.2 257.9c-18.6 0-33.8-7.7-33.8-16.9V88.8c0-9.3 15-17 33.8-17Z" class="c"/><path d="M31.7 98.9a1.7 1.7 0 0 1 1.7-1.6h42.3a1.7 1.7 0 1 1 0 3.3H33.4a1.7 1.7 0 0 1-1.7-1.7Zm0 42.3a1.7 1.7 0 0 1 1.7-1.6h42.3a1.7 1.7 0 1 1 0 3.3H33.4a1.7 1.7 0 0 1-1.7-1.7Zm0 42.3a1.7 1.7 0 0 1 1.7-1.8h42.3a1.7 1.7 0 1 1 0 3.5H33.4a1.7 1.7 0 0 1-1.7-1.7Zm0 42.3a1.7 1.7 0 0 1 1.7-1.8h42.3a1.7 1.7 0 0 1 0 3.5H33.4a1.7 1.7 0 0 1-1.7-1.7Z" class="e"/><path d="M29.2 243.5h76v42.3h-76Z" class="b"/><path d="M90.8 118.4v125.1h-3.3v-37.2h-8.4V203h8.4V164h-8.4v-3.4h8.4v-39h-8.4v-3.3Z" class="h"/><path d="M20.7 283.3h93v5h-93Zm6-42.3h81v5h-81Z" class="a"/><path d="m420.6 74.4-13.5 39h27l-13.5-39Z" class="c"/><path d="M420.6 74.4v39H407Z" class="e"/><path d="M407.9 59.3h25.4v25.4h-25.4Z" class="d"/><path d="M407.9 59.3h12.7v25.4h-12.7Z" class="c"/><path d="M343.5 121c0 9.2-3.8 16.8-8.4 16.8h-84.6c-4.6 0-8.4-7.6-8.4-16.8s3.8-17 8.4-17h84.6c4.6 0 8.4 7.6 8.4 17Z" class="d"/><path d="M343.5 121c0 9.2-3.8 16.8-8.4 16.8h-84.6c-4.6 0-8.4-7.6-8.4-16.8Z" class="c"/><path d="M261.5 139.6a1.7 1.7 0 0 1-1.7-1.8V104a1.7 1.7 0 1 1 3.4 0v33.8a1.7 1.7 0 0 1-1.7 1.8Zm71 0a1.7 1.7 0 0 1-1.7-1.8V104a1.7 1.7 0 1 1 3.5 0v33.8a1.7 1.7 0 0 1-1.8 1.8Z" class="e"/><path d="M265.8 134.5h5v10.1h-5Zm57.4 0h5v10.1h-5Z" class="b"/><path d="M264 144.6h8.4v1.8h-8.5Zm57.6 0h8.4v1.8h-8.4ZM158.6 334h6.8v6.8h-6.8Zm70.9 0h6.8v6.8h-6.8Z" class="a"/><path d="M221 314.8v11.8h-7.8v-9.8a.8.8 0 0 0-.8-1h-13.9V308h15.9a6.8 6.8 0 0 1 6.7 6.8Z" class="g"/><path d="M199.7 306.9V317h-11.5a1.7 1.7 0 0 0-1.6 1.8v2.3h-10.1v-4a10.2 10.2 0 0 1 10.1-10.2Z" class="b"/><path d="M173.7 320.4h15.8v6.2h-15.8Zm55.8 38.3h4v2.3h-4Zm-68.2 0h4v2.3h-4Z" class="a"/><path d="M231.2 337.4c0 6.2-2.5 11.2-5.6 11.2h-56.4c-3.1 0-5.6-5-5.6-11.2s2.5-11.4 5.6-11.4h56.4c3 0 5.6 5.1 5.6 11.4Zm-1.1 22.5c0 4.4-2.3 7.8-5.5 7.8h-54.5c-3 0-5.4-3.4-5.4-7.8s2.4-7.9 5.4-7.9h54.5c3 0 5.5 3.5 5.5 7.9Z" class="d"/><path d="M231.2 337.4c0 6.2-2.5 11.2-5.6 11.2h-56.4c-3.1 0-5.6-5-5.6-11.2Zm-1.1 22.5c0 4.4-2.3 7.8-5.5 7.8h-54.5c-3 0-5.4-3.4-5.4-7.8Z" class="c"/><path d="M171.5 368.9a1.2 1.2 0 0 1-1.2-1.2v-41.5a1.2 1.2 0 0 1 2.3 0v41.5a1.2 1.2 0 0 1-1.1 1.2Zm51.9 0a1.2 1.2 0 0 1-1.2-1.2v-41.5a1.2 1.2 0 0 1 2.3 0v41.5a1.2 1.2 0 0 1-1.1 1.2Z" class="e"/><path d="M169.9 365h3.3v6.8H170Zm51.7 0h3.4v6.8h-3.4Z" class="b"/><path d="M168.6 371.7h5.7v1.1h-5.7Zm51.9 0h5.6v1.1h-5.6Z" class="a"/><path d="M181.7 362a4 4 0 0 1-4-3.8v-15.8a4 4 0 1 1 7.9 0v15.8a4 4 0 0 1-4 3.9Z" class="i"/><path d="M198 334.5h20.7v26.4H198Z" class="b"/><path d="M210.9 339.6h2.8v2.7h-2.8Zm0 5.6h2.8v2.8h-2.8Zm0 5.7h2.8v2.8h-2.8Z" class="i"/><path d="M195.2 17V0h3.4v17Zm-3.8 44.7V44.8h3.4v16.9Zm7.5 0V44.8h3.4v16.9Zm74 288v-17h3.5v17Zm7.5 0v-17h3.5v17Zm7.5 0v-17h3.5v17Zm-200.9 0v-17h3.5v17Zm12 0-6-17h3.6l4.4 12.6 4-12.6h3.5l-5.8 17ZM92.8 400l-6-16.9h3.7l4.3 12.5 4.1-12.5h3.6l-6 16.7ZM353.1 61.7 347 44.8h3.7l4.4 12.5 4-12.5h3.7l-6.1 16.9Zm12.3 0V44.8h3.4v16.9Zm142.2 64.2-6-16.8h3.7l4.2 12.4 4.2-12.4h3.6l-6 17Zm11.4 0v-16.7h3.5v16.7Zm6.6 0v-16.7h3.5v16.7ZM501 242.6l-6-16.8h3.7l4.3 12.4 4.1-12.4h3.6l-5.9 16.8Zm11.4 0v-16.8h3.5v16.8Zm6.6 0v-16.8h3.5v16.8Zm6.6 0v-16.8h3.5v16.8Zm-17.3-57.4v-17h3.4v17Zm5 0 5.7-8.9-5.3-8h4l3.5 5.3 3.2-5.4h4l-5.2 8.2 5.8 8.8h-4.2l-3.7-5.9-3.8 5.8ZM232 129.4h-3.2v-12.2a11.2 11.2 0 0 1-4.2 2.5v-3a9.5 9.5 0 0 0 2.7-1.6 6 6 0 0 0 2-2.7h2.7Zm150.1 115.4v3h-11.4a7.9 7.9 0 0 1 1.1-3.2 21.6 21.6 0 0 1 3.6-4.2 23 23 0 0 0 2.8-2.7 3.5 3.5 0 0 0 .7-2 2.3 2.3 0 0 0-.6-1.6 2.4 2.4 0 0 0-3.2 0 3.1 3.1 0 0 0-.7 2l-3.3-.3a5.3 5.3 0 0 1 1.8-3.8 6.1 6.1 0 0 1 3.8-1.2 5.5 5.5 0 0 1 4 1.3 4.4 4.4 0 0 1 1.4 3.5 5.8 5.8 0 0 1-.5 2 8.9 8.9 0 0 1-1.2 2.3 20.8 20.8 0 0 1-2.1 2.1l-2 1.9a5.8 5.8 0 0 0-.7 1Zm-188 47.2 3-.4a3 3 0 0 0 .8 1.9 2.3 2.3 0 0 0 1.7.5 2.2 2.2 0 0 0 1.7-.7 3 3 0 0 0 .7-2 2.8 2.8 0 0 0-.7-2 2 2 0 0 0-1.6-.7 5.7 5.7 0 0 0-1.5.2l.3-2.6a2.9 2.9 0 0 0 2.1-.6 2 2 0 0 0 .7-1.6 1.7 1.7 0 0 0-1.9-1.9 2 2 0 0 0-1.5.6 2.7 2.7 0 0 0-.6 1.7l-3-.5a6.7 6.7 0 0 1 .9-2.5 4.3 4.3 0 0 1 1.8-1.5 5.9 5.9 0 0 1 2.4-.4 5 5 0 0 1 4 1.5 3.8 3.8 0 0 1-1.3 6.3 4 4 0 0 1 2.3 1.4 4 4 0 0 1 .8 2.7 5 5 0 0 1-1.6 3.8 6.1 6.1 0 0 1-7.8.2 5.2 5.2 0 0 1-1.8-3.4ZM448.6 80.4V77h-7v-2.7l7.4-10.8h2.7v10.8h2v2.7h-2v3.5Zm0-6.2v-5.8l-4 5.8Zm-5.7 81 3.2-.4a2.8 2.8 0 0 0 .8 1.7 2.3 2.3 0 0 0 1.5.7 2.2 2.2 0 0 0 1.8-.8 3.8 3.8 0 0 0 .7-2.5 3.5 3.5 0 0 0-.7-2.3 2.3 2.3 0 0 0-1.8-.8 3.4 3.4 0 0 0-2.5 1.1l-2.7-.3 1.7-8.8h8.6v3h-6.1l-.6 2.9a5 5 0 0 1 6 1.1 5.7 5.7 0 0 1 1.4 4 6.1 6.1 0 0 1-1.1 3.8 5.4 5.4 0 0 1-4.7 2.3 5.8 5.8 0 0 1-3.8-1.4 5.2 5.2 0 0 1-1.7-3.3Zm57.3 177.5-3.1.4a2.3 2.3 0 0 0-.6-1.5 1.7 1.7 0 0 0-1.3-.5 2 2 0 0 0-1.7 1 7.9 7.9 0 0 0-1 3.9 3.8 3.8 0 0 1 3-1.5 4.6 4.6 0 0 1 3.5 1.6 5.7 5.7 0 0 1 1.5 4 5.8 5.8 0 0 1-1.5 4 5.5 5.5 0 0 1-7.8 0l-.2-.3q-1.8-2-1.8-6.6t1.8-6.7a5.5 5.5 0 0 1 4.5-2 4.7 4.7 0 0 1 3 1.1 5 5 0 0 1 1.7 3.1Zm-7.4 7a3.7 3.7 0 0 0 .8 2.5 2.2 2.2 0 0 0 1.6 1 1.8 1.8 0 0 0 1.5-.8 3.5 3.5 0 0 0 .6-2.3 3.7 3.7 0 0 0-.6-2.4 2 2 0 0 0-3.2 0 3.2 3.2 0 0 0-.7 2Zm63.8-7.7v-3h11v2.4a17.4 17.4 0 0 0-2.7 3.9 22.5 22.5 0 0 0-2.2 5.4 19.9 19.9 0 0 0-.7 5H559a21.8 21.8 0 0 1 1.4-7 24 24 0 0 1 3.7-6.7Z" class="h"/></svg>