<svg xmlns="http://www.w3.org/2000/svg" viewBox="0 0 480 388"><defs><style>.a{fill:#07617d}.b{fill:#d27332}.c{fill:#b05f1f}.d{fill:#f78536}.e{fill:#497285}.f{fill:#fff}.h{fill:#2b4450}</style></defs><path d="M475.9 0v352.3h-1.7V1.7H327.5V16h4l-4.9 18-4.8-18h4V1.7H145.1V16h4l-4.9 18-4.8-18h4V0h332.5z" class="a"/><path d="M325.8 85.4h1.7v119.4h-1.7zM143.4 85.4h1.7v119.4h-1.7zM434.7 159.9v-4h-57.5v48.9h-1.7v-50.6h59.2v-4l17.9 4.8-17.9 4.9zM113.8 52.1v-4H46.4v103.6h-1.6V46.4h69v-4l18 4.9-18 4.8zM434.7 236.1v-4h-45.1v-1.6h45.1v-4l17.9 4.8-17.9 4.8zM431.4 373.7v-4h-15.2v-1.6h15.2v-4l17.9 4.8-17.9 4.8zM189.2 151.4l4.8-17.9 4.8 17.9h-9.6zM348.3 292.9l4.9 18 4.8-18h-9.7zM262.8 302.6h1.7v48.3h4l-4.9 18-4.8-18h4v-48.3zM252.3 236.1v-4h-45v-1.6h45v-4l18 4.8-18 4.8z" class="a"/><path d="M386.3 368.1v1.6H169.9V234.6h1.7v133.5h180.7V234.6h1.7v133.5h32.3z" class="a"/><path d="m166 292.9 4.8 18 4.8-18H166zM470.2 198.4l4.8-18 4.8 18h-9.6zM321.8 135.4l4.8 18 4.8-18h-9.6zM139.4 135.4l4.8 18 4.9-18h-9.7zM296.2 52.1v-4H194.8v156.7h-1.6V46.4h103v-4l18 4.9-18 4.8z" class="a"/><path d="M144.2 48.9 131 87h26.5l-13.3-38.1z" class="b"/><path d="M144.2 48.9V87H131l13.2-38.1z" class="c"/><path d="M131.8 34h24.9v24.9h-24.9z" class="d"/><path d="M131.8 34h12.4v24.9h-12.4zM326.6 48.9 313.4 87h26.5l-13.3-38.1z" class="b"/><path d="M326.6 48.9V87h-13.2l13.2-38.1z" class="c"/><path d="M314.2 34h24.9v24.9h-24.9z" class="d"/><path d="M314.2 34h12.4v24.9h-12.4z" class="b"/><path d="m466.7 365.6-12.4 21.6h24.9l-12.5-21.6z" class="e"/><path d="M470 369v-17.5h10V369z" class="b"/><circle cx="466.7" cy="368.9" r="13.3" class="d"/><path d="M449.3 366h17.4v5.7h-17.4z" class="b"/><circle cx="466.7" cy="368.9" r="5" class="c"/><path d="M453.5 385.5H480v1.7h-26.5z" class="a"/><path d="M393 219.7c0 9.1-3.8 16.6-8.3 16.6h-66.4c-4.5 0-8.2-7.5-8.2-16.6s3.7-16.6 8.2-16.6h66.4c4.5 0 8.3 7.4 8.3 16.6Z" class="d"/><path d="M393 219.7c0 9.1-3.8 16.6-8.3 16.6h-66.4c-4.5 0-8.2-7.5-8.2-16.6Z" class="b"/><path d="M320.8 238a1.7 1.7 0 0 1-1.6-1.7V203a1.7 1.7 0 0 1 3.3 0v33.2a1.7 1.7 0 0 1-1.7 1.6ZM382.2 238a1.7 1.7 0 0 1-1.7-1.7V203a1.7 1.7 0 0 1 3.3 0v33.2a1.7 1.7 0 0 1-1.6 1.6Z" class="c"/><path d="M325 233h5v9.9h-5zM373.1 233h5v9.9h-5z" class="e"/><path d="M323.2 242.9h8.3v1.7h-8.3zM371.4 242.9h8.3v1.7h-8.3z" class="a"/><path d="M333.7 216.4h1.7v18.2h-1.7z" class="f"/><circle cx="401.2" cy="368.9" r="13.3" class="d"/><path d="M414.5 369a13.3 13.3 0 1 1-26.5 0Z" class="b"/><path d="M416.2 368.1v1.6h-4.7l-5.5 5.7-1.3 1.2-.8-1.5-3.6-6.2h1.9l2.9 5 4.1-4.2 1.7-1.6h5.3z" class="e"/><path fill="#3d91a6" d="M402.2 368.9h-1.9l-2.9-5-4.1 4.2-1.7 1.6h-5.3v-1.6h4.6l5.6-5.7 1.2-1.2 4.5 7.7z"/><path d="M45.6 332.4c-18.3 0-33.2-7.4-33.2-16.5V166.6c0-9.1 14.9-16.5 33.2-16.5s33.2 7.4 33.2 16.5V316c0 9.1-14.9 16.5-33.2 16.5Z" class="d"/><path d="M45.6 332.4c-18.3 0-33.2-7.4-33.2-16.5V166.6c0-9.1 14.9-16.5 33.2-16.5Z" class="b"/><path d="M10.8 176.6a1.7 1.7 0 0 1 1.6-1.7H54a1.7 1.7 0 1 1 0 3.3H12.4a1.7 1.7 0 0 1-1.6-1.6ZM10.8 218a1.7 1.7 0 0 1 1.6-1.6H54a1.7 1.7 0 0 1 0 3.3H12.4a1.7 1.7 0 0 1-1.6-1.7ZM10.8 259.5a1.7 1.7 0 0 1 1.6-1.7H54a1.7 1.7 0 0 1 0 3.3H12.4a1.7 1.7 0 0 1-1.6-1.6ZM10.8 301a1.7 1.7 0 0 1 1.6-1.7H54a1.7 1.7 0 0 1 0 3.3H12.4a1.7 1.7 0 0 1-1.6-1.7Z" class="c"/><path d="M8.3 318.3h74.6v41.5H8.3z" class="e"/><path d="M68.8 195.6v122.7h-3.3v-36.4h-8.3v-3.4h8.3v-38.1h-8.3v-3.3h8.3V199h-8.3v-3.4h11.6z" class="h"/><path d="M0 357.3h91.2v5H0zM5.8 315.9h79.6v5H5.8z" class="a"/><path d="M210.6 219.7c0 9.1-3.7 16.6-8.3 16.6H136c-4.6 0-8.3-7.5-8.3-16.6s3.7-16.6 8.3-16.6h66.3c4.6 0 8.3 7.4 8.3 16.6Z" class="d"/><path d="M210.6 219.7c0 9.1-3.7 16.6-8.3 16.6H136c-4.6 0-8.3-7.5-8.3-16.6Z" class="b"/><path d="M138.4 238a1.7 1.7 0 0 1-1.6-1.7V203a1.7 1.7 0 1 1 3.3 0v33.2a1.7 1.7 0 0 1-1.7 1.6ZM199.8 238a1.7 1.7 0 0 1-1.7-1.7V203a1.7 1.7 0 0 1 3.4 0v33.2a1.7 1.7 0 0 1-1.7 1.6Z" class="c"/><path d="M142.6 233h5v9.9h-5zM190.7 233h5v9.9h-5z" class="e"/><path d="M140.8 242.9h8.3v1.7h-8.3zM189 242.9h8.3v1.7H189z" class="a"/><path d="M151.3 216.4h1.7v18.2h-1.7z" class="f"/><path d="m460.4 332.9-3 .3a2.3 2.3 0 0 0-.7-1.4 1.7 1.7 0 0 0-1.2-.4 2 2 0 0 0-1.7.9 7.7 7.7 0 0 0-.9 3.7 3.7 3.7 0 0 1 3-1.4 4.5 4.5 0 0 1 3.4 1.5 5.5 5.5 0 0 1 1.4 4 5.6 5.6 0 0 1-1.5 4 5.4 5.4 0 0 1-8-.4q-1.6-2-1.6-6.4 0-4.5 1.7-6.5a5.4 5.4 0 0 1 4.4-2 4.7 4.7 0 0 1 3.1 1 5 5 0 0 1 1.6 3Zm-7.2 7a3.6 3.6 0 0 0 .7 2.3 2.1 2.1 0 0 0 1.6.9 1.9 1.9 0 0 0 1.5-.7 3.5 3.5 0 0 0 .6-2.3 3.7 3.7 0 0 0-.6-2.4 2 2 0 0 0-3.2 0 3.1 3.1 0 0 0-.6 2.1ZM395.6 341.1l3.2-.3a2.7 2.7 0 0 0 .8 1.7 2.2 2.2 0 0 0 1.6.6 2.1 2.1 0 0 0 1.7-.8 3.7 3.7 0 0 0 .6-2.4 3.3 3.3 0 0 0-.6-2.3 2.3 2.3 0 0 0-1.8-.8 3.2 3.2 0 0 0-2.5 1.2l-2.6-.3 1.7-8.7h8.4v3h-6l-.5 2.8a4.9 4.9 0 0 1 5.7 1 5.5 5.5 0 0 1 1.5 4 6 6 0 0 1-1.2 3.7 5.3 5.3 0 0 1-4.5 2.2 5.6 5.6 0 0 1-3.7-1.2 5 5 0 0 1-1.8-3.4ZM352.8 193.2v-3.4H346V187l7.2-10.5h2.7V187h2v2.8h-2v3.4Zm0-6.2v-5.7L349 187ZM164.7 188.5l3.1-.4a3 3 0 0 0 .8 1.8 2.2 2.2 0 0 0 3.2-.1 2.9 2.9 0 0 0 .7-2 2.7 2.7 0 0 0-.6-2 2 2 0 0 0-1.6-.7 5.6 5.6 0 0 0-1.5.3l.4-2.6a2.8 2.8 0 0 0 2-.6 2 2 0 0 0 .6-1.6 1.7 1.7 0 0 0-1.8-1.8 2 2 0 0 0-1.4.6 2.7 2.7 0 0 0-.7 1.6l-3-.5a6.5 6.5 0 0 1 1-2.4 4.2 4.2 0 0 1 1.7-1.4 5.8 5.8 0 0 1 2.5-.5 5 5 0 0 1 3.8 1.5 3.8 3.8 0 0 1-1.3 6.2 3.9 3.9 0 0 1 2.3 1.4 4 4 0 0 1 .9 2.6 5 5 0 0 1-1.6 3.7 6 6 0 0 1-7.7.3 5.1 5.1 0 0 1-1.8-3.4ZM358.7 52.6v3h-11.2a7.7 7.7 0 0 1 1.1-3.2 21.2 21.2 0 0 1 3.6-4 22.5 22.5 0 0 0 2.6-2.7 3.5 3.5 0 0 0 .7-2 2.2 2.2 0 0 0-.6-1.6 2.4 2.4 0 0 0-3.2 0 3 3 0 0 0-.6 2l-3.2-.3a5.2 5.2 0 0 1 1.8-3.8 6 6 0 0 1 3.7-1.1 5.4 5.4 0 0 1 3.9 1.3 4.4 4.4 0 0 1 1.4 3.3 5.8 5.8 0 0 1-.4 2.1 8.7 8.7 0 0 1-1.3 2.1 20.4 20.4 0 0 1-2 2.2q-1.6 1.3-2 1.8a5.5 5.5 0 0 0-.6.9ZM173 55.5h-3.3v-12a11 11 0 0 1-4 2.5v-3a9.2 9.2 0 0 0 2.6-1.5 5.9 5.9 0 0 0 2-2.6h2.6ZM243.2 319.2l-6-16.6h3.7l4.2 12.3 4-12.3h3.6l-6 16.6ZM409.2 221.3v-16.6h3.3v16.6ZM420 221.3l-6-16.6h3.6l4.2 12.3 4.1-12.3h3.6l-6 16.6ZM231 221.3v-16.6h3.4v16.6ZM237.5 221.3v-16.6h3.4v16.6ZM244 221.3v-16.6h3.3v16.6ZM418 145v-16.5h3.4V145ZM424.5 145v-16.5h3.3V145ZM82.3 35.6V19h3.4v16.6Z" class="h"/></svg>