<svg xmlns="http://www.w3.org/2000/svg" viewBox="0 0 600 415" width="600" height="415"><defs><style>.a{fill:#07617d}.b{fill:#497285}.c{fill:#d27332}.d{fill:#f78536}.e{fill:#b05f1f}.f{fill:#fff}.g{fill:#3d91a6}.h{fill:#2b4450}</style></defs><path d="M113.5 103v-3H90v-1.25h23.5v-3l13.38 3.62Zm255.13 0v-3h-26.75v37.5h-1.25V98.75h28v-3l13.25 3.62Zm218 0v-3h-35.25v37.5h-1.25V98.75h36.5v-3L600 99.37Zm0 263.62v-3H494v-1.25h92.63v-3L600 363ZM600 151.75V153h-23.63v2.87l-13.37-3.5 13.38-3.62v3ZM288.5 36.37l13.38-3.5-13.38-3.62Zm-78.88 267.38 13.38-3.63-13.38-3.5Zm5.75 62.87L202 363l13.38-3.63Zm313-129.37L515 233.62l13.38-3.5Zm-74 0-13.25-3.63 13.25-3.5ZM37.5 146l-3.63-13.38L30.25 146Zm138.63 0-3.63-13.38-3.63 13.38Zm255 0-3.63-13.38-3.63 13.38ZM226 237.12l-3.63-13.37-3.62 13.37Zm-93 66.5-3.63-13.25-3.62 13.25Zm171.75-66.5-3.5-13.37-3.63 13.37Zm187.38 27.13-3.63-13.38-3.63 13.38Zm-79.5-11.88L409 265.62l-3.5-13.25Zm-273.5-86.25-3.63 13.38-3.5-13.38h2.88v-38.37h1.25v38.37Zm-55.5-45.62-3.5 13.37-3.63-13.37h3V108h1.25v12.5Zm261.25 131.87-3.63 13.25-3.5-13.25h2.88v-48.25h1.25v48.25Z" class="a"/><path d="M551.25 204.12v30.13h-58.5a3.88 3.88 0 0 0 0-1.25 4.25 4.25 0 0 0-8.5 0 3.88 3.88 0 0 0 0 1.25h-63.5V203H422v30h61a5.5 5.5 0 0 1 11 0h56.13v-28.75Zm-481-105.37V100H34.5v81.87h-1.25V98.75Zm290.13 190.37v80.63h-39v3L308 369.12l13.38-3.5v2.88h37.75v-79.38Zm-77 73.25v1.25H99.63v3L86.25 363l13.38-3.63v3h29.12V234.25H91.12V233h48.25v-2.88l13.38 3.5-13.38 3.63v-3H130v128.12Z" class="a"/><path d="M165.25 328.37v-2.87h-11.88V202.87h1.25v121.38h10.63v-3l13.38 3.62Zm103.5 0v-2.87H257.5v-1.25h11.25v-3l13.38 3.62ZM525 192.87v-3h-11.88V33.5h-85v147.12h-1.25V33.5H173.13v147.12h-1.25V32.25h342.5v156.37H525v-2.87l13.38 3.5Z" class="a"/><path d="M489.13 56.75V312.5h-1.25V58.12h-56.13a3.88 3.88 0 0 0 0-1.25 4.25 4.25 0 0 0-8.5 0 3.88 3.88 0 0 0 0 1.25h-32.13v18h3L390.5 89.5 387 76.12h3V56.87h32a5.5 5.5 0 0 1 11 0Zm-95 109.37-3.63 13.38-3.5-13.38h3v-38.37h1.13v38.37Zm-78.5-10.25V153H305.5a3.88 3.88 0 0 0 0-1.25 4.25 4.25 0 0 0-8.5 0 3.87 3.87 0 0 0 0 1.25h-74v171.25h12.38v1.25h-13.63v-24.75h-23.38v11.75h-1.25v-12.88h24.63V151.75h74a5.5 5.5 0 0 1 11 0h8.75v-3l13.5 3.62Z" class="a"/><path d="M301.88 56.75V312.5h-1.25V58.12H176.75a3.88 3.88 0 0 0 0-1.25 4.25 4.25 0 1 0-8.5 0 3.87 3.87 0 0 0 0 1.25h-32.13v18h3L135.5 89.5 132 76.12h2.88V56.87H167a5.5 5.5 0 1 1 11 0Zm154.12 316v-3h-47.63V202.87h1.25v121.38h13v1.25h-13v43H456v-2.88l13.38 3.5Z" class="a"/><path d="M456 328.37v-2.87h-11.25v-1.25H456v-3l13.38 3.62Zm-67.25-89.75h-1.25a4.38 4.38 0 0 0-8.75 0v28.13h-1.13V238.5a5.56 5.56 0 1 1 11.13 0Z" class="a"/><path d="m295.13 366.75 9.25 16h-18.5l9.25-16Z" class="b"/><path d="M295 366.75h-12.75v-7.5H295Z" class="c"/><circle cx="295.13" cy="369.12" r="9.88" class="d"/><path d="M308 371.37h-13v-4.25h12.88Z" class="c"/><circle cx="295.13" cy="369.12" r="3.75" class="e"/><path d="M305 382.75h-20v-1.25h20Z" class="a"/><path d="m482.38 366.75-9.25 16h18.5Z" class="b"/><path d="M482.38 359.37h12.87v7.38h-12.88Z" class="c"/><circle cx="482.38" cy="369.12" r="9.88" class="d"/><path d="M469.38 367h12.87v4.25h-12.88Z" class="c"/><circle cx="482.38" cy="369.12" r="3.75" class="e"/><path d="M472.5 381.5h19.75v1.25H472.5Z" class="a"/><path d="m191.63 322.37-9.25 16h18.5l-9.25-16Z" class="b"/><path d="M194 324.87V312h7.5v12.87Z" class="c"/><circle cx="191.63" cy="324.87" r="9.88" class="d"/><path d="M178.63 322.75h12.87V327h-12.88Z" class="c"/><circle cx="191.63" cy="324.87" r="3.75" class="e"/><path d="M181.75 337.12h19.75v1.25h-19.75Z" class="a"/><path d="m295.13 322.37-9.25 16h18.5l-9.25-16Z" class="b"/><path d="M297.5 324.87V312h7.38v12.87Z" class="c"/><circle cx="295.13" cy="324.87" r="9.88" class="d"/><path d="M282.13 322.75H295V327h-12.88Z" class="c"/><circle cx="295.13" cy="324.87" r="3.75" class="e"/><path d="M285.25 337.12H305v1.25h-19.75Z" class="a"/><path d="m482.38 322.37-9.25 16h18.5Z" class="b"/><path d="M484.75 324.87V312h7.5v12.87Z" class="c"/><circle cx="482.38" cy="324.87" r="9.88" class="d"/><path d="M469.38 322.75h12.87V327h-12.88Z" class="c"/><circle cx="482.38" cy="324.87" r="3.75" class="e"/><path d="M472.5 337.12h19.75v1.25H472.5Z" class="a"/><path d="M550.75 204.75c-6.88 0-12.38-2.75-12.38-6.25v-55.38c0-3.37 5.5-6.25 12.38-6.25s12.25 2.88 12.25 6.25v55.38c0 3.5-5.5 6.25-12.25 6.25Z" class="d"/><path d="M550.75 204.75c-6.88 0-12.38-2.75-12.38-6.25v-55.38c0-3.37 5.5-6.25 12.38-6.25Z" class="c"/><path d="M537.13 145a1.25 1.25 0 0 1 1.25-1.25H563a1.25 1.25 0 0 1 0 2.5h-24.63a1.25 1.25 0 0 1-1.25-1.25Zm0 51.75a1.25 1.25 0 0 1 1.25-1.25H563a1.25 1.25 0 0 1 0 2.5h-24.63a1.25 1.25 0 0 1-1.25-1.25Z" class="e"/><path d="M556.88 201.62h3.75V209h-3.75Z" class="b"/><path d="M556.25 209h6.13v1.25h-6.13Z" class="a"/><path d="M544.5 209h-3.75v-7.38h3.75Z" class="b"/><path d="M545.25 210.25H539V209h6.25Z" class="a"/><path d="M539.63 157.87v25.88h22.12v-25.88Zm11.87 13 9.13-10.75v21.5Zm8.38-11.75-9.13 10.75-9.25-10.75Zm-19 1 9.12 10.75-9.13 10.75Zm.62 22.5 9.25-10.87 9.13 10.75Z" class="f"/><path d="M341.25 204.75c-6.75 0-12.25-2.75-12.25-6.25v-55.38c0-3.37 5.5-6.25 12.25-6.25s12.38 2.88 12.38 6.25v55.38c0 3.5-5.5 6.25-12.38 6.25Z" class="d"/><path d="M341.25 204.75c-6.75 0-12.25-2.75-12.25-6.25v-55.38c0-3.37 5.5-6.25 12.25-6.25Z" class="c"/><path d="M327.75 145a1.25 1.25 0 0 1 1.25-1.25h24.63a1.25 1.25 0 0 1 0 2.5H329a1.25 1.25 0 0 1-1.25-1.25Zm0 51.75a1.25 1.25 0 0 1 1.25-1.25h24.63a1.25 1.25 0 0 1 0 2.5H329a1.25 1.25 0 0 1-1.25-1.25Z" class="e"/><path d="M347.38 201.62h3.75V209h-3.75Z" class="b"/><path d="M346.88 209H353v1.25h-6.13Z" class="a"/><path d="M335.13 209h-3.75v-7.38h3.75Z" class="b"/><path d="M335.63 210.25h-6.13V209h6.25Z" class="a"/><path d="M330.13 157.87v25.88h22.37v-25.88Zm11.87 13 9.13-10.75v21.5Zm8.5-11.75-9.25 10.75-9.13-10.75Zm-19.13 1 9.13 10.75-9.13 10.75Zm.75 22.5 9.13-10.87 9.25 10.75Z" class="f"/><path d="M184.75 191.75c0 6.75-2.75 12.37-6.13 12.37h-49.25c-3.37 0-6.25-5.62-6.25-12.37s2.88-12.25 6.25-12.25h49.25c3.38 0 6.25 5.5 6.25 12.25Z" class="d"/><path d="M184.75 191.75c0 6.75-2.75 12.37-6.13 12.37h-49.25c-3.37 0-6.25-5.62-6.25-12.37Z" class="c"/><path d="M131.25 205.37a1.25 1.25 0 0 1-1.25-1.25V179.5a1.25 1.25 0 0 1 2.5 0v24.62a1.25 1.25 0 0 1-1.25 1.25Zm45.5 0a1.25 1.25 0 0 1-1.25-1.25V179.5a1.25 1.25 0 0 1 2.5 0v24.62a1.25 1.25 0 0 1-1.25 1.25Z" class="e"/><path d="M134.25 201.62H138V209h-3.75Zm35.75 0h3.75V209H170Z" class="b"/><path d="M133 209h6.13v1.25H133Zm35.75 0h6.13v1.25h-6.13Z" class="a"/><path d="M140.75 189.25H142v13.5h-1.25Z" class="f"/><path d="M390.5 278c0 6.75-2.75 12.37-6.13 12.37h-49.25c-3.37 0-6.25-5.62-6.25-12.37s2.88-12.38 6.25-12.38h49.25c3.38 0 6.25 5.63 6.25 12.38Z" class="d"/><path d="M390.5 278c0 6.75-2.75 12.37-6.13 12.37h-49.25c-3.37 0-6.25-5.62-6.25-12.37Z" class="c"/><path d="M337 291.5a1.25 1.25 0 0 1-1.25-1.25v-24.63a1.25 1.25 0 0 1 2.5 0v24.88a1.25 1.25 0 0 1-1.25 1.25Zm45.5 0a1.25 1.25 0 0 1-1.25-1.25v-24.63a1.25 1.25 0 0 1 2.5 0v24.88a1.25 1.25 0 0 1-1.25 1.25Z" class="e"/><path d="M340 287.87h3.75v7.38H340Zm35.75 0h3.75v7.38h-3.75Z" class="b"/><path d="M338.75 295.25h6.13v1.25h-6.13Zm35.75 0h6.13v1.25h-6.13Z" class="a"/><path d="M346.5 275.5h1.25V289h-1.25Z" class="f"/><path d="M439.88 191.75c0 6.75-2.75 12.37-6.25 12.37h-49.25c-3.38 0-6.25-5.62-6.25-12.37s2.87-12.25 6.25-12.25h49.37c3.5 0 6.25 5.5 6.25 12.25Z" class="d"/><path d="M439.88 191.75c0 6.75-2.75 12.37-6.25 12.37h-49.25c-3.38 0-6.25-5.62-6.25-12.37Z" class="c"/><path d="M386.25 205.37a1.25 1.25 0 0 1-1.25-1.25V179.5a1.25 1.25 0 0 1 2.5 0v24.62a1.25 1.25 0 0 1-1.25 1.25Zm45.63 0a1.25 1.25 0 0 1-1.25-1.25V179.5a1.25 1.25 0 0 1 2.5 0v24.62a1.25 1.25 0 0 1-1.25 1.25Z" class="e"/><path d="M389.38 201.62h3.75V209h-3.75Zm35.62 0h3.75V209H425Z" class="b"/><path d="M388 209h6.13v1.25H388Zm35.88 0H430v1.25h-6.13Z" class="a"/><path d="M395.88 189.25h1.25v13.5h-1.25Z" class="f"/><circle cx="80.13" cy="99.37" r="9.88" class="d"/><path d="M90 99.25a9.88 9.88 0 1 1-19.75 0Z" class="c"/><path d="M91.13 98.75V100h-3.38l-4.13 4.12-1 1L82 104l-2.63-4.63h1.38l2.25 3.75 3-3.12 1.25-1.25Z" class="b"/><path d="M80.75 99.37h-1.38l-2.12-3.75-3.13 3.13L73 100h-4v-1.25h3.38l4.25-4.25.87-.88Z" class="g"/><circle cx="246.38" cy="324.87" r="9.88" class="d"/><path d="M256.25 324.87a9.88 9.88 0 1 1-19.75 0Z" class="c"/><path d="M257.5 324.25v1.25H254l-4.13 4.12-.87.88-.63-1-2.62-4.63h1.38l2.12 3.63 3.13-3 1.12-1.25Z" class="b"/><path d="M247.13 324.87h-1.38l-2.25-3.75-3 3.13-1.25 1.25h-3.88v-1.25h3.38l4.13-4.25.87-.88 3.38 5.75Z" class="g"/><path d="M33.88 316.25c-13.63 0-24.63-5.63-24.63-12.38V193c0-6.75 11-12.38 24.63-12.38S58.5 186.25 58.5 193v110.87c0 6.75-11 12.38-24.63 12.38Z" class="d"/><path d="M33.88 316.25c-13.63 0-24.63-5.63-24.63-12.38V193c0-6.75 11-12.38 24.63-12.38Z" class="c"/><path d="M8 200.5a1.25 1.25 0 0 1 1.25-1.25H40a1.25 1.25 0 1 1 0 2.37H9.25A1.25 1.25 0 0 1 8 200.37Zm0 30.62a1.25 1.25 0 0 1 1.25-1.25H40a1.25 1.25 0 0 1 0 2.5H9.25A1.25 1.25 0 0 1 8 231.12ZM8 262a1.25 1.25 0 0 1 1.25-1.25H40a1.25 1.25 0 0 1 0 2.5H9.25A1.25 1.25 0 0 1 8 262Zm0 30.75a1.25 1.25 0 0 1 1.25-1.25H40a1.25 1.25 0 0 1 0 2.5H9.25A1.25 1.25 0 0 1 8 292.75Z" class="e"/><path d="M6.13 305.75h55.5v30.75H6.13Z" class="b"/><path d="M51.13 214.5v91.25h-2.5v-27.13H42.5v-2.5h6.13v-28.25H42.5v-2.5h6.13V217H42.5v-2.5Z" class="h"/><path d="M0 334.62h67.75v3.75H0Zm4.25-30.75h59.13v3.75H4.24Z" class="a"/><path d="m135.5 100.62-9.88 28.25h19.75Z" class="c"/><path d="M135.5 100.62v28.25h-9.88Z" class="e"/><path d="M126.25 89.5h18.5V108h-18.5Z" class="d"/><path d="M126.25 89.5h9.25V108h-9.25Zm264.25 11.12-9.75 28.25h19.63l-9.88-28.25Z" class="c"/><path d="M390.5 100.62v28.25h-9.75Z" class="e"/><path d="M381.38 89.5h18.5V108h-18.5Z" class="d"/><path d="M381.38 89.5h9.25V108h-9.25Z" class="c"/><circle cx="433.63" cy="324.87" r="9.88" class="d"/><path d="M443.5 324.87a9.88 9.88 0 1 1-19.63 0Z" class="c"/><path d="M444.75 324.25v1.25h-3.38l-4.25 4.12-.87.88-.63-1-2.62-4.63h1.38l2.12 3.63 3.13-3 1.25-1.25Z" class="b"/><path d="M434.38 324.87H433l-2.25-3.75-3 3.13-1.25 1.25h-3.88v-1.25H426l4.13-4.25 1-.88 3.25 5.75Z" class="g"/><path d="M82 82.12h-2.25v-8.87A8.12 8.12 0 0 1 76.62 75v-2.13a6.87 6.87 0 0 0 2-1.25 4.37 4.37 0 0 0 1.5-1.87H82Zm76.63 21.25v2.13h-8.38a5.75 5.75 0 0 1 .88-2.38 15.75 15.75 0 0 1 2.62-2.87 16.75 16.75 0 0 0 2-2.13 2.5 2.5 0 0 0 .5-1.37 1.63 1.63 0 0 0-.5-1.25 1.75 1.75 0 0 0-2.25 0 2.25 2.25 0 0 0-.5 1.5l-2.5-.25a3.75 3.75 0 0 1 1.38-2.75 4.5 4.5 0 0 1 2.87-.88 4 4 0 0 1 2.75 1 3.25 3.25 0 0 1 1.13 2.5 4.25 4.25 0 0 1-.38 1.5 6.5 6.5 0 0 1-.88 1.63 15 15 0 0 1-1.62 1.5l-1.25 1.37a4.25 4.25 0 0 0-.63.75ZM405.38 102l2.25-.25a2.12 2.12 0 0 0 .62 1.25 1.66 1.66 0 0 0 2.38 0 2.13 2.13 0 0 0 .5-1.5 2 2 0 0 0-.5-1.38 1.5 1.5 0 0 0-1.25-.5 4.13 4.13 0 0 0-1 0l.25-1.75a2.13 2.13 0 0 0 1.5-.5 1.5 1.5 0 0 0 .5-1.25 1.25 1.25 0 0 0-1.25-1.26 1.22 1.22 0 0 0-.13.01 1.38 1.38 0 0 0-1 .38 2 2 0 0 0-.5 1.25l-2.25-.38a4.88 4.88 0 0 1 .75-1.75 3.13 3.13 0 0 1 1.25-1.12 4.25 4.25 0 0 1 1.88-.38 3.75 3.75 0 0 1 2.75 1.25 2.87 2.87 0 0 1-.88 4.5 2.88 2.88 0 0 1 1.62 1.13 3 3 0 0 1 .63 1.87 3.75 3.75 0 0 1-1.25 2.75 4.37 4.37 0 0 1-5.63.13 3.75 3.75 0 0 1-1.25-2.5Zm-219.13 72.5V172h-5.13v-2l5.38-7.88h2V170h1.5v2h-1.5v2.5Zm0-4.5v-4.25l-2.88 4.25Zm250 1.12 2.25-.25a2 2 0 0 0 .63 1.25 1.54 1.54 0 0 0 2.37-.12 2.75 2.75 0 0 0 .5-1.75 2.5 2.5 0 0 0-.5-1.75 1.75 1.75 0 0 0-1.25-.63 2.5 2.5 0 0 0-1.88 1l-2-.37 1.25-6.38h6.25v2.25h-4.5l-.37 2a3.63 3.63 0 0 1 4.38.75 4.13 4.13 0 0 1 1.12 3 4.5 4.5 0 0 1-1 2.75 3.88 3.88 0 0 1-3.25 1.63 4.13 4.13 0 0 1-2.88-.88 3.75 3.75 0 0 1-1.25-2.5ZM363.87 250l-2.25.25a1.62 1.62 0 0 0-.5-1 1.25 1.25 0 0 0-.87-.38 1.5 1.5 0 0 0-1.25.63 5.75 5.75 0 0 0-.63 2.87 2.75 2.75 0 0 1 2.13-1.12 3.37 3.37 0 0 1 2.5 1.25 4.4 4.4 0 0 1 0 5.87 4 4 0 0 1-5.66-.01l-.21-.24a10.13 10.13 0 0 1 0-9.75 4 4 0 0 1 3.25-1.5 3.5 3.5 0 0 1 2.37.88A3.75 3.75 0 0 1 364 250Zm-5.37 5.12a2.62 2.62 0 0 0 .5 1.75 1.5 1.5 0 0 0 1.25.63 1.38 1.38 0 0 0 1.13-.5 2.5 2.5 0 0 0 .37-1.63 2.75 2.75 0 0 0-.38-1.75 1.5 1.5 0 0 0-2.5 0 2.38 2.38 0 0 0-.37 1.5ZM178.75 300v-2h8.13v1.75a12.75 12.75 0 0 0-2 2.75 16.5 16.5 0 0 0-1.63 4 14.5 14.5 0 0 0-.5 3.75h-2.38a15.87 15.87 0 0 1 1.13-5.25 17.5 17.5 0 0 1 2.63-4.88ZM285 303.12a2.63 2.63 0 0 1-1.88-2.5 3 3 0 0 1 1-2.25 4.63 4.63 0 0 1 5.5 0 3 3 0 0 1 .88 2.25 2.75 2.75 0 0 1-.38 1.5 2.88 2.88 0 0 1-1.25 1 3.25 3.25 0 0 1 1.5 1.25 3.13 3.13 0 0 1 .63 1.88 3.75 3.75 0 0 1-1.25 2.75 4 4 0 0 1-2.75 1 4.37 4.37 0 0 1-2.88-.88 3.69 3.69 0 0 1-.75-4.62 3.25 3.25 0 0 1 1.5-1.25Zm.13 2.88a2.13 2.13 0 0 0 .5 1.62 1.81 1.81 0 0 0 2.5 0 2.12 2.12 0 0 0 .5-1.5 2 2 0 0 0-.5-1.37 1.63 1.63 0 0 0-1.25-.63 1.5 1.5 0 0 0-1.25.63 2.25 2.25 0 0 0-.5 1.25Zm.25-5.25a1.5 1.5 0 1 0 3 0 1.38 1.38 0 0 0-1.5-1.5 1.49 1.49 0 0 0-1.5 1.5Zm-17.13 78.87 2.38-.25a1.63 1.63 0 0 0 .37 1 1.25 1.25 0 0 0 1 .38 1.5 1.5 0 0 0 1.25-.63 5.75 5.75 0 0 0 .63-2.87 2.88 2.88 0 0 1-2.25 1.12 3.38 3.38 0 0 1-2.5-1.25 4.23 4.23 0 0 1 .12-5.87 4 4 0 0 1 5.66.12l.21.25a9.89 9.89 0 0 1 0 9.63 4 4 0 0 1-3.37 1.5 3.5 3.5 0 0 1-2.38-.75 3.75 3.75 0 0 1-1.12-2.38Zm5.38-5.12a2.75 2.75 0 0 0-.5-1.75 1.5 1.5 0 0 0-1.25-.63 1.25 1.25 0 0 0-1.13.5 2.63 2.63 0 0 0-.38 1.63 2.75 2.75 0 0 0 .5 1.75 1.4 1.4 0 0 0 2.25.12 2.37 2.37 0 0 0 .5-1.62ZM506.5 332h-2.38v-8.88a8.12 8.12 0 0 1-3 1.75v-2.12a6.87 6.87 0 0 0 2-1.25 4.38 4.38 0 0 0 1.5-1.88h1.88Zm7.5-12.38a3.37 3.37 0 0 1 2.88 1.25 11.12 11.12 0 0 1 0 10 3.37 3.37 0 0 1-2.88 1.25 3.5 3.5 0 0 1-2.88-1.25 11.25 11.25 0 0 1 .13-10 3.38 3.38 0 0 1 2.75-1.25Zm0 2a1.25 1.25 0 0 0-.75.25 1.88 1.88 0 0 0-.5 1 20 20 0 0 0 0 6 2.12 2.12 0 0 0 .5 1.13 1.25 1.25 0 0 0 1.5 0 1.87 1.87 0 0 0 .63-1 20 20 0 0 0 0-6.13 2.13 2.13 0 0 0-.63-1 1.25 1.25 0 0 0-.75-.25Zm-7.5 61.13h-2.38v-9a8.13 8.13 0 0 1-3 1.87v-2.12a6.88 6.88 0 0 0 2-1.25 4.38 4.38 0 0 0 1.5-1.88h1.88Zm8.63 0h-2.38v-9a8.13 8.13 0 0 1-3 1.87v-2.12a6.88 6.88 0 0 0 2-1.25 4.37 4.37 0 0 0 1.5-1.88h1.88Zm-272-75.13h-2.5v-9a8.12 8.12 0 0 1-3 1.88v-2.25a6.87 6.87 0 0 0 2-1.13 4.37 4.37 0 0 0 1.5-2h2Zm11.5-2.25v2.25h-8.38a5.75 5.75 0 0 1 .75-2.5 15.75 15.75 0 0 1 2.63-2.87 16.75 16.75 0 0 0 2-2 2.5 2.5 0 0 0 .5-1.5 1.62 1.62 0 0 0-.5-1.25 1.75 1.75 0 0 0-2.25 0 2.25 2.25 0 0 0-.5 1.62l-2.5-.25a3.75 3.75 0 0 1 1.37-2.87 4.5 4.5 0 0 1 2.88-.88 4 4 0 0 1 2.87 1 3.25 3.25 0 0 1 1 2.5 4.25 4.25 0 0 1-.38 1.63 6.5 6.5 0 0 1-.87 1.5 15.1 15.1 0 0 1-1.5 1.62l-1.5 1.25a4.25 4.25 0 0 0-.5.75Zm176 2h-2.5v-8.87a8.13 8.13 0 0 1-3 1.75V298a6.87 6.87 0 0 0 2.12-1.25 4.37 4.37 0 0 0 1.38-1.88h2Zm3.37-3.25 2.38-.37a2.12 2.12 0 0 0 .62 1.37 1.54 1.54 0 0 0 2.38-.12 2.13 2.13 0 0 0 .5-1.5 2 2 0 0 0-.5-1.25 1.5 1.5 0 0 0-1.25-.63 4.13 4.13 0 0 0-1 .13l.25-1.88a2.12 2.12 0 0 0 1.5-.37 1.5 1.5 0 0 0 .5-1.25A1.25 1.25 0 0 0 438 297a1.38 1.38 0 0 0-1 .37 2 2 0 0 0-.63 1.25l-2.12-.37a4.88 4.88 0 0 1 .63-1.88 3.13 3.13 0 0 1 1.25-1A4.25 4.25 0 0 1 438 295a3.75 3.75 0 0 1 2.88 1.12 2.88 2.88 0 0 1-1 4.63 2.87 2.87 0 0 1 1.75 1 3 3 0 0 1 .62 1.87 3.75 3.75 0 0 1-1.25 2.75 4.38 4.38 0 0 1-5.63.25 3.75 3.75 0 0 1-1.25-2.5Zm-111.75-171.5h-2.5v-8.87a8.12 8.12 0 0 1-3 1.75v-2.13a6.87 6.87 0 0 0 2-1.25 4.37 4.37 0 0 0 1.5-1.87h2Zm8.13 0v-2.5h-5v-2l5.25-7.87h2V128h1.62v2.12h-1.75v2.5Zm0-4.62v-4.13L327.5 128Zm200.5 4.37h-2.38v-8.87a8.12 8.12 0 0 1-3 1.75v-2.13a6.87 6.87 0 0 0 2-1.25A4.37 4.37 0 0 0 529 120h1.88Zm3.62-3.12 2.38-.25a2 2 0 0 0 .62 1.25 1.54 1.54 0 0 0 2.38-.13 2.75 2.75 0 0 0 .5-1.87 2.5 2.5 0 0 0-.5-1.63 1.75 1.75 0 0 0-1.25-.62 2.5 2.5 0 0 0-1.88 1l-2-.38 1.25-6.37h6.25v2.25h-4.5l-.38 2a3.63 3.63 0 0 1 4.38.75 4.13 4.13 0 0 1 1 3 4.5 4.5 0 0 1-.88 2.75 3.88 3.88 0 0 1-3.25 1.62 4.13 4.13 0 0 1-2.87-.87 3.75 3.75 0 0 1-1.25-2.5ZM46.62 92V79.62h2.5V92Zm525.88 0V79.62h2.5V92Zm5.63 0V79.62h2.5V92Zm4 53v-12.5h2.5V145Zm5.5 0v-12.5h2.5V145Zm5.5 0v-12.5h2.5V145ZM570 355.62v-12.37h2.5v12.37Zm8.75 0-4.5-12.37H577l3.13 9.12 3-9.12h2.62l-4.38 12.37ZM98.87 226.25l-4.37-12.38h2.63l3.12 9.13 3-9.13H106l-4.5 12.5Zm0 129.37-4.37-12.37h2.63l3.12 9.12 3-9.12H106l-4.5 12.37Zm9 0v-12.37h2.5v12.37Z" class="h"/></svg>