<svg xmlns="http://www.w3.org/2000/svg" viewBox="0 0 600 415" width="600" height="415"><defs><style>.a{fill:#07617d}.b{fill:#d27332}.c{fill:#b05f1f}.d{fill:#f78536}.e{fill:#497285}.f{fill:#2b4450}</style></defs><path d="M252.5 67.7v-5.2h-87.7v134.7h-2V60.3h89.7v-5l23.4 6.1Zm226.2 148.6L485 193l6.3 23.4h-12.6Z" class="a"/><path d="M486 0v371.9h-2V2H293v18.7h5.2l-6.2 23.4-6.3-23.4h5.2V0Z" class="a"/><path d="M455.9 303.9v2.2h-106v5.2l-23.3-6.3 23.3-6.2v5.1Zm-23.4-85.3v-5.2h-58.6v-2.2h58.6v-5l23.4 6.1Zm-4.2 178.9v-5.1h-19.9v-2.2h19.9V385l23.3 6.3Z" class="a"/><path d="M369.6 390.2v2.2h-44.1V216.6h2.1v173.6Z" class="a"/><path d="m320.3 249.4 6.3 23.3 6.2-23.3Zm-22-97-6.2 23.3-6.3-23.4h5.2V111h2.1v41.3Zm134.2-33v-5.2h-74.6v63.6h-2.2v-65.7h76.8v-5.2l23.4 6.3Z" class="a"/>
<path d="m292.1 63.6-17.3 49.6h34.5Z" class="b"/><path d="M292.1 63.6v49.6h-17.3Z" class="c"/><path d="M276 44.2h32.3v32.4H276Z" class="d"/><path d="M276 44.2H292v32.4H276Z" class="b"/><path d="M163.8 343.8c-23.8 0-43.2-9.6-43.2-21.5v-194c0-11.9 19.4-21.6 43.2-21.6s43.2 9.7 43.2 21.6v194c0 11.9-19.4 21.5-43.3 21.5Z" class="d"/><path d="M163.8 343.8c-23.8 0-43.2-9.6-43.2-21.5v-194c0-11.9 19.4-21.6 43.2-21.6Z" class="b"/><path d="M118.5 141.3a2.2 2.2 0 0 1 2.2-2.3h53.9a2.2 2.2 0 1 1 0 4.4h-53.9a2.2 2.2 0 0 1-2.2-2.3Zm0 53.8a2.2 2.2 0 0 1 2.2-2.2h53.9a2.2 2.2 0 1 1 0 4.3h-53.9a2.2 2.2 0 0 1-2.2-2.2Zm0 54a2.2 2.2 0 0 1 2.2-2.3h53.9a2.2 2.2 0 0 1 0 4.4h-53.9a2.2 2.2 0 0 1-2.2-2.2Zm0 53.8a2.2 2.2 0 0 1 2.2-2.2h53.9a2.2 2.2 0 0 1 0 4.4h-53.9a2.2 2.2 0 0 1-2.2-2.2Z" class="c"/><path d="M115.3 325.5h97v54h-97Z" class="e"/><path d="M194 166v159.5h-4.3v-47.4h-10.8v-4.4h10.8v-49.5h-10.8v-4.3h10.8v-49.6h-10.8V166Z" class="f"/><path d="M104.5 376.2H223v6.4H104.5Zm7.6-53.9h103.4v6.4H112.1Z" class="a"/><path d="M474.2 387 458 415h32.3Z" class="e"/><path d="M478.5 391.2v-22.7h13v22.7Z" class="b"/><circle cx="474.2" cy="391.3" r="17.3" class="d"/><path d="M451.6 387.5h22.6v7.4h-22.6Z" class="b"/><circle cx="474.2" cy="391.3" r="6.4" class="c"/><path d="M457 412.8h34.5v2H457Z" class="a"/><path d="M378.4 197.2c0 12-4.9 21.6-10.9 21.6h-86.2c-6 0-10.8-9.7-10.8-21.6s4.9-21.5 10.8-21.5h86.2c6 0 10.8 9.7 10.8 21.5Z" class="d"/><path d="M378.4 197.2c0 12-4.9 21.6-10.9 21.6h-86.2c-6 0-10.8-9.7-10.8-21.6Z" class="b"/><path d="M284.5 221a2.2 2.2 0 0 1-2.1-2.2v-43a2.2 2.2 0 0 1 4.3 0v43a2.2 2.2 0 0 1-2.2 2.2Zm79.8 0a2.2 2.2 0 0 1-2.2-2.2v-43a2.2 2.2 0 1 1 4.4 0v43a2.2 2.2 0 0 1-2.2 2.2Z" class="c"/><path d="M290 214.5h6.3v13H290Zm62.4 0h6.5v13h-6.5Z" class="e"/><path d="M287.6 227.4h10.7v2.1h-10.7Zm62.6 0H361v2.1h-10.8Z" class="a"/><path fill="#fff" d="M301.3 193h2.1v23.6h-2Z"/><circle cx="389" cy="391.3" r="17.3" class="d"/><path d="M406.3 391.3a17.3 17.3 0 0 1-34.6 0Z" class="b"/><path d="M408.4 390.2v2.2h-6l-7.2 7.3-1.6 1.6-1.1-2-4.7-8h2.6l3.7 6.5 5.3-5.4 2.2-2.2Z" class="e"/><path fill="#3d91a6" d="M390.4 391.3h-2.6l-3.8-6.6-5.3 5.5-2 2.2h-7v-2.2h6l7.2-7.4 1.6-1.6Z"/><path d="M459.8 361.1v-4.4h-9V353l9.5-13.7h3.3V353h2.8v3.6h-2.6v4.4Zm0-8v-7.4l-5 7.4Zm-78.5 2 4-.6a3.8 3.8 0 0 0 1 2.3 2.9 2.9 0 0 0 4.1 0v-.1a3.8 3.8 0 0 0 1-2.7 3.5 3.5 0 0 0-1-2.4 2.7 2.7 0 0 0-2-1 7.2 7.2 0 0 0-1.8.4l.4-3.3a3.7 3.7 0 0 0 2.6-.8 2.5 2.5 0 0 0 .9-2 2.2 2.2 0 0 0-2.5-2.5 2.5 2.5 0 0 0-1.7.8 3.4 3.4 0 0 0-1 2.2l-3.8-.7a8.5 8.5 0 0 1 1.2-3.2 5.4 5.4 0 0 1 2.2-1.8 7.5 7.5 0 0 1 3.4-.6 6.4 6.4 0 0 1 4.8 1.8 5.1 5.1 0 0 1 1.5 3.7q0 2.8-3.1 4.4a5 5 0 0 1 3 2 5.2 5.2 0 0 1 1 3.2 6.5 6.5 0 0 1-2 5 7.8 7.8 0 0 1-10 .1 6.7 6.7 0 0 1-2.2-4.4Zm-49.7-196.2v3.9H317a10 10 0 0 1 1.4-4.1 27.5 27.5 0 0 1 4.7-5.3 29.3 29.3 0 0 0 3.3-3.5 4.5 4.5 0 0 0 .9-2.5 2.9 2.9 0 0 0-.7-2.2 3.2 3.2 0 0 0-4 0 4 4 0 0 0-1 2.7l-4.2-.4a6.8 6.8 0 0 1 2.3-5 7.8 7.8 0 0 1 5-1.5 7 7 0 0 1 5 1.8 5.7 5.7 0 0 1 1.8 4.3 7.4 7.4 0 0 1-.6 2.8 11.3 11.3 0 0 1-1.6 2.7 26.6 26.6 0 0 1-2.7 2.7l-2.5 2.5a7.2 7.2 0 0 0-.8 1Zm-2.2-86.7h-4.2V56.7a14.3 14.3 0 0 1-5.4 3V56a12 12 0 0 0 3.6-2 7.8 7.8 0 0 0 2.7-3.4h3.3Zm70.3 220v-21.7h4.4v21.7Zm14 0-7.7-21.7h4.8l5.4 16 5.3-16h4.6l-7.8 21.7Zm-11.1-92.8v-21.6h4.3v21.6Zm8.3 0v-21.6h4.4v21.6Zm8.4 0v-21.6h4.4v21.6ZM410.9 98V76.5h4.4v21.6Zm8.4 0V76.5h4.4v21.6ZM211.5 46.3V24.7h4.5v21.6Z" class="f"/></svg>