<svg xmlns="http://www.w3.org/2000/svg" viewBox="0 0 600 415" width="600" height="415"><defs><style>.a{fill:#07617d}.b{fill:#d27332}.c{fill:#b05f1f}.d{fill:#f78536}.e{fill:#497285}.f{fill:#fff}.g{fill:#3d91a6}.h{fill:#2b4450}</style></defs><path d="M369.2 55.8v-4.2h-15.5a5.5 5.5 0 0 0 0-1.8 6.2 6.2 0 0 0-12.2 0 5.5 5.5 0 0 0 0 1.8h-98.7v167.9h-2V49.9h98.8a8 8 0 0 1 15.9 0h13.7v-4.4l19.2 5.2ZM561.7 0v377.7H560V1.7H402.7v15.5h4.2l-5 19.3-5.3-19.3h4.3V0ZM401 91.5h1.8v128h-1.8Zm-213.4 0h1.8v128h-1.8Z" class="a"/><path d="M517.6 171.3v-4.2h-61.7v52.4h-1.7v-54.3h63.4V161l19.3 5.2ZM155.8 55.8v-4.2H83.6v111H82V49.8h74v-4.3l19.2 5.2Zm381 267.7v1.8h-87.3v4.3l-19.3-5.2 19.3-5.2v4.3h87.4Zm-19.2-70.4v-4.2h-48.3V247h48.3v-4.3l19.3 5.2ZM514 400.7v-4.3h-16.3v-1.8H514v-4.3l19.3 5.2-19.3 5.2Z" class="a"/><path d="M465.7 394.6v1.8h-36.4V251.5h1.8v143Zm-229-232.2 5-19.3 5.3 19.3Zm105.7 0 5.2-19.3 5 19.3Z" class="a"/><path d="m425 278.5 5.2 19.2 5.2-19.2ZM348.5 0v377.7h-1.8V1.7H189.3v15.5h4.3l-5.2 19.3-5-19.3h4.1V0Z" class="a"/><path d="M323.5 323.5v1.8h-87.4v4.3l-19.2-5.2 19.2-5.2v4.3Zm-19.2-70.4v-4.2H256V247h48.3v-4.3l19.2 5.2-19.2 5Zm-3.5 147.6v-4.3h-16.3v-1.8h16.3v-4.3l19.2 5.2-19.2 5.2Z" class="a"/><path d="M252.4 394.6v1.8H216V251.5h1.8v143Z" class="a"/><path d="m211.7 278.5 5.2 19.2 5.1-19.2Zm344-65.8 5.1-19.3 5.1 19.3Zm-159.1-67.5 5.2 19.2 5.1-19.2h-10.3Zm-213.3 0 5.1 19.2 5.2-19.2Z" class="a"/><path d="m188.4 52.5-14.2 40.8h28.5Z" class="b"/><path d="M188.4 52.5v40.8h-14.2Z" class="c"/><path d="M175.1 36.5h26.6V63h-26.6Z" class="d"/><path d="M175.1 36.5h13.3V63h-13.3Zm226.7 16-14.3 40.8H416l-14.2-40.8Z" class="b"/><path d="M401.8 52.5v40.8h-14.3Z" class="c"/><path d="M388.4 36.5H415V63h-26.6Z" class="d"/><path d="M388.4 36.5h13.3V63h-13.3Z" class="b"/><path d="m552 392-13.3 23h26.6Z" class="e"/><path d="M555.5 395.5v-18.7h10.7v18.7Z" class="b"/><circle cx="552" cy="395.5" r="14.2" class="d"/><path d="M533.3 392.4H552v6h-18.7Z" class="b"/><circle cx="552" cy="395.5" r="5.3" class="c"/><path d="M537.8 413.2h28.4v1.8h-28.4Z" class="a"/><path d="M472.9 235.6c0 9.7-4 17.7-8.9 17.7h-71.2c-4.9 0-8.8-8-8.8-17.7s4-17.8 8.8-17.8H464c5 0 8.9 7.9 8.9 17.8Z" class="d"/><path d="M472.9 235.6c0 9.7-4 17.7-8.9 17.7h-71.2c-4.9 0-8.8-8-8.8-17.7Z" class="b"/><path d="M395.5 255a1.8 1.8 0 0 1-1.8-1.7v-35.5a1.8 1.8 0 1 1 3.6 0v35.5a1.8 1.8 0 0 1-1.8 1.8Zm65.8 0a1.8 1.8 0 0 1-1.8-1.7v-35.5a1.8 1.8 0 1 1 3.5 0v35.5a1.8 1.8 0 0 1-1.7 1.8Z" class="c"/><path d="M400 249.8h5.4v10.6H400Zm51.5 0h5.3v10.6h-5.3Z" class="e"/><path d="M398 260.4h9v1.8h-9Zm51.7 0h8.9v1.8h-8.9Z" class="a"/><path d="M409.4 231.9h1.7v19.5h-1.7Z" class="f"/><circle cx="481.8" cy="395.5" r="14.2" class="d"/><path d="M496 395.5a14.3 14.3 0 0 1-28.6 0Z" class="b"/><path d="M497.7 394.6v1.8h-5l-6 6-1.2 1.4-1-1.7-3.8-6.6h2l3.2 5.3 4.4-4.4 1.8-1.8Z" class="e"/><path d="M482.8 395.5h-2.1l-3.1-5.3-4.4 4.4-1.7 1.8h-5.8v-1.8h5l6-6.1 1.3-1.3Z" class="g"/><path d="M82.6 356.3c-19.5 0-35.5-7.8-35.5-17.7v-160c0-9.8 16-17.7 35.5-17.7s35.6 7.9 35.6 17.8v159.9c0 9.9-15.8 17.7-35.5 17.7Z" class="d"/><path d="M82.6 356.3c-19.5 0-35.5-7.8-35.5-17.7v-160c0-9.8 16-17.7 35.5-17.7Z" class="b"/><path d="M45.4 189.3a1.8 1.8 0 0 1 1.6-1.9h44.5a1.8 1.8 0 0 1 0 3.6H47.1a1.8 1.8 0 0 1-1.7-1.8Zm0 44.5a1.8 1.8 0 0 1 1.7-2h44.4a1.8 1.8 0 1 1 0 3.6H47.1a1.8 1.8 0 0 1-1.7-1.7Zm0 44.3a1.8 1.8 0 0 1 1.7-1.7h44.4a1.8 1.8 0 0 1 0 3.5H47.1a1.8 1.8 0 0 1-1.7-1.8Zm0 44.5a1.8 1.8 0 0 1 1.7-1.8h44.4a1.8 1.8 0 0 1 0 3.6H47.1a1.8 1.8 0 0 1-1.7-1.8Z" class="c"/><path d="M42.7 341.2h80v44.5h-80Z" class="e"/><path d="M107.6 209.7v131.5H104v-39h-8.8v-3.6h8.8v-40.9h-8.8v-3.5h8.8v-41h-8.8v-3.5Z" class="h"/><path d="M33.8 383h97.7v5.4H33.8Zm6.2-44.4h85.3v5.3H40Z" class="a"/><path d="m338.7 392-13.4 23H352Z" class="e"/><path d="M342.1 395.5v-18.7H353v18.7Z" class="b"/><circle cx="338.7" cy="395.5" r="14.2" class="d"/><path d="M320 392.4h18.6v6H320Z" class="b"/><circle cx="338.7" cy="395.5" r="5.3" class="c"/><path d="M324.4 413.2h28.4v1.8h-28.4Z" class="a"/><path d="M259.5 235.6c0 9.7-4 17.7-8.9 17.7h-71c-5 0-8.8-8-8.8-17.7s3.9-17.8 8.9-17.8h71c4.8 0 8.8 7.9 8.8 17.8Z" class="d"/><path d="M259.5 235.6c0 9.7-4 17.7-8.9 17.7h-71c-5 0-8.8-8-8.8-17.7Z" class="b"/><path d="M182.2 255a1.8 1.8 0 0 1-1.8-1.7v-35.5a1.8 1.8 0 1 1 3.6 0v35.5a1.8 1.8 0 0 1-1.8 1.8Zm65.8 0a1.8 1.8 0 0 1-1.8-1.7v-35.5a1.8 1.8 0 1 1 3.6 0v35.5a1.8 1.8 0 0 1-1.8 1.8Z" class="c"/><path d="M186.7 249.8h5.3v10.6h-5.3Zm51.5 0h5.4v10.6h-5.4Z" class="e"/><path d="M184.8 260.4h8.8v1.8h-8.8Zm51.7 0h8.8v1.8h-8.8Z" class="a"/><path d="M196 231.9h1.9v19.5H196Z" class="f"/><circle cx="268.5" cy="395.5" r="14.2" class="d"/><path d="M282.7 395.5a14.3 14.3 0 1 1-28.6 0Z" class="b"/><path d="M284.5 394.6v1.8h-5l-6 6-1.3 1.4-1-1.7-3.8-6.6h2.1l3.1 5.3 4.4-4.4 1.7-1.8Z" class="e"/><path d="M269.5 395.5h-2.1l-3.1-5.3-4.4 4.4-1.7 1.8h-5.8v-1.8h5l6-6.1 1.3-1.3Z" class="g"/><path d="M536.8 360.7a3.8 3.8 0 0 1-2.5-3.7 4.3 4.3 0 0 1 1.4-3.3 6.7 6.7 0 0 1 7.8 0 4.3 4.3 0 0 1 1.5 3.3 3.9 3.9 0 0 1-.7 2.2 4.1 4.1 0 0 1-1.8 1.5 4.8 4.8 0 0 1 2.3 1.7 4.5 4.5 0 0 1 .7 2.6 5.3 5.3 0 0 1-1.5 4 5.8 5.8 0 0 1-4.2 1.6 6.3 6.3 0 0 1-4-1.3 5 5 0 0 1-2-4.1 5.1 5.1 0 0 1 .8-2.7 4.7 4.7 0 0 1 2.2-1.8Zm.4 4.2a3.1 3.1 0 0 0 .7 2.2 2.3 2.3 0 0 0 1.9.8 2.2 2.2 0 0 0 1.7-.8 3.1 3.1 0 0 0 .7-2.2 2.9 2.9 0 0 0-.8-2 2.3 2.3 0 0 0-1.7-.8 2.2 2.2 0 0 0-2 .9 3.2 3.2 0 0 0-.5 1.9Zm.4-7.7a2.2 2.2 0 0 0 .5 1.6 2.1 2.1 0 0 0 1.6.6 2 2 0 0 0 2-2.2 2 2 0 0 0-2-2.2 2.2 2.2 0 0 0-1.6.7 2.1 2.1 0 0 0-.5 1.5Zm-214.4-1V353h11.6v2.4a18.4 18.4 0 0 0-3 4.1 23.7 23.7 0 0 0-2.2 5.7 20.9 20.9 0 0 0-.8 5.4h-3.3a23 23 0 0 1 1.6-7.5 25.2 25.2 0 0 1 3.8-6.9Zm165.1.7-3.3.3a2.4 2.4 0 0 0-.7-1.5 1.9 1.9 0 0 0-1.3-.5 2.2 2.2 0 0 0-1.8 1 8.2 8.2 0 0 0-1 4 4 4 0 0 1 3.2-1.4 4.9 4.9 0 0 1 3.7 1.5 5.9 5.9 0 0 1 1.5 4.2 6 6 0 0 1-1.6 4.5 5.9 5.9 0 0 1-8.3-.2l-.3-.3q-1.6-2.2-1.7-6.8 0-5 1.9-7.1a5.9 5.9 0 0 1 4.6-2.3 5 5 0 0 1 3.3 1.1 5.3 5.3 0 0 1 1.8 3.4Zm-7.7 7.4a3.9 3.9 0 0 0 .7 2.6 2.2 2.2 0 0 0 1.8.9 2 2 0 0 0 1.6-.8 3.8 3.8 0 0 0 .6-2.5 3.9 3.9 0 0 0-.8-2.5 2.2 2.2 0 0 0-3-.2 2.2 2.2 0 0 0-.3.2 3.3 3.3 0 0 0-.6 2.2Zm-218.2 1.5 3.4-.5a2.9 2.9 0 0 0 1 1.9 2.3 2.3 0 0 0 1.6.7 2.2 2.2 0 0 0 1.8-1 4 4 0 0 0 .7-2.6 3.5 3.5 0 0 0-.7-2.4 2.4 2.4 0 0 0-2-.8 3.4 3.4 0 0 0-2.6 1.3l-2.8-.4 1.8-9.3h9v3.3h-6.4l-.6 3a5.2 5.2 0 0 1 6.2 1.1 6 6 0 0 1 1.6 4.2 6.4 6.4 0 0 1-1.2 3.9 5.7 5.7 0 0 1-5 2.4 6 6 0 0 1-4-1.3 5.5 5.5 0 0 1-1.8-3.5ZM429.8 207v-3.6h-7.3v-3l7.8-11.3h2.8v11.3h2.2v3h-2.2v3.6Zm0-6.7v-6l-4.1 6.1Zm-219.4 1.7 3.3-.5a3.1 3.1 0 0 0 .9 2 2.4 2.4 0 0 0 3.4-.2 3.1 3.1 0 0 0 .8-2.2 2.9 2.9 0 0 0-.8-2 2.2 2.2 0 0 0-1.6-.7 6 6 0 0 0-1.6.2l.4-2.7a3 3 0 0 0 2.2-.7 2.2 2.2 0 0 0 .6-1.7 1.9 1.9 0 0 0-2-2 2.1 2.1 0 0 0-1.4.7 2.9 2.9 0 0 0-.8 1.8l-3-.6a7 7 0 0 1 1-2.5 4.4 4.4 0 0 1 1.7-1.6 6.2 6.2 0 0 1 2.7-.5 5.3 5.3 0 0 1 4 1.6 4.1 4.1 0 0 1-1.3 6.7 4.1 4.1 0 0 1 2.5 1.4 4.2 4.2 0 0 1 .9 2.8 5.3 5.3 0 0 1-1.7 4 6.4 6.4 0 0 1-8.3.3 5.5 5.5 0 0 1-2-3.6ZM436 56.3v3.3h-11.9a8.2 8.2 0 0 1 1.2-3.4 22.7 22.7 0 0 1 4-4.4 24.2 24.2 0 0 0 2.7-2.9 3.8 3.8 0 0 0 .7-2 2.3 2.3 0 0 0-.6-1.8 2.7 2.7 0 0 0-3.3 0 3.3 3.3 0 0 0-.8 2.3l-3.3-.5a5.5 5.5 0 0 1 1.7-4 6.4 6.4 0 0 1 4-1.2 5.8 5.8 0 0 1 4.2 1.3 4.7 4.7 0 0 1 1.5 3.6 6.2 6.2 0 0 1-.5 2.3 9.3 9.3 0 0 1-1.3 2.2 22 22 0 0 1-2.2 2.4 11.8 11.8 0 0 0-2 2 6 6 0 0 0-.8.8Zm-216.8 3.3h-3.6v-13a11.8 11.8 0 0 1-4.4 2.5v-3a10 10 0 0 0 2.9-1.7 6.3 6.3 0 0 0 2.2-2.8h2.8Zm268.5 254.1-6.4-17.7h4l4.4 13 4.4-13.1h3.8l-6.4 17.7Zm11.8 0V296h3.7v17.7Zm7 0V296h3.7v17.7Zm-12-76.4-6.3-17.8h3.9l4.4 13.2 4.5-13.2h3.8l-6.4 17.7Zm12 0v-17.8h3.7v17.7Zm-217.8 76.4-6.4-17.7h3.8l4.6 13 4.4-13.1h3.8l-6.4 17.7Zm-11.6-76.4v-17.8h3.6v17.7Zm11.6 0-6.4-17.8h3.8l4.6 13.2 4.4-13.2h3.8l-6.4 17.7Zm204-83.6V136h3.6v17.7Zm6.8 0V136h3.7v17.7Zm7 0V136h3.7v17.7ZM288 38.3V20.4h3.6v17.8Zm6.9 0V20.4h3.7v17.8Zm-172.8 0V20.4h3.6v17.8Z" class="h"/></svg>