<svg xmlns="http://www.w3.org/2000/svg" viewBox="0 0 600 415" width="600" height="415"><defs><style>.a{fill:#07617d}.b{fill:#d27332}.c{fill:#b05f1f}.d{fill:#f78536}.e{fill:#497285}.f{fill:#fff}.h{fill:#2b4450}</style></defs><path d="M552.8 0v377.6H551V1.8H393.8v15.3h4.3l-5.3 19.3-5.1-19.3h4.3V1.8H198.3v15.3h4.3l-5.3 19.3-5.1-19.3h4.3V0h356.3Z" class="a"/><path d="M392 91.5h1.8v128H392Zm-195.5 0h1.8v128h-1.8Zm312.2 79.9V167H447v52.4h-1.9v-54.2h63.5V161l19.2 5.1-19.2 5.3Zm-344-115.6v-4.2H92.5v111h-1.7V49.7h74v-4.3l19.2 5.3Zm344 197.3v-4.3h-48.4V247h48.4v-4.2l19.2 5.1ZM505 400.5v-4.3H489v-1.7H505v-4.3l19.2 5.2-19.2 5.1ZM245.6 162.3l5.1-19.2 5.1 19.2ZM416 313.9l5.2 19.3 5.2-19.3H416Zm-91.7 10.4h1.9v51.8h4.2l-5.2 19.3L320 376h4.3v-51.8Zm-11.2-71.2v-4.3H265V247h48.2v-4.2l19.3 5.1-19.3 5.2Z" class="a"/><path d="M456.8 394.5v1.7h-232V251.4h1.9v143.1h193.7v-143h1.8v143Z" class="a"/><path d="m220.7 314 5.1 19.2L231 314Zm326-101.4 5.2-19.2 5.1 19.2Zm-159-67.5 5.1 19.3 5.2-19.3Zm-195.5 0 5.1 19.3 5.3-19.3Zm168-89.3v-4.2H251.6v167.9h-1.8V49.7h110.4v-4.3l19.3 5.3Z" class="a"/><path d="m197.3 52.4-14.1 40.8h28.4Z" class="b"/><path d="M197.3 52.4v40.8h-14.1Z" class="c"/><path d="M184 36.4h26.7v26.7H184Z" class="d"/><path d="M184 36.4h13.3v26.7H184Zm208.8 16-14.1 40.8H407Z" class="b"/><path d="M392.8 52.4v40.8h-14.1Z" class="c"/><path d="M379.5 36.4h26.7v26.7h-26.7Z" class="d"/><path d="M379.5 36.4h13.3v26.7h-13.3Z" class="b"/><path d="M543 391.8 529.7 415h26.7Z" class="e"/><path d="M546.5 395.5v-18.8h10.7v18.8Z" class="b"/><circle cx="543" cy="395.4" r="14.3" class="d"/><path d="M524.3 392.3H543v6h-18.7Z" class="b"/><circle cx="543" cy="395.4" r="5.4" class="c"/><path d="M528.8 413.2h28.4v1.8h-28.4Z" class="a"/><path d="M464 235.5c0 9.7-4 17.8-9 17.8h-71c-4.9 0-8.9-8-8.9-17.8s4-17.8 8.8-17.8h71.2c4.8 0 8.9 8 8.9 17.8Z" class="d"/><path d="M464 235.5c0 9.7-4 17.8-9 17.8h-71c-4.9 0-8.9-8-8.9-17.8Z" class="b"/><path d="M386.6 255a1.8 1.8 0 0 1-1.7-1.7v-35.7a1.8 1.8 0 0 1 3.5 0v35.6a1.8 1.8 0 0 1-1.8 1.7Zm65.8 0a1.8 1.8 0 0 1-1.8-1.7v-35.7a1.8 1.8 0 0 1 3.5 0v35.6a1.8 1.8 0 0 1-1.7 1.7Z" class="c"/><path d="M391.1 249.7h5.4v10.6H391Zm51.6 0h5.3v10.6h-5.3Z" class="e"/><path d="M389.2 260.3h8.9v1.9h-9Zm51.6 0h9v1.9h-9Z" class="a"/><path d="M400.4 232h1.9v19.4h-1.9Z" class="f"/><circle cx="472.8" cy="395.4" r="14.3" class="d"/><path d="M487 395.5a14.3 14.3 0 1 1-28.6 0Z" class="b"/><path d="M488.9 394.5v1.7h-5l-6 6.2-1.4 1.2-.8-1.6-3.9-6.6h2l3.2 5.3 4.3-4.5 1.9-1.7Z" class="e"/><path fill="#3d91a6" d="M473.8 395.4h-2l-3.1-5.4-4.4 4.5-1.8 1.7h-5.7v-1.7h5l6-6 1.2-1.4 4.8 8.3Z"/><path d="M91.6 356.3c-19.6 0-35.5-8-35.5-17.7v-160c0-9.8 16-17.7 35.5-17.7s35.6 8 35.6 17.7v160c0 9.8-16 17.8-35.6 17.8Z" class="d"/><path d="M91.6 356.3c-19.6 0-35.5-8-35.5-17.7v-160c0-9.8 16-17.7 35.5-17.7Z" class="b"/><path d="M54.3 189.3a1.8 1.8 0 0 1 1.8-1.8h44.5a1.8 1.8 0 1 1 0 3.5H56.1a1.8 1.8 0 0 1-1.8-1.7Zm0 44.4a1.8 1.8 0 0 1 1.8-1.8h44.5a1.8 1.8 0 0 1 0 3.6H56.1a1.8 1.8 0 0 1-1.8-1.8Zm0 44.4a1.8 1.8 0 0 1 1.8-1.8h44.5a1.8 1.8 0 0 1 0 3.5H56.1a1.8 1.8 0 0 1-1.8-1.7Zm0 44.5a1.8 1.8 0 0 1 1.8-1.8h44.5a1.8 1.8 0 0 1 0 3.5H56.1a1.8 1.8 0 0 1-1.8-1.8Z" class="c"/><path d="M51.7 341.2h80v44.4h-80Z" class="e"/><path d="M116.5 209.6v131.6H113v-39h-9v-3.7h9v-40.8h-9V254h9v-40.8h-9v-3.7Z" class="h"/><path d="M42.8 383h97.7v5.3H42.8Zm6.2-44.4h85.3v5.3H49Z" class="a"/><path d="M268.5 235.5c0 9.7-4 17.8-9 17.8h-71c-4.9 0-8.9-8-8.9-17.8s4-17.8 9-17.8h71c5 0 8.9 8 8.9 17.8Z" class="d"/><path d="M268.5 235.5c0 9.7-4 17.8-9 17.8h-71c-4.9 0-8.9-8-8.9-17.8Z" class="b"/><path d="M191.1 255a1.8 1.8 0 0 1-1.7-1.7v-35.7a1.8 1.8 0 1 1 3.5 0v35.6a1.8 1.8 0 0 1-1.8 1.7Zm65.8 0a1.8 1.8 0 0 1-1.8-1.7v-35.7a1.8 1.8 0 0 1 3.6 0v35.6a1.8 1.8 0 0 1-1.8 1.7Z" class="c"/><path d="M195.6 249.7h5.4v10.6h-5.4Zm51.6 0h5.3v10.6h-5.3Z" class="e"/><path d="M193.7 260.3h8.9v1.9h-9Zm51.6 0h9v1.9h-9Z" class="a"/><path d="M205 232h1.8v19.4h-1.9Z" class="f"/><path d="m536.2 356.8-3.2.3a2.5 2.5 0 0 0-.7-1.5 1.8 1.8 0 0 0-1.3-.4 2.1 2.1 0 0 0-1.8 1 8.3 8.3 0 0 0-1 4 4 4 0 0 1 3.2-1.6 4.8 4.8 0 0 1 3.6 1.6 5.9 5.9 0 0 1 1.5 4.3 6 6 0 0 1-1.6 4.3 5.8 5.8 0 0 1-8.5-.4q-1.8-2.2-1.8-6.9 0-4.8 1.9-7a5.8 5.8 0 0 1 4.7-2 5 5 0 0 1 3.3 1 5.4 5.4 0 0 1 1.7 3.2Zm-7.7 7.5a3.9 3.9 0 0 0 .8 2.5 2.3 2.3 0 0 0 1.7 1 2 2 0 0 0 1.6-.8 3.8 3.8 0 0 0 .6-2.5 4 4 0 0 0-.6-2.6 2.1 2.1 0 0 0-3.5 0 3.3 3.3 0 0 0-.6 2.3Zm-61.7 1.3 3.4-.3a2.9 2.9 0 0 0 .9 1.8 2.4 2.4 0 0 0 1.7.6 2.3 2.3 0 0 0 1.8-.8 4 4 0 0 0 .6-2.6 3.5 3.5 0 0 0-.6-2.5 2.5 2.5 0 0 0-2-.8 3.4 3.4 0 0 0-2.6 1.3l-2.8-.4 1.8-9.3h9v3.2h-6.4l-.5 3a5.3 5.3 0 0 1 6 1.1 5.9 5.9 0 0 1 1.7 4.3 6.4 6.4 0 0 1-1.3 4 5.7 5.7 0 0 1-4.8 2.3 6 6 0 0 1-4-1.3 5.4 5.4 0 0 1-2-3.6ZM420.9 207v-3.7h-7.3v-3l7.7-11.2h3v11.2h2v3h-2v3.7Zm0-6.7v-6l-4 6ZM219.3 202l3.3-.4a3.2 3.2 0 0 0 .9 2 2.4 2.4 0 0 0 3.3 0l.1-.2a3.1 3.1 0 0 0 .8-2.1 2.9 2.9 0 0 0-.7-2.2 2.1 2.1 0 0 0-1.7-.7 6 6 0 0 0-1.6.3l.4-2.8a3 3 0 0 0 2.2-.6 2.1 2.1 0 0 0 .6-1.7 1.8 1.8 0 0 0-2-2 2.1 2.1 0 0 0-1.4.7 2.9 2.9 0 0 0-.8 1.7l-3.2-.5a7 7 0 0 1 1-2.6 4.5 4.5 0 0 1 1.9-1.5 6.2 6.2 0 0 1 2.7-.5 5.4 5.4 0 0 1 4 1.6 4 4 0 0 1-1.3 6.6 4.2 4.2 0 0 1 2.4 1.5 4.3 4.3 0 0 1 1 2.8 5.4 5.4 0 0 1-1.7 4 6.4 6.4 0 0 1-8.3.3 5.5 5.5 0 0 1-2-3.7Zm208-145.6v3.2h-12a8.3 8.3 0 0 1 1.1-3.4 22.7 22.7 0 0 1 3.9-4.3 24.1 24.1 0 0 0 2.7-3 3.8 3.8 0 0 0 .8-2 2.4 2.4 0 0 0-.7-1.8 2.6 2.6 0 0 0-3.4 0 3.2 3.2 0 0 0-.6 2.2l-3.5-.4a5.6 5.6 0 0 1 2-4 6.4 6.4 0 0 1 4-1.2 5.8 5.8 0 0 1 4.1 1.4 4.7 4.7 0 0 1 1.5 3.5 6.2 6.2 0 0 1-.4 2.3 9.3 9.3 0 0 1-1.4 2.2 21.9 21.9 0 0 1-2.1 2.4 17.4 17.4 0 0 0-2.2 2 6 6 0 0 0-.6.9Zm-199.1 3h-3.5V46.7a11.8 11.8 0 0 1-4.3 2.7v-3.2a9.9 9.9 0 0 0 2.8-1.6 6.3 6.3 0 0 0 2.1-2.8h2.8Zm75.2 282.7-6.4-17.8h4l4.5 13.2 4.3-13.2h3.8l-6.4 17.8Zm178-105v-17.7h3.5v17.8Zm11.5 0-6.4-17.7h3.9l4.5 13.2 4.3-13.2h4l-6.5 17.8Zm-202.5 0v-17.7h3.6v17.8Zm7 0v-17.7h3.6v17.8Zm6.9 0v-17.7h3.5v17.8Zm186.5-81.7v-17.7h3.6v17.7Zm7 0v-17.7h3.5v17.7ZM131 38.2V20.4h3.6v17.8Z" class="h"/></svg>