<svg xmlns="http://www.w3.org/2000/svg" viewBox="0 0 480 373"><defs><style>.a{fill:#07617d}.b{fill:#d27332}.c{fill:#b05f1f}.d{fill:#f78536}.e{fill:#497285}.f{fill:#fff}.h{fill:#2b4450}</style></defs><path d="M267.4 55v-2.8h-84a3.7 3.7 0 0 0 0-1.2 4.1 4.1 0 0 0-8.1 0 3.7 3.7 0 0 0 0 1.2H91.4v26.4h-1.1V51H174a5.3 5.3 0 0 1 10.5 0h82.8v-2.8l12.7 3.4ZM350.1 55v-2.8h-36.5V163h-1.2V51h37.7v-2.8l12.7 3.4-12.7 3.4zM318.8 363.3v-2.8h-11.1V254.4h1.2v104.9h9.9v-2.8l12.7 3.4-12.7 3.4z" class="a"/><path d="m292.9 29.5-3.4 12.7-3.4-12.7h2.8V19.4h-109v263.1h-1.1V18.2h111.3v11.3h2.8zM477.1 18.2v249.1h-1.2V19.4H372.2v10.1h2.8l-3.4 12.7-3.4-12.7h2.8V18.2h106.1zM371 78.6h1.2V163H371zM292.9 219.4l-3.4 12.7-3.4-12.7h2.8v-35.3h1.2v35.3h2.8zM288.9 78.6h1.2V163h-1.2zM140.6 317.3l-3.5 12.7-3.4-12.7h2.9v-10.8h1.1v10.8h2.9z" class="a"/><path d="M235.6 353.4v1.2H91.2v2.8L78.5 354l12.7-3.4v2.8H167v-33.6h-2.8l3.4-12.7 3.4 12.7h-2.8v33.6h67.4z" class="a"/><path d="M219.8 110.8v220.4h-48.1a3.7 3.7 0 0 0 0-1.2 4.1 4.1 0 0 0-8.1 0 3.7 3.7 0 0 0 0 1.2H91.2v2.8l-12.7-3.4 12.7-3.4v2.8h71.2a5.3 5.3 0 0 1 10.5 0h45.7V112h-35.2a3.7 3.7 0 0 0 0-1.2 4.1 4.1 0 0 0-8.1 0 3.7 3.7 0 0 0 0 1.2h-61.6v-1.2h60.4a5.3 5.3 0 0 1 10.5 0Z" class="a"/><path d="m140.6 278-3.5 12.7-3.4-12.7h2.9v-10.1H55.1v-1.2h81.5v-84.4h-22.9v-1.2h24V278h2.9zM283.1 254.4v106.1h-11.5v2.8l-12.8-3.4 12.8-3.4v2.8h10.3V254.4h1.2zM448 131.2v-2.8h-40.7V163h-1.1v-35.8H448v-2.8l12.7 3.4-12.7 3.4zM460.7 231.5v1.2H403v2.8l-12.7-3.4 12.7-3.4v2.8h57.7zM448 185.1v-2.8h-31.9v-1.2H448v-2.8l12.7 3.4-12.7 3.4zM445.6 282.4v-2.8h-10.7v-1.2h10.7v-2.8l12.7 3.4-12.7 3.4z" class="a"/><path d="M413.8 278.4v1.2h-24.1v-95.5h1.2v94.3h22.9zM448 357.4v-2.8h-92.8v-1.2H448v-2.8l12.7 3.4-12.7 3.4zM129.1 55l12.7-3.4-12.7-3.4V55zM154.7 114.8l-12.7-3.4 12.7-3.4v6.8zM175.9 228.4l3.4-12.7 3.4 12.7h-6.8zM215.8 228.4l3.4-12.7 3.4 12.7h-6.8z" class="a"/><path d="m386.9 201.8 3.4 12.7 3.4-12.7h-6.8zM473.1 158.5l3.4-12.8 3.4 12.8h-6.8zM304.9 301.5l3.4 12.7 3.4-12.7h-6.8zM279.1 301.5l3.4 12.7 3.4-12.7h-6.8zM368.2 113.9l3.4 12.7 3.4-12.7h-6.8zM286.1 113.9l3.4 12.7 3.4-12.7h-6.8zM133.7 218.2l3.4 12.7 3.4-12.7h-6.8zM189.9 334l12.7-3.4-12.7-3.4v6.8zM89.1 270.7l12.7-3.4-12.7-3.4v6.8z" class="a"/><path d="m371.6 52.8-9.4 26.9H381l-9.4-26.9z" class="b"/><path d="M371.6 52.8v26.9h-9.4l9.4-26.9z" class="c"/><path d="M362.8 42.2h17.6v17.6h-17.6z" class="d"/><path d="M362.8 42.2h8.8v17.6h-8.8z" class="b"/><path d="m246.7 357.5 8.8 15.3h-17.6l8.8-15.3z" class="e"/><path d="M246.8 357.5h-12.3v-7h12.3z" class="b"/><circle cx="246.7" cy="359.9" r="9.4" class="d"/><path d="M259 361.9h-12.2v-4.1H259z" class="b"/><circle cx="246.7" cy="359.9" r="3.5" class="c"/><path d="M256 372.8h-18.7v-1.2H256z" class="a"/><path d="m470.6 276.7-8.8 15.2h17.6l-8.8-15.2z" class="e"/><path d="M473 279v-12.3h7V279z" class="b"/><circle cx="470.6" cy="279" r="9.4" class="d"/><path d="M458.3 277h12.3v4.1h-12.3z" class="b"/><circle cx="470.6" cy="279" r="3.5" class="c"/><path d="M461.2 290.7H480v1.2h-18.8z" class="a"/><path d="m343.4 357.5-8.7 15.3h17.5l-8.8-15.3z" class="e"/><path d="M343.4 350.5h12.3v7h-12.3z" class="b"/><circle cx="343.4" cy="359.9" r="9.4" class="d"/><path d="M331.1 357.9h12.3v4.1h-12.3z" class="b"/><circle cx="343.4" cy="359.9" r="3.5" class="c"/><path d="M334.1 371.6h18.8v1.2h-18.8z" class="a"/><path d="M418.5 173.5c0 6.5-2.7 11.7-5.9 11.7h-46.9c-3.2 0-5.8-5.2-5.8-11.7s2.6-11.7 5.8-11.7h46.9c3.2 0 5.9 5.2 5.9 11.7Z" class="d"/><path d="M418.5 173.5c0 6.5-2.7 11.7-5.9 11.7h-46.9c-3.2 0-5.8-5.2-5.8-11.7Z" class="b"/><path d="M367.5 186.4a1.2 1.2 0 0 1-1.2-1.2v-23.4a1.2 1.2 0 0 1 2.3 0v23.4a1.2 1.2 0 0 1-1.1 1.2ZM410.8 186.4a1.2 1.2 0 0 1-1.1-1.2v-23.4a1.2 1.2 0 0 1 2.3 0v23.4a1.2 1.2 0 0 1-1.2 1.2Z" class="c"/><path d="M370.4 182.9h3.5v7h-3.5zM404.4 182.9h3.5v7h-3.5z" class="e"/><path d="M369.1 189.9h5.9v1.2h-5.9zM403.2 189.9h5.9v1.2h-5.9z" class="a"/><path d="M376.6 171.2h1.2v12.9h-1.2z" class="f"/><path d="M336.4 243.8c0 6.5-2.6 11.8-5.9 11.8h-46.8c-3.3 0-5.9-5.3-5.9-11.8s2.6-11.7 5.9-11.7h46.9c3.2 0 5.8 5.3 5.8 11.7Z" class="d"/><path d="M336.4 243.8c0 6.5-2.6 11.8-5.9 11.8h-46.8c-3.3 0-5.9-5.3-5.9-11.8Z" class="b"/><path d="M285.4 256.7a1.2 1.2 0 0 1-1.2-1.1V232a1.2 1.2 0 1 1 2.4 0v23.5a1.2 1.2 0 0 1-1.2 1.1ZM328.8 256.7a1.2 1.2 0 0 1-1.2-1.1V232a1.2 1.2 0 1 1 2.4 0v23.5a1.2 1.2 0 0 1-1.2 1.1Z" class="c"/><path d="M288.4 253.2h3.5v7h-3.5zM322.3 253.2h3.5v7h-3.5z" class="e"/><path d="M287.1 260.2h5.9v1.2h-5.9zM321.2 260.2h5.9v1.2h-5.9z" class="a"/><path d="M294.5 241.5h1.2v12.9h-1.2z" class="f"/><path d="M153.6 290.4v17h-18.8c-3.2 0-5.9-3.8-5.9-8.5s2.7-8.5 5.9-8.5Z" class="d"/><path d="M199.3 294.8c0 7-2.7 12.6-5.9 12.6h-42.2v-17l11.7-8.2h30.5c3.2 0 5.9 5.6 5.9 12.6Z" class="d"/><path d="M199.3 294.8c0 7-2.7 12.7-5.9 12.7h-58.6c-3.2 0-5.9-3.9-5.9-8.6h22.3l11.7-4Z" class="b"/><path d="M142.4 308.3c-.6 0-1.2-.4-1.2-.8v-17.1c0-.5.6-.9 1.2-.9s1.2.4 1.2.9v17c0 .5-.5.9-1.2.9Z" class="c"/><path d="M145.3 304.8h3.5v7h-3.5zM185.2 304.8h3.5v7h-3.5z" class="e"/><path d="M144.1 311.8h5.9v1.2h-5.9zM184 311.8h5.9v1.2H184z" class="a"/><path d="M324.7 173.5c0 6.5-2.6 11.7-5.9 11.7h-58.6c-3.2 0-5.8-5.2-5.8-11.7s2.6-11.7 5.8-11.7h58.6c3.3 0 5.9 5.2 5.9 11.7Z" class="d"/><path d="M324.7 173.5c0 6.5-2.6 11.7-5.9 11.7h-58.6c-3.2 0-5.8-5.2-5.8-11.7Z" class="b"/><path d="M267.8 186.4a1.2 1.2 0 0 1-1.1-1.2v-23.4a1.2 1.2 0 0 1 2.3 0v23.4a1.2 1.2 0 0 1-1.2 1.2ZM317 186.4a1.2 1.2 0 0 1-1.1-1.2v-23.4a1.2 1.2 0 0 1 2.3 0v23.4a1.2 1.2 0 0 1-1.1 1.2Z" class="c"/><path d="M270.8 182.9h3.5v7h-3.5zM310.6 182.9h3.5v7h-3.5z" class="e"/><path d="M269.5 189.9h5.9v1.2h-5.9zM309.5 189.9h5.9v1.2h-5.9z" class="a"/><circle cx="424.3" cy="279" r="9.4" class="d"/><path d="M433.7 279a9.4 9.4 0 1 1-18.8 0Z" class="b"/><path d="M434.9 278.4v1.2h-3.3l-3.9 4-.9.9-.6-1.1-2.6-4.4h1.4l2 3.5 3-2.9 1.1-1.2h3.8z" class="e"/><path fill="#3d91a6" d="M425 279h-1.4l-2-3.5-2.9 2.9-1.2 1.2h-3.7v-1.2h3.2l4-4 .8-.9 3.2 5.5z"/><path d="M32.2 291.9c-13 0-23.4-5.3-23.4-11.7V174.7c0-6.5 10.5-11.7 23.4-11.7s23.5 5.2 23.5 11.7v105.5c0 6.4-10.5 11.7-23.5 11.7Z" class="d"/><path d="M32.2 291.9c-13 0-23.4-5.3-23.4-11.7V174.7c0-6.5 10.5-11.7 23.4-11.7Z" class="b"/><path d="M7.6 181.7a1.2 1.2 0 0 1 1.2-1.2H38a1.2 1.2 0 1 1 0 2.4H8.8a1.2 1.2 0 0 1-1.2-1.2ZM7.6 211a1.2 1.2 0 0 1 1.2-1.2H38a1.2 1.2 0 0 1 0 2.4H8.8a1.2 1.2 0 0 1-1.2-1.2ZM7.6 240.3a1.2 1.2 0 0 1 1.2-1.2H38a1.2 1.2 0 1 1 0 2.4H8.8a1.2 1.2 0 0 1-1.2-1.2ZM7.6 269.6a1.2 1.2 0 0 1 1.2-1.2H38a1.2 1.2 0 1 1 0 2.4H8.8a1.2 1.2 0 0 1-1.2-1.2Z" class="c"/><path d="M5.9 281.9h52.7v29.3H5.9z" class="e"/><path d="M48.6 195.2v86.7h-2.3v-25.8h-5.9v-2.3h5.9v-27h-5.9v-2.3h5.9v-27h-5.9v-2.3h8.2z" class="h"/><path d="M0 309.5h64.5v3.5H0zM4.1 280.2h56.3v3.5H4.1z" class="a"/><path d="M90.8 206.3c-12.9 0-23.4-5.2-23.4-11.7V89.1c0-6.5 10.5-11.7 23.4-11.7s23.5 5.2 23.5 11.7v105.5c0 6.5-10.5 11.7-23.5 11.7Z" class="d"/><path d="M90.8 206.3c-12.9 0-23.4-5.2-23.4-11.7V89.1c0-6.5 10.5-11.7 23.4-11.7Z" class="b"/><path d="M66.2 96.1a1.2 1.2 0 0 1 1.2-1.1h29.3a1.2 1.2 0 0 1 0 2.3H67.4a1.2 1.2 0 0 1-1.2-1.2ZM66.2 125.4a1.2 1.2 0 0 1 1.2-1.1h29.3a1.2 1.2 0 0 1 0 2.3H67.4a1.2 1.2 0 0 1-1.2-1.2ZM66.2 154.8a1.2 1.2 0 0 1 1.2-1.2h29.3a1.2 1.2 0 0 1 0 2.3H67.4a1.2 1.2 0 0 1-1.2-1.1ZM66.2 184a1.2 1.2 0 0 1 1.2-1.1h29.3a1.2 1.2 0 0 1 0 2.3H67.4a1.2 1.2 0 0 1-1.2-1.1Z" class="c"/><path d="M64.5 196.4h52.7v29.3H64.5z" class="e"/><path d="M107.3 109.6v86.8h-2.4v-25.8H99v-2.4h5.9v-26.9H99v-2.4h5.9V112H99v-2.4h8.3z" class="h"/><path d="M58.6 223.9h64.5v3.5H58.6zM62.7 194.6H119v3.5H62.7z" class="a"/><path d="m289.5 52.8-9.4 26.9h18.8l-9.4-26.9z" class="b"/><circle cx="289.5" cy="51.6" r="9.4" class="d"/><path d="M289.5 52.8v26.9h-9.4l9.4-26.9z" class="c"/><path d="M289.5 42.2a9.4 9.4 0 1 0 0 18.8Z" class="b"/><path d="M468.6 310.6h-2.3v-8.4a7.8 7.8 0 0 1-3 1.7v-2a6.5 6.5 0 0 0 2-1.2 4.2 4.2 0 0 0 1.4-1.8h1.9ZM479.5 308.6v2h-7.9a5.5 5.5 0 0 1 .8-2.2 15 15 0 0 1 2.5-2.8 16 16 0 0 0 1.9-2 2.5 2.5 0 0 0 .5-1.3 1.6 1.6 0 0 0-.4-1.2 1.7 1.7 0 0 0-2.3 0 2.2 2.2 0 0 0-.5 1.5l-2.2-.3a3.7 3.7 0 0 1 1.2-2.6 4.2 4.2 0 0 1 2.7-.8 3.8 3.8 0 0 1 2.7.9 3 3 0 0 1 1 2.3 4 4 0 0 1-.3 1.5 6.2 6.2 0 0 1-.9 1.5 14.4 14.4 0 0 1-1.4 1.5l-1.4 1.3a4 4 0 0 0-.5.7ZM422.2 310.6h-2.3v-8.4a7.8 7.8 0 0 1-2.9 1.7v-2a6.5 6.5 0 0 0 2-1.2 4.2 4.2 0 0 0 1.4-1.8h1.8ZM430.4 310.6h-2.2v-8.4a7.8 7.8 0 0 1-3 1.7v-2a6.5 6.5 0 0 0 2-1.2 4.2 4.2 0 0 0 1.4-1.8h1.8ZM386.1 152.2H384v-8.5a7.8 7.8 0 0 1-3 1.7v-2a6.5 6.5 0 0 0 2-1.1 4.2 4.2 0 0 0 1.4-1.9h1.8ZM393.3 140.4a3.2 3.2 0 0 1 2.6 1.2q1.2 1.5 1.2 4.8t-1.2 4.8a3.2 3.2 0 0 1-2.6 1.2 3.4 3.4 0 0 1-2.8-1.3q-1-1.3-1-4.7 0-3.3 1.1-4.8a3.2 3.2 0 0 1 2.7-1.2Zm0 1.9a1.1 1.1 0 0 0-.7.2 1.8 1.8 0 0 0-.5 1 19 19 0 0 0 0 5.8 2 2 0 0 0 .5 1 1.2 1.2 0 0 0 1.4 0 1.7 1.7 0 0 0 .5-1 19 19 0 0 0 0-5.7 2 2 0 0 0-.5-1 1.1 1.1 0 0 0-.7-.3ZM388 76.8l2.1-.2a1.6 1.6 0 0 0 .4 1 1.2 1.2 0 0 0 1 .3 1.5 1.5 0 0 0 1.1-.7 5.5 5.5 0 0 0 .6-2.6 2.7 2.7 0 0 1-2 1 3.2 3.2 0 0 1-2.5-1.1 3.9 3.9 0 0 1-1-2.8 4 4 0 0 1 1-2.9 3.8 3.8 0 0 1 5.7.3q1.2 1.4 1.2 4.6 0 3.2-1.2 4.6a3.9 3.9 0 0 1-3.1 1.4 3.3 3.3 0 0 1-2.3-.7 3.5 3.5 0 0 1-1-2.2Zm5-5a2.6 2.6 0 0 0-.5-1.6 1.5 1.5 0 0 0-1.1-.6 1.3 1.3 0 0 0-1 .5 2.5 2.5 0 0 0-.5 1.6 2.6 2.6 0 0 0 .5 1.7 1.4 1.4 0 0 0 1.1.5 1.4 1.4 0 0 0 1.1-.5 2.2 2.2 0 0 0 .4-1.5ZM341 337a2.5 2.5 0 0 1-1.6-2.5 2.8 2.8 0 0 1 1-2.2 4.4 4.4 0 0 1 5.1 0 2.8 2.8 0 0 1 1 2.2 2.6 2.6 0 0 1-.5 1.4 2.7 2.7 0 0 1-1.1 1 3.1 3.1 0 0 1 1.4 1.2 3 3 0 0 1 .6 1.7 3.5 3.5 0 0 1-1 2.7 3.8 3.8 0 0 1-2.8 1 4.2 4.2 0 0 1-2.7-.9 3.3 3.3 0 0 1-1.3-2.7 3.4 3.4 0 0 1 .5-1.7 3 3 0 0 1 1.5-1.3Zm.3 2.7a2 2 0 0 0 .5 1.4 1.6 1.6 0 0 0 1.2.6 1.5 1.5 0 0 0 1.2-.5 2 2 0 0 0 .4-1.5 1.9 1.9 0 0 0-.4-1.3 1.5 1.5 0 0 0-1.2-.5 1.4 1.4 0 0 0-1.2.6 2 2 0 0 0-.5 1.2Zm.3-5a1.4 1.4 0 0 0 .3 1 1.4 1.4 0 0 0 1 .4 1.4 1.4 0 0 0 1-.4 1.4 1.4 0 0 0 .5-1 1.3 1.3 0 0 0-1.4-1.4 1.4 1.4 0 0 0-1 .3 1.4 1.4 0 0 0-.4 1ZM243.5 334v-2.1h7.7v1.6a12.1 12.1 0 0 0-2 2.7 15.7 15.7 0 0 0-1.4 3.7 13.8 13.8 0 0 0-.5 3.6H245a15.1 15.1 0 0 1 1-5 16.6 16.6 0 0 1 2.5-4.5ZM326.7 216l-2.2.2a1.6 1.6 0 0 0-.4-1 1.2 1.2 0 0 0-1-.3 1.5 1.5 0 0 0-1.1.7 5.4 5.4 0 0 0-.6 2.6 2.6 2.6 0 0 1 2-1 3.2 3.2 0 0 1 2.5 1.1 3.9 3.9 0 0 1 1 2.8 4 4 0 0 1-1 2.9 3.9 3.9 0 0 1-5.7-.3 7.1 7.1 0 0 1-1.2-4.5q0-3.3 1.2-4.7a3.9 3.9 0 0 1 3.1-1.4 3.3 3.3 0 0 1 2.2.7 3.5 3.5 0 0 1 1.2 2.2Zm-5.1 5a2.5 2.5 0 0 0 .5 1.6 1.5 1.5 0 0 0 1.1.6 1.3 1.3 0 0 0 1-.5 2.5 2.5 0 0 0 .5-1.6 2.6 2.6 0 0 0-.5-1.7 1.4 1.4 0 0 0-2.2 0 2.2 2.2 0 0 0-.4 1.5ZM268 149.2l2.2-.2a2 2 0 0 0 .6 1.2 1.5 1.5 0 0 0 1 .4 1.5 1.5 0 0 0 1.3-.6 2.6 2.6 0 0 0 .5-1.7 2.4 2.4 0 0 0-.5-1.6 1.6 1.6 0 0 0-1.3-.6 2.3 2.3 0 0 0-1.7.9l-1.8-.3 1.1-6h6v2H271l-.3 2a3.4 3.4 0 0 1 4 .7 4 4 0 0 1 1 2.9 4.2 4.2 0 0 1-.8 2.6 3.7 3.7 0 0 1-3.1 1.5 4 4 0 0 1-2.7-.9 3.6 3.6 0 0 1-1.2-2.3ZM269.3 79.7v-2.3h-4.8v-2l5.1-7.5h2v7.5h1.4v2h-1.5v2.3Zm0-4.3v-4l-2.7 4ZM154 272.2l2.2-.3a2 2 0 0 0 .5 1.3 1.6 1.6 0 0 0 2.3-.1 2 2 0 0 0 .5-1.4 2 2 0 0 0-.5-1.4 1.5 1.5 0 0 0-1.1-.5 4 4 0 0 0-1 .2l.2-1.8a2 2 0 0 0 1.4-.4 1.4 1.4 0 0 0 .5-1.2 1.2 1.2 0 0 0-1.3-1.3 1.4 1.4 0 0 0-1 .4 1.9 1.9 0 0 0-.5 1.2l-2-.3a4.6 4.6 0 0 1 .6-1.7 3 3 0 0 1 1.2-1 4.1 4.1 0 0 1 1.8-.4 3.5 3.5 0 0 1 2.6 1 2.7 2.7 0 0 1-.8 4.5 2.7 2.7 0 0 1 1.6 1 2.8 2.8 0 0 1 .6 1.8 3.5 3.5 0 0 1-1.2 2.6 4.2 4.2 0 0 1-5.4.2 3.6 3.6 0 0 1-1.2-2.4ZM82.4 69.2v2.1h-7.9a5.4 5.4 0 0 1 .8-2.2 15 15 0 0 1 2.5-2.8 16 16 0 0 0 2-2 2.5 2.5 0 0 0 .4-1.3 1.6 1.6 0 0 0-.4-1.2 1.7 1.7 0 0 0-2.3 0 2.2 2.2 0 0 0-.4 1.4l-2.3-.2a3.7 3.7 0 0 1 1.3-2.7 4.2 4.2 0 0 1 2.6-.8 3.8 3.8 0 0 1 2.7 1 3 3 0 0 1 1 2.3 4 4 0 0 1-.2 1.5 6.1 6.1 0 0 1-1 1.5 14.5 14.5 0 0 1-1.4 1.5l-1.4 1.3a4 4 0 0 0-.4.6ZM22 156h-2.3v-8.6a7.8 7.8 0 0 1-3 1.7v-2a6.5 6.5 0 0 0 2-1 4.2 4.2 0 0 0 1.4-2h1.8ZM428.6 225l4-6-3.6-5.7h2.8l2.3 3.8 2.3-3.8h2.8l-3.7 5.7 4 6h-2.8l-2.6-4-2.6 4ZM440.7 225v-11.7h2.4v11.8ZM432.1 174.7l4-6.2-3.6-5.6h2.8l2.3 3.8 2.3-3.8h2.8l-3.7 5.7 4 6h-2.8l-2.6-4-2.6 4ZM428.7 120.8V109h2.4v11.8ZM432.1 120.8l4-6.2-3.6-5.6h2.8l2.3 3.8 2.3-3.8h2.8l-3.7 5.7 4 6h-2.8l-2.6-4-2.6 4ZM423 372.8l-4.3-11.8h2.6l3 8.7 2.9-8.7h2.5l-4.2 11.8ZM430.8 372.8V361h2.4v11.8ZM435.4 372.8V361h2.3v11.8ZM440 372.8V361h2.3v11.8ZM101.5 372.8 97.3 361h2.6l3 8.7 2.8-8.7h2.6l-4.3 11.8ZM109.4 372.8V361h2.4v11.8ZM114 372.8V361h2.3v11.8ZM327.4 43.4l-4.2-11.8h2.5l3 8.7 2.9-8.7h2.5L330 43.4ZM335.2 43.4V31.6h2.4v11.8ZM232 11.7 227.6 0h2.6l3 8.7L236 0h2.6l-4.3 11.7ZM98.4 323.5v-11.7h2.3v11.7ZM106 323.5l-4.2-11.7h2.6l3 8.7 2.8-8.7h2.5l-4.2 11.7ZM68.9 260.2v-11.7h2.4v11.7ZM73.4 260.2v-11.7h2.4v11.7ZM78 260.2v-11.7h2.4v11.7ZM126.6 174.7v-11.8h2.4v11.8ZM131.2 174.7v-11.8h2.3v11.8ZM108.6 44.6V32.8h2.4v11.8Z" class="h"/></svg>