<svg xmlns="http://www.w3.org/2000/svg" viewBox="0 0 480 333"><defs><style>.a{fill:#07617d}.b{fill:#f78536}.c{fill:#d27332}.d{fill:#b05f1f}.e{fill:#497285}.g{fill:#2b4450}</style></defs><path d="M362.2 5v13.4h3.5l-4.2 15.8-4.3-15.8h3.5V5H245.1v13.4h3.5l-4.2 15.8-4.3-15.8h3.6V5H128v13.4h3.6l-4.3 15.8-4.2-15.8h3.5V3.5H480V5H362.2zM464.1 116v-3.5h-50.7v43.2H412v-44.6h52.1v-3.6l15.9 4.3-15.9 4.2zM371.9 243.4v-3.6h-65.3v28.6h-1.5v-30h66.8v-3.6l15.9 4.3-15.9 4.3zM204.6 319.7v3.6H270v-28.6h1.5v30h-66.9v3.5l-15.8-4.2 15.8-4.3zM99.7 44.3v-3.5H41v106.1h-1.5V39.4h60.2v-3.6l15.9 4.3-15.9 4.2zM126.6 79.6h1.5v76.1h-1.5zM262.7 209.1v59.3h-1.5v-57.8H152.9V182h1.5v27.1h108.3zM270 182h1.5v86.3H270z" class="a"/><path d="M390 182v28.6H280.2v57.8h-1.4v-59.3h109.7V182h1.5zM175 123.3l4.3-15.9 4.2 15.9H175zM123.1 109.1l4.2 15.9 4.3-15.9h-8.5z" class="a"/><path d="M216.8 50.2v-3.5H180v109h-1.5V45.2h38.3v-3.5l15.9 4.2-15.9 4.3zM243.7 79.6h1.5v76.1h-1.5zM291.4 123.3l4.2-15.9 4.3 15.9h-8.5zM311.5 0l-15.9 4.3 15.9 4.2V0zM428.5 0l-15.8 4.3 15.8 4.2V0zM194.4 0l-15.9 4.3 15.9 4.2V0z" class="a"/><path d="m240.1 109.1 4.3 15.9 4.2-15.9h-8.5zM333.9 50.2v-3.5h-37.6v109h-1.4V45.2h39v-3.5l15.9 4.2-15.9 4.3zM360.7 79.6h1.5v76.1h-1.5z" class="a"/><path d="m357.2 109.1 4.3 15.9 4.2-15.9h-8.5z" class="a"/><path d="M320.5 281.5c0 8.1-3.3 14.7-7.3 14.7h-58.6c-4 0-7.3-6.6-7.3-14.7s3.3-14.6 7.3-14.6h58.6c4 0 7.3 6.6 7.3 14.6Z" class="b"/><path d="M320.5 281.5c0 8.1-3.3 14.7-7.3 14.7h-58.6c-4 0-7.3-6.6-7.3-14.7Z" class="c"/><path d="M256.8 297.6a1.5 1.5 0 0 1-1.4-1.4v-29.3a1.5 1.5 0 0 1 2.9 0v29.3a1.5 1.5 0 0 1-1.5 1.4ZM311 297.6a1.5 1.5 0 0 1-1.5-1.4v-29.3a1.5 1.5 0 0 1 3 0v29.3a1.5 1.5 0 0 1-1.5 1.4Z" class="d"/><path d="M260.5 293.3h4.4v8.8h-4.4zM302.9 293.3h4.4v8.8h-4.4z" class="e"/><path d="M258.9 302h7.3v1.5h-7.3zM301.5 302h7.3v1.5h-7.3z" class="a"/><path fill="#fff" d="M282.8 278.6h1.5v16.1h-1.5z"/><path d="M40.2 306.4c-16.1 0-29.2-6.5-29.2-14.6V160c0-8 13-14.7 29.2-14.7s29.3 6.6 29.3 14.7v131.7c0 8-13.1 14.6-29.3 14.6Z" class="b"/><path d="M40.2 306.4c-16.1 0-29.2-6.5-29.2-14.6V160c0-8 13-14.7 29.2-14.7Z" class="c"/><path d="M9.5 168.9a1.5 1.5 0 0 1 1.5-1.5h36.6a1.5 1.5 0 1 1 0 3H11a1.5 1.5 0 0 1-1.5-1.5ZM9.5 205.4A1.5 1.5 0 0 1 11 204h36.6a1.5 1.5 0 1 1 0 3H11a1.5 1.5 0 0 1-1.5-1.6ZM9.5 242a1.5 1.5 0 0 1 1.5-1.4h36.6a1.5 1.5 0 1 1 0 2.9H11a1.5 1.5 0 0 1-1.5-1.5ZM9.5 278.6a1.5 1.5 0 0 1 1.5-1.4h36.6a1.5 1.5 0 1 1 0 2.9H11a1.5 1.5 0 0 1-1.5-1.5Z" class="d"/><path d="M7.3 294h65.9v36.6H7.3z" class="e"/><path d="M60.7 185.7V294h-2.9v-32.2h-7.3v-2.9h7.3v-33.7h-7.3v-2.9h7.3v-33.7h-7.3v-2.9h10.2z" class="g"/><path d="M0 328.4h80.5v4.4H0zM5.1 291.8h70.2v4.4H5.1z" class="a"/><path d="M193.2 168.9c0 8-3.3 14.6-7.3 14.6h-73.2c-4 0-7.3-6.6-7.3-14.6s3.2-14.7 7.3-14.7h73.2c4 0 7.3 6.6 7.3 14.7Z" class="b"/><path d="M193.2 168.9c0 8-3.3 14.6-7.3 14.6h-73.2c-4 0-7.3-6.6-7.3-14.6Z" class="c"/><path d="M122.2 185a1.5 1.5 0 0 1-1.5-1.5v-29.3a1.5 1.5 0 0 1 3 0v29.3a1.5 1.5 0 0 1-1.5 1.5ZM183.7 185a1.5 1.5 0 0 1-1.5-1.5v-29.3a1.5 1.5 0 0 1 3 0v29.3a1.5 1.5 0 0 1-1.5 1.5Z" class="d"/><path d="M125.9 180.6h4.4v8.8h-4.4zM175.6 180.6h4.4v8.8h-4.4z" class="e"/><path d="M124.3 189.4h7.3v1.5h-7.3zM174.1 189.4h7.3v1.5h-7.3z" class="a"/><path d="M310.2 168.9c0 8-3.2 14.6-7.3 14.6h-73.1c-4 0-7.4-6.6-7.4-14.6s3.3-14.7 7.4-14.7h73.1c4 0 7.3 6.6 7.3 14.7Z" class="b"/><path d="M310.2 168.9c0 8-3.2 14.6-7.3 14.6h-73.1c-4 0-7.4-6.6-7.4-14.6Z" class="c"/><path d="M239.3 185a1.5 1.5 0 0 1-1.5-1.5v-29.3a1.5 1.5 0 1 1 3 0v29.3a1.5 1.5 0 0 1-1.5 1.5ZM300.7 185a1.5 1.5 0 0 1-1.4-1.5v-29.3a1.5 1.5 0 0 1 2.9 0v29.3a1.5 1.5 0 0 1-1.5 1.5Z" class="d"/><path d="M242.9 180.6h4.4v8.8h-4.4zM292.7 180.6h4.4v8.8h-4.4z" class="e"/><path d="M241.3 189.4h7.3v1.5h-7.3zM291.2 189.4h7.3v1.5h-7.3z" class="a"/><path d="M427.3 168.9c0 8-3.3 14.6-7.3 14.6h-73.2c-4 0-7.3-6.6-7.3-14.6s3.3-14.7 7.3-14.7H420c4 0 7.3 6.6 7.3 14.7Z" class="b"/><path d="M427.3 168.9c0 8-3.3 14.6-7.3 14.6h-73.2c-4 0-7.3-6.6-7.3-14.6Z" class="c"/><path d="M356.3 185a1.5 1.5 0 0 1-1.4-1.5v-29.3a1.5 1.5 0 0 1 2.9 0v29.3a1.5 1.5 0 0 1-1.5 1.5ZM417.8 185a1.5 1.5 0 0 1-1.5-1.5v-29.3a1.5 1.5 0 0 1 3 0v29.3a1.5 1.5 0 0 1-1.5 1.5Z" class="d"/><path d="M360 180.6h4.4v8.8H360zM409.8 180.6h4.4v8.8h-4.4z" class="e"/><path d="M358.4 189.4h7.3v1.5h-7.3zM408.3 189.4h7.3v1.5h-7.3z" class="a"/><path d="m244.4 47.4-11.7 33.7h23.4l-11.7-33.7z" class="c"/><circle cx="244.4" cy="45.9" r="11.7" class="b"/><path d="M244.4 47.4v33.7h-11.7l11.7-33.7z" class="d"/><path d="M244.4 34.2a11.7 11.7 0 0 0 0 23.4ZM127.3 47.4l-11.7 33.7H139l-11.7-33.7z" class="c"/><circle cx="127.3" cy="45.9" r="11.7" class="b"/><path d="M127.3 47.4v33.7h-11.7l11.7-33.7z" class="d"/><path d="M127.3 34.2a11.7 11.7 0 1 0 0 23.4ZM361.5 47.4l-11.7 33.7h23.4l-11.7-33.7z" class="c"/><circle cx="361.5" cy="45.9" r="11.7" class="b"/><path d="M361.5 47.4v33.7h-11.7l11.7-33.7z" class="d"/><path d="M361.5 34.2a11.7 11.7 0 1 0 0 23.4Z" class="c"/><path d="m265.8 141.2 2.8-.3a2.4 2.4 0 0 0 .7 1.5 2 2 0 0 0 1.4.5 1.9 1.9 0 0 0 1.5-.7 3.3 3.3 0 0 0 .6-2.1 3 3 0 0 0-.6-2 2 2 0 0 0-1.6-.7 2.9 2.9 0 0 0-2.2 1l-2.3-.3 1.5-7.6h7.4v2.6h-5.3l-.4 2.5a4.3 4.3 0 0 1 5 .9 4.9 4.9 0 0 1 1.4 3.5 5.3 5.3 0 0 1-1.1 3.2 4.7 4.7 0 0 1-4 2 5 5 0 0 1-3.3-1.1 4.5 4.5 0 0 1-1.5-3ZM153.3 145.2v-3h-6v-2.4l6.4-9.3h2.4v9.3h1.8v2.4H156v3Zm0-5.4v-5l-3.3 5ZM381 49.1l2.7-.3a2.6 2.6 0 0 0 .7 1.6 2 2 0 0 0 2.9-.1 2.6 2.6 0 0 0 .6-1.8 2.4 2.4 0 0 0-.6-1.7 1.8 1.8 0 0 0-1.4-.6 5 5 0 0 0-1.3.2l.3-2.3a2.5 2.5 0 0 0 1.8-.5 1.8 1.8 0 0 0 .6-1.4 1.5 1.5 0 0 0-1.6-1.6 1.7 1.7 0 0 0-1.3.5 2.4 2.4 0 0 0-.6 1.5l-2.6-.5a5.8 5.8 0 0 1 .8-2.1 3.7 3.7 0 0 1 1.6-1.3 5.1 5.1 0 0 1 2.1-.4 4.4 4.4 0 0 1 3.4 1.3 3.3 3.3 0 0 1-1.1 5.5 3.4 3.4 0 0 1 2 1.2 3.5 3.5 0 0 1 .8 2.3 4.4 4.4 0 0 1-1.5 3.3 5.3 5.3 0 0 1-6.8.2 4.5 4.5 0 0 1-1.5-3ZM272.7 50.6v2.7h-9.9a6.8 6.8 0 0 1 1-2.9 18.7 18.7 0 0 1 3.1-3.5 19.9 19.9 0 0 0 2.4-2.4 3 3 0 0 0 .6-1.7 2 2 0 0 0-.5-1.4 2.1 2.1 0 0 0-2.8 0 2.7 2.7 0 0 0-.6 1.7l-2.8-.2a4.6 4.6 0 0 1 1.5-3.4 5.3 5.3 0 0 1 3.3-1 4.8 4.8 0 0 1 3.4 1.2 3.8 3.8 0 0 1 1.3 3 5 5 0 0 1-.4 1.8 7.7 7.7 0 0 1-1.1 1.9 18 18 0 0 1-1.8 1.8l-1.7 1.7a4.9 4.9 0 0 0-.6.7ZM152.6 53.3h-2.8V42.7a9.7 9.7 0 0 1-3.6 2v-2.5a8.2 8.2 0 0 0 2.4-1.3 5.2 5.2 0 0 0 1.7-2.4h2.3ZM392.3 133.9l-2.7.3a2 2 0 0 0-.5-1.3 1.5 1.5 0 0 0-1-.4 1.8 1.8 0 0 0-1.6.8 6.8 6.8 0 0 0-.8 3.4 3.3 3.3 0 0 1 2.6-1.3 4 4 0 0 1 3 1.4 4.9 4.9 0 0 1 1.3 3.4 5 5 0 0 1-1.3 3.6 4.8 4.8 0 0 1-7-.3q-1.5-1.8-1.5-5.7 0-4 1.5-5.8a4.8 4.8 0 0 1 3.9-1.8 4.1 4.1 0 0 1 2.8 1 4.4 4.4 0 0 1 1.3 2.7ZM386 140a3.2 3.2 0 0 0 .6 2.1 1.9 1.9 0 0 0 1.4.8 1.6 1.6 0 0 0 1.3-.7 3 3 0 0 0 .6-2 3.2 3.2 0 0 0-.6-2 1.8 1.8 0 0 0-2.8 0 2.8 2.8 0 0 0-.5 1.8ZM327.2 301.6V299h9.6v2a15.1 15.1 0 0 0-2.4 3.4 19.5 19.5 0 0 0-1.9 4.7 17.2 17.2 0 0 0-.6 4.4h-2.7a18.9 18.9 0 0 1 1.2-6.2 20.7 20.7 0 0 1 3.2-5.7ZM210.4 315.2v-14.7h3v14.7ZM220 315.2l-5.3-14.7h3.2l3.7 10.9 3.6-10.9h3.1l-5.2 14.7ZM444 103V88.3h3V103ZM449.6 103V88.3h3V103ZM455.3 103V88.3h3V103ZM449.6 27.7V13.1h3v14.6ZM455.3 27.7V13.1h3v14.6ZM351.8 262.5V248h3v14.6ZM357.4 262.5V248h3v14.6ZM363.1 262.5V248h3v14.6ZM72.6 29.8V15.2h3v14.6Z" class="g"/></svg>