<svg xmlns="http://www.w3.org/2000/svg" viewBox="0 0 350 375"><defs><style>.a{fill:#07617d}.b{fill:#d27332}.c{fill:#b05f1f}.d{fill:#f78536}.e{fill:#497285}.f{fill:#2b4450}</style></defs><path d="M133.5 61.1v-4.7H54.4v121.5h-1.9V54.4h81v-4.6l21.1 5.6-21.1 5.7zM337.5 195.1l5.7-21.1 5.6 21.1h-11.3z" class="a"/><path d="M344.1 0v335.4h-1.9V1.9H170.1v16.9h4.7l-5.6 21.1-5.7-21.1h4.7V0h175.9z" class="a"/><path d="M316.9 274.1v2h-95.6v4.7l-21-5.7 21-5.6v4.6h95.6zM295.8 197.2v-4.7H243v-2h52.8v-4.6l21.1 5.6-21.1 5.7zM292 358.5v-4.6h-17.9v-2H292v-4.7l21 5.7-21 5.6z" class="a"/><path d="M239.1 351.9v2h-39.8V195.4h1.9v156.5h37.9z" class="a"/><path d="m194.6 224.9 5.7 21.1 5.6-21.1h-11.3zM174.8 137.4l-5.6 21.1-5.7-21.1h4.7v-37.3h1.9v37.3h4.7zM295.8 107.7V103h-67.3v57.4h-2v-59.3h69.3v-4.7l21.1 5.7-21.1 5.6z" class="a"/><path d="m169.2 57.4-15.6 44.7h31.1l-15.5-44.7z" class="b"/><path d="M169.2 57.4v44.7h-15.6l15.6-44.7z" class="c"/><path d="M154.6 39.9h29.2v29.2h-29.2z" class="d"/><path d="M154.6 39.9h14.6v29.2h-14.6z" class="b"/><path d="M53.5 310.1c-21.5 0-39-8.7-39-19.4v-175c0-10.7 17.5-19.5 39-19.5s38.9 8.8 38.9 19.5v175c0 10.7-17.5 19.4-39 19.4Z" class="d"/><path d="M53.5 310.1c-21.5 0-39-8.7-39-19.4v-175c0-10.7 17.5-19.5 39-19.5Z" class="b"/><path d="M12.6 127.4a2 2 0 0 1 2-2h48.6a2 2 0 1 1 0 3.9H14.6a2 2 0 0 1-2-2ZM12.6 176a2 2 0 0 1 2-2h48.6a2 2 0 1 1 0 3.9H14.6a2 2 0 0 1-2-2ZM12.6 224.6a2 2 0 0 1 2-2h48.6a2 2 0 1 1 0 4H14.6a2 2 0 0 1-2-2ZM12.6 273.2a2 2 0 0 1 2-2h48.6a2 2 0 1 1 0 4H14.6a2 2 0 0 1-2-2Z" class="c"/><path d="M9.7 293.6h87.5v48.6H9.7z" class="e"/><path d="M80.7 149.7v143.9h-3.9v-42.8h-9.7v-3.9h9.7v-44.7h-9.7v-3.9h9.7v-44.7h-9.7v-3.9h13.6z" class="f"/><path d="M0 339.3h106.9v5.8H0zM6.8 290.7h93.3v5.8H6.8z" class="a"/><path d="m333.4 349-14.5 25.3H348L333.4 349z" class="e"/><path d="M337.3 352.8v-20.4H349v20.4z" class="b"/><circle cx="333.4" cy="352.9" r="15.6" class="d"/><path d="M313 349.5h20.4v6.7H313z" class="b"/><circle cx="333.4" cy="352.9" r="5.8" class="c"/><path d="M317.9 372.3H349v1.9h-31.1z" class="a"/><path d="M247 177.9c0 10.7-4.4 19.4-9.8 19.4h-77.8c-5.3 0-9.7-8.7-9.7-19.4s4.4-19.4 9.7-19.4h77.8c5.4 0 9.7 8.7 9.7 19.4Z" class="d"/><path d="M247 177.9c0 10.7-4.4 19.4-9.8 19.4h-77.8c-5.3 0-9.7-8.7-9.7-19.4Z" class="b"/><path d="M162.3 199.3a2 2 0 0 1-1.9-2v-38.8a2 2 0 0 1 3.9 0v38.8a2 2 0 0 1-2 2ZM234.3 199.3a2 2 0 0 1-2-2v-38.8a2 2 0 1 1 4 0v38.8a2 2 0 0 1-2 2Z" class="c"/><path d="M167.2 193.5h5.8v11.7h-5.8zM223.6 193.5h5.8v11.7h-5.8z" class="e"/><path d="M165.1 205.1h9.7v1.9h-9.7zM221.6 205.1h9.7v1.9h-9.7z" class="a"/><path fill="#fff" d="M177.5 174h1.9v21.4h-1.9z"/><circle cx="256.6" cy="352.9" r="15.6" class="d"/><path d="M272.2 352.9a15.6 15.6 0 0 1-31.1 0Z" class="b"/><path d="M274.1 351.9v2h-5.4l-6.5 6.6-1.5 1.4-1-1.7-4.2-7.3h2.3l3.4 5.9 4.8-4.9 1.9-2h6.2z" class="e"/><path fill="#3d91a6" d="M257.8 352.9h-2.3l-3.4-5.9-4.8 4.9-1.9 2h-6.3v-2h5.5l6.5-6.6 1.4-1.5 5.3 9.1z"/><path d="M320.4 325.7v-4h-8v-3.2l8.5-12.4h3v12.4h2.5v3.2H324v4Zm0-7.2v-6.7l-4.5 6.7ZM249.6 320.2l3.6-.5a3.4 3.4 0 0 0 1 2.1 2.6 2.6 0 0 0 3.7-.1 3.4 3.4 0 0 0 .8-2.4 3.2 3.2 0 0 0-.8-2.2 2.4 2.4 0 0 0-1.8-.8 6.5 6.5 0 0 0-1.7.3l.4-3a3.3 3.3 0 0 0 2.3-.7 2.3 2.3 0 0 0 .8-1.9 2 2 0 0 0-2.2-2.2 2.3 2.3 0 0 0-1.6.7 3.1 3.1 0 0 0-.8 2l-3.5-.6a7.7 7.7 0 0 1 1.1-2.9 4.9 4.9 0 0 1 2-1.6 6.8 6.8 0 0 1 3-.6 5.8 5.8 0 0 1 4.4 1.7 4.6 4.6 0 0 1 1.3 3.3q0 2.5-2.8 4a4.5 4.5 0 0 1 2.7 1.7 4.7 4.7 0 0 1 1 3 5.9 5.9 0 0 1-1.9 4.4 7 7 0 0 1-9 .2 6 6 0 0 1-2-4ZM204.8 143.3v3.5h-13.1a9 9 0 0 1 1.3-3.7 24.8 24.8 0 0 1 4.2-4.7 26.4 26.4 0 0 0 3-3.2 4.1 4.1 0 0 0 .8-2.3 2.6 2.6 0 0 0-.6-1.9 2.9 2.9 0 0 0-3.7 0 3.6 3.6 0 0 0-.8 2.4l-3.8-.4a6.1 6.1 0 0 1 2.1-4.4 7 7 0 0 1 4.4-1.4 6.3 6.3 0 0 1 4.5 1.6 5.1 5.1 0 0 1 1.7 3.9 6.7 6.7 0 0 1-.5 2.5 10.2 10.2 0 0 1-1.5 2.4 24 24 0 0 1-2.4 2.5l-2.3 2.2a6.5 6.5 0 0 0-.7 1ZM202.8 65.1H199v-14a12.9 12.9 0 0 1-4.8 2.8v-3.4a10.8 10.8 0 0 0 3.2-1.8 7 7 0 0 0 2.4-3.1h3ZM266.2 263.5V244h4v19.5ZM278.9 263.5l-7-19.5h4.3l4.9 14.4 4.8-14.4h4.1l-7 19.5ZM268.8 179.8v-19.4h3.9v19.4ZM276.3 179.8v-19.4h4v19.4ZM283.9 179.8v-19.4h4v19.4ZM276.3 88.5V69h4v19.5ZM283.9 88.5V69h4v19.5ZM96.5 41.8V22.3h4v19.5Z" class="f"/></svg>