<svg xmlns="http://www.w3.org/2000/svg" viewBox="0 0 200 250"><path fill="#fd0" d="m61.3 153.5 47.3-81.9-8.4-14.6-55.8 96.5Zm69.3-14.6h-44l-8.4 14.6h77.7L117 86.3l-8.4 14.6Z"/><path fill="#323232" d="M36.2 181.2H33l-1.5-3.1h-6.3l-1.4 3.1H21l6.2-14h2.3Zm-5.7-5.7-2.1-4.9-2 5ZM45.1 168.2a7.1 7.1 0 0 1 4.9 1.5 5.8 5.8 0 0 1 1.9 4.5 5.7 5.7 0 0 1-2 4.4 7.3 7.3 0 0 1-4.8 1.4v1.4h-3.2V180a7.3 7.3 0 0 1-4.9-1.4 5.7 5.7 0 0 1-1.9-4.4 5.8 5.8 0 0 1 2-4.5 7.1 7.1 0 0 1 4.8-1.5v-1h3.2Zm-3.2 9.4v-7a3.8 3.8 0 0 0-2.7.8 4 4 0 0 0 0 5.4 3.8 3.8 0 0 0 2.7.8Zm3.2 0a3.8 3.8 0 0 0 2.7-.8 4 4 0 0 0 0-5.4 3.7 3.7 0 0 0-2.7-.8ZM65.5 181.2h-3v-9l-6.3 9h-2.6v-14h3v8.6l6.3-8.6h2.6ZM121.2 181.2h-3v-9l-6.3 9h-2.6v-14h3v8.6l6.3-8.6h2.6ZM135.2 181.2h-3v-9l-6.4 9h-2.6v-14h3v8.6l6.4-8.6h2.6ZM79 181.2h-3.1V170h-5.4v11.2h-3v-14H79ZM166.8 181.2h-3.2V170H158v11.2h-3.1v-14h11.9ZM107.8 181.2H104l-4.6-5.9-1.7 1.6v4.3h-3v-14h3v5.9l6-5.9h3.7l-6.1 5.8ZM152.8 181.2h-3.1v-5.5h-5.8v5.5h-3v-14h3v5.3h5.8v-5.3h3ZM91.5 177l2.1 2.2a7.3 7.3 0 1 1 0-9.9l-2.1 2.1a4.3 4.3 0 1 0 0 5.7ZM130.8 167.2H127l2.2-3.2h3.8l-2.2 3.2zM167.6 179l1.7-2a6 6 0 0 0 3.8 1.7c1.6 0 2.7-.7 2.7-1.9 0-1.1-1-1.5-2.8-1.5h-1.4V173h1c1.8 0 2.5-.6 2.5-1.6s-1-1.5-2.2-1.5a5.4 5.4 0 0 0-3.2 1.3L168 169a7.7 7.7 0 0 1 5-1.8c3.4 0 5.6 1.4 5.6 3.6a3.3 3.3 0 0 1-2.1 3 3.2 3.2 0 0 1 2.5 3.3c0 2.8-2.6 4.2-5.9 4.2a8.6 8.6 0 0 1-5.5-2.3Z" /></svg>