<svg xmlns="http://www.w3.org/2000/svg" viewBox="0 0 200 200" width="200" height="200"><path fill="#fd0" d="m61 132 47.5-82.3-8.4-14.7L44 132h17zM130.6 117.3H86.4L78 132h78l-39.1-67.5-8.4 14.6 22.1 38.2z"/><path d="M29.5 146.3h-2.3L21 160.6h2.8l1.4-3.1h6.3l1.5 3.1h3.2Zm-3.1 8.6 2-5.1 2.1 5.1ZM50 148.8a7 7 0 0 0-4.9-1.5v-1h-3.2v1a6.9 6.9 0 0 0-4.8 1.5 6 6 0 0 0-2 4.7A5.9 5.9 0 0 0 37 158a7.1 7.1 0 0 0 4.9 1.4v1.4h3.2v-1.4a7.2 7.2 0 0 0 4.8-1.4 6 6 0 0 0 2-4.5 6 6 0 0 0-1.9-4.7Zm-8.1 8.1a3.8 3.8 0 0 1-2.7-.8 4.2 4.2 0 0 1 0-5.5 3.7 3.7 0 0 1 2.7-.8Zm5.9-.8a3.8 3.8 0 0 1-2.7.9v-7.2a3.6 3.6 0 0 1 2.7.8 4.2 4.2 0 0 1 0 5.5ZM65.5 160.6h-3v-9.2l-6.3 9.2h-2.6v-14.3h3v8.8l6.3-8.8h2.6v14.3zM121.2 160.6h-3v-9.2l-6.3 9.2h-2.6v-14.3h3v8.8l6.3-8.8h2.6v14.3zM135.2 160.6h-3v-9.2l-6.4 9.2h-2.6v-14.3h3v8.8l6.4-8.8h2.6v14.3zM79 160.6h-3.1v-11.4h-5.4v11.4h-3v-14.3H79v14.3zM166.8 160.6h-3.2v-11.4H158v11.4h-3.1v-14.3h11.9v14.3zM107.8 160.6H104l-4.6-6-1.7 1.6v4.4h-3v-14.3h3v6l6-6h3.7l-6.1 5.9 6.5 8.4zM152.8 160.6h-3.1V155h-5.8v5.6h-3v-14.3h3v5.4h5.8v-5.4h3l.1 14.3zM91.5 156.3l2.1 2.3a7.2 7.2 0 0 1-10.1.6l-.2-.2a7.6 7.6 0 0 1-.4-10.6 7.2 7.2 0 0 1 10-.6l.3.2.4.4-2.1 2.2a4.2 4.2 0 0 0-6-.5v.1a4.5 4.5 0 0 0-.4 6.2 4.2 4.2 0 0 0 6 .5 4.4 4.4 0 0 0 .4-.5Z" fill="#323232"/><path d="M130.8 146.3H127l2.2-3.3h3.8l-2.2 3.3zM167.6 158.4l1.7-2a6 6 0 0 0 3.8 1.7c1.6 0 2.7-.7 2.7-2 0-1.1-1-1.5-2.8-1.5h-1.4v-2.4h1c1.8 0 2.5-.6 2.5-1.6s-1-1.5-2.2-1.5a5.3 5.3 0 0 0-3.2 1.3L168 148a7.6 7.6 0 0 1 5-1.8c3.4 0 5.6 1.4 5.6 3.7a3.4 3.4 0 0 1-2.1 3 3.3 3.3 0 0 1 2.5 3.4c0 3-2.6 4.3-5.9 4.3a8.5 8.5 0 0 1-5.5-2.3Z" fill="#323232"/></svg>