<svg xmlns="http://www.w3.org/2000/svg" viewBox="0 0 200 200" width="200" height="200"><defs><radialGradient id="b" cx="504.8" cy="-177.5" r="36.9" gradientTransform="matrix(1 -1 1 1 -398.4 718.2)" gradientUnits="userSpaceOnUse"><stop offset="0" stop-color="#fcfefa"/><stop offset="1" stop-color="#d6d7d6"/></radialGradient><radialGradient id="c" cx="773.2" cy="-117.6" r="40.1" gradientTransform="rotate(180 424.4 -21)" gradientUnits="userSpaceOnUse"><stop offset="0" stop-color="#7bb631"/><stop offset="1" stop-color="#027e40"/></radialGradient><linearGradient id="a" x1="346.2" x2="334.1" y1="-12.8" y2="17.1" gradientTransform="translate(-234.3 67.3)" gradientUnits="userSpaceOnUse"><stop offset="0" stop-color="#db2f7b"/><stop offset="1" stop-color="#9b2978"/></linearGradient><style>.d{fill:#636163}</style></defs><circle cx="100" cy="84" r="40" fill="url(#a)"/><path fill="url(#b)" d="M77.8 50.7a40.7 40.7 0 0 0-11.4 11.6L100 91v22l39.8-33.4a39.8 39.8 0 0 0-6-17L100 90.9V70Z"/><path fill="url(#c)" d="M66.4 62.3A40 40 0 1 0 140 84.5a44.3 44.3 0 0 0-.2-5L100 112V91Z"/><path d="M39.2 146.3a11.8 11.8 0 0 0-5.9-1.2H30v-2.7h9.8v-3H25v15h8.3a11.8 11.8 0 0 0 5.9-1.2 4 4 0 0 0 1.3-1.3 4.1 4.1 0 0 0-1.3-5.6Zm-3.9 5a4.3 4.3 0 0 1-2.3.5h-3v-3.7h3a4.3 4.3 0 0 1 2.3.4 1.5 1.5 0 0 1 .7 1.4 1.6 1.6 0 0 1-.7 1.4ZM53.7 139.1h-5.4l-6.5 15.2h4.6l1.1-2.9h7.1l1.1 2.9h4.5Zm-5.1 9.6 2.4-6.1 2.4 6ZM75 151.5h5.2v-12.2h4.1v15.2H61.5v-15.2h4v12.2H71v-12.2h4v12.2zM87.8 139.3h4.7v5.8h7v-5.8h4.6v15.2h-4.7v-6.4h-7v6.4h-4.6v-15.2zM106.4 139.3h12.8v3.1h-8v2.7h7.5v3h-7.5v3.4h8.3v3h-13l-.1-15.2zM140.7 141.8q-2.1-1.7-6.5-2V138h-4.6v1.7a13.2 13.2 0 0 0-6.6 2l-.3.3a7.1 7.1 0 0 0 .3 10 13.2 13.2 0 0 0 6.6 2v2h4.6v-2c3-.3 5.2-1 6.5-2l.2-.3a7.1 7.1 0 0 0-.2-10Zm-11.1 8.7a4.5 4.5 0 0 1-2.9-1 3.5 3.5 0 0 1-1.1-2.7 3.4 3.4 0 0 1 1-2.6 5 5 0 0 1 3-1Zm7.6-1a5 5 0 0 1-3 1v-7.3a5 5 0 0 1 2.9 1 3.5 3.5 0 0 1 1 2.6 3.6 3.6 0 0 1-.9 2.7ZM142.3 139.3h15.1v3.1H152v12.1h-4.3v-12.2h-5.4v-3zM175 149.8a3.8 3.8 0 0 0-1.8-3.5 10.9 10.9 0 0 0-5.6-1.2h-3.2v-5.8h-4.8v15.2h8a10.9 10.9 0 0 0 5.6-1.3 3.6 3.6 0 0 0 1.8-3.4Zm-5.5 1.5a4 4 0 0 1-2.2.5h-2.9v-3.7h2.9a4 4 0 0 1 2.2.4 1.8 1.8 0 0 1 0 2.8Z" class="d"/></svg>