<svg xmlns="http://www.w3.org/2000/svg" viewBox="0 0 200 250"><defs><radialGradient id="b" cx="604.3" cy="252" r="36.9" gradientTransform="matrix(1 -1 -1 -1 -423.4 918.2)" gradientUnits="userSpaceOnUse"><stop offset="0" stop-color="#fcfefa"/><stop offset="1" stop-color="#d6d7d6"/></radialGradient><radialGradient id="c" cx="773.2" cy="-106.4" r="40.1" gradientTransform="matrix(-1 0 0 1 848.8 208)" gradientUnits="userSpaceOnUse"><stop offset="0" stop-color="#7bb631"/><stop offset="1" stop-color="#027e40"/></radialGradient><linearGradient id="a" x1="346.2" x2="334.1" y1="186.8" y2="156.9" gradientTransform="matrix(1 0 0 -1 -234.3 267.3)" gradientUnits="userSpaceOnUse"><stop offset="0" stop-color="#db2f7b"/><stop offset="1" stop-color="#9b2978"/></linearGradient><style>.d{fill:#636163}</style></defs><circle cx="100" cy="110" r="40" fill="url(#a)"/><path fill="url(#b)" d="M77.8 76.7a40.7 40.7 0 0 0-11.4 11.6L100 117v22l39.8-33.4a39.8 39.8 0 0 0-6-17L100 116.9V96Z"/><path fill="url(#c)" d="M66.4 88.3a40 40 0 1 0 73.6 22.2 44.3 44.3 0 0 0-.2-5L100 138v-21Z"/><path d="M33 177.9a4.4 4.4 0 0 0 2.3-.5 1.6 1.6 0 0 0 .7-1.4 1.5 1.5 0 0 0-.7-1.4 4.4 4.4 0 0 0-2.3-.4h-3v3.7Zm.3 2.6H25v-14.9h14.8v3H30v2.7h3.3a12 12 0 0 1 5.9 1.2 4 4 0 0 1 0 6.8 12 12 0 0 1-5.9 1.2ZM54.6 177.5h-7.1l-1.1 2.8h-4.6l6.5-14.9h5.4l6.5 14.9h-4.5Zm-6-2.7h4.8l-2.4-6ZM75 177.6h5.2v-12h4.1v14.9H61.5v-14.9h4v12H71v-12h4ZM87.8 165.6h4.7v5.7h7v-5.7h4.6v14.9h-4.7v-6.3h-7v6.3h-4.6ZM106.4 165.6h12.8v3h-8v2.7h7.5v2.9h-7.5v3.4h8.3v2.9h-13ZM125.7 173a3.3 3.3 0 0 0 1 2.6 5.2 5.2 0 0 0 2.9 1v-7.2a5.1 5.1 0 0 0-3 1 3.3 3.3 0 0 0-1 2.6Zm12.4 0a3.2 3.2 0 0 0-1-2.6 5 5 0 0 0-2.9-1v7.2a5.1 5.1 0 0 0 3-1 3.2 3.2 0 0 0 .9-2.6Zm-8.5-8.7h4.6v1.7q4.4.4 6.5 2a6.9 6.9 0 0 1 0 10q-2 1.6-6.5 2v2h-4.6v-2q-4.4-.4-6.6-2a6.9 6.9 0 0 1 0-10q2.2-1.6 6.6-2ZM142.3 165.6h15.1v3H152v11.9h-4.3v-12h-5.4ZM167.3 177.9a4 4 0 0 0 2.2-.5 1.6 1.6 0 0 0 .7-1.4 1.6 1.6 0 0 0-.7-1.4 4 4 0 0 0-2.2-.4h-2.9v3.7Zm7.7-2a3.6 3.6 0 0 1-1.8 3.4 11.1 11.1 0 0 1-5.6 1.2h-8v-14.9h4.8v5.7h3.2a11.1 11.1 0 0 1 5.6 1.2 3.7 3.7 0 0 1 1.8 3.4Z" class="d"/></svg>