<svg xmlns="http://www.w3.org/2000/svg" viewBox="0 0 200 250"><path fill="#f57f35" d="M161.3 94.7c2.1-2.4 4.4-4.5 6.6-6.7v14l-6.8-.1v-6.7c-.1-.3.1-.4.2-.5ZM169.4 103.3H183l-5.8 5.8c-.4.4-.8.9-1.4.9h-6.5v-6.7Z"/><path fill="#ef4138" d="M152.7 103.3h14.1l-6.4 6.6H146q3.2-3.4 6.7-6.6ZM161 111.1l6.8-6.9.1 14.2-6.8 6.9V111Z"/><path fill="#373536" d="M23 116.6h23v4.5H29.6v3.9H46v4.1H29.7v4H46v4.6H23v-21.1ZM53.1 117a17.6 17.6 0 0 1 4.4-.4H72v4.5H59.3a3.6 3.6 0 0 0-2.3.5 1.9 1.9 0 0 0 1 3.1c3.7.4 7.5-.3 11.2.5a4.8 4.8 0 0 1 2.8 1.6 7.1 7.1 0 0 1 1.4 5.3 5.9 5.9 0 0 1-2.1 4.1 9.1 9.1 0 0 1-5.3 1.5H49.7V133h14.8a1.8 1.8 0 0 0 1.4-2.4 1.7 1.7 0 0 0-1.5-1.4c-3.5-.4-7 .2-10.3-.3a5.8 5.8 0 0 1-2.7-1 6 6 0 0 1-2.3-4.3 6.8 6.8 0 0 1 1.5-5.2A5 5 0 0 1 53 117ZM76.8 117.8a9 9 0 0 1 5-1.2h15.8v4.5H83.5c-1.7.1-2 3-.3 3.5 4 .7 8.1-.4 12 .8a4.6 4.6 0 0 1 3 2.6 8.1 8.1 0 0 1 .5 4.8A5.2 5.2 0 0 1 97 136a8.2 8.2 0 0 1-5.2 1.7H75.2v-4.5c4.7-.2 9.4 0 14.2-.2a2.2 2.2 0 0 0 1.2-.2 2 2 0 0 0-.3-3.3 14.5 14.5 0 0 0-3-.3c-3.2 0-6.5.4-9.5-.7a5.2 5.2 0 0 1-3.2-4.3 9.4 9.4 0 0 1 .4-4 4.3 4.3 0 0 1 1.8-2.4ZM108.4 116.6h9.9c.6 0 .8.6 1 1l8.9 20h-7.7l-1.6-3.9H108c-.7 1.3-1.2 2.6-1.8 4h-7.2l9.3-21m5 4L110 129h6.9l-3.5-8.2ZM130.2 116.6h18a7.1 7.1 0 0 1 5.2 2c1 1.2 1.1 2.9 1.2 4.3a6 6 0 0 1-2.5 5.4c-.3.1 0 .3 0 .3a4.3 4.3 0 0 1 2.1 2.7c.6 2.1.2 4.3.3 6.4h-7c-.2-1.8.3-3.5-.1-5.3a2.2 2.2 0 0 0-1.4-1.7c-3-.5-6-.2-9-.2v7.2h-6.8v-21m7 4.3a38.7 38.7 0 0 0-.1 5c3-.2 6 .2 9-.3 2-.5 1.9-4-.1-4.4-3-.4-6-.1-8.9-.3Z" /></svg>