<svg xmlns="http://www.w3.org/2000/svg" viewBox="0 0 200 200" width="200" height="200"><path fill="#f57f35" d="M161.3 71.8c2.1-2.4 4.4-4.5 6.6-6.7v14h-6.8v-6.8c-.1-.3.1-.4.2-.5Zm8.1 8.6H183l-5.8 5.8c-.4.4-.8 1-1.4 1h-6.5v-6.8Z"/><path fill="#ef4138" d="M152.7 80.4h14.1l-6.4 6.6H146q3.2-3.4 6.7-6.6Zm8.3 7.8 6.8-6.9.1 14.2-6.8 7V88Z"/><path fill="#373536" d="M23 93.7h23v4.5H29.6v3.9H46v4.1H29.7v4H46v4.6H23V93.7zM53.1 94.1a17.6 17.6 0 0 1 4.4-.4H72v4.5H59.3a3.6 3.6 0 0 0-2.3.5 1.9 1.9 0 0 0 1 3.1c3.7.4 7.5-.3 11.2.5A4.8 4.8 0 0 1 72 104a7.1 7.1 0 0 1 1.4 5.3 5.9 5.9 0 0 1-2.1 4.1 9.1 9.1 0 0 1-5.3 1.5H49.7v-4.7h14.8a1.8 1.8 0 0 0 1.4-2.4 1.7 1.7 0 0 0-1.5-1.4c-3.5-.4-7 .2-10.3-.3a5.8 5.8 0 0 1-2.7-1 6 6 0 0 1-2.3-4.3 6.8 6.8 0 0 1 1.5-5.2 5 5 0 0 1 2.4-1.4ZM76.8 95a9 9 0 0 1 5-1.3h15.8v4.5H83.5c-1.7.1-2 3-.3 3.5 4 .7 8.1-.4 12 .8a4.6 4.6 0 0 1 3 2.6 8.1 8.1 0 0 1 .5 4.8 5.2 5.2 0 0 1-1.7 3.2 8.2 8.2 0 0 1-5.2 1.7H75.2v-4.5c4.7-.2 9.4 0 14.2-.2a2.2 2.2 0 0 0 1.2-.2 2 2 0 0 0-.3-3.3 14.5 14.5 0 0 0-3-.3c-3.2 0-6.5.4-9.5-.7a5.2 5.2 0 0 1-3.2-4.3 9.4 9.4 0 0 1 .4-4 4.3 4.3 0 0 1 1.8-2.4ZM119.3 94.8c-.2-.4-.4-1-1-1h-10l-9.3 21h7.2c.6-1.4 1.1-2.7 1.8-4h10.9l1.6 4h7.7Zm-9.3 11.4 3.3-8.3h.1l3.5 8.2ZM154.2 108.5a4.3 4.3 0 0 0-2.1-2.7s-.3-.2 0-.3a6 6 0 0 0 2.5-5.4c-.1-1.4-.2-3.1-1.2-4.3a7.1 7.1 0 0 0-5.2-2h-18v21h6.8v-7.2c3 0 6-.3 9 .2a2.2 2.2 0 0 1 1.4 1.7c.4 1.8-.1 3.5.1 5.3h7c-.1-2 .3-4.3-.3-6.3Zm-8.1-5.6c-3 .5-6 0-9 .3a39.5 39.5 0 0 1 .1-5c2.9.1 5.8-.1 8.8.3 2 .3 2.1 3.8.1 4.3Z"/></svg>