<svg xmlns="http://www.w3.org/2000/svg" viewBox="0 0 200 200" width="200" height="200"><path fill="#006fab" d="M72.4 111.4v17.7H179v-17.7ZM84 125.7h-2.7v-5H80v5h-2.7v-11.6H80v4.5h1.4v-4.5H84Zm22.4-9.4h-3.7v2.3h3.3v2.2h-3.3v2.7h3.7v2.2H100v-11.6h6.4Zm24.5 5.3c0 2.3-1.2 3-3.8 3v1.1h-2.6v-1c-2.7 0-4-.7-4-3v-3.6c0-2.4 1.2-3 4-3v-.9h2.6v1c2.7 0 3.8.5 3.8 2.9Zm20.8-5.3h-2v9.4H147v-9.4h-2.2v-2.2h6.8Zm22.6 6.4c0 2.6-1.1 3-4 3h-2.8v-11.6h2.7v4.5h.5c2.6 0 3.6.6 3.6 3Z"/><path fill="#006fab" d="M124.5 117.2v5.3h-.5c-.6 0-.8-.1-.8-.8V118c0-.7.2-.8.8-.8Zm3.8.8v3.7c0 .7-.2.8-.8.8h-.4v-5.3h.4c.6 0 .8 0 .8.8Zm43.3 3.6v1.4c0 .6-.2.8-.8.8h-.6v-3h.6c.6 0 .8.1.8.8ZM65.3 102.5v18.2a26.7 26.7 0 1 1-19.5-44.8v20a15 15 0 0 0-10.6 4.4 14.6 14.6 0 0 0-1.8 2.2 15 15 0 0 0 23 19v-.1a7.5 7.5 0 0 0-10.5-10.7v-8.3Z"/><path fill="#006fab" d="M62 66.5a44.3 44.3 0 0 0-6.3-13.8 48 48 0 0 0-5.6 12 43.7 43.7 0 0 0-1.5 17.4 48.4 48.4 0 0 0 3 11.2 38.5 38.5 0 0 0 4.3 7.7 42 42 0 0 0 7-18.1 40.8 40.8 0 0 0-.8-16.4Zm-6.3 32.7a19.4 19.4 0 0 1-2.1-8.7 18 18 0 0 1 2.2-8.7 19.6 19.6 0 0 1 2 8.3 18.4 18.4 0 0 1-2 9.1Zm5.8-20.7a38.4 38.4 0 0 1-.8 7.3 45.2 45.2 0 0 0-1-10.4 44.7 44.7 0 0 0-4-11 44.3 44.3 0 0 0-4 11 52.6 52.6 0 0 0-1 10.5 51 51 0 0 1-.6-10.2 45.3 45.3 0 0 1 1.5-9.1 51 51 0 0 1 4.2-10.1 45.3 45.3 0 0 1 4.3 10 44 44 0 0 1 1.5 12Zm110.9-2.7h6.7v26.7H174V85.7h-.2l-2.6 16.8H167l-2.7-16.8h-.2v16.8H159V75.8h6.7l3.3 18.7Zm-35 0h-8v26.7h5v-9h3c3.6 0 4.2-3 4.2-4.9v-8c0-2-.6-4.8-4.2-4.8Zm-.6 13.3c0 .9-.4 1.4-1 1.4h-1.3V79.1h1.3c.6 0 1 .5 1 1.3Zm-23-13.3h11.8v26.7h-4.7V79.1h-2.3v23.4h-4.8Zm-10.1 17.3v5a.8.8 0 1 0 1.6 0v-6.2c0-.8-.1-1.7-2-1.7H101v-3h2c1.6 0 2-.3 2-2V80a.8.8 0 0 0-.6-.9.8.8 0 0 0-.1 0 .8.8 0 0 0-.8.8.8.8 0 0 0 0 .1v4.3h-5.1v-3.6c0-1.9.2-4.8 3.8-4.8h4.2c3.6 0 3.8 2.9 3.8 4.8v4.2c0 3-2 3.7-3.5 3.6v.3c3.5 0 3.5 2.7 3.5 3.6v5.4c0 1.9-.2 4.8-3.8 4.8h-4.2c-3.6 0-3.8-3-3.8-4.8v-4.6Zm-10-17.3h-8L83 102.5h5l.5-7.1h2.4l.4 7h5Zm-5 16.7.8-13.4h.3l.9 13.4ZM72.4 75.8h9.8v3.3h-4.6v23.4h-5.2Zm79.9 0H148c-3.5 0-3.8 2.9-3.8 4.8v17.1c0 1.9.3 4.8 3.8 4.8h4.3c3.6 0 3.8-3 3.8-4.8V80.6c0-2-.2-4.8-3.8-4.8Zm-1 22.3a1.1 1.1 0 1 1-2.3 0v-18a1.1 1.1 0 0 1 1-1 1 1 0 0 1 1.3 1Z"/><path fill="#006fab" d="M172.4 75.8h6.7v26.7H174V85.7h-.2l-2.6 16.8H167l-2.7-16.8h-.2v16.8H159V75.8h6.7l3.3 18.7 3.3-18.7"/></svg>