<svg xmlns="http://www.w3.org/2000/svg" viewBox="0 0 200 250"><defs><style>.a{fill:#006fab}</style></defs><path d="M73.3 137.7v17.7H180v-17.7ZM85 152h-2.7v-5h-1.4v5h-2.7v-11.6h2.7v4.5h1.4v-4.5H85Zm22.4-9.4h-3.7v2.3h3.3v2.2h-3.3v2.7h3.7v2.2H101v-11.6h6.4Zm24.5 5.3c0 2.3-1.2 3-3.8 3v1.1h-2.6V151c-2.7 0-4-.7-4-3v-3.6c0-2.4 1.2-3 4-3v-.9h2.6v1c2.7 0 3.8.5 3.8 2.9Zm20.8-5.3h-2v9.4H148v-9.4h-2.2v-2.2h6.8Zm22.6 6.4c0 2.6-1.1 3-4 3h-2.8v-11.6h2.7v4.5h.5c2.6 0 3.6.6 3.6 3Z" class="a"/><path d="M125.4 143.5v5.3h-.5c-.6 0-.8-.1-.8-.8v-3.7c0-.7.2-.8.8-.8ZM129.2 144.3v3.7c0 .7-.2.8-.8.8h-.4v-5.3h.4c.6 0 .8 0 .8.8ZM172.5 147.9v1.4c0 .6-.2.8-.8.8h-.6v-3h.6c.6 0 .8.1.8.8ZM66.2 128.8V147a26.7 26.7 0 1 1-19.5-44.8v20a15 15 0 0 0-10.6 4.4 14.6 14.6 0 0 0-1.8 2.2 15 15 0 0 0 23 19v-.1A7.5 7.5 0 0 0 46.8 137v-8.3Z" class="a"/><path d="M62.9 92.8A44.3 44.3 0 0 0 56.6 79 48 48 0 0 0 51 91a43.7 43.7 0 0 0-1.5 17.4 48.4 48.4 0 0 0 3 11.2 38.5 38.5 0 0 0 4.3 7.7 42 42 0 0 0 7-18.1 40.8 40.8 0 0 0-.8-16.4Zm-6.3 32.7a19.4 19.4 0 0 1-2.1-8.7 18 18 0 0 1 2.2-8.7 19.6 19.6 0 0 1 2 8.3 18.4 18.4 0 0 1-2 9.1Zm5.8-20.7a38.4 38.4 0 0 1-.8 7.3 45.2 45.2 0 0 0-.9-10.4 44.7 44.7 0 0 0-4.1-11 44.3 44.3 0 0 0-4 11 52.6 52.6 0 0 0-1 10.5A51 51 0 0 1 51 102a45.3 45.3 0 0 1 1.5-9.1 51 51 0 0 1 4.2-10.1 45.3 45.3 0 0 1 4.3 10 44 44 0 0 1 1.5 12ZM173.3 102.1h6.7v26.7h-5.1V112h-.2l-2.6 16.8H168l-2.7-16.8h-.2v16.8H160v-26.7h6.7l3.3 18.7 3.3-18.7zM138.3 102.1h-8v26.7h5v-9h3c3.6 0 4.2-3 4.2-4.9v-8c0-2-.6-4.8-4.2-4.8Zm-.6 13.3c0 .9-.4 1.4-1 1.4h-1.3v-11.4h1.3c.6 0 1 .5 1 1.3ZM114.7 102.1h11.8v26.7h-4.7v-23.4h-2.3v23.4h-4.8v-26.7zM104.6 119.4v5a.8.8 0 0 0 .8 1 .8.8 0 0 0 .8-1v-6.2c0-.8-.1-1.7-2-1.7H102v-3h2.1c1.5 0 2-.3 2-2v-5.2a.8.8 0 0 0-.8-.9.8.8 0 0 0-.8.9v4.3h-5.1V107c0-1.9.2-4.8 3.8-4.8h4.2c3.6 0 3.8 2.9 3.8 4.8v4.2c0 3-2 3.7-3.5 3.6v.3c3.5 0 3.5 2.7 3.5 3.6v5.4c0 1.9-.2 4.8-3.8 4.8h-4.2c-3.6 0-3.8-3-3.8-4.8v-4.6ZM94.6 102.1h-8l-2.7 26.7h5l.5-7.1h2.4l.4 7h5Zm-5 16.7.8-13.4h.3l.9 13.4ZM73.3 102.1h9.8v3.3h-4.6v23.4h-5.2v-26.7zM153.2 102.1h-4.3c-3.5 0-3.8 2.9-3.8 4.8V124c0 1.9.3 4.8 3.8 4.8h4.3c3.6 0 3.8-3 3.8-4.8v-17.1c0-2-.2-4.8-3.8-4.8Zm-1 22.3a1.1 1.1 0 0 1-2.3 0v-18a1.1 1.1 0 0 1 1.1-1 1 1 0 0 1 1.2 1Z" class="a"/><path d="M173.3 102.1h6.7v26.7h-5.1V112h-.2l-2.6 16.8H168l-2.7-16.8h-.2v16.8H160v-26.7h6.7l3.3 18.7 3.3-18.7" class="a"/></svg>