<svg xmlns="http://www.w3.org/2000/svg" viewBox="0 0 200 250"><path fill="#2d4f9e" d="M67 120v9h4.2V109H67v7.6H59V109h-4.2V129H59v-9Zm17.8 1.5 6.7-12.6h-4.7l-4 8.8-4.2-8.8h-5l7 12.5v7.7h4.2Zm25.4-12.6H106v13.3c0 2.4-1.1 3.8-4 3.8-2 0-3.6-1.2-3.6-4v-13.1H94v13.4a7.4 7.4 0 0 0 1.5 4.8 8.6 8.6 0 0 0 6.4 2.5c5.1 0 8.3-2.3 8.3-7.6V109Zm16.5 14-8-14h-4.5V129h3.9v-14.4l8.3 14.4h4.2v-20.2h-4v14Zm8 6.2h8.7c6.7 0 8.4-6.3 8.4-10.6 0-3.8-1.4-9.6-8.2-9.6h-9Zm4-16.7h4.1c1.8 0 4.7.4 4.7 6.4 0 3.3-1.2 6.8-4.6 6.8h-4.1Zm19.4 12.5h7.4l1.3 4.2h4.6l-7-20.2h-5l-7.1 20.2h4.4l1.4-4.2Zm3.7-11.5 2.6 8h-5.2l2.6-8ZM178 109h-4.2V129h4.2Zm-117.6 26h-5.7v7.6h5.9v-1.3h-4.3v-2H60v-1.4h-3.7v-1.6h4V135Zm5.9 5.3-3.1-5.3h-1.7v7.6H63v-5.4l3.1 5.4h1.7V135h-1.5Zm6.3-.5h1.8a1.9 1.9 0 0 1-1.9 1.7c-1 0-2.2-.6-2.2-2.7 0-2 1-2.7 2.2-2.7a1.7 1.7 0 0 1 1.7 1.2h1.6c-.1-1-1-2.5-3.4-2.5-2.6 0-3.7 2-3.7 4 0 2.7 1.6 4 3.5 4a2.8 2.8 0 0 0 2.4-1.1l.1 1h1.1v-4.2h-3.2v1.3Zm6-4.8h-1.7v7.6h1.6Zm5.8 5.3-3-5.3h-1.7v7.6H81v-5.4l3.2 5.4h1.6V135h-1.5v5.3Zm8.4-5.3h-5.6v7.6H93v-1.3h-4.3v-2h3.8v-1.4h-3.8v-1.6h4.1V135Zm6.8 0H94v7.6h5.8v-1.3h-4.2v-2h3.7v-1.4h-3.7v-1.6h4V135Zm1.2 7.6h1.6v-3h1.7c1.2 0 1.2.4 1.2 1.5a5.1 5.1 0 0 0 .2 1.5h1.8v-.2c-.4-.1-.4-.4-.4-1.5 0-1.4-.3-1.7-1-2a1.8 1.8 0 0 0 1.2-1.8 2.2 2.2 0 0 0-2.4-2.1h-3.9v7.6Zm1.6-4.3v-2h2c1 0 1.1.6 1.1 1 0 .7-.4 1-1.2 1Zm7.4-3.3H108v7.6h1.7Zm5.8 5.3-3-5.3h-1.7v7.6h1.5v-5.4l3.1 5.4h1.6V135h-1.5v5.3Zm6.4-.5h1.8a1.9 1.9 0 0 1-1.9 1.7c-1 0-2.2-.6-2.2-2.7 0-2 1-2.7 2.2-2.7a1.7 1.7 0 0 1 1.7 1.2h1.6c-.1-1-1-2.5-3.4-2.5-2.6 0-3.7 2-3.7 4 0 2.7 1.6 4 3.5 4a2.8 2.8 0 0 0 2.4-1.1l.1 1h1.1v-4.2H122v1.3Zm13.9-2.3a3 3 0 0 0-3.3-2.7c-2 0-3.5 1.3-3.5 4s1.4 4 3.5 4a3.2 3.2 0 0 0 3.3-2.8h-1.6a1.6 1.6 0 0 1-1.7 1.4c-1.4 0-2-1.2-2-2.6 0-2.1 1.2-2.7 2-2.7a1.6 1.6 0 0 1 1.7 1.4h1.6Zm1 1.3c0 3.6 2.7 4 3.7 4s3.7-.4 3.7-4-2.7-4-3.7-4-3.7.4-3.7 4Zm1.6 0c0-2.2 1.2-2.7 2.1-2.7.9 0 2 .5 2 2.7s-1.1 2.7-2 2.7c-.9 0-2-.6-2-2.7Zm8.8 2.3h-1.6v1.5h1.6Zm3.5 0h-1.6v1.5h1a1.2 1.2 0 0 1-1 1.3v.5a1.8 1.8 0 0 0 1.6-2Zm6.5-6.1h-1.6v7.6h5.4v-1.4h-3.8V135Zm7.9 1.3h2.3V135h-6.3v1.3h2.4v6.3h1.6Zm3.4 6.3h3.3c2.5 0 3.2-2.3 3.2-4 0-1.4-.6-3.6-3.1-3.6h-3.4v7.6Zm1.5-6.3h1.6c.7 0 1.7.2 1.7 2.4 0 1.3-.4 2.6-1.7 2.6h-1.6Zm7 4.8h-1.5v1.5h1.6Z"/><path fill="#ecb731" d="M18 129.4 31.5 105l14.2 24.4Z"/><path fill="#33a457" d="M21.4 129.4 35 105l14.3 24.4Z"/></svg>