<svg xmlns="http://www.w3.org/2000/svg" viewBox="0 0 200 200" width="200" height="200"><path d="M101 51.9a29.3 29.3 0 0 1-1.6 13.9l.4.2h.3a21 21 0 0 1 19.4 29l10.7 9.9A35 35 0 0 0 101 51.8Zm-14.3 2.6a35 35 0 0 0-2.1 63.8v-17.2a21 21 0 0 1-3.4-4.8c-2.4-4.2-4-10.8-4-17.8.1-8.7 2.4-18 9.5-24Z"/><path d="M86.7 99.3c-7-8-7.4-17-5.4-22.1C85 67.5 98.4 63 100.4 48.6c.6 36-17.2 23.7-13.7 50.7Z" fill="#a7a09a"/><path d="M79.2 77C78.1 54.8 96.5 57.5 99 38.5c3.2 23-17.3 25.4-19.7 38.5Z" fill="#a7a09a"/><path d="M86.7 97.6c-7-8-7.4-17-5.4-22.2 3.7-9.6 17.1-14 19.1-28.5.6 36-17.2 23.7-13.7 50.7Z" fill="#02aef0"/><path fill="#90d6f7" d="M79.2 75.3C78.1 53.1 96.5 55.8 99 36.8c3.2 23-17.3 25.4-19.7 38.5Z"/><path d="M91.3 104.9a2.2 2.2 0 1 1 0-.1v.1Zm0 5.7a2.2 2.2 0 1 1 0-.1v.1Zm0 5.7a2.2 2.2 0 1 1 0-.2v.2Zm5.7-11.4a2.2 2.2 0 1 1 0-.1Zm0 5.7a2.2 2.2 0 1 1 0-.1v.1Zm0 5.7a2.2 2.2 0 1 1 0-.2v.2Zm5.7-11.4a2.2 2.2 0 1 1 0-.1v.1Zm0 5.7a2.2 2.2 0 1 1 0-.1v.1Zm0 5.7a2.2 2.2 0 1 1 0-.2v.2Zm5.6-11.4a2.2 2.2 0 1 1-2.2-2.2 2.2 2.2 0 0 1 2.2 2.2Zm0 5.7a2.2 2.2 0 1 1-2.2-2.2 2.2 2.2 0 0 1 2.2 2.2Zm0 5.7a2.2 2.2 0 1 1 0-.1v.1Zm5.7-11.4a2.2 2.2 0 1 1-2.2-2.2 2.2 2.2 0 0 1 2.2 2.2Zm0 5.7a2.2 2.2 0 1 1-2.2-2.2 2.2 2.2 0 0 1 2.2 2.2Zm0 5.7a2.2 2.2 0 1 1 0-.1v.1Zm5.7-11.4a2.2 2.2 0 1 1-2.2-2.2 2.2 2.2 0 0 1 2.2 2.2Zm0 5.7a2.2 2.2 0 1 1-2.2-2.2 2.2 2.2 0 0 1 2.2 2.2Zm0 5.7a2.2 2.2 0 1 1 0-.1v.1Zm0-17.1a2.2 2.2 0 1 1-2.2-2.2 2.2 2.2 0 0 1 2.2 2.2Zm0 22.8a2.2 2.2 0 1 1 0-.1v.1Zm5.7-17.1a2.2 2.2 0 1 1-2.2-2.2 2.2 2.2 0 0 1 2.2 2.2Zm0 5.7a2.2 2.2 0 1 1-2.2-2.2 2.2 2.2 0 0 1 2.2 2.2Zm0 5.7a2.2 2.2 0 1 1 0-.1v.1Zm5.7-5.7a2.2 2.2 0 1 1-2.2-2.2 2.2 2.2 0 0 1 2.2 2.2Z" fill="#a7a09a"/><path d="M91.3 104.1a2.2 2.2 0 1 1 0-.2v.2Zm0 5.7a2.2 2.2 0 1 1 0-.2v.1Zm0 5.6a2.2 2.2 0 1 1 0-.1v.1Zm5.7-11.3a2.2 2.2 0 1 1 0-.2v.2Zm0 5.7a2.2 2.2 0 1 1 0-.2v.1Zm0 5.6a2.2 2.2 0 1 1 0-.1v.1Zm5.7-11.3a2.2 2.2 0 1 1 0-.2v.2Zm0 5.7a2.2 2.2 0 1 1 0-.2v.1Zm0 5.6a2.2 2.2 0 1 1 0-.1v.1Zm5.6-11.3a2.2 2.2 0 1 1 0-.1v.1Zm0 5.7a2.3 2.3 0 1 1 0-.1Zm0 5.6a2.2 2.2 0 1 1-2.2-2.2 2.2 2.2 0 0 1 2.2 2.2Zm5.7-11.3a2.2 2.2 0 1 1 0-.1v.1Zm0 5.7a2.3 2.3 0 1 1 0-.1Zm0 5.6a2.2 2.2 0 1 1-2.2-2.2 2.2 2.2 0 0 1 2.2 2.2Zm5.7-11.3a2.2 2.2 0 1 1 0-.1v.1Zm0 5.7a2.3 2.3 0 1 1 0-.1Zm0 5.6a2.2 2.2 0 1 1-2.2-2.2 2.2 2.2 0 0 1 2.2 2.2Zm0-17a2.2 2.2 0 1 1 0-.1v.1Zm0 22.7a2.2 2.2 0 1 1-2.2-2.2 2.2 2.2 0 0 1 2.2 2.2Zm5.7-17a2.2 2.2 0 1 1 0-.1v.1Zm0 5.7a2.3 2.3 0 1 1 0-.1Zm0 5.6a2.2 2.2 0 1 1-2.2-2.2 2.2 2.2 0 0 1 2.2 2.2Zm5.7-5.6a2.3 2.3 0 1 1 0-.1Z" fill="#02aef0"/><path d="M99.8 68.3c-1 8.3-9.4 13.9-9.3 22 0 4.1 3.5 10.6 10.6 10.4a11.3 11.3 0 0 0 8.7-4c3.5-4.5 2.4-10.4.1-15.2-2.6-5-7-9-10.1-13.2Z"/><path fill="#fff" d="M104.1 79.1c-.2 1.6-1.8 2.7-1.8 4.3a2 2 0 0 0 2 2 2.2 2.2 0 0 0 1.8-.7 2.8 2.8 0 0 0 0-3 19.6 19.6 0 0 0-2-2.6Z"/><path d="M98 137.1 94.3 148v.6h3v2.6h-3v2.5h-4.8v-2.5h-2.8v-2.6h2.8v-.6l-4.2-10.9H90l2 6 1.8-6M21 133.2h5.4v5.8l3.7-5.8h6l-4.6 6.7 3.8 5.6h1.6v4.2h-4.5v-1.8h-1.9l-4-6v6H21v-14.7m43-.3h7.2l2.7 9.2 2.8-9.2h7.2v15h-4.5v-11.4L76 147.9h-4l-3.5-11.4v11.4H64v-15m35.7 4.2h4.5v3.6h3v-3.6h4.4v10.7h-4.5v-4.5h-2.9v4.5h-4.5v-10.6m39.5-.1v10.7h-3.7v-5.6l-3.8 5.6h-3.9v-10.6h3.8v5.7l3.7-5.7h3.9m-9.6-4.9h1.7a1.6 1.6 0 0 0 .7 1.1 3.2 3.2 0 0 0 3.1 0 1.6 1.6 0 0 0 .7-1.1h1.6a3 3 0 0 1-1 2.3 5.4 5.4 0 0 1-5.7 0 3 3 0 0 1-1-2.3m12.3 15.4v-14.6h12v3.8h-6.5v10.8h-5.6m29.1-6.6h1.8c2.3-.2 2.3-2 0-2a10.3 10.3 0 0 0-3.5.7v-2.5a26.4 26.4 0 0 1 5.2-.4c2.1 0 5 .2 5.2 2.8q0 1.8-2.3 2.3 2.6.6 2.6 2.7c-.1 2.8-3 3-5.3 3.3a16.5 16.5 0 0 1-5.4-.6v-3a8.4 8.4 0 0 0 4 .8c2.2-.4 2-1.7-.1-2H171v-2m-9.7-4.4a23.6 23.6 0 0 0-4.8.6v2.6a9.8 9.8 0 0 1 4.2-.9c1.1 0 2.8.4 2.8 1.8h-2.2a8.8 8.8 0 0 0-4.4 1 3 3 0 0 0-1.4 2.6 3.1 3.1 0 0 0 1.1 2.5 4.4 4.4 0 0 0 3 1 5.4 5.4 0 0 0 2.2-.5 4.7 4.7 0 0 0 1.7-1.4v1.6h4.3v-6a4.4 4.4 0 0 0-1.4-3.7 9.8 9.8 0 0 0-5-1.1Zm2.2 6.1a2.7 2.7 0 0 1-.8 2c-1.2.8-2.2.5-2.4-.7.2-1.4 1.5-1.4 3.2-1.3Zm-110.2-1.8H55c2.3-.2 2.3-2 0-2a10.3 10.3 0 0 0-3.5.7v-2.5a26.4 26.4 0 0 1 5.2-.4c2.1 0 5 .2 5.2 2.8q0 1.8-2.3 2.3 2.6.6 2.6 2.7c-.1 2.8-3 3-5.3 3.3a16.5 16.5 0 0 1-5.4-.6v-3a8.4 8.4 0 0 0 4 .8c2.2-.4 2-1.7-.1-2h-2.2v-2m-9.6-4.4a23.6 23.6 0 0 0-4.8.6v2.6a9.8 9.8 0 0 1 4.2-.9c1.1 0 2.8.4 2.8 1.8h-2.2a8.8 8.8 0 0 0-4.4 1 3 3 0 0 0-1.4 2.6 3.1 3.1 0 0 0 1.1 2.5 4.4 4.4 0 0 0 3 1 5.4 5.4 0 0 0 2.2-.5 4.7 4.7 0 0 0 1.7-1.4v1.6h4.3v-6a4.4 4.4 0 0 0-1.4-3.7 9.8 9.8 0 0 0-5-1.1Zm2.2 6.1a2.7 2.7 0 0 1-.8 2c-1.2.8-2.2.5-2.4-.7.2-1.4 1.5-1.4 3.2-1.3Zm-25.3 8.2h1l1.2 2.3v-2.3h.9v3.4h-1l-1.3-2.3v2.3h-.8v-3.4m6.5 2.7h-1.3l-.3.6h-.9l1.3-3.4h1l1.3 3.4h-.8l-.3-.6m-1.1-.6h1l-.6-1.4-.4 1.4m2.7-2.2h3.2v.6h-1.1v2.8h-1v-2.8h-1v-.6m4 0h.8v3.4h-.8V151m3.6.6a.7.7 0 0 0-.6.3 1.7 1.7 0 0 0 0 1.7.8.8 0 0 0 1.3 0 1.7 1.7 0 0 0 0-1.7.7.7 0 0 0-.7-.3m0-.6a1.7 1.7 0 0 1 1.3.4 1.9 1.9 0 1 1-2.6 0 1.7 1.7 0 0 1 1.3-.4m3 0h1l1.3 2.3V151h.9v3.4h-1l-1.3-2.4v2.4h-.8V151m6.5 2.8h-1.4l-.2.6h-.9l1.3-3.4h1l1.3 3.4h-1l-.2-.6m-1.2-.7h1l-.5-1.3-.5 1.3m3.3-2.1h.9v2.7h1.5v.7H48V151m10.4 3.2a1.4 1.4 0 0 1-1 .2 1.9 1.9 0 0 1-1.4-.4 2 2 0 0 1 0-2.6 1.9 1.9 0 0 1 1.4-.5 2.3 2.3 0 0 1 .5 0 2.3 2.3 0 0 1 .5.3v.7a2 2 0 0 0-.5-.3 1.6 1.6 0 0 0-.5 0 1 1 0 0 0-.7.3 1.4 1.4 0 0 0 0 1.6 1 1 0 0 0 .7.3 1.6 1.6 0 0 0 .5 0 2 2 0 0 0 .5-.3v.7m2.6-2.4a.7.7 0 0 0-.6.3 1.7 1.7 0 0 0 0 1.7.8.8 0 0 0 1.3 0 1.7 1.7 0 0 0 0-1.7.7.7 0 0 0-.7-.3m0-.6a1.7 1.7 0 0 1 1.3.4 1.9 1.9 0 1 1-2.6 0 1.7 1.7 0 0 1 1.3-.4m3 0h1.1l.8 1.8.8-1.8h1.1v3.4H67v-2.5l-.8 1.8h-.6l-.8-1.8v2.5H64v-3.4m5 0h1.5a1.5 1.5 0 0 1 1 .3 1.2 1.2 0 0 1 0 1.6 1.5 1.5 0 0 1-1 .3H70v1.2h-1v-3.4m1 .6v1h.4a.6.6 0 0 0 .4-.2.5.5 0 0 0 .2-.3.4.4 0 0 0-.2-.4.6.6 0 0 0-.4 0H70m5 2h-1.3l-.2.7h-1l1.4-3.4h1l1.3 3.4h-1l-.1-.6m-1.2-.6h1l-.5-1.4-.5 1.4m3.2-2.2h1l1.3 2.3v-2.3h.8v3.4h-1l-1.2-2.3v2.3h-1v-3.4m4 0h1l.8 1.2.7-1.2h1l-1.3 2v1.4h-.9v-1.4l-1.3-2m22.6-.1-1.3 2v.4h.5v.4h-.5v.6h-.9v-.6h-.5v-.4h.5v-.4l-1.3-2h1l.7 1.2.8-1.2h1m1 3.4v-.7q.6 0 .7-.4a7.2 7.2 0 0 0 .1-1.7v-.6h2.4v3.4h-.8v-2.8h-.7v.2a5.6 5.6 0 0 1-.2 1.9q-.3.6-1.5.7m9-3.4h3.2v.6h-1.1v2.8h-.9v-2.8h-1.1v-.6m5.7 2.8a.6.6 0 0 0 .4-.1.4.4 0 0 0 0-.3.4.4 0 0 0 0-.4.6.6 0 0 0-.4 0h-.6v.8h.6m1.4-.5a1 1 0 0 1-.4.8 1.7 1.7 0 0 1-1 .3H118v-3.4h.8v1.3h.6a1.7 1.7 0 0 1 1 .2 1 1 0 0 1 .4.8m.3-2.3h.9v3.4h-1v-3.4m2.9 0h.8v1.4l1.4-1.4h1l-1.3 1.4 1 1.3h.4v1.4h-.9v-.7l-1.1-1.5-.5.5v1h-.8v-3.4m6.9 0h.9v1.4l1.3-1.4h1l-1.3 1.4 1.4 2h-1l-1-1.5-.4.5v1h-1v-3.4m6.7.6a.7.7 0 0 0-.6.3 1.7 1.7 0 0 0 0 1.7.8.8 0 0 0 1.2 0 1.7 1.7 0 0 0 0-1.7.7.7 0 0 0-.6-.3m0-.6a1.7 1.7 0 0 1 1.3.4 1.9 1.9 0 1 1-2.6 0 1.7 1.7 0 0 1 1.3-.4m3.9 0h1.1l.8 1.8.8-1.8h1.1v3.4h-.8V152l-.8 1.8h-.6l-.8-1.8v2.5h-.8v-3.4m8.8 0v3.4h-.9v-2.8H148v2.8h-.9v-3.4h3.1m4.1 2.8h-1.4l-.2.6h-.9l1.3-3.4h1l1.3 3.4h-.9l-.2-.6m-1.2-.7h1l-.5-1.3-.5 1.3m4-2.1h.8v1.3h1.3v-1.3h1v3.4h-1V153h-1.3v1.5h-.8v-3.4m8 0v3.4h-.8v-2.4l-1.3 2.4h-1v-3.4h.9v2.3l1.2-2.3h1m2.9 1a.4.4 0 0 0 0 .4.6.6 0 0 0 .5 0h.4v-.8h-.4a.6.6 0 0 0-.4.1.4.4 0 0 0-.1.3m-1 2.4.8-1.5a2.4 2.4 0 0 1-.5-.3.8.8 0 0 1-.2-.6 1 1 0 0 1 .3-.8 1.6 1.6 0 0 1 1-.2h1.4v3.4h-.9v-1.3h-.3l-.7 1.3h-1m7.4-.2a1.4 1.4 0 0 1-1 .2 1.9 1.9 0 0 1-1.4-.4 2 2 0 0 1 0-2.6 1.9 1.9 0 0 1 1.4-.5 1 1 0 0 1 1 .3v.7a2 2 0 0 0-.5-.3 1.6 1.6 0 0 0-.5 0 1 1 0 0 0-.7.3 1.4 1.4 0 0 0 0 1.6 1 1 0 0 0 .7.3 1.6 1.6 0 0 0 .5 0 2 2 0 0 0 .5-.3v.7m3-.4a.6.6 0 0 0 .4-.1.5.5 0 0 0 0-.6.6.6 0 0 0-.4-.2h-.5v.9h.5m1.4-.5a1 1 0 0 1-.3.8 1.7 1.7 0 0 1-1 .3h-1.5v-3.4h.9v1.3h.5a1.7 1.7 0 0 1 1 .2 1 1 0 0 1 .4.8m.3-2.3h.9v3.4h-.9v-3.4m-69.6 0h3.2v.6h-1.1v2.8h-1v-2.8h-1v-.6m9.9-14.3a23.6 23.6 0 0 0-4.8.6v2.6a9.8 9.8 0 0 1 4.1-.9c1.2 0 2.9.4 2.9 1.8h-2.2a8.8 8.8 0 0 0-4.4 1 3 3 0 0 0-1.4 2.6 3.1 3.1 0 0 0 1.1 2.5 4.4 4.4 0 0 0 3 1 5.4 5.4 0 0 0 2.2-.5 4.7 4.7 0 0 0 1.7-1.4v1.6h4.3v-6a4.4 4.4 0 0 0-1.4-3.7 9.8 9.8 0 0 0-5-1.1Zm2.2 6.1a2.7 2.7 0 0 1-.9 2c-1.1.8-2.2.5-2.3-.7.2-1.4 1.5-1.4 3.2-1.3Z" fill="#a7a09a"/><path d="m97.5 136.6-3.7 10.9v.6h3v2.6h-3v2.5H89v-2.5h-2.8v-2.6H89v-.6l-4.2-10.9h4.7l2 6 1.8-6"/><path d="M20.5 132.7h5.4v5.8l3.6-5.8h6l-4.5 6.7 3.8 5.6h1.6v4.2h-4.5v-1.8H30l-4-6v6h-5.5v-14.6" fill="#02aef0"/><path d="M63.5 132.4h7.2l2.7 9.2 2.8-9.2h7.2v15h-4.5V136l-3.5 11.4h-4L67.9 136v11.4h-4.4v-15m35.7 4.2h4.5v3.5h3v-3.5h4.4v10.6h-4.5v-4.5h-2.9v4.5h-4.5v-10.6m39.5 0v10.6H135v-5.6l-3.8 5.6h-3.9v-10.6h3.8v5.7l3.7-5.7h3.9m-9.6-4.8h1.7a1.6 1.6 0 0 0 .7 1.1 3.2 3.2 0 0 0 3.1 0 1.6 1.6 0 0 0 .7-1.1h1.6a3 3 0 0 1-1 2.3 5.4 5.4 0 0 1-5.7 0 3 3 0 0 1-1-2.3"/><path d="M141.4 147.2v-14.6h12v3.8H147v10.8h-5.6m29-6.6h2c2.2-.2 2.2-2-.1-2a10.3 10.3 0 0 0-3.5.7v-2.5a26.4 26.4 0 0 1 5.2-.4c2.1 0 5 .2 5.2 2.8q0 1.8-2.3 2.3 2.6.6 2.6 2.7c-.1 2.8-3 3-5.3 3.2a16.5 16.5 0 0 1-5.4-.5v-3a8.4 8.4 0 0 0 4 .8c2.2-.4 2-1.7-.1-2h-2.3v-2m-9.6-4.3a23.6 23.6 0 0 0-4.8.5v2.6a9.8 9.8 0 0 1 4.2-.9c1.1 0 2.8.4 2.8 1.8h-2.2a8.8 8.8 0 0 0-4.4 1 3 3 0 0 0-1.4 2.6 3.1 3.1 0 0 0 1.1 2.5 4.4 4.4 0 0 0 3 1 5.4 5.4 0 0 0 2.2-.5 4.7 4.7 0 0 0 1.7-1.4v1.6h4.3v-6a4.4 4.4 0 0 0-1.4-3.7 9.8 9.8 0 0 0-5-1.1Zm2.2 6a2.7 2.7 0 0 1-.8 2c-1.2.8-2.2.5-2.4-.7.2-1.4 1.5-1.4 3.2-1.3Zm-110.3-1.8h2c2.2-.2 2.2-2-.1-2a10.3 10.3 0 0 0-3.5.7v-2.5a26.4 26.4 0 0 1 5.2-.4c2.1 0 5 .2 5.2 2.8q0 1.8-2.3 2.3 2.6.6 2.6 2.7c-.1 2.8-3 3-5.3 3.2a16.5 16.5 0 0 1-5.4-.5v-3a8.4 8.4 0 0 0 4 .8c2.2-.4 2-1.7-.1-2h-2.3v-2m-9.6-4.3a23.6 23.6 0 0 0-4.8.5v2.6a9.8 9.8 0 0 1 4.1-.9c1.2 0 3 .4 3 1.8H43a8.8 8.8 0 0 0-4.4 1 3 3 0 0 0-1.4 2.6 3.1 3.1 0 0 0 1.1 2.5 4.4 4.4 0 0 0 3 1 5.4 5.4 0 0 0 2.2-.5 4.7 4.7 0 0 0 1.7-1.4v1.6h4.3v-6a4.4 4.4 0 0 0-1.4-3.7 9.8 9.8 0 0 0-5-1.1Zm2.2 6a2.7 2.7 0 0 1-.8 2c-1.2.8-2.2.5-2.4-.7.2-1.4 1.5-1.4 3.2-1.3Z" fill="#02aef0"/><path d="M20 150.6h1l1.2 2.3v-2.3h.9v3.4h-1l-1.3-2.3v2.3H20v-3.4m6.5 2.8h-1.4l-.2.6H24l1.3-3.4h1l1.3 3.4h-.9l-.2-.6m-1.1-.7h1l-.6-1.3-.4 1.3m2.7-2.1h3.2v.6h-1.1v2.8h-1v-2.8h-1v-.6m4 0h.8v3.4h-.8v-3.4m3.6.6a.7.7 0 0 0-.6.3 1.7 1.7 0 0 0 0 1.7.8.8 0 0 0 1.3 0 1.7 1.7 0 0 0 0-1.7.7.7 0 0 0-.7-.3m0-.6a1.7 1.7 0 0 1 1.3.4 1.9 1.9 0 1 1-2.6 0 1.7 1.7 0 0 1 1.3-.4m3 0h1l1.3 2.3v-2.3h.9v3.4h-1l-1.3-2.4v2.4H39v-3.4m6.5 2.8H44l-.2.6h-1l1.4-3.4h1l1.3 3.4h-.9l-.2-.6m-1.2-.7h1l-.5-1.3-.5 1.3m3.3-2.1h.9v2.7h1.5v.7h-2.4v-3.4m10.4 3.2a1.4 1.4 0 0 1-1 .2 1.9 1.9 0 0 1-1.4-.4 2 2 0 0 1 0-2.6 1.9 1.9 0 0 1 1.4-.5 2.3 2.3 0 0 1 .5 0 2.3 2.3 0 0 1 .5.3v.7a2 2 0 0 0-.5-.3 1.6 1.6 0 0 0-.5 0 1 1 0 0 0-.7.3 1.4 1.4 0 0 0 0 1.6 1 1 0 0 0 .7.3 1.6 1.6 0 0 0 .5 0 2 2 0 0 0 .5-.3v.7m2.6-2.6a.7.7 0 0 0-.6.3 1.7 1.7 0 0 0 0 1.7.8.8 0 0 0 1.3 0 1.7 1.7 0 0 0 0-1.7.7.7 0 0 0-.7-.3m0-.6a1.7 1.7 0 0 1 1.3.4 1.9 1.9 0 1 1-2.6 0 1.7 1.7 0 0 1 1.3-.4m3 0h1.1l.8 1.8.8-1.8h1.1v3.4h-.8v-2.5l-.8 1.8H65l-.8-1.8v2.5h-.8v-3.4m5 0H70a1.5 1.5 0 0 1 1 .3 1.2 1.2 0 0 1 0 1.6 1.5 1.5 0 0 1-1 .3h-.6v1.2h-.9v-3.4m1 .6v1h.4a.6.6 0 0 0 .4-.2.5.5 0 0 0 .2-.3.4.4 0 0 0-.2-.4.6.6 0 0 0-.4 0h-.5m5 2h-1.3l-.2.7h-1l1.3-3.4h1.1l1.3 3.4h-1l-.1-.6m-1.2-.7h1l-.5-1.3-.5 1.3m3.2-2.1h1l1.3 2.3v-2.3h.8v3.4h-1l-1.2-2.3v2.3h-.9v-3.4m4 0h1l.8 1.2.7-1.2h1l-1.3 2v1.4h-.9v-1.4l-1.3-2m22.5 0-1.2 2v.4h.5v.4h-.5v.6h-1v-.6h-.4v-.4h.5v-.4l-1.3-2h1l.7 1.2.8-1.2h1m1 3.4v-.7q.6 0 .7-.4a7.2 7.2 0 0 0 .1-1.7v-.6h2.4v3.4h-.8v-2.8h-.7v.2a5.6 5.6 0 0 1-.2 1.9q-.3.6-1.5.7m9-3.4h3.2v.6h-1.1v2.8h-.9v-2.8h-1.1v-.6m5.7 2.8a.6.6 0 0 0 .4-.1.4.4 0 0 0 0-.3.4.4 0 0 0 0-.4.6.6 0 0 0-.4 0h-.6v.8h.6m1.4-.5a1 1 0 0 1-.4.8 1.7 1.7 0 0 1-1 .3h-1.5v-3.4h1v1.3h.5a1.7 1.7 0 0 1 1 .2 1 1 0 0 1 .4.8m.3-2.3h.9v3.4h-1v-3.4m2.9 0h.8v1.4l1.4-1.4h1l-1.3 1.4 1 1.3h.4v1.4h-.9v-.7l-1.1-1.5-.5.5v1h-.8v-3.4m6.9 0h.9v1.4l1.3-1.4h1l-1.3 1.4 1.4 2h-1l-1-1.5-.4.5v1h-1v-3.4m6.7.6a.7.7 0 0 0-.6.3 1.7 1.7 0 0 0 0 1.7.8.8 0 0 0 1.2 0 1.7 1.7 0 0 0 0-1.7.7.7 0 0 0-.6-.3m0-.6a1.7 1.7 0 0 1 1.3.4 1.9 1.9 0 1 1-2.6 0 1.7 1.7 0 0 1 1.3-.4m3.9 0h1.1l.8 1.8.8-1.8h1v3.4h-.7v-2.5l-.8 1.8h-.6l-.8-1.8v2.5h-.8v-3.4m8.8 0v3.4h-.9v-2.8h-1.3v2.8h-.9v-3.4h3m4.2 2.8h-1.4l-.2.6h-.9l1.3-3.4h1l1.3 3.4h-.9l-.2-.6m-1.2-.7h1l-.5-1.3-.5 1.3m4-2.1h.8v1.3h1.3v-1.3h1v3.4h-1v-1.5h-1.3v1.5h-.8v-3.4m8 0v3.4h-.8v-2.4l-1.3 2.4h-1v-3.4h.9v2.3l1.2-2.3h1m2.9 1a.4.4 0 0 0 0 .4.6.6 0 0 0 .5 0h.4v-.8h-.4a.6.6 0 0 0-.4.1.4.4 0 0 0-.1.3m-1 2.4.8-1.5a2.4 2.4 0 0 1-.5-.3.8.8 0 0 1-.2-.6 1 1 0 0 1 .3-.8 1.6 1.6 0 0 1 1-.2h1.4v3.4h-.9v-1.3h-.3l-.7 1.3h-1m7.4-.2a1.4 1.4 0 0 1-1 .2 1.9 1.9 0 0 1-1.4-.4 2 2 0 0 1 0-2.6 1.9 1.9 0 0 1 1.4-.5 1 1 0 0 1 1 .3v.7a2 2 0 0 0-.5-.3 1.6 1.6 0 0 0-.5 0 1 1 0 0 0-.7.2 1.4 1.4 0 0 0 0 1.7 1 1 0 0 0 .7.3 1.6 1.6 0 0 0 .5 0 2 2 0 0 0 .5-.3v.7m3-.4a.6.6 0 0 0 .4-.1.7.7 0 0 0 0-.7.6.6 0 0 0-.4 0h-.5v.8h.5m1.4-.5a1 1 0 0 1-.3.8 1.7 1.7 0 0 1-1 .3h-1.5v-3.4h.9v1.3h.5a1.7 1.7 0 0 1 1 .2 1 1 0 0 1 .4.8m.3-2.3h.9v3.4h-.9v-3.4m-69.4 0h3v.6h-1v2.8h-1v-2.8h-1v-.6m9.9-14.2a23.6 23.6 0 0 0-4.8.5v2.6a9.8 9.8 0 0 1 4.1-.9c1.2 0 2.9.4 2.9 1.8h-2.2a8.8 8.8 0 0 0-4.4 1 3 3 0 0 0-1.4 2.6 3.1 3.1 0 0 0 1.1 2.5 4.4 4.4 0 0 0 3 1 5.4 5.4 0 0 0 2.2-.5 4.7 4.7 0 0 0 1.7-1.4v1.6h4.3v-6a4.4 4.4 0 0 0-1.4-3.7 10 10 0 0 0-5.1-1.1Zm2.2 6a2.7 2.7 0 0 1-.9 2c-1.1.8-2.2.5-2.3-.7.2-1.4 1.5-1.4 3.2-1.3Z"/></svg>