<svg xmlns="http://www.w3.org/2000/svg" viewBox="0 0 200 200" width="200" height="200"><path fill="#ed1a3a" d="M153 35H47v106h106Z"/><path fill="#fff" d="M135.9 45.6a5.8 5.8 0 0 0-5.2 3.5l-13.4 22a16.1 16.1 0 0 0-1.6 5.8 8.7 8.7 0 0 0 .7 3.7L131 115H74.8a4 4 0 0 1-3.7-4V51.8a6.2 6.2 0 0 0-12.4.3l.3 63a12.1 12.1 0 0 0 11.8 12.4h76.7L129 79.7a6.2 6.2 0 0 1 .5-5.5l12.3-20a13.4 13.4 0 0 0 .5-2.7 6 6 0 0 0-6-6h-.3Zm-30.3 0a5.9 5.9 0 0 0-6 5.8v42.9c0 6.1-8.3 5.6-8.3 0V51.7c0-8-12-8-12 0v42.9c0 9.8 7.3 16.3 16 16.3 9 0 16.3-6.5 16.3-16.3V51.7a5.8 5.8 0 0 0-5.5-6.1h-.5Z"/><path d="M49.5 149.2v10.6c0 2.7-.2 4.2-2.4 4.2a2.8 2.8 0 0 1-1.1-.2v4.6a5.1 5.1 0 0 0 2 .3c6.1 0 6.4-4.6 6.4-7.2v-7.7h3.5v14.6h4.9v-19.2H49.5m14.9 0 6.7 13.9-2.5 5.3H74l7.9-19.2h-5.3l-2.9 8.1-3.3-8.1h-5.9m18.8 19.2H88v-8.3l5 8.3h6.3l-7-9.9 6.9-9.3h-5.9l-5.3 8.1v-8.1h-4.8v19.2"/><path d="M107.4 169c6.5 0 9.5-5 9.5-10.2 0-5-3-10-9.5-10-6.4 0-9.4 5-9.4 10 0 5.2 3 10.2 9.4 10.2Zm0-4.6c-2.2 0-4.4-1.9-4.4-5.6s2.2-5.5 4.4-5.5c2.3 0 4.5 1.8 4.5 5.5s-2.2 5.6-4.5 5.6m11.9-15.2v19.2h4.8l6.7-11.5v11.5h4.8v-19.2h-4.8l-6.7 11.5v-11.5Zm8.3-1a5 5 0 0 0 5-3l-2.9-1.2a2.1 2.1 0 0 1-2.1 1.6 2 2 0 0 1-2-1.6l-2.9 1.2a4.9 4.9 0 0 0 4.9 3m13.1 1v10.6c0 2.7-.3 4.2-2.4 4.2a2.8 2.8 0 0 1-1.1-.2v4.6a5.1 5.1 0 0 0 2 .3c6.1 0 6.4-4.6 6.4-7.2v-7.7h3.5v14.6h4.9v-19.2h-13.3"/></svg>