<svg xmlns="http://www.w3.org/2000/svg" viewBox="0 0 200 200" width="200" height="200"><defs><radialGradient id="a" cx="36.8" cy="-718.4" r="50.9" gradientTransform="matrix(.45 0 0 -.45 0 -236.3)" gradientUnits="userSpaceOnUse"><stop offset="0" stop-color="#fff"/><stop offset="0" stop-color="#f7f7f7"/><stop offset=".2" stop-color="#adadad"/><stop offset=".4" stop-color="#707070"/><stop offset=".6" stop-color="#3f3f3f"/><stop offset=".8" stop-color="#1d1d1d"/><stop offset=".9" stop-color="#080808"/><stop offset="1"/></radialGradient><radialGradient id="b" cx="47.8" cy="-733.4" r="46" gradientTransform="matrix(.45 0 0 -.45 0 -236.3)" gradientUnits="userSpaceOnUse"><stop offset="0" stop-color="#fed661"/><stop offset=".1" stop-color="#f9cc47"/><stop offset=".4" stop-color="#f1bb1c"/><stop offset=".6" stop-color="#eeb40c"/><stop offset=".6" stop-color="#e4ac0b"/><stop offset=".8" stop-color="#c29308"/><stop offset=".9" stop-color="#ad8307"/><stop offset="1" stop-color="#a57d06"/></radialGradient></defs><path d="M53.8 89.4h2.5v13.4h-2.5v-5.2h-4v5.2h-2.5V89.5H50v5.1h3.9Zm11 5.1h-4.6v1.7h2.4v2.5h-2.4v1.6h4.6v2.5h-7.2V92h7.2Zm28.2 0h-4.6v1.7h2.4v2.5h-2.4v1.6h4.7v2.5h-7.2V92H93Zm49.8 0h-4.6v1.7h2.4v2.5h-2.4v1.6h4.6v2.5h-7.2V92h7.2Zm-76.6-1.1h4v-1.9h2.3v1.8h4v8h-4v1.9h-2.4v-1.9h-4Zm2.3 6.2h1.6v-4.4h-1.6Zm4 0h1.6v-4.4h-1.6Zm4.9-7.6H85v2.7h-2.5v8.1H80v-8h-2.5Zm26.4-2.6-2.4 6.7 2.4 6.7H101l-1.8-5.5h-.9l-1.8 5.5h-2.9l2.4-6.7-2.4-6.7h2.9l1.8 5h.9l1.8-5Zm6.6 2.6h2.4v10.8h-2.4v-6.9l-3.8 6.9h-2.3V92h2.8v6Zm57.8 0h2.4v10.8h-2.4v-6.9l-3.8 6.9h-2.3V92h2.8v6Zm-47 0h2.8v10.8h-2.8v-6.4l-2.2 4-2.2-4v6.4h-2.7V92h2.8l2.1 4.3Zm13.1 1.3h-2.7V92h-3.3v8.1h3.3v-1.3h2.7v4h-9V89.4h9Zm45.7 2.4h-2.7v-1h-2.4v5.5h2.4v-1h2.7v3.6h-7.6V92h7.6ZM144.1 92h7.7v7.6h-5v3.2h-2.7Zm5.5 5.5v-3h-2.8v3Zm11.1-5.5v4.2l-1.2 1.2 1.2 1.3v4.1h-7.6V92Zm-2.3 2.3h-3v2h2.2l.8-1Zm0 6.1v-1l-.8-1h-2.2v2Z"/><path fill="url(#a)" d="M43.3 98.8c0 4-3.2 9.2-8 11a19.4 19.4 0 0 0 .2-2.4 11.2 11.2 0 0 0-.4-3.4 6.4 6.4 0 0 0-2-3 12.8 12.8 0 0 0-2.9-1.8c-2-1-4.2-1.6-5.8-2.8a5.6 5.6 0 0 1-1.8-2.3A10 10 0 0 1 22 92a20.1 20.1 0 0 1 3.2-4.5c3.5-3.7 6-6 12.1-8-2.1 2.2-2 3-2 3.7 0 2.9 8 6.2 8 15.6Z"/><path fill="url(#b)" d="M35 109.9a11.5 11.5 0 0 1-5.5.3 10.4 10.4 0 0 0-.3-3.3 5.7 5.7 0 0 0-1.3-2.5 9.2 9.2 0 0 0-2.2-1.5 13 13 0 0 1-4-2.8 8.3 8.3 0 0 1-1.4-3.9 11.2 11.2 0 0 1 .8-2.2l.6-1.5a8.4 8.4 0 0 0 .2 1.8 6 6 0 0 0 1.7 3 11.2 11.2 0 0 0 3 2l3 1.3a14 14 0 0 1 2.6 1.5 5.5 5.5 0 0 1 1.7 2.3 13.3 13.3 0 0 1 .8 3Zm-6.6-2.8a5 5 0 0 0-1.3-2 8.5 8.5 0 0 0-2-1.3l-2.1-1.3a7 7 0 0 1-2-2 6.2 6.2 0 0 1-.8-2.4l-.1-.7v1a.2.2 0 0 0-.1.1v.3a11.8 11.8 0 0 0 9 11.3 13.6 13.6 0 0 0-.6-3Z"/><path d="M49.1 108.8v-.5a4.2 4.2 0 0 0 .7 0 .8.8 0 0 0 .2-1.2.8.8 0 0 0-.5-.2 1 1 0 0 0-.9.8l-.7-.1a1.7 1.7 0 0 1 2.7-.9 1.2 1.2 0 0 1 .4 1 1 1 0 0 1-.5.8 1.2 1.2 0 0 1 .2 2.1 1.8 1.8 0 0 1-1.2.3 1.6 1.6 0 0 1-1.7-1.3l.7-.2a1.1 1.1 0 0 0 .4.7 1.2 1.2 0 0 0 1.3 0 .7.7 0 0 0 0-1 .7.7 0 0 0-.3-.2 3 3 0 0 0-.6 0H49Zm5.7 1.5a2.8 2.8 0 0 1-.8.5 2.3 2.3 0 0 1-.8.1 1.6 1.6 0 0 1-1.1-.3 1.1 1.1 0 0 1 .1-1.9 1.8 1.8 0 0 1 .6-.3 5.4 5.4 0 0 1 .6-.1 6.9 6.9 0 0 0 1.4-.3v-.2a.8.8 0 0 0-.2-.6 1.6 1.6 0 0 0-1.7-.1 1.1 1.1 0 0 0-.3.7l-.8-.1a1.8 1.8 0 0 1 .4-.8 1.4 1.4 0 0 1 .6-.4 3 3 0 0 1 1-.2 2.7 2.7 0 0 1 1 .2.9.9 0 0 1 .7.8 4.2 4.2 0 0 1 0 .7v1a10.5 10.5 0 0 0 0 1.3 1.7 1.7 0 0 0 .3.5H55a1.6 1.6 0 0 1-.2-.5Zm0-1.7a5.5 5.5 0 0 1-1.3.3 2.9 2.9 0 0 0-.6.2.6.6 0 0 0-.2 1.1 1 1 0 0 0 .7.2 1.5 1.5 0 0 0 .8-.2 1.2 1.2 0 0 0 .4-.6 1.8 1.8 0 0 0 .2-.7Zm1.8-2.1h.7v1.8a.7.7 0 0 0 .5-.1 3 3 0 0 0 .5-.8 3.2 3.2 0 0 1 .3-.7.7.7 0 0 1 .3-.2 2 2 0 0 1 .6 0h.2v.5h-.2a.6.6 0 0 0-.4.1 2.2 2.2 0 0 0-.3.6 2.3 2.3 0 0 1-.3.6 1.3 1.3 0 0 1-.4.3 1.8 1.8 0 0 1 1 .9l.7 1.3H59l-.8-1.3a1.9 1.9 0 0 0-.4-.6.7.7 0 0 0-.5-.1v2h-.7Zm3.6 6v-6h.7v.5a1.7 1.7 0 0 1 .6-.5 1.5 1.5 0 0 1 .7-.2 1.7 1.7 0 0 1 1 .3 1.8 1.8 0 0 1 .6.8 2.5 2.5 0 0 1 0 2.4 1.9 1.9 0 0 1-1.7 1.1 1.4 1.4 0 0 1-.6-.1 1.5 1.5 0 0 1-.5-.4v2.1Zm.7-3.8a2 2 0 0 0 .3 1.2 1.1 1.1 0 0 0 1.7 0 2.3 2.3 0 0 0 0-2.6 1 1 0 0 0-1.6.1 2 2 0 0 0-.4 1.3Zm4-2.2h.7v1.6h1a2.4 2.4 0 0 1 1.4.4 1.2 1.2 0 0 1 .5 1 1.3 1.3 0 0 1-.4 1 2 2 0 0 1-1.3.3h-2Zm.7 3.7h.8a2.2 2.2 0 0 0 1-.2.6.6 0 0 0 .3-.5.7.7 0 0 0-.2-.5 1.5 1.5 0 0 0-1-.2h-.9Zm3.5-3.8h.7v4.4h-.7Zm1.4.1H74v.5h-1.4v3.8h-.8V107h-1.4Zm3.8 2.1a2.3 2.3 0 0 1 .7-1.8 2.2 2.2 0 0 1 2.9.1 2.3 2.3 0 0 1 .6 1.7 3 3 0 0 1-.3 1.3 1.8 1.8 0 0 1-.7.8 2.2 2.2 0 0 1-1.1.2 2 2 0 0 1-1.5-.6 2.4 2.4 0 0 1-.6-1.7Zm.8 0a1.9 1.9 0 0 0 .4 1.3 1.2 1.2 0 0 0 1.8 0 2 2 0 0 0 .4-1.3 1.8 1.8 0 0 0-.4-1.2 1.2 1.2 0 0 0-1.8 0 1.9 1.9 0 0 0-.4 1.2Zm7.2.9h.7a1.9 1.9 0 0 1-.6 1 2.1 2.1 0 0 1-3.4-1.8 2.4 2.4 0 0 1 .6-1.8 2 2 0 0 1 1.5-.6 1.9 1.9 0 0 1 1.4.6 2.4 2.4 0 0 1 .6 1.7v.2h-3.3a1.7 1.7 0 0 0 .4 1.1 1.2 1.2 0 0 0 1 .4 1.1 1.1 0 0 0 .6-.2 1.4 1.4 0 0 0 .5-.7Zm-2.5-1.3h2.5a1.5 1.5 0 0 0-.3-.8 1.1 1.1 0 0 0-1-.5 1.2 1.2 0 0 0-.8.4 1.4 1.4 0 0 0-.4 1Zm9.2 2.1a2.8 2.8 0 0 1-.8.5 2.3 2.3 0 0 1-.8.1 1.6 1.6 0 0 1-1.1-.3 1.4 1.4 0 0 1 .1-1.9 1.8 1.8 0 0 1 .6-.3 5.4 5.4 0 0 1 .6-.1 6.9 6.9 0 0 0 1.4-.3v-.2a.8.8 0 0 0-.2-.6 1.6 1.6 0 0 0-1.7-.1 1.1 1.1 0 0 0-.3.7l-.8-.1a1.8 1.8 0 0 1 .4-.8 1.4 1.4 0 0 1 .6-.4 3 3 0 0 1 1-.2 2.7 2.7 0 0 1 1 .2.9.9 0 0 1 .7.8 4.2 4.2 0 0 1 0 .7v1a10.6 10.6 0 0 0 0 1.3 1.7 1.7 0 0 0 .3.5h-.8a1.6 1.6 0 0 1-.2-.5Zm0-1.7a5.5 5.5 0 0 1-1.2.3 2.9 2.9 0 0 0-.7.2.6.6 0 0 0-.2 1.1 1 1 0 0 0 .7.2 1.5 1.5 0 0 0 .8-.2 1.2 1.2 0 0 0 .5-.6 1.8 1.8 0 0 0 0-.7Zm1.8-2.1h.7v1.8a.7.7 0 0 0 .5-.1 3 3 0 0 0 .5-.8 3.2 3.2 0 0 1 .3-.7.7.7 0 0 1 .3-.2 2 2 0 0 1 .6 0h.2v.5h-.2a.6.6 0 0 0-.4.1 2.2 2.2 0 0 0-.3.6 2.3 2.3 0 0 1-.3.6 1.3 1.3 0 0 1-.4.3 1.8 1.8 0 0 1 1 .9l.7 1.3h-.8l-.8-1.3a1.9 1.9 0 0 0-.4-.6.7.7 0 0 0-.5-.1v2h-.7Zm3.6 0h.8v3.7h2v-3.7h.8v3.8h.5v1.9h-.6v-1.3h-3.5Zm4.8 0h.8v3.3l2-3.4h.8v4.4h-.7v-3.3l-2 3.3h-.9Zm4.4 2.1a2.3 2.3 0 0 1 .7-1.8 2.2 2.2 0 0 1 2.9.1 2.3 2.3 0 0 1 .5 1.7 3 3 0 0 1-.2 1.3 1.8 1.8 0 0 1-.8.8 2.2 2.2 0 0 1-1 .2 2 2 0 0 1-1.5-.6 2.4 2.4 0 0 1-.6-1.7Zm.8 0a1.9 1.9 0 0 0 .3 1.3 1.2 1.2 0 0 0 1.9 0 2 2 0 0 0 .4-1.3 1.8 1.8 0 0 0-.4-1.2 1.2 1.2 0 0 0-1.9 0 1.9 1.9 0 0 0-.3 1.2Zm4.1-2.1h.8v1.8h2v-1.9h.8v4.4h-.7v-2h-2.1v2h-.8Zm7.7 3h.7a1.9 1.9 0 0 1-.6 1 2.1 2.1 0 0 1-3.4-1.8 2.4 2.4 0 0 1 .6-1.8 2 2 0 0 1 1.4-.6 1.9 1.9 0 0 1 1.5.6 2.4 2.4 0 0 1 .6 1.7v.2h-3.3a1.7 1.7 0 0 0 .4 1.1 1.2 1.2 0 0 0 .9.4 1.1 1.1 0 0 0 .7-.2 1.4 1.4 0 0 0 .5-.7Zm-2.5-1.3h2.5a1.5 1.5 0 0 0-.3-.8 1.1 1.1 0 0 0-1-.5 1.2 1.2 0 0 0-.8.4 1.4 1.4 0 0 0-.4 1Zm4.1 4.3v-6h.7v.5a1.7 1.7 0 0 1 .5-.5 1.5 1.5 0 0 1 .7-.2 1.7 1.7 0 0 1 1 .3 1.8 1.8 0 0 1 .7.8 3.7 3.7 0 0 1 0 2.4 1.9 1.9 0 0 1-1.7 1.1 1.4 1.4 0 0 1-.7-.1 1.5 1.5 0 0 1-.5-.4v2.1Zm.7-3.8a2 2 0 0 0 .3 1.2 1.1 1.1 0 0 0 1.7 0 3 3 0 0 0 0-2.6 1 1 0 0 0-1.7.1 2 2 0 0 0-.3 1.3Zm3.9-2.2h.8v1.8h2v-1.9h.8v4.4h-.8v-2h-2v2h-.8Zm4.3 2.1a2.3 2.3 0 0 1 .7-1.8 2.2 2.2 0 0 1 2.9.1 2.3 2.3 0 0 1 .6 1.7 3 3 0 0 1-.3 1.3 1.8 1.8 0 0 1-.7.8 2.2 2.2 0 0 1-1 .2 2 2 0 0 1-1.6-.6 2.4 2.4 0 0 1-.6-1.7Zm.8 0a1.9 1.9 0 0 0 .4 1.3 1.2 1.2 0 0 0 1.8 0 2 2 0 0 0 .4-1.3 1.8 1.8 0 0 0-.4-1.2 1.2 1.2 0 0 0-1.8 0 1.9 1.9 0 0 0-.4 1.2Zm7.2.9h.8a1.9 1.9 0 0 1-.7 1 2.1 2.1 0 0 1-3.4-1.8 2.4 2.4 0 0 1 .6-1.8 2 2 0 0 1 1.5-.6 1.9 1.9 0 0 1 1.4.6 2.4 2.4 0 0 1 .6 1.7v.2h-3.3a1.7 1.7 0 0 0 .4 1.1 1.2 1.2 0 0 0 1 .4 1.1 1.1 0 0 0 .6-.2 1.4 1.4 0 0 0 .5-.7Zm-2.5-1.3h2.5a1.5 1.5 0 0 0-.3-.8 1.1 1.1 0 0 0-1-.5 1.2 1.2 0 0 0-.8.4 1.4 1.4 0 0 0-.4 1Zm6.1.4a2.3 2.3 0 0 1 .7-1.8 2.2 2.2 0 0 1 2.9.1 2.3 2.3 0 0 1 .5 1.7 3 3 0 0 1-.2 1.3 1.8 1.8 0 0 1-.8.8 2.2 2.2 0 0 1-1 .2 2 2 0 0 1-1.5-.6 2.4 2.4 0 0 1-.6-1.7Zm.8 0a1.9 1.9 0 0 0 .3 1.3 1.2 1.2 0 0 0 1.9 0 2 2 0 0 0 .4-1.3 1.8 1.8 0 0 0-.4-1.2 1.2 1.2 0 0 0-1.9 0 1.9 1.9 0 0 0-.3 1.2Zm7.4-4h.6a1.1 1.1 0 0 1-.2.6.7.7 0 0 1-.4.3 5.6 5.6 0 0 1-.9 0 3 3 0 0 0-1.3.2 1 1 0 0 0-.5.6 3.2 3.2 0 0 0-.1 1 2 2 0 0 1 .6-.7 1.7 1.7 0 0 1 .9-.2 1.9 1.9 0 0 1 1.4.6 2.2 2.2 0 0 1 .6 1.6 2.5 2.5 0 0 1-.3 1.3 1.9 1.9 0 0 1-3.6-.3 5.7 5.7 0 0 1-.3-1.9 3.4 3.4 0 0 1 .6-2.4 2.4 2.4 0 0 1 1.9-.6 7.3 7.3 0 0 0 .8 0 .2.2 0 0 0 .2-.1Zm0 4a1.9 1.9 0 0 0-.4-1.1 1 1 0 0 0-1-.5 1.1 1.1 0 0 0-.9.5 2 2 0 0 0-.3 1.3 1.7 1.7 0 0 0 .4 1.1 1.2 1.2 0 0 0 .9.4 1 1 0 0 0 .9-.4 2 2 0 0 0 .3-1.3Zm1.5-2.1h.8v3.7h1.7v-3.7h.7v3.8h1.7v-3.8h.8v3.8h.5v1.9h-.6v-1.3H148Zm9.8 3h.8a1.9 1.9 0 0 1-.7 1 2 2 0 0 1-3.3-1.8 2.4 2.4 0 0 1 .6-1.8 2 2 0 0 1 1.4-.6 1.9 1.9 0 0 1 1.5.6 2.4 2.4 0 0 1 .5 1.7v.2h-3.3a1.7 1.7 0 0 0 .5 1.1 1.2 1.2 0 0 0 .9.4 1.1 1.1 0 0 0 .7-.2 1.4 1.4 0 0 0 .4-.7Zm-2.4-1.3h2.5a1.5 1.5 0 0 0-.3-.8 1.1 1.1 0 0 0-1-.5 1.2 1.2 0 0 0-.8.4 1.4 1.4 0 0 0-.4 1Zm6.9 1 .8.1a2 2 0 0 1-.6 1.2 1.8 1.8 0 0 1-1.3.4 1.9 1.9 0 0 1-1.4-.6 2.4 2.4 0 0 1-.6-1.7 3 3 0 0 1 .3-1.2 1.6 1.6 0 0 1 .7-.8 2.1 2.1 0 0 1 1-.3 1.8 1.8 0 0 1 1.2.4 1.7 1.7 0 0 1 .6 1l-.7.1a1.2 1.2 0 0 0-.4-.6 1 1 0 0 0-.6-.3 1.2 1.2 0 0 0-1 .4 3 3 0 0 0 0 2.6 1.1 1.1 0 0 0 1 .4 1 1 0 0 0 .7-.2 1.3 1.3 0 0 0 .3-.9Zm.9-2.7h3.6v.5h-1.4v3.8h-.7V107h-1.5Zm4.2 0h1.8a3.1 3.1 0 0 1 1 0 1.1 1.1 0 0 1 .4.4 1 1 0 0 1 .3.7 1.1 1.1 0 0 1-.2.5 1 1 0 0 1-.4.4 1 1 0 0 1 .6.4 1.1 1.1 0 0 1 .2.7 1.2 1.2 0 0 1-.5 1 2 2 0 0 1-1.2.2h-2Zm.8 1.8h.8a3 3 0 0 0 .6 0 .7.7 0 0 0 .4-.3.6.6 0 0 0-.1-.8 1.9 1.9 0 0 0-.9-.2h-.8Zm0 2h1a1.8 1.8 0 0 0 .8-.2.7.7 0 0 0-.2-1.2 3.7 3.7 0 0 0-.7 0h-1Zm3.3-1.7a2.3 2.3 0 0 1 .7-1.8 2.2 2.2 0 0 1 2.9.1 2.3 2.3 0 0 1 .5 1.7 3 3 0 0 1-.2 1.3 1.8 1.8 0 0 1-.8.8 2.2 2.2 0 0 1-1 .2 2 2 0 0 1-1.5-.6 2.4 2.4 0 0 1-.6-1.7Zm.8 0a1.9 1.9 0 0 0 .3 1.3 1.2 1.2 0 0 0 1.9 0 2 2 0 0 0 .4-1.3 1.8 1.8 0 0 0-.4-1.2 1.2 1.2 0 0 0-1.9 0 1.9 1.9 0 0 0-.3 1.2Z"/></svg>