<svg xmlns="http://www.w3.org/2000/svg" viewBox="0 0 200 200" width="200" height="200"><defs><radialGradient id="a" cx="190.2" cy="-1145.4" r="103.9" gradientTransform="matrix(.29 0 0 -.29 0 -232.3)" gradientUnits="userSpaceOnUse"><stop offset=".5" stop-color="#f8e801"/><stop offset="1" stop-color="#e34511"/></radialGradient></defs><path fill="url(#a)" d="m55.3 85.5-3.8-6.2 3.8-6.3 3.8 6.3Zm3.8 35.1-3.9-6.1-3.8 6.2 3.9 6.3Zm13.4-32.5 1.7-7-7 1.6-1.7 7.2Zm-29.3 29.3 1.8-7.1-7.2 1.7-1.7 7Zm-8.7-21.1-6.3 3.8 6.3 3.8 6.2-3.9Zm41.3 0-6.2 3.8 6.2 3.8 6.3-3.9ZM43.2 82.7l-7-1.7 1.6 7 7.2 1.8ZM72.5 112l-7-1.7 1.7 7 7 1.8ZM62 116.4l.5-3.8-3.3-2.5-.5 4 3 2.4-1.3 8.5 7.3 5.2 1.3-8.7ZM49.8 75l-7-5.2-1.5 8.8 7 5-.5 3.8L51 90l.5-4-3-2.4Zm-2 37.5.5 3.8-7 5 1.4 8.8 7.1-5.2-1.3-8.5 3-2.3-.5-4Zm28.8-26.4-5 7-3.8-.5-2.5 3.2 4 .5 2.4-3 8.5 1.3 5.2-7.1ZM41 103.7l-2.4 3-8.5-1.3-5.2 7.2 8.8 1.3 5-7 3.8.6 2.5-3.3Zm39 1.7-8.5 1.3-2.3-3-4 .5 2.4 3.3 3.8-.5 5 7 8.8-1.4ZM60.5 75l1.3 8.5-3 2.4.5 4 3.3-2.5-.5-3.7 7-5.1-1.4-8.8ZM42.6 92.7l-3.7.5-5-7-8.9 1.4 5.2 7 8.5-1.2 2.4 3 4-.5Z"/><path d="M61.5 100a6.3 6.3 0 1 1-9.8-5.2l3.6 6.3 3.5-6.3a6.3 6.3 0 0 1 2.7 5.3Z"/><path fill="#eb4f28" d="m55.3 98.3-3-5.3 3-5.3 3 5.3Z"/><path d="M103.3 101.5v10.7H98V87.8h5.3V97h10.2v-9.2h5.3V112h-5.3v-10.7Zm27.2 0v10.7H125V87.8h5.3V97h10.2v-9.2h5.3V112h-5.3v-10.7Zm27.2-13.6v24.3h-5.2V87.8Zm9 0h7l-9.5 11.7 10.9 12.6h-7.7l-9.6-12.6Z"/></svg>