<svg xmlns="http://www.w3.org/2000/svg" viewBox="0 0 200 250"><defs><radialGradient id="a" cx="190.1" cy="427.8" r="103.9" gradientTransform="scale(.29)" gradientUnits="userSpaceOnUse"><stop offset=".5" stop-color="#f8e801"/><stop offset="1" stop-color="#e34511"/></radialGradient></defs><path fill="url(#a)" d="m55.2 109.7-3.8-6.2 3.8-6.3 3.8 6.3Zm3.8 35.1-3.8-6.2-3.8 6.2 3.8 6.3Zm13.5-32.6 1.7-7-7.1 1.6-1.7 7.2Zm-29.3 29.3 1.8-7.1-7.2 1.7-1.7 7.1Zm-8.7-21.1-6.3 3.8 6.3 3.8 6.2-3.8Zm41.3 0-6.2 3.8 6.2 3.8 6.3-3.8Zm-32.6-13.6-7-1.7 1.6 7.1L45 114Zm29.3 29.3-7.1-1.7 1.7 7 7.1 1.8ZM62 140.5l.5-3.8-3.3-2.5-.5 4 3 2.4-1.3 8.5 7.2 5.2 1.3-8.7ZM49.8 99.2 42.7 94l-1.4 8.8 7 5-.5 3.8 3.2 2.5.5-4-3-2.4Zm-2 37.5.5 3.8-7 5 1.4 8.8 7.1-5.2-1.3-8.5 3-2.3-.5-4Zm28.8-26.4-5.1 7-3.8-.5-2.5 3.2 4 .5 2.4-3 8.5 1.3 5.2-7.1ZM41 127.8l-2.4 3-8.5-1.3-5.2 7.2 8.8 1.3 5-7 3.8.6 2.5-3.3Zm39 1.7-8.5 1.3-2.3-3-4 .5 2.4 3.3 3.8-.5 5 7 8.8-1.4ZM60.5 99.2l1.3 8.5-3 2.4.5 4 3.3-2.5-.5-3.7 7-5.1-1.4-8.8Zm-17.9 17.6-3.7.5-5.1-7-8.8 1.4 5.2 7.1 8.5-1.3 2.4 3 4-.5Z"/><path d="M61.4 124.2a6.3 6.3 0 1 1-9.8-5.2l3.6 6.3 3.5-6.3a6.3 6.3 0 0 1 2.7 5.2Z"/><path fill="#eb4f28" d="m55.2 122.4-3-5.3 3-5.3 3 5.3-3 5.3z"/><path d="M103.2 125.6v10.7h-5.3V112h5.3v9.2h10.2v-9.2h5.3v24.2h-5.3v-10.7ZM130.4 125.6v10.7H125V112h5.3v9.2h10.2v-9.2h5.3v24.2h-5.3v-10.7ZM157.7 112v24.3h-5.3V112Zm9 0h7l-9.6 11.7 10.9 12.6h-7.7l-9.6-12.6Z"/></svg>