<svg xmlns="http://www.w3.org/2000/svg" viewBox="0 0 200 200" width="200" height="200"><circle cx="100" cy="100" r="75" fill="#fff"/><path d="M81.2 51.3a5.8 5.8 0 0 0 5.8 5.8h.6l-.1-11.5H87a5.8 5.8 0 0 0-5.8 5.7Zm45.8 64.3 4-.1.4-1.8-4.5-1.3.1 3.2Zm-4.6-9.8v-.9h-1.9Zm8.9 2.8-.2-3.7h-4.2v2.1l4.4 1.6Z" fill="none"/><path d="M55.6 59c-8.8 5.8-16.9 27.4-16.9 27.4l16.4-.3c-2.8-8.3.5-27 .5-27Z" fill="#18379a"/><path d="M87 57.1a5.8 5.8 0 1 1 0-11.6h.5v-3.1a2.9 2.9 0 0 1 .3-1.2H87A10.2 10.2 0 0 0 84 61v13H72.2v5.8H84l.5 52.6s-3.5 3.6-15.8-.2c0 0-5.7-.8-12.9-9.1 0 0-1.1-2.4 11.1-8.8l-27.5-.1 3 27.2 4.9-9.2a67.6 67.6 0 0 0 41 26.8l-.6-101.9Z" fill="#18379a"/><path fill="#fffa5b" d="M148.2 59.6s-9.4-14.7-35-20.3c-19.4-4.3-24.2-.2-25.4 2a2.9 2.9 0 0 0-.3 1v14.8l.7 102c17.4 5.1 21.3-6.7 21.3-6.7l-.8-104.2a5.2 5.2 0 0 1 4.2-3.6c19.2 1.9 32.7 19 32.7 19a55.2 55.2 0 0 1 11 50.1 62.8 62.8 0 0 1-3.4 9.2 65.5 65.5 0 0 1-8.2 13.5c-14.4 13.5-19.4 14.7-27.3 17.3s-7.2 5.8-7.2 5.8a69.1 69.1 0 0 0 38-20.8c33-42-.3-79-.3-79ZM100 87.8a4.2 4.2 0 0 0-2.6-.8h-1v-1.7a10.5 10.5 0 0 0 2.1-.2 2.3 2.3 0 0 0 1.3-.8 2.2 2.2 0 0 0 .6-1.4 2.3 2.3 0 0 0-.8-1.8 2.9 2.9 0 0 0-2-.7 3.3 3.3 0 0 0-2 .6 3 3 0 0 0-1.1 1.5 5 5 0 0 0-.3 1.4l-2-.4q.8-4.8 5.4-4.8a4.9 4.9 0 0 1 3.4 1.2 3.8 3.8 0 0 1 1.3 2.9 3.6 3.6 0 0 1-2 3.2 3.7 3.7 0 0 1 2.7 3.7 4.1 4.1 0 0 1-1.5 3.2 5.8 5.8 0 0 1-4 1.3q-4.2 0-5.5-4.5l2-.5a4.9 4.9 0 0 0 1 2.2 3.1 3.1 0 0 0 2.6 1.1 3.6 3.6 0 0 0 2.4-.8 2.5 2.5 0 0 0 1-2 2.3 2.3 0 0 0-1-2Zm4.1 53.4h-2v-13.3h-7.8v13.3h-2v-15h11.8Zm0-23.5h-2v-7h-7.7v7h-2v-15h2v6.2h7.8v-6.2h2Zm0-47.2h-2v-7.1h-7.7v7h-2v-15h2v6.2h7.8v-6.2h2Z"/><path d="M124.8 58.5v-8.4s-5.7-4.7-10.2.2l-.2 8.2Zm20.4 22.2v5.8h8v-6s-4.5-4.1-8 .2ZM114.4 59h-4.6l3.4 3.6 2.4-2.3 3.9 3.8 3.9-3.8 2.6 2.6 4-3.8h-5.2v-.2h-10.4Zm26.8 10s-5.8-5.3-10.3.2v8h10.3ZM157 87.2h-3.7v-.3h-8v.1h-3.4l3 3.3 2.2-2 2.4 2.3 2.4-2.4 2 2Z"/><path d="m153.3 90.8.5-.4-1.9-1.9-2.3 2.3h-.3l-2.2-2.3-2 2 .2.2v.1l.1 8.5h7.9Zm-23.8-9.6 2.6-2.5 3.9 3.8 3.9-3.8 2.8 2.8 3.8-3.7h-5.3v-.1H131v.1h-4.5Zm17.6 20.5 2.4 2.4 2.4-2.4 1.4 1.4v-3.4h-7.9l.1 3.6Zm-15-5.9 3.9 3.9 3.9-3.9 1.2 1.3v-2.7h-9.9v2.3l.9-.9Z"/><path d="M122.4 105.8v-.9h-1.9Zm4.6 9.8 4-.1.4-1.8-4.5-1.3.1 3.2Zm4.3-7-.2-3.7h-4.2v2.1l4.4 1.6Z" fill="none"/><path d="m114.4 64.4.1 8.8h10.2l-.1-9 1.1-1.1-2.3-2.4-3.7 3.7h-.5l-3.6-3.7-2.1 2.1.9.9Zm.1 12.1 1.1-1.1.3-.2.2.2 3.2 3.2 3.2-3.2.3-.2.3.2 1.7 1.8v-3.6h-10.3Z"/><path d="M153.3 113.7v-10.3L152 102l-2.2 2.3h-.3L147 102l-1.6 1.6v10.2H144v1.5l-2.3.1-.1-3.6h-.6V97.6l-1.2-1.3-3.7 3.7h-.4l-3.7-3.7-.9 1v2.7l.1 2.5h-4.4l-.2-7.2a3.8 3.8 0 0 1 1.3-1.7l3.1.1v.3h10V83.1l1.4-1.3-2.6-2.7-3.7 3.7h-.4L132 79l-2.3 2.4 1.2 1.3v7h-4l-1.9 1.5-.3-13.6-2-2-3.2 3.2-.3.3-.2-.3-3.2-3.2-1.3 1.3.3 25.4-5.2.1v4.9l12.7 3.9v4.2H117a12 12 0 0 0-7 8.8v14.4l5.2-.1-.1-14.3a6.8 6.8 0 0 1 4-4h12.1v2.6h10.5v-2.7h2.3v2.7h9.2a62.8 62.8 0 0 0 3.3-9.2Zm-30.9-8-2-.8h2Zm8.7-.8.2 3.7-4.4-1.6v-2Zm0 10.6H127l-.1-3 4.5 1.2Zm-28.9-53.9h-7.8v-6.2h-2v15.1h2v-7.1h7.8v7.1h2V55.4h-2Zm0 47.3h-7.8v-6.2h-2v15h2v-7.1h7.8v7.1h2v-15h-2Zm-9.9 32.3h2v-13.3h7.8v13.3h2v-15H92.3Zm7.7-49.5a3.6 3.6 0 0 1-2.4.8 3.1 3.1 0 0 1-2.5-1 4.9 4.9 0 0 1-1.2-2.3l-1.9.5q1.3 4.5 5.6 4.5a5.8 5.8 0 0 0 4-1.3 4.1 4.1 0 0 0 1.4-3.2 3.7 3.7 0 0 0-2.7-3.7 3.6 3.6 0 0 0 2-3.2 3.8 3.8 0 0 0-1.3-2.9 4.9 4.9 0 0 0-3.4-1.2q-4.6 0-5.3 4.8l1.9.4a5 5 0 0 1 .3-1.4 3 3 0 0 1 1-1.5 3.3 3.3 0 0 1 2-.6 2.9 2.9 0 0 1 2 .7 2.3 2.3 0 0 1 .9 1.8 2.2 2.2 0 0 1-.6 1.4 2.3 2.3 0 0 1-1.3.8 10.5 10.5 0 0 1-2 .2V87h.9a4.2 4.2 0 0 1 2.6.8 2.3 2.3 0 0 1 1 2 2.5 2.5 0 0 1-1 1.9Z"/></svg>