<svg xmlns="http://www.w3.org/2000/svg" viewBox="0 0 200 250"><path fill="#c30022" fill-rule="evenodd" d="M134 135.4H24v-30.6h110Zm-93.2-26.1a10.9 10.9 0 0 1 10.7 11 10.8 10.8 0 0 1-21.6 0 11 11 0 0 1 11-11m0 6.7a4.1 4.1 0 0 1 4.1 4.2 4.3 4.3 0 0 1-4.2 4.2 4.4 4.4 0 0 1-4.5-4.2 4.2 4.2 0 0 1 4.5-4.2m30.9 14.3-5.3-8.4c2.2-.3 3.9-2.2 3.9-5 0-4.5-2.8-7-8.1-7h-8.5v20.4h6.5v-6.7l3.4 6.7Zm-11.5-11.2v-4.2h1.1c1.7 0 2.5.8 2.5 2.2 0 1.4-.8 2.3-2.5 2.3h-1.1Zm44.6 11.2v-5.6h-8.7v-2.5h4.2v-4.8h-4.2V115h7.9v-5H89.7v20.4Zm21.6 0v-20.5H120v7.3l.2 3.4-7-10.7h-6.1v20.5h6.4v-7.6a12.5 12.5 0 0 0-.3-3l7 10.6Zm-39 0v-5.6H81v-14.9h-7.3v20.5Zm19.7-30.4a9 9 0 0 0 0-12.8L93 73a15 15 0 0 0-10.7-4.4h-1.3a9 9 0 0 0-9 9 9.3 9.3 0 0 0 1.6 5 4.5 4.5 0 0 1 4.4-5h4.3a6.1 6.1 0 0 1 4.2 1.7Zm-8.4-24.7a4.4 4.4 0 0 0 3.8-6.5H95a4.4 4.4 0 0 0 3.7 6.5m18.9-11.4-.8-.8a16.6 16.6 0 0 0-11.7-4.9H93a10.5 10.5 0 0 0-10.4 9h22.4a7.5 7.5 0 0 1 5.3 2.2l7.4 7.4a9 9 0 0 0 12.6-.2Z"/><path d="M25 178.7v-31.4h8.5v24h10.7v7.4ZM47.4 157H55v21.7h-7.6Zm-.4-6.8a4.2 4.2 0 0 1 4.2-4.2 4.1 4.1 0 0 1 3 1.2 4 4 0 0 1 1.3 3 4.2 4.2 0 0 1-1.3 3 4 4 0 0 1-3 1.3 4 4 0 0 1-3-1.3 4.2 4.2 0 0 1-1.2-3M74.8 165a4.6 4.6 0 0 0-1.4-2.9 4.1 4.1 0 0 0-3-1 4.2 4.2 0 0 0-2.9 1 5.2 5.2 0 0 0-1.5 3Zm7.6 4.4H65.9a5.5 5.5 0 0 0 1.3 3.8 4.7 4.7 0 0 0 3.5 1.4 6 6 0 0 0 3-.7 4.2 4.2 0 0 0 1.8-1.9l5.8 2.3a7.5 7.5 0 0 1-3.7 3.8 13.9 13.9 0 0 1-6.4 1.4 13 13 0 0 1-9-3.1 10.7 10.7 0 0 1-3.5-8.3 11.2 11.2 0 0 1 3.4-8.4 11.9 11.9 0 0 1 8.7-3.4 11 11 0 0 1 8.5 3.4q3 3.4 3 9.3ZM87 178.7v-16.3H84V157H87v-6.5h7.5v6.5h3.2v5.4h-3.2v16.3ZM123.1 157v11a18.5 18.5 0 0 1-.6 5.5 7.9 7.9 0 0 1-2 3.1 9 9 0 0 1-3.5 2.2 16.1 16.1 0 0 1-5 .7 16 16 0 0 1-5-.7 9.5 9.5 0 0 1-3.7-2.2 7.4 7.4 0 0 1-2-3 19 19 0 0 1-.6-5.5V157h7.3v11.6a6.7 6.7 0 0 0 1 3.9 4.1 4.1 0 0 0 5.7 0 6.8 6.8 0 0 0 1-4V157ZM135 178.7l-9.8-21.7h8.1l3.7 9.6.2.3a15.9 15.9 0 0 1 .8 3 13.7 13.7 0 0 1 .9-2.8l.2-.5 3.7-9.6h8l-10 21.7ZM168.3 167.8a5.7 5.7 0 0 0-1.4-4 5.4 5.4 0 0 0-7.3 0 5.7 5.7 0 0 0-1.4 4 5.6 5.6 0 0 0 1.4 4 5.4 5.4 0 0 0 7.3 0 5.6 5.6 0 0 0 1.4-4M175 157v21.7h-7V175a10 10 0 0 1-3.4 3.3 8.9 8.9 0 0 1-4.4 1.1 8.5 8.5 0 0 1-7-3.2 13 13 0 0 1-2.5-8.4 12.4 12.4 0 0 1 2.7-8.4 9.2 9.2 0 0 1 7.3-3.2 8.2 8.2 0 0 1 4.2 1 8.7 8.7 0 0 1 3 3.3V157Z" fill="#505456"/></svg>