<svg xmlns="http://www.w3.org/2000/svg" viewBox="0 0 200 200" width="200" height="200"><path fill="#c30022" fill-rule="evenodd" d="M134.5 115.6h-110V85h110ZM41.3 89.5a11 11 0 1 0 .1 0m0 6.7a4.1 4.1 0 0 1 4.1 4v.2a4.3 4.3 0 0 1-4.2 4.2 4.4 4.4 0 0 1-4.5-4.2 4.2 4.2 0 0 1 4.2-4.2h.3m30.9 14.3-5.3-8.4c2.2-.3 3.9-2.2 3.9-5 0-4.5-2.8-7-8.1-7h-8.5v20.4h6.5v-6.7l3.4 6.7ZM60.7 99.3V95h1.1c1.7 0 2.5.8 2.5 2.2s-.8 2.3-2.5 2.3h-1.1Zm44.6 11.2v-5.6h-8.7v-2.5h4.2v-4.8h-4.2v-2.4h7.9v-5H90.2v20.4Zm21.6 0V90h-6.4v7.3l.2 3.4-7-10.7h-6.1v20.5h6.4v-7.6a12.5 12.5 0 0 0-.3-3l7 10.6Zm-39 0v-5.6h-6.4v-15h-7.3v20.6ZM107.6 80a9 9 0 0 0 0-12.7v-.1L93.5 53.2a15 15 0 0 0-10.7-4.4h-1.3a9 9 0 0 0-9 9 9.3 9.3 0 0 0 1.6 5 4.5 4.5 0 0 1 4-5h4.7a6.1 6.1 0 0 1 4.2 1.7Zm-8.4-24.7a4.4 4.4 0 0 0 3.8-6.5h-7.5a4.4 4.4 0 0 0 3.7 6.5M118.1 44l-.8-.8a16.6 16.6 0 0 0-11.7-5H93.5a10.5 10.5 0 0 0-10.4 9h22.4a7.5 7.5 0 0 1 5.3 2.3l7.4 7.4a9 9 0 0 0 12.6-.2Z"/><path fill="#505456" d="M25.5 158.9v-31.4H34v24h10.7v7.4Zm22.4-21.7h7.6v21.7h-7.6Zm-.4-6.8a4.2 4.2 0 0 1 4.2-4.2 4.1 4.1 0 0 1 3 1.2 4 4 0 0 1 1.3 3 4.2 4.2 0 0 1-1.3 3 4.1 4.1 0 0 1-6 0 4.2 4.2 0 0 1-1.2-3m27.8 14.8a4.6 4.6 0 0 0-1.4-3 4.1 4.1 0 0 0-3-1 4.2 4.2 0 0 0-2.9 1 5.2 5.2 0 0 0-1.5 3Zm7.6 4.4H66.4a5.5 5.5 0 0 0 1.3 3.8 4.7 4.7 0 0 0 3.5 1.4 6 6 0 0 0 3-.7 4.2 4.2 0 0 0 1.8-2l5.8 2.4a7.5 7.5 0 0 1-3.7 3.8 13.9 13.9 0 0 1-6.4 1.4 13 13 0 0 1-9-3.1 10.7 10.7 0 0 1-3.5-8.3 11.2 11.2 0 0 1 3.4-8.4 11.9 11.9 0 0 1 8.7-3.4 11 11 0 0 1 8.5 3.4q3 3.4 3 9.3Zm4.6 9.3v-16.3h-3v-5.4h3v-6.5H95v6.5h3.2v5.4H95v16.3Zm36.1-21.7v11a18.5 18.5 0 0 1-.6 5.5 7.9 7.9 0 0 1-2 3 9 9 0 0 1-3.5 2.3 18.2 18.2 0 0 1-10 0 9.5 9.5 0 0 1-3.7-2.2 7.4 7.4 0 0 1-2-3 19 19 0 0 1-.6-5.5v-11.1h7.3v11.6a6.7 6.7 0 0 0 1 3.9 4.1 4.1 0 0 0 5.7 0 6.8 6.8 0 0 0 1-4v-11.5Zm11.9 21.7-9.8-21.7h8.1l3.7 9.6.2.3a15.9 15.9 0 0 1 .8 3 13.7 13.7 0 0 1 .9-2.8l.2-.5 3.7-9.6h8l-10 21.7Zm33.3-11a5.7 5.7 0 0 0-1.4-4 5.4 5.4 0 0 0-7.3 0 5.7 5.7 0 0 0-1.4 4 5.6 5.6 0 0 0 1.4 4 5.4 5.4 0 0 0 7.3 0 5.6 5.6 0 0 0 1.4-4m6.7-10.7v21.7h-7v-3.7a10 10 0 0 1-3.4 3.3 8.9 8.9 0 0 1-4.4 1 8.5 8.5 0 0 1-7-3.1 13 13 0 0 1-2.5-8.4 12.4 12.4 0 0 1 2.7-8.4 9.2 9.2 0 0 1 7.3-3.2 8.2 8.2 0 0 1 4.2 1 8.7 8.7 0 0 1 3 3.3v-3.5Z"/></svg>