<svg xmlns="http://www.w3.org/2000/svg" viewBox="0 0 200 200" width="200" height="200"><path d="M90 56.2h5.7v30.4H90Zm7.2-6h5.7v30.5h-5.7Z" fill="#2a2a2a"/><path d="M97.2 82.2h5.7v35.2h-5.7Z" fill="#fed500"/><path d="M104.4 56.2h5.7v30.4h-5.7Z" fill="#2a2a2a"/><path d="M90 88h5.7v29.4H90Zm14.4 0h5.7v29.4h-5.7Z" fill="#fed500"/><path d="m117.2 91.5-5.6 5.6V63.4h5.6Zm7.2-7.2-5.6 5.6V70.4h5.6ZM88.4 97l-5.6-5.6V63.4h5.6Zm-7.2-7.2-5.6-5.6v-14h5.6ZM38.7 133.9a4.7 4.7 0 0 1-1 3.3 4.3 4.3 0 0 1-3.4 1.3h-8v5.2H22v-14.4h12.4q4.3 0 4.3 4.6Zm-4.1 0q0-1.5-2-1.5h-6.3v3h6.3q2 0 2-1.5Zm23.4 2.5a20.4 20.4 0 0 1-.2 4.6q-.6 2-3.5 2.5a30 30 0 0 1-4.6.2 30.7 30.7 0 0 1-4.5-.2q-3-.5-3.5-2.5a20.4 20.4 0 0 1-.3-4.6 20.7 20.7 0 0 1 .3-4.5q.5-2 3.4-2.6a28.5 28.5 0 0 1 4.6-.2 30.5 30.5 0 0 1 4.6.2q2.9.6 3.5 2.5a20.7 20.7 0 0 1 .3 4.6Zm-4.2 0q0-3-.5-3.5-.5-.6-3.6-.6a19 19 0 0 0-2.6 0 1.5 1.5 0 0 0-1.2 1 10.3 10.3 0 0 0-.3 3 9.8 9.8 0 0 0 .3 3 1.5 1.5 0 0 0 1.2 1 18.7 18.7 0 0 0 2.6.2 21.4 21.4 0 0 0 2.6 0 1.5 1.5 0 0 0 1.2-1 9.8 9.8 0 0 0 .3-3Zm19.2 3a1.5 1.5 0 0 1-1.1 1 21 21 0 0 1-2.6 0 18.7 18.7 0 0 1-2.6 0 1.5 1.5 0 0 1-1.2-1 9.8 9.8 0 0 1-.3-3 10.3 10.3 0 0 1 .3-3 1.5 1.5 0 0 1 1.2-1 19 19 0 0 1 2.6-.1q3 0 3.6.6a3.4 3.4 0 0 1 .4 1.8h4.3a13.6 13.6 0 0 0-.3-3q-.5-2-3.4-2.4a30.4 30.4 0 0 0-4.6-.2 28.7 28.7 0 0 0-4.6.2q-2.9.6-3.5 2.6a20.9 20.9 0 0 0-.3 4.5 20.5 20.5 0 0 0 .3 4.6q.6 2 3.5 2.5a31 31 0 0 0 4.6.2 30.3 30.3 0 0 0 4.6-.2q2.9-.5 3.4-2.5a13.4 13.4 0 0 0 .3-3h-4.3a5.3 5.3 0 0 1-.2 1.4Zm24 4.3h-4.3V138h-8.3v5.6h-4.2V129h4.2v5.7h8.3V129H97Zm47.2-7.4a6.7 6.7 0 0 1-1 4.2q-1.3 1.5-4.4 1.5h-5.2v1.7h-4.2V142h-5.5q-3.1 0-4.3-1.5a6.7 6.7 0 0 1-1.1-4.3q0-3.3 1.4-4.5a6.3 6.3 0 0 1 4-1h5.5V129h4.2v1.6h5.2a6.4 6.4 0 0 1 4 1q1.4 1 1.4 4.5Zm-14.8 1.7v-3.3h-4.2a2.3 2.3 0 0 0-1.6.4 1.6 1.6 0 0 0-.4 1.2 1.8 1.8 0 0 0 .4 1.2 2.1 2.1 0 0 0 1.6.5Zm10.4-1.7a1.6 1.6 0 0 0-.4-1.2 2.3 2.3 0 0 0-1.6-.4h-4.2v3.3h4.2a2.2 2.2 0 0 0 1.6-.5 1.8 1.8 0 0 0 .4-1.2Zm21.4-4h-6.4v11.4h-4.1v-11.4h-6.2V129h16.7ZM180 139q0 4.7-4.3 4.7h-12.4V129h4v5.3h8.3q4.4 0 4.4 4.6Zm-4.4 0a1.5 1.5 0 0 0-1.7-1.6h-6.5v3.4h6.5a1.5 1.5 0 0 0 1.7-1.7Zm-71.6-5.7a5.7 5.7 0 0 0-.2 1.5h12.4v3.2h-12.4a5.6 5.6 0 0 0 .3 1.4 1.5 1.5 0 0 0 1.2 1 18.6 18.6 0 0 0 2.6 0h8.3v3.3H108a30.7 30.7 0 0 1-4.6-.2q-3-.5-3.5-2.5a20.5 20.5 0 0 1-.3-4.6 20.9 20.9 0 0 1 .3-4.5q.6-2 3.5-2.6a28.4 28.4 0 0 1 4.6-.2h8.3v3.2H108a19 19 0 0 0-2.6 0 1.5 1.5 0 0 0-1.3 1Z" fill="#2a2a2a"/></svg>