<svg xmlns="http://www.w3.org/2000/svg" viewBox="0 0 200 250"><defs><style>.a{fill:#2a2a2a}.b{fill:#fed500}</style></defs><path d="M88.5 79.9h5.7v30.4h-5.7zM95.7 74h5.7v30.4h-5.7z" class="a"/><path d="M95.7 105.9h5.7v35.2h-5.7z" class="b"/><path d="M102.9 79.9h5.7v30.4h-5.7z" class="a"/><path d="M88.5 111.8h5.7v29.3h-5.7zM102.9 111.8h5.7v29.3h-5.7z" class="b"/><path d="m115.7 115.2-5.6 5.6V87.1h5.6v28.1zM122.9 108l-5.6 5.6V94.1h5.6V108zM86.9 120.8l-5.6-5.6V87.1h5.6v33.7zM79.7 113.6l-5.6-5.6V94.1h5.6v19.5z" class="a"/><path d="M37.7 157.6a4.7 4.7 0 0 1-1 3.3 4.3 4.3 0 0 1-3.4 1.3h-8v5.2H21V153h12.4q4.3 0 4.3 4.6Zm-4.1 0q0-1.5-2-1.5h-6.3v3h6.3q2 0 2-1.5ZM57 160.1a20.4 20.4 0 0 1-.2 4.6q-.6 2-3.5 2.5a30 30 0 0 1-4.6.2 30.7 30.7 0 0 1-4.5-.2q-3-.5-3.5-2.5a20.4 20.4 0 0 1-.3-4.6 20.7 20.7 0 0 1 .3-4.5q.5-2 3.4-2.6a28.5 28.5 0 0 1 4.6-.2 30.5 30.5 0 0 1 4.6.2q2.9.6 3.5 2.5a20.7 20.7 0 0 1 .3 4.6Zm-4.2 0q0-3-.5-3.5-.5-.6-3.6-.6a18.9 18.9 0 0 0-2.6 0 1.5 1.5 0 0 0-1.2 1 10.3 10.3 0 0 0-.3 3.1 9.8 9.8 0 0 0 .3 3 1.5 1.5 0 0 0 1.2 1 18.7 18.7 0 0 0 2.6.1 21.4 21.4 0 0 0 2.6 0 1.5 1.5 0 0 0 1.2-1 9.8 9.8 0 0 0 .3-3ZM72 163.1a1.5 1.5 0 0 1-1.1 1 21 21 0 0 1-2.6.1 18.7 18.7 0 0 1-2.6 0 1.5 1.5 0 0 1-1.2-1 9.8 9.8 0 0 1-.3-3 10.3 10.3 0 0 1 .3-3.1 1.5 1.5 0 0 1 1.2-1 19 19 0 0 1 2.6-.1q3 0 3.6.6a3.4 3.4 0 0 1 .4 1.8h4.3a13.6 13.6 0 0 0-.3-2.9q-.5-2-3.4-2.5a30.4 30.4 0 0 0-4.6-.2 28.7 28.7 0 0 0-4.6.2q-2.9.6-3.5 2.6a20.9 20.9 0 0 0-.3 4.5 20.5 20.5 0 0 0 .3 4.6q.6 2 3.5 2.5a31 31 0 0 0 4.6.2 30.3 30.3 0 0 0 4.6-.2q2.9-.5 3.4-2.5a13.4 13.4 0 0 0 .3-3h-4.3a5.3 5.3 0 0 1-.2 1.4ZM96 167.4h-4.3v-5.6h-8.3v5.6h-4.2v-14.6h4.2v5.7h8.3v-5.7H96ZM143.2 160a6.7 6.7 0 0 1-1 4.2q-1.3 1.5-4.4 1.5h-5.2v1.7h-4.2v-1.7h-5.5q-3.1 0-4.3-1.5a6.7 6.7 0 0 1-1.1-4.3q0-3.3 1.4-4.5a6.3 6.3 0 0 1 4-1h5.5v-1.6h4.2v1.6h5.2a6.4 6.4 0 0 1 4 1q1.4 1.1 1.4 4.5Zm-14.8 1.7v-3.3h-4.2a2.3 2.3 0 0 0-1.6.4 1.6 1.6 0 0 0-.4 1.2 1.8 1.8 0 0 0 .4 1.2 2.1 2.1 0 0 0 1.6.5Zm10.4-1.7a1.6 1.6 0 0 0-.4-1.2 2.3 2.3 0 0 0-1.6-.4h-4.2v3.3h4.2a2.2 2.2 0 0 0 1.6-.5 1.8 1.8 0 0 0 .4-1.2ZM160.2 156h-6.4v11.4h-4.1V156h-6.2v-3.2h16.7ZM179 162.7q0 4.7-4.3 4.7h-12.4v-14.6h4v5.3h8.3q4.4 0 4.4 4.6Zm-4.4 0a1.5 1.5 0 0 0-1.7-1.6h-6.5v3.4h6.5a1.5 1.5 0 0 0 1.7-1.7ZM103 157a5.7 5.7 0 0 0-.2 1.5h12.4v3.2h-12.4a5.6 5.6 0 0 0 .3 1.4 1.5 1.5 0 0 0 1.2 1 18.6 18.6 0 0 0 2.6.1h8.3v3.2H107a30.7 30.7 0 0 1-4.6-.2q-3-.5-3.5-2.5a20.5 20.5 0 0 1-.3-4.6 20.9 20.9 0 0 1 .3-4.5q.6-2 3.5-2.6a28.4 28.4 0 0 1 4.6-.2h8.3v3.2H107a19 19 0 0 0-2.6 0 1.5 1.5 0 0 0-1.3 1Z" class="a"/></svg>