<svg xmlns="http://www.w3.org/2000/svg" viewBox="0 0 200 200" width="200" height="200"><path fill="#009aa4" d="M101.5 62.7h14.8v45.5h-14.8Zm-1.9 0v24.8h-21ZM141 81.5l-22.6 26.7V81.5Zm-41.3 7.9-16 18.8H61l15.9-18.8Zm-63.3 28v11h5.2v-11h3.1v11h2v4.9h-3v-2.9H25v-13h3v11h5.3v-11Zm14.4 11h6.5v2h-9.4v-13h9.4v2h-6.5v3.3h5.8v2h-5.8Zm8.5 2v-13h2.9v5.9l6-6h3.6l-6.6 6.5 7.2 6.6h-3.8l-6.4-5.9v5.9Zm32.9-7.8h6.5v-5.2h3v13h-3v-5.6h-6.5v5.6h-3v-13h3Zm26.7 1.3a7.2 7.2 0 0 1-.5 2.7 5.9 5.9 0 0 1-1.5 2.2 6.7 6.7 0 0 1-2.4 1.3 10.5 10.5 0 0 1-6.4 0 6.7 6.7 0 0 1-2.3-1.3 5.9 5.9 0 0 1-1.5-2.2 7.7 7.7 0 0 1 0-5.5 5.9 5.9 0 0 1 1.5-2 6.7 6.7 0 0 1 2.3-1.5 10.5 10.5 0 0 1 6.4 0 6.7 6.7 0 0 1 2.4 1.4 5.9 5.9 0 0 1 1.5 2.1 7.2 7.2 0 0 1 .5 2.8Zm-3 0a5.7 5.7 0 0 0-.3-2.1 4.1 4.1 0 0 0-1-1.5 3.9 3.9 0 0 0-1.4-.9 6 6 0 0 0-3.7 0 3.9 3.9 0 0 0-1.5 1 4.1 4.1 0 0 0-1 1.4 6.4 6.4 0 0 0 0 4.2 4.9 4.9 0 0 0 2.5 2.4 5.9 5.9 0 0 0 3.7 0 5.2 5.2 0 0 0 2.4-2.4 5.7 5.7 0 0 0 .3-2.1Zm48.1 0a7.2 7.2 0 0 1-.5 2.7 5.9 5.9 0 0 1-1.5 2.2 6.7 6.7 0 0 1-2.4 1.3 10.5 10.5 0 0 1-6.3 0 6.7 6.7 0 0 1-2.4-1.3 5.9 5.9 0 0 1-1.5-2.2 7.7 7.7 0 0 1 0-5.5 5.9 5.9 0 0 1 1.5-2 6.7 6.7 0 0 1 2.4-1.5 10.5 10.5 0 0 1 6.3 0 6.7 6.7 0 0 1 2.4 1.4 5.9 5.9 0 0 1 1.5 2.1 7.2 7.2 0 0 1 .5 2.8Zm-3 0a5.7 5.7 0 0 0-.3-2.1 4.1 4.1 0 0 0-1-1.5 3.9 3.9 0 0 0-1.4-.9 6 6 0 0 0-3.7 0 3.9 3.9 0 0 0-1.4 1 4.1 4.1 0 0 0-1 1.4 6.4 6.4 0 0 0 0 4.2 5.2 5.2 0 0 0 2.4 2.4 5.9 5.9 0 0 0 3.7 0 4.9 4.9 0 0 0 2.5-2.4 5.7 5.7 0 0 0 .3-2.1Zm-30.2 3.1h-6.3l-1.6 3.4h-3.2l6.3-13h3.3l6.3 13h-3.2Zm-3.2-7.1-2.4 5.2h4.9l-2.4-5.2Zm9.5-1.9a11.8 11.8 0 0 1 4.5-.9 8.7 8.7 0 0 1 2.2.3 4.9 4.9 0 0 1 1.6.7 3.2 3.2 0 0 1 1 1.1 3.4 3.4 0 0 1 .4 1.6 3 3 0 0 1-.1 1 2.7 2.7 0 0 1-.5.8 3 3 0 0 1-.6.6 3.5 3.5 0 0 1-.8.4 3.4 3.4 0 0 1 1.8 1 2.7 2.7 0 0 1 .6 2 3.7 3.7 0 0 1-.3 1.5 3.6 3.6 0 0 1-1.1 1.3 5.6 5.6 0 0 1-2 1 10 10 0 0 1-2.6.2 11 11 0 0 1-2.4-.2 10 10 0 0 1-2-.6v-2a10.5 10.5 0 0 0 2 .6 10 10 0 0 0 2.2.2 6.6 6.6 0 0 0 1.5-.1 3.7 3.7 0 0 0 1-.5 2 2 0 0 0 .8-.6 1.7 1.7 0 0 0 0-1.6 1.4 1.4 0 0 0-.4-.5 2.3 2.3 0 0 0-.8-.4 4.6 4.6 0 0 0-1.2-.2h-3v-2h2.7a4.4 4.4 0 0 0 1.1-.1 2.1 2.1 0 0 0 .8-.4 1.4 1.4 0 0 0 .5-.6 2 2 0 0 0 0-.7 1.5 1.5 0 0 0-.6-1.3 4 4 0 0 0-2.2-.5 10.5 10.5 0 0 0-2 .3 13.4 13.4 0 0 0-2 .5Zm35.1 12.4h-2.8v-11h-4.8v-2H177v2h-4.8Zm-98.9 0v-13h3v9.9l6.8-9.9h3.6v13h-3v-9.9l-6.7 9.9Z"/></svg>