<svg xmlns="http://www.w3.org/2000/svg" viewBox="0 0 200 250"><path d="M101.5 86.7h14.8v45.5h-14.8zM99.6 86.7v24.8h-21l21-24.8zM141 105.5l-22.6 26.7v-26.7H141zM99.7 113.4l-16 18.8H61l15.9-18.8h22.8zM36.4 141.4v11h5.2v-11h3.1v11h2v4.9h-3v-2.9H25v-13h3v11h5.3v-11ZM50.8 152.4h6.5v2h-9.4v-13h9.4v2h-6.5v3.3h5.8v2h-5.8ZM59.3 154.4v-13h2.9v5.9l6-6h3.6l-6.6 6.5 7.2 6.6h-3.8l-6.4-5.9v5.9ZM92.2 146.6h6.5v-5.2h3v13h-3v-5.6h-6.5v5.6h-3v-13h3ZM118.9 147.9a7.2 7.2 0 0 1-.5 2.7 5.9 5.9 0 0 1-1.5 2.2 6.7 6.7 0 0 1-2.4 1.3 10.5 10.5 0 0 1-6.4 0 6.7 6.7 0 0 1-2.3-1.3 5.9 5.9 0 0 1-1.5-2.2 7.7 7.7 0 0 1 0-5.5 5.9 5.9 0 0 1 1.5-2 6.7 6.7 0 0 1 2.3-1.5 10.5 10.5 0 0 1 6.4 0 6.7 6.7 0 0 1 2.4 1.4 5.9 5.9 0 0 1 1.5 2.1 7.2 7.2 0 0 1 .5 2.8Zm-3 0a5.7 5.7 0 0 0-.3-2.1 4.1 4.1 0 0 0-1-1.5 3.9 3.9 0 0 0-1.4-.9 6 6 0 0 0-3.7 0 3.9 3.9 0 0 0-1.5 1 4.1 4.1 0 0 0-1 1.4 6.4 6.4 0 0 0 0 4.2 4 4 0 0 0 1 1.4 4 4 0 0 0 1.5 1 5.9 5.9 0 0 0 3.7 0 4 4 0 0 0 1.4-1 4 4 0 0 0 1-1.4 5.7 5.7 0 0 0 .3-2.1ZM164 147.9a7.2 7.2 0 0 1-.5 2.7 5.9 5.9 0 0 1-1.5 2.2 6.7 6.7 0 0 1-2.4 1.3 10.5 10.5 0 0 1-6.3 0 6.7 6.7 0 0 1-2.4-1.3 5.9 5.9 0 0 1-1.5-2.2 7.7 7.7 0 0 1 0-5.5 5.9 5.9 0 0 1 1.5-2 6.7 6.7 0 0 1 2.4-1.5 10.5 10.5 0 0 1 6.3 0 6.7 6.7 0 0 1 2.4 1.4 5.9 5.9 0 0 1 1.5 2.1 7.2 7.2 0 0 1 .5 2.8Zm-3 0a5.7 5.7 0 0 0-.3-2.1 4.1 4.1 0 0 0-1-1.5 3.9 3.9 0 0 0-1.4-.9 6 6 0 0 0-3.7 0 3.9 3.9 0 0 0-1.4 1 4.1 4.1 0 0 0-1 1.4 6.4 6.4 0 0 0 0 4.2 4 4 0 0 0 1 1.4 4 4 0 0 0 1.4 1 5.9 5.9 0 0 0 3.7 0 4 4 0 0 0 1.5-1 4 4 0 0 0 1-1.4 5.7 5.7 0 0 0 .3-2.1ZM130.8 151h-6.3l-1.6 3.4h-3.2l6.3-13h3.3l6.3 13h-3.2Zm-3.2-7.1a203 203 0 0 1-2.4 5.2h4.9l-2.4-5.2ZM137.1 142a11.8 11.8 0 0 1 4.5-.9 8.7 8.7 0 0 1 2.2.3 4.9 4.9 0 0 1 1.6.7 3.2 3.2 0 0 1 1 1.1 3.4 3.4 0 0 1 .4 1.6 3 3 0 0 1-.1 1 2.7 2.7 0 0 1-.5.8 3 3 0 0 1-.6.6 3.5 3.5 0 0 1-.8.4 3.4 3.4 0 0 1 1.8 1 2.7 2.7 0 0 1 .6 2 3.7 3.7 0 0 1-.3 1.5 3.6 3.6 0 0 1-1.1 1.3 5.6 5.6 0 0 1-2 1 10 10 0 0 1-2.6.2 11 11 0 0 1-2.4-.2 10 10 0 0 1-2-.6v-2a10.5 10.5 0 0 0 2 .6 10 10 0 0 0 2.2.2 6.6 6.6 0 0 0 1.5-.1 3.7 3.7 0 0 0 1-.5 2 2 0 0 0 .8-.6 1.7 1.7 0 0 0 0-1.6 1.4 1.4 0 0 0-.4-.5 2.3 2.3 0 0 0-.8-.4 4.6 4.6 0 0 0-1.2-.2h-3v-2h2.7a4.4 4.4 0 0 0 1.1-.1 2.1 2.1 0 0 0 .8-.4 1.4 1.4 0 0 0 .5-.6 2 2 0 0 0 0-.7 1.5 1.5 0 0 0-.6-1.3 4 4 0 0 0-2.2-.5 10.5 10.5 0 0 0-2 .3 13.4 13.4 0 0 0-2 .5ZM172.2 154.4h-2.8v-11h-4.8v-2H177v2h-4.8ZM73.3 154.4v-13h3v9.9l6.8-9.9h3.6v13h-3v-9.9l-6.7 9.9h-3.7z" fill="#009aa4"/></svg>