<svg xmlns="http://www.w3.org/2000/svg" viewBox="0 0 200 200" width="200" height="200"><path fill="#008c95" d="m51.4 98 .8-9a3.5 3.5 0 0 0-3.2-3.7H27.7a3.7 3.7 0 0 0-3.8 3.3l-2 22.1a3.5 3.5 0 0 0 3.5 4h20.7c2.8 0 3.8-1.5 4-3.7l1-9.5H38.4l-.5 6.3h-3.2l1.4-15.7h3.2l-.5 6Zm19.4-10.2c-.5 1.2-4 12.7-4 12.7l1.5-15.3H55.8L53 114.7h9.5a3.4 3.4 0 0 0 3.6-2.5l4-10.9-1.4 13.4h12.6L84 85.2H74a3.5 3.5 0 0 0-3.3 2.6Zm63.6-2.6-1.2 13.5H130l1.2-13.5h-12.6l-1.3 15.6a3.5 3.5 0 0 0 3.5 4h12l-.4 3h-15.7l-.6 7h25a3.5 3.5 0 0 0 3.5-3.6l2.3-26Zm32.7 0h-17l-2.6 29.5H160l.8-9H173c2.2 0 3.6-1.2 3.8-3.8l1.2-13a3.5 3.5 0 0 0-3.7-3.7Zm-5.7 14.3.6-7.3h3.1l-.6 7.3ZM99 95.1l.2-3h15.7l.7-6.9H87.2l-2.6 29.5h25a3.4 3.4 0 0 0 3.6-3.2v-.2c.2-1.9 1-10.6 1-12.2a3.5 3.5 0 0 0-3.7-4Zm2 13.4h-3.2l.6-7.2h3.2Z"/></svg>