<svg xmlns="http://www.w3.org/2000/svg" viewBox="0 0 200 250"><path d="m51.4 123 .8-9a3.5 3.5 0 0 0-3.3-3.8H27.8a3.7 3.7 0 0 0-3.8 3.4l-2 22.1a3.5 3.5 0 0 0 3.5 4h20.7c2.8 0 3.8-1.5 4-3.7l.9-9.5H38.5l-.5 6.3h-3.2l1.4-15.7h3.2l-.5 5.9ZM70.8 112.8c-.5 1.2-4.1 12.7-4.1 12.7l1.6-15.3H55.8L53 139.7h9.5a3.4 3.4 0 0 0 3.6-2.5l4-10.9-1.4 13.4h12.6l2.6-29.5H74a3.5 3.5 0 0 0-3.3 2.6ZM134.4 110.2l-1.2 13.5H130l1.2-13.5h-12.6l-1.3 15.6a3.5 3.5 0 0 0 3.5 4h11.9l-.3 3h-15.7l-.6 6.9h25a3.5 3.5 0 0 0 3.5-3.5l2.3-26ZM167.1 110.2h-17l-2.6 29.5H160l.8-9.1H173c2.2 0 3.6-1.1 3.8-3.7l1.2-13c.1-2.3-1.6-3.7-3.7-3.7Zm-5.7 14.3.6-7.3h3.1l-.6 7.3ZM98.9 120.1l.2-3h15.7l.7-6.9H87.2l-2.6 29.5h25a3.4 3.4 0 0 0 3.6-3.4c.2-1.9 1-10.6 1-12.2a3.5 3.5 0 0 0-3.7-4Zm2 13.4h-3.2l.6-7.2h3.2Z" fill="#008c95"/></svg>