<svg xmlns="http://www.w3.org/2000/svg" viewBox="0 0 200 200" width="200" height="200"><path d="M40.8 120.8A18.7 18.7 0 1 1 59.5 102a18.7 18.7 0 0 1-18.7 18.7Zm0-36.4A17.7 17.7 0 1 0 58.5 102a17.7 17.7 0 0 0-17.7-17.7Z"/><path d="M41.2 82.3a5.6 5.6 0 0 1 3.4-3 3.5 3.5 0 0 0-.1.9c0 .9 1.1 2 .6 3.8a5 5 0 0 1-2.7 3 4.3 4.3 0 0 1-1.2-4.8Z" fill="#ef2b2f"/><path d="m42.4 87.3-6 15c-.3.7-.8 6.6 6 6.6 7.2 0 6.6-6.8 6.6-6.7Z"/><path d="M51.1 102.5c0 1.6-.4 8.4-8.5 8.4-9 0-8.3-8-8-8.8L41.1 87c-8.3 0-15.7 6.7-15.7 15a15 15 0 0 0 30 .5Z" fill="#005b9a"/><path d="M84.8 116.3v-2a1.3 1.3 0 0 0 .7-.1c.4-.2 1-.7.9-3v-15h7v20h-2.7V98.8h-1.5v11.8c0 5.8 0 5.6-3.3 5.6Zm15.2-20a10.3 10.3 0 0 0-3.4.3 3.3 3.3 0 0 0-1.1 3v3.2h3V99c0-.8 1.2-.7 1.2 0v3.4c0 3.2-4.4 2.3-4.4 6v6.3c0 1 .6 1.7 2 1.7a2.4 2.4 0 0 0 2.3-1.2v1h2.9V99.5c0-2-1-3.3-2.5-3.3Zm-.3 16.7s-.1 1-.7 1-.6-1-.6-1.4v-4.4a2.2 2.2 0 0 1 1.3-2Zm12-4.7a2.3 2.3 0 0 0-2.2-2.1c1.9-.2 2.2-.7 2.1-2.6V99a2.2 2.2 0 0 0-2.4-2.5h-4.7v20h4.5c2 0 2.6-.6 2.7-2Zm-4.3-9.6h.6c.5 0 .5.5.5 1.6v3.8c0 .4 0 1.7-.7 1.7h-.4Zm1.1 14.5c0 1 0 1.2-.5 1.2h-.6v-6.8h.5c.5 0 .7.4.7 1.4Zm33.5-5.4V99c-.1-2-1.7-2.5-3.8-2.5s-3.6.4-3.6 2.7V114c0 2.5.9 2.7 3.7 2.7 2.7 0 3.6-.6 3.6-2.7v-4.6h-3v4.5c0 .4-.2.5-.6.5s-.8 0-.8-.5v-6Zm-4.5-2.2V100c0-1 .3-1.3.7-1.3s.8.4.8 1.3v5.6Zm8.7-9.1a2.3 2.3 0 0 0-2.1 2.3v15.5c0 1.7 1.2 2 2.3 2h6.6c1 0 2.4 0 2.4-2V98.8c0-2-.7-2.3-2.3-2.3Zm1.6 17.9c-.9 0-.7-1.4-.7-1.3v-13s-.2-1 .6-1 .8 1 .8 1v13s0 1.2-.7 1.2Zm4.2 0c-.9 0-.7-1.4-.7-1.3v-13s-.2-1 .6-1 .8 1 .8 1v13s0 1.2-.7 1.2Zm8.5-14.5v16.4h-2.8V96.5h2.8v1a4.4 4.4 0 0 1 2.5-1 1.6 1.6 0 0 1 1.6 1.3 2.8 2.8 0 0 1 2.5-1.3c1.8 0 2 2.3 2 2.3v17.5h-3V100c0-1.2-1.4-1-1.4 0v16.2h-3V99.8c0-1-1.2-1-1.2 0Zm17.5 13.6v-5.9c0-2.7-.9-2.5-2.2-2.5H174v-8.6h-3v19.7h4.8c1.7 0 2.3-.2 2.2-2.8Zm-2.7-.5c0 1-.3 1.6-.6 1.6h-.7v-7.5h.7c.5 0 .6.2.6 1.2Z"/><path d="M125.8 86.5v17H121v-7h-7.4v19.8h7.4v-7h4.8v7h7.4V86.5Z" fill="#005b9a"/><path d="M121 86.5H76.7c-4.1 0-14.1 3-14.1 14.7 0 10.2 5.2 15.8 20.1 15v-8h-6.6a6.8 6.8 0 0 1-6.1-7c0-4 2.7-6.9 6.4-7.2H121ZM135.2 86.5H178V94h-42.8Z" fill="#ef2b2f"/></svg>