<svg xmlns="http://www.w3.org/2000/svg" viewBox="0 0 200 250"><defs><style>.a{fill:#ef2b2f}.c{fill:#005b9a}</style></defs><path d="M40.7 145a18.7 18.7 0 1 1 13.2-5.4 18.6 18.6 0 0 1-13.2 5.5Zm0-36.4a17.8 17.8 0 1 0 17.9 17.8 17.9 17.9 0 0 0-18-17.8Z"/><path d="M42.5 111.7s-2.4-2-1.3-4.7a5.6 5.6 0 0 1 3.4-3 2.3 2.3 0 0 0 0 1c0 .9 1 2 .5 3.8a5 5 0 0 1-2.6 3Z" class="a"/><path d="m42.4 112-6 15c-.3.7-.8 6.6 6 6.6 7.2 0 6.6-6.7 6.6-6.6l-6.6-15Z"/><path d="M51.1 127.2c0 1.6-.4 8.4-8.5 8.4-9 0-8.3-8-8-8.8l6.5-15.1h-.7a15 15 0 1 0 15 15.5Z" class="c"/><path d="M84.8 141v-2a1.3 1.3 0 0 0 .7-.1c.4-.2 1-.7.9-2.9v-15h7v20h-2.7v-17.4h-1.5v11.8c0 5.8 0 5.6-3.3 5.6ZM100 121c-.9 0-2.8 0-3.4.3a3.2 3.2 0 0 0-1.1 3v3.2h3v-3.7c0-.8 1.2-.7 1.2 0v3.4c0 3.2-4.4 2.3-4.4 6v6.3c0 1 .6 1.7 2 1.7 1.8 0 2.3-1.2 2.3-1.2v1.1h2.9v-16.9c0-2-.4-3.1-2.5-3.1Zm-.3 16.7s-.1 1.1-.7 1.1-.6-1-.6-1.4V133a2.2 2.2 0 0 1 1.3-2ZM111.7 133a2.3 2.3 0 0 0-2.2-2.1c1.9-.2 2.2-.7 2.1-2.6v-4.6a2.2 2.2 0 0 0-2.4-2.5h-4.7v20h4.5c2 0 2.6-.6 2.7-1.9Zm-4.3-9.6h.6c.5 0 .5.5.5 1.6v3.8c0 .4 0 1.7-.7 1.7h-.4Zm1.1 14.5c0 1 0 1.2-.5 1.2h-.6v-6.8h.5c.5 0 .7.4.7 1.4ZM142 132.5v-8.7c-.1-2-1.7-2.5-3.8-2.5-2.1 0-3.6.4-3.6 2.7v14.7c0 2.5.9 2.7 3.7 2.7 2.7 0 3.6-.6 3.6-2.7v-4.6h-3v4.5c0 .4-.2.5-.6.5s-.8 0-.8-.5v-6Zm-4.5-2.2v-5.6c0-1 .3-1.3.7-1.3s.8.4.8 1.3v5.6ZM153.1 121.2h-6.9a2.1 2.1 0 0 0-2.1 2.3V139c0 1.7 1.2 2 2.3 2h6.6c1 0 2.4 0 2.4-1.9v-15.6c0-2-.7-2.4-2.3-2.4Zm-5.3 17.9c-.9 0-.7-1.3-.7-1.2v-13s-.2-1 .6-1 .8 1 .8 1v13s0 1.2-.7 1.2Zm4.2 0c-.9 0-.7-1.3-.7-1.2v-13s-.2-1 .6-1 .8 1 .8 1v13s0 1.2-.7 1.2ZM160.5 124.7v16.4h-2.8v-19.9h2.8v1.1a4.4 4.4 0 0 1 2.5-1 1.6 1.6 0 0 1 1.6 1.3 2.8 2.8 0 0 1 2.5-1.3c1.8 0 2 2.3 2 2.3v17.5h-3v-16.3c0-1.2-1.4-1.1-1.4 0V141h-3v-16.4c0-1-1.2-1-1.2 0ZM178 138.3v-5.9c0-2.7-.9-2.5-2.2-2.5H174v-8.6h-3V141h4.8c1.7 0 2.3-.2 2.2-2.8Zm-2.7-.5c0 1-.3 1.6-.6 1.6h-.7v-7.5h.7c.5 0 .6.2.6 1.2Z"/><path d="M125.8 111.3v16.9H121v-7h-7.4v19.9h7.4v-7h4.8v7h7.4v-29.8Z" class="c"/><path d="M121 111.2H76.7c-4.1 0-14.1 3.1-14.1 14.7s9 14.3 14.8 15a26.3 26.3 0 0 0 5.3 0V133a63.6 63.6 0 0 1-6.6-.1A6.7 6.7 0 0 1 70 126a6.9 6.9 0 0 1 6.4-7.2H121Z" class="a"/><path d="M135.2 111.2H178v7.6h-42.8z" class="a"/></svg>