<svg xmlns="http://www.w3.org/2000/svg" xmlns:xlink="http://www.w3.org/1999/xlink" viewBox="0 0 200 250"><defs><linearGradient id="a" x1="115" x2="115" y1="60" y2="115.3" gradientUnits="userSpaceOnUse"><stop offset="0" stop-color="#e66102"/><stop offset=".4" stop-color="#f29d01"/><stop offset=".8" stop-color="#fbc901"/><stop offset="1" stop-color="#fed901"/></linearGradient><linearGradient xlink:href="#a" id="c" x1="87.7" x2="117.1" y1="135.7" y2="135.7"/><radialGradient id="b" cx="63.3" cy="112.8" r="68.1" gradientTransform="matrix(.96 0 0 .96 3.8 2.3)" gradientUnits="userSpaceOnUse"><stop offset="0" stop-color="#bebebe"/><stop offset=".2" stop-color="#9a9a9a"/><stop offset=".6" stop-color="#555"/><stop offset=".9" stop-color="#2a2a2a"/><stop offset="1" stop-color="#191919"/></radialGradient></defs><path d="M65.7 185.6h-2.8l-1.3-2.9H56l-1.2 2.9h-2.6l5.6-12.6h2Zm-5-5.2-2-4.3-1.8 4.3ZM50.6 173v12.5h-2.4v-10h-4.4v5.5a4.5 4.5 0 0 1-4.5 4.5h-.5V183h.4a2.2 2.2 0 0 0 2.1-2.1v-8ZM130 185.5h-3.2l-4.1-5.3-1.6 1.5v3.8h-2.7V173h2.7v5.2l5.4-5.2h3.3l-5.5 5.1ZM163 185.5h-3.2l-4.1-5.3-1.6 1.5v3.8h-2.7V173h2.7v5.2l5.4-5.2h3.4l-5.5 5.1ZM102.8 185.5H100v-5H95v5h-2.8V173H95v4.6h5.1V173h2.8ZM114.5 181.8l1.9 1.9a6.6 6.6 0 1 1 0-8.9l-2 2a3.9 3.9 0 1 0 0 5ZM148.7 179.3a6.6 6.6 0 0 1-11.4 4.4l1.9-2a3.9 3.9 0 0 0 6.6-1.1h-5.7v-2.2h5.8a3.9 3.9 0 0 0-6.7-1.7l-1.9-1.9a6.6 6.6 0 0 1 11.4 4.5ZM35.5 181.8l2 1.9a6.6 6.6 0 1 1 0-8.9l-2 2a3.9 3.9 0 1 0 0 5ZM75 179v-.2a2.8 2.8 0 0 0-.2-5.4 7.7 7.7 0 0 0-2.8-.4h-5.2v12.5H72a7.9 7.9 0 0 0 2.8-.4 3.5 3.5 0 0 0 2.5-3.4A2.9 2.9 0 0 0 75 179Zm-1.2-2c0 .7-.5 1.3-2 1.4H69v-2.9h2.6c1.5 0 2.3.5 2.3 1.4Zm-1.5 6.4h-3.4v-2.8h3c1.7 0 2.5.4 2.5 1.4 0 1-.8 1.4-2.1 1.4ZM84 173a8 8 0 0 0-1.9.2 5.2 5.2 0 0 0-.6.2 3.5 3.5 0 0 0-1.3.9 4.6 4.6 0 0 0-1.2 3 4 4 0 0 0 2.7 3.9l-2.9 4.3h2.8l3-4.3h1.7v4.3H89V173Zm0 6.1a4.9 4.9 0 0 1-.9 0 1.5 1.5 0 0 1-1.3-1.7 1.7 1.7 0 0 1 1.9-1.9h2.6v3.6Z"/><path d="M169.4 172.7a6.6 6.6 0 1 0 6.6 6.6 6.6 6.6 0 0 0-6.6-6.6Zm0 10.4a3.9 3.9 0 1 1 4-3.8 3.9 3.9 0 0 1-4 3.8Z"/><path fill="url(#a)" d="M134.6 116.3c-2.4-9.7-12.5-18-16.5-21.4-1.1-1-2.3-1.8-3.6-2.8a123 123 0 0 1-11.2-9.3c-5.9-5.6-7.2-8.6-7.6-10.8a17 17 0 0 1 .4-8.2l3.1-3.3a1.8 1.8 0 0 1 2.6 0 184.6 184.6 0 0 1 28.8 43.7 56.3 56.3 0 0 1 4 12Z"/><path fill="url(#b)" d="M100.5 154a34.5 34.5 0 0 1-34.4-34.5c0-7 4.3-17.4 10.2-27.9l.1.7c1 5.9 7 11.5 11 15.2l.9.9 3 2.8a9.3 9.3 0 0 1 1.2 1.4 6 6 0 0 1 .9 2 7.6 7.6 0 0 1 .2 1.4 10.3 10.3 0 0 1-2.2 6.5 15.3 15.3 0 0 0-1.5 2 14.7 14.7 0 0 0 27.2 7.3c-.2-6.3-6.2-12-10.6-16.1l-11.6-11-1.6-1.5-1-1a72.5 72.5 0 0 1-5.4-5.4c-1.7-2-3.1-4-3.4-5.8-.3-1.6-1.2-6.4 1.7-13.3a145.3 145.3 0 0 1 11-14 17 17 0 0 0-.5 8.3c.4 2.2 1.7 5.2 7.6 10.8a123 123 0 0 0 11.2 9.3l3.6 2.8c4 3.4 14.1 11.7 16.5 21.4a23.2 23.2 0 0 1 .4 3.2c.8 21.2-15.4 34.5-34.5 34.5Z"/><path fill="url(#c)" d="M117.1 132.2a14.7 14.7 0 1 1-27.2-7.8 14.7 14.7 0 0 0 27.2 7.4v.4Z"/><path fill="#191919" d="M125.2 127.1c0 13.7-9 25-20.7 26.7l-3.3.2h-.1c-12.7-.4-23-12.3-23-26.9a28.5 28.5 0 0 1 8.3-20.5l1 .9.9.9 3 2.8a9.3 9.3 0 0 1 1.2 1.4 6 6 0 0 1 .9 2 7.6 7.6 0 0 1 .2 1.4 10.3 10.3 0 0 1-2.2 6.5 15.3 15.3 0 0 0-1.5 2 14.7 14.7 0 1 0 27.2 7.7v-.4c-.2-6.3-6.2-12-10.6-16.1l-11.6-11-1.6-1.5-.9-.8-.1-.2a72.5 72.5 0 0 1-5.4-5.4c-1.7-2-3.1-4-3.4-5.8a20.5 20.5 0 0 1-.3-2.1 24.3 24.3 0 0 1 2-11.2c1-1.6 2.2-3.1 3.3-4.6-1.3 3.7-1.9 8 1.1 12.5a53.7 53.7 0 0 0 6 6.3 174.3 174.3 0 0 0 16.4 13.4c4.6 3.3 6.2 3.8 10.2 9.7 1.9 2.7 3 7 3 12.1Z"/></svg>