<svg xmlns="http://www.w3.org/2000/svg" xmlns:xlink="http://www.w3.org/1999/xlink" viewBox="0 0 200 200" width="200" height="200"><defs><linearGradient id="a" x1="113.978" x2="113.978" y1="-287.012" y2="-342.321" gradientTransform="matrix(1 0 0 -1 0 -250)" gradientUnits="userSpaceOnUse"><stop offset="0" stop-color="#e66102"/><stop offset=".4" stop-color="#f29d01"/><stop offset=".8" stop-color="#fbc901"/><stop offset="1" stop-color="#fed901"/></linearGradient><linearGradient xlink:href="#a" id="c" x1="86.685" x2="116.09" y1="-362.697" y2="-362.697"/><radialGradient id="b" cx="62.238" cy="-348.295" r="68.112" gradientTransform="matrix(.96 0 0 -.96 3.8 -246.7)" gradientUnits="userSpaceOnUse"><stop offset="0" stop-color="#bebebe"/><stop offset=".2" stop-color="#9a9a9a"/><stop offset=".6" stop-color="#555"/><stop offset=".9" stop-color="#2a2a2a"/><stop offset="1" stop-color="#191919"/></radialGradient></defs><path d="M64.681 162.688h-2.8l-1.3-2.9h-5.602l-1.2 2.9h-2.6l5.6-12.602h2Zm-5.001-5.2-2-4.301-1.8 4.3Zm-10.102-7.402v12.502h-2.4v-10.001h-4.4v5.5a4.5 4.5 0 0 1-4.502 4.501h-.5v-2.5h.4a2.2 2.2 0 0 0 2.1-2.1v-8.002Zm79.414 12.502h-3.2l-4.101-5.3-1.6 1.5v3.8h-2.7v-12.502h2.7v5.201l5.4-5.2h3.301l-5.5 5.1Zm33.006 0h-3.201l-4.1-5.3-1.6 1.5v3.8h-2.7v-12.502h2.7v5.201l5.4-5.2h3.4l-5.5 5.1Zm-60.21 0h-2.8v-5h-5.002v5h-2.8v-12.502h2.8v4.6h5.1v-4.6h2.8Zm11.702-3.7 1.9 1.9a6.601 6.601 0 1 1-.425-9.326q.222.202.425.424l-2 2a3.901 3.901 0 1 0 0 5Zm34.205-2.5a6.601 6.601 0 0 1-11.402 4.4l1.9-2a3.9 3.9 0 0 0 6.602-1.1h-5.701v-2.2h5.8a3.9 3.9 0 0 0-6.7-1.7l-1.9-1.9a6.601 6.601 0 0 1 11.401 4.501Zm-113.22 2.5 2 1.9a6.601 6.601 0 1 1-.424-9.326q.222.202.424.424l-2 2a3.901 3.901 0 1 0 0 5Zm39.507-2.8v-.2a2.8 2.8 0 0 0-.2-5.401 7.702 7.702 0 0 0-2.8-.4h-5.2v12.502h5.2a7.9 7.9 0 0 0 2.8-.4 3.5 3.5 0 0 0 2.5-3.4 2.9 2.9 0 0 0-2.3-2.702Zm-1.2-2c0 .7-.5 1.3-2 1.4h-2.8v-2.9h2.6c1.5 0 2.3.5 2.3 1.4Zm-1.5 6.4h-3.4v-2.8h3c1.7 0 2.5.4 2.5 1.4s-.8 1.4-2.1 1.4Zm11.702-10.401a7.996 7.996 0 0 0-1.9.2 5.18 5.18 0 0 0-.6.2 3.5 3.5 0 0 0-1.3.9 4.601 4.601 0 0 0-1.2 3 4 4 0 0 0 2.7 3.901l-2.9 4.3h2.8l3-4.3h1.7v4.3h2.7v-12.502Zm0 6.101a4.904 4.904 0 0 1-.9 0 1.5 1.5 0 0 1-1.303-1.674l.003-.026a1.7 1.7 0 0 1 1.9-1.9h2.6v3.6Z"/><path d="M168.399 149.786a6.601 6.601 0 1 0 6.601 6.601 6.601 6.601 0 0 0-6.601-6.6Zm0 10.402a4.005 4.005 0 1 1 .002 0Z"/><path fill="url(#a)" d="M133.593 93.376c-2.4-9.701-12.502-18.003-16.503-21.403-1.1-1-2.3-1.8-3.6-2.8a123.021 123.021 0 0 1-11.203-9.302c-5.9-5.6-7.2-8.601-7.6-10.802a17.002 17.002 0 0 1 .4-8.201l3.1-3.3a1.8 1.8 0 0 1 2.545-.055l.055.055a184.636 184.636 0 0 1 28.805 43.707 56.31 56.31 0 0 1 4 12.002Z"/><path fill="url(#b)" d="M99.487 131.083a34.506 34.506 0 0 1-34.406-34.506c0-7.001 4.3-17.403 10.202-27.905l.1.7c1 5.901 7.001 11.502 11.002 15.203l.9.9 3 2.8a9.3 9.3 0 0 1 1.2 1.4 6.002 6.002 0 0 1 .9 2 7.605 7.605 0 0 1 .2 1.4 10.302 10.302 0 0 1-2.2 6.5 15.31 15.31 0 0 0-1.5 2 14.703 14.703 0 0 0 27.205 7.304c-.2-6.301-6.201-12.002-10.602-16.103L93.886 81.774l-1.6-1.5-1-1a72.5 72.5 0 0 1-5.4-5.4c-1.7-2-3.102-4.001-3.402-5.802-.3-1.6-1.2-6.4 1.7-13.302a145.333 145.333 0 0 1 11.002-14.003 17.002 17.002 0 0 0-.5 8.302c.4 2.2 1.7 5.2 7.602 10.802a123.007 123.007 0 0 0 11.202 9.301l3.6 2.8c4 3.4 14.103 11.702 16.503 21.404a23.2 23.2 0 0 1 .4 3.2c.8 21.204-15.403 34.506-34.506 34.506Z"/><path fill="url(#c)" d="M116.09 109.28a14.703 14.703 0 1 1-27.205-7.802 14.703 14.703 0 0 0 27.205 7.401v.4Z"/><path fill="#191919" d="M124.191 104.178c0 13.703-9.001 25.005-20.703 26.705l-3.3.2h-.1c-12.703-.4-23.005-12.302-23.005-26.905a28.505 28.505 0 0 1 8.302-20.503l1 .9.9.9 3 2.8a9.295 9.295 0 0 1 1.2 1.4 6.002 6.002 0 0 1 .9 2 7.605 7.605 0 0 1 .2 1.4 10.302 10.302 0 0 1-2.2 6.5 15.3 15.3 0 0 0-1.5 2 14.703 14.703 0 1 0 27.205 7.702v-.4c-.2-6.301-6.201-12.002-10.602-16.103l-11.602-11-1.6-1.5-.9-.8-.1-.2a72.52 72.52 0 0 1-5.4-5.4c-1.7-2-3.1-4.001-3.401-5.802a20.5 20.5 0 0 1-.3-2.1 24.305 24.305 0 0 1 2-11.201c1-1.6 2.2-3.101 3.3-4.601-1.3 3.7-1.9 8.001 1.1 12.502a53.714 53.714 0 0 0 6.001 6.3 174.325 174.325 0 0 0 16.403 13.403c4.6 3.3 6.201 3.8 10.202 9.701 1.9 2.7 3 7.001 3 12.102Z"/></svg>