<svg xmlns="http://www.w3.org/2000/svg" viewBox="0 0 200 250"><path fill="#ef3340" d="M94.1 67.3c0 27.5-23 32.6-23 59 0 10.3 6.5 19.2 14.2 20.3a17 17 0 0 1-.8-5.4c0-19 30.6-25 30.6-57.4A33 33 0 0 0 91.4 52S94 60.4 94 67.3Z"/><path fill="#509e2f" d="M92.2 142.4c0 5.4 3.8 11.1 8.8 13a7.7 7.7 0 0 1-.4-2.7c0-10.6 31.4-14 31.4-41.7a28.7 28.7 0 0 0-9.6-21.5c-4.3 31.6-30.2 35.9-30.2 52.9Z"/><path fill="#00b5e2" d="M75.7 60.8a13.4 13.4 0 0 1 1.5 5.8c0 9.7-9.2 13.4-9.2 23.3a12.6 12.6 0 0 0 6.1 10.8 12 12 0 0 1 .4-2.4c2.2-6.8 12.3-14.4 12.3-25.2a12.6 12.6 0 0 0-11.1-12.3Z"/><path fill="#0c0c0c" d="M40.3 185.7c2.2 2 4.3 3.2 7.4 3.2 1.7 0 4.8-.7 4.8-3 0-1.3-1-2-3-2.2l-5.2-1c-4.8-.7-7.4-3.2-7.4-7 0-6.1 5-8.7 10.5-8.7a15.2 15.2 0 0 1 11.3 5l-4.9 3.4a8.9 8.9 0 0 0-6.8-3.2c-1.5 0-3.7 1-3.7 2.6 0 1.3 1.1 2 3.6 2.4l2.4.4c5.1.8 9.4 2.4 9.4 7.3 0 7.7-7 9.2-11.8 9.2a15.4 15.4 0 0 1-11.9-5.3Zm34.1 8.4c-8.2 0-13-6.4-13-13.6 0-7.2 4.8-13.5 13-13.5s13 6.3 13 13.5-4.8 13.6-13 13.6Zm0-21.7c-3.7 0-6.5 2.4-6.5 8.1 0 3.8 1.5 8.2 6.5 8.2 4.8 0 6.6-4.2 6.6-8.2 0-4-1.8-8.1-6.6-8.1Zm33.9 3.8a5.8 5.8 0 0 0-5.3-3.8c-3.5 0-6.4 2.4-6.4 8.1 0 3.8 1.6 8.2 6.6 8.2a6.2 6.2 0 0 0 5.2-3.6l5.1 2.4a11.9 11.9 0 0 1-10.3 6.6c-8.2 0-13-6.4-13-13.6 0-7.2 4.5-13.5 12.5-13.5 5 0 8.3 2.4 10.7 6.7Zm15.2-8.5h6.6l9.7 25.6h-6.9l-1.3-4h-9.4l-1.3 4H114Zm6.6 16.9-3.2-10.6-3.2 10.6Zm12.2-16.9h12.8c5.8 0 9.3 2.7 9.3 8.4a7 7 0 0 1-5.3 7l5.9 10.2h-7.2l-5-9.2h-4v9.2h-6.5Zm6.4 11.7h5.9c2 0 3.4-1.1 3.4-3.5a3.1 3.1 0 0 0-3.4-3.4h-5.9Z"/></svg>