<svg xmlns="http://www.w3.org/2000/svg" viewBox="0 0 200 200" width="200" height="200"><path d="M30 147.8h140v1.7H30Zm18.9 8.8h-4.5v13.5a.7.7 0 0 1-.7.7h-7.5a.7.7 0 0 1-.7-.7v-13.5H32a1.7 1.7 0 0 1-1.5-.8l-.2-.4a.4.4 0 0 1 .4-.7h16.8a1.8 1.8 0 0 1 1.4.8l.3.4a.4.4 0 1 1-.4.7Zm101.9-1.2v14.7a.7.7 0 0 1-.8.7h-7.5a.7.7 0 0 1-.7-.7v-6h-7.5v6.3a.4.4 0 0 1-.6.4l-.4-.3a1.5 1.5 0 0 1-.6-1.2v-14.2a.4.4 0 0 1 .6-.4l.3.3a1.5 1.5 0 0 1 .7 1.2v6h7.5v-6.8a.7.7 0 0 1 .7-.7h7.6a.7.7 0 0 1 .7.7Zm19 15.4h-.6a1.5 1.5 0 0 1-1.1-.6l-3.7-5.3-3.2 5.1a1.7 1.7 0 0 1-1.4.8H154a.3.3 0 0 1-.2 0l-.4-.3a1.5 1.5 0 0 1-.6-1.2v-14.2a.4.4 0 0 1 .6-.4l.3.3a1.5 1.5 0 0 1 .6 1.2v12.1l5.8-9.2.7-1 1.6-2.6a1.7 1.7 0 0 1 1.5-.8h5a1 1 0 0 1 .8 1.4l-4.6 7.4 4.7 6.7a.4.4 0 0 1-.2.6Zm-83.4-14.6v14.2a.4.4 0 0 1-.6.4l-.2-.3a1.5 1.5 0 0 1-.7-1.2V157L76.7 170a1.7 1.7 0 0 1-1.5.8h-5.6a.3.3 0 0 1-.2 0l-.3-.3a1.5 1.5 0 0 1-.7-1.2v-14.2a.4.4 0 0 1 .6-.4l.3.3a1.5 1.5 0 0 1 .7 1.2v12.1l8-12.8a1.7 1.7 0 0 1 1.5-.8h5.8a.4.4 0 0 1 .2 0l.2.2a1.5 1.5 0 0 1 .8 1.3Zm42.8 8h-12.1a1.2 1.2 0 0 1-1-.9l-.2-.4a.4.4 0 0 1 .2-.7h12a1.2 1.2 0 0 1 1.1.8l.2.4a.4.4 0 0 1-.3.7Zm-63.8 6.6h-4.8a1.7 1.7 0 0 1-1.6-1l-5.2-13.7-3 7.6h3.8a1 1 0 0 1 1 .6l2.2 5.5a.7.7 0 0 1-.6 1h-9.4a.8.8 0 0 1-.7-1l5.5-14a1.7 1.7 0 0 1 1.3-1.2 1.6 1.6 0 0 1 .3 0h5a1.7 1.7 0 0 1 1.5 1l5.3 14a.8.8 0 0 1-.7 1.1Zm41.1-16h-13a5.2 5.2 0 0 0-5.2 5v2.4a5.2 5.2 0 0 0 5.1 5.2h2v2.7a.7.7 0 0 0 .8.7h7.5a.7.7 0 0 0 .7-.7v-2.7h2a5.2 5.2 0 0 0 5.2-5.2v-2.4a5.2 5.2 0 0 0-5-5Zm.4 8.6a2.4 2.4 0 0 1-2.4 2.4v-7.5a.7.7 0 0 0-.8-.7h-7.5a.7.7 0 0 0-.7.7v7.5a2.4 2.4 0 0 1-2.4-2.4v-4.8a2.4 2.4 0 0 1 2.4-2.4h9a2.4 2.4 0 0 1 2.4 2.4ZM89.3 68.8a2.7 2.7 0 0 0 .3.5l.5.8a2.6 2.6 0 0 1 .3.7 5.7 5.7 0 0 1 0 1.4.4.4 0 0 0 0 .3.3.3 0 0 0 .4 0 .6.6 0 0 0 .3 0 1.4 1.4 0 0 0 .4-.7 6.8 6.8 0 0 1 .2-1.4 2.1 2.1 0 0 0 .3-.7.8.8 0 0 0-.3-.6 5.6 5.6 0 0 0-.7-.5l-.9-.6a3.9 3.9 0 0 0-.6-.3h-.3a1 1 0 0 0 0 .3 2 2 0 0 0 .1.8Z" fill="#c0a775"/><path d="M164.8 135a3.1 3.1 0 0 0-2.7 2.6 2.8 2.8 0 0 1-3 2.4c-3 0-5.2-3.4-5.6-4-2.2-3.3-2.6-5.4-4-9-1.4-4.4-2.3-8.8-4.3-13.2-4.4-9.8-5.4-13-7.6-14.7a9 9 0 0 0-5.4-2.2c-5 0-6.3-4-8.8-5.4a5 5 0 0 0-3.1-.9c-.8 0-2.1-.6-2.2-1.3 0-.9 1.6-1.5 3-2 6.2-3 9-10.6 7.9-10.7-.5 0-4.7 5-9.8 5.6-.3 0-.8 0-1-.5 0-.5.9-1.3 1.8-1.5 3.7-1 9.3-6.2 9.8-10.3 0-.3 0-1-.4-1-.2 0-1.7 1.6-4 3.4s-5 3.7-8 4.3a1 1 0 0 1-1-.9c0-1.3 2.3-2 5.8-4 2.5-1.6 6.4-4.6 6.8-9 0-.7-.4-1.7-.8-1.7a.2.2 0 0 0-.1.1c-1.4 2-5.7 6.2-9 6.4a1.2 1.2 0 0 1-1.3-1c0-1 .6-1.6 3.2-2.9 2-1 5.6-4.4 5.6-7.6 0-1 0-2.6-.4-2.6-1.5.4-2.3 2.4-4.8 4.2-3 2.2-5 3.1-7 4.8a19.4 19.4 0 0 0-7.3 13.7c-.2 7.4-3 7.4-5 7.8.3-3.5 2.8-6.6 4-10a.5.5 0 0 0-.1-.6c-.6-.3-3.5 3.5-5.3 6.4a32.6 32.6 0 0 0-2.4 4.5 11.6 11.6 0 0 1-2-.3c-.3-1 0-2.8-.3-3.7a9.5 9.5 0 0 0 1.9-4.4 6 6 0 0 0-.8-4A28 28 0 0 0 88.3 61a25.2 25.2 0 0 1-2.4-2.8 4.4 4.4 0 0 0-1.2-1 11.8 11.8 0 0 0-1.7-.7.3.3 0 0 0-.4.4 5.1 5.1 0 0 0 .7 1.3 2.8 2.8 0 0 1 .6.8 1.7 1.7 0 0 1 0 .5v.6a1.1 1.1 0 0 1 0 .5.3.3 0 0 1-.1 0 4 4 0 0 1-.5 0 3 3 0 0 1-1.3-.2c-1.8-.9-2.4-1.8-6.2-5.9-1.7-1.8-2.7-2.4-3.3-2.4a.6.6 0 0 0-.3.1c-.5.3-.4 2 0 2.7 1.8 3.5 2.4 4.7 1.8 5.2a.4.4 0 0 1-.3.1c-.8 0-2-2-3-2-.4 0-.5.3-.6 1.1 0 1.6 2.2 3.8 2.2 5a.8.8 0 0 1-.4.5.6.6 0 0 1-.6 0l-.6-.2a1.3 1.3 0 0 0-1.3.1 1.1 1.1 0 0 0-.3 1c0 .4.3.8.3 1.3a2.3 2.3 0 0 1-.2 1l-.8 1.2a.6.6 0 0 1-.7.3 7 7 0 0 1-3.3-2.8c-2-3.3-4.3-9.7-5.2-11.4-3.1-6-5.7-6.6-5.3-6a22.8 22.8 0 0 1 4 6.4c1.6 4 1.8 4.8 3.5 9.4a19.3 19.3 0 0 0 5.4 7.6.8.8 0 0 1 .3.8l-.1.7h-.5c-.6 0-1-.7-1.4-1a12.7 12.7 0 0 0-1.8-1.6 11.4 11.4 0 0 0-4.7-1.8.4.4 0 1 0-.3.8l1.9 1a11.6 11.6 0 0 1 1.5.8 7.6 7.6 0 0 1 2.2 2.4 9.6 9.6 0 0 1 1 3.4 15.7 15.7 0 0 1 0 3.2 19.8 19.8 0 0 1-.2 2.1l-.5 1.8-.5 1c-2 3.8-3.1 6-3.5 8.6a58.8 58.8 0 0 0 0 9c.3 5 .2 5.7.2 7a29.2 29.2 0 0 1-1.4 8.3c-.8 3-1 2.3-2.8 7.3l-2.3 6.7c-1.1 3.2-1.6 4-2.5 4.8a9.2 9.2 0 0 1-4.4 1.5 3.4 3.4 0 0 0-2.5 3.1c0 1.3 1.2 1.4 2.3 1.5l3.5.2a16 16 0 0 0 4.2-.4 6.3 6.3 0 0 0 4-3.6c1-2.3.6-2.4 1.4-6a31.5 31.5 0 0 1 3-5.4 11 11 0 0 1 2.3-2.7.4.4 0 0 1 .2 0c.5 0 .8 1 .9 3a9.7 9.7 0 0 0 2.2 6.1 6.8 6.8 0 0 0 5 2.3 2.3 2.3 0 0 0 2.2-2.3c0-1.6-2-2.6-2.8-5a13.3 13.3 0 0 1-1-4.5c0-1.6.4-3.3 1-3.5a4.5 4.5 0 0 1 .7 0h2.2c3.5 0 9.8-1 13.7-3.6 3.8-2.4 5-8.2 6.7-10.3 1.4-1.8 5-2 7.3-2 1 0 2.2.1 5 2.4 3.7 3 6 6 9.6 8.7 4.4 3.1 10.2 7.6 16.3 9 2 .5 2 .7 2.6 2.7a10.5 10.5 0 0 1 .3 4.4c-.4 1.2-.7 1.1-2.1 3.7-1.4 2.5-1.3 2.6-2 3a3 3 0 0 1-1.5.6h-3c-1 0-2.3.5-2.3 1.6 0 .8 0 1.2 1.3 1.2l7.9.1a51.5 51.5 0 0 0 6.4-.2c1.3-.3 2.6-2.4 3.4-3.7a23 23 0 0 0 1.9-3.2 1.1 1.1 0 0 1 1-.7c.6 0 1 1.2 1.8 2.2a12 12 0 0 0 9.4 5c4.6 0 7.2-2.9 7.4-5.8a2.4 2.4 0 0 0-2-2.6Zm-87-18.7a9.1 9.1 0 0 1-4.6 1 3 3 0 0 0-2.2.7 9.3 9.3 0 0 0-1.4 1.7c-.3.6-.5 1.2-1.2 1.3a1.4 1.4 0 0 1-1.5-.5c-1-1.3.6-2.5 1.2-3.5a27.2 27.2 0 0 1 2.8-3.3 12.8 12.8 0 0 1 1.3-1.5 12 12 0 0 1 1.8-1.5 2.6 2.6 0 0 1 1.8-.7c1.3.2 2.4 2 3 3.1.8 1.3 0 2.5-1 3.2Zm58.2 2.2c-.5.3-1.3.1-1.8 0h-.1a4.5 4.5 0 0 1-2.2-1.3h-.1l-2.5-2.4a37.5 37.5 0 0 0-4.8-4.2 12.9 12.9 0 0 0-3.7-1.8 12.4 12.4 0 0 1-2.6-1.2 11.4 11.4 0 0 1-2.5-2.3c-1.4-1.5-2.8-3-5.4-3a10.3 10.3 0 0 0-3.7.8 6.2 6.2 0 0 1-3 .5 27.3 27.3 0 0 1-4.5-1 12.2 12.2 0 0 0-3.1-.7 2.2 2.2 0 0 0-2.2 1.8c-.3.8-.5 1.4-1.5 1.5a9.7 9.7 0 0 0-4 1 4.8 4.8 0 0 0-1.7 2l-1.2 1.7c-2.3 3.2-3 3.2-3.3 3.2a2.1 2.1 0 0 1-1.7-1.8 3.6 3.6 0 0 1 .8-2 5.5 5.5 0 0 0 1.2-3.3 4.1 4.1 0 0 0-1.4-2.5 3.5 3.5 0 0 1-1.1-2v-4l-.1.1a27.8 27.8 0 0 0-6.7 4.6l-2.1 2.1c-.8.8-1.4 1.4-1.8 1.4s-1.2-.8-2-1.6a7.6 7.6 0 0 0-1.4-1.4h-.2v.1a8.7 8.7 0 0 0-.2 2 43.8 43.8 0 0 1-.7 6.8 32 32 0 0 1-1.7 6.2 52.7 52.7 0 0 1-2.4 5.8 48.8 48.8 0 0 0-2 4.6l-1 2.7-.5 1a23.2 23.2 0 0 0-1 2.3l-.1.2a14.5 14.5 0 0 1-2.2 4.7c-1.4 1.8-2.2 2.4-4.3 2.5a10.6 10.6 0 0 1-1.5 0c-.3 0-.8-.2-1-.5a.6.6 0 0 1 .5-.8 6.3 6.3 0 0 0 4.4-1.7c1-.9 1.5-1.8 2.7-5l2.3-6.8a38.8 38.8 0 0 1 1.7-4.4 19.5 19.5 0 0 0 1.3-3c1-3.5 1.3-4.6 1.3-6.3v-2l-.3-7a61.5 61.5 0 0 1 0-9 25 25 0 0 1 3.3-8.4l1-2a12.3 12.3 0 0 0 1.3-3.9 5.5 5.5 0 0 0 .1-1v-.2l1-5a12.2 12.2 0 0 1 .7-3 17.3 17.3 0 0 1 3.8-6 8 8 0 0 1 1.2-.7 5 5 0 0 0 1.8-1.3 3.2 3.2 0 0 0 .5-2 14.5 14.5 0 0 0-.3-2.5 1.2 1.2 0 0 1 .2-1.2 1 1 0 0 1 1 0c1.9 2 2.4 2.8 3.9 3.5a5.8 5.8 0 0 0 2.8.2 20.2 20.2 0 0 1 4 0 13.2 13.2 0 0 1 5.2 4.2l1 1.4a39.3 39.3 0 0 1 3.1 5.5 4.9 4.9 0 0 1 .2 1.3c0 1.3-.7 1.5-.7 2.4 0 .6.5.7.4 1.2a4 4 0 0 1-1.7 2.3 5.5 5.5 0 0 1-3.4 1c-2 0-2.8-3-6-3-2.2 0-4.8 1.2-4.8 4.3 0 3 1.7 4.6 4.7 4.6 4.9 0 6.5-1.5 11-1.5h1.5a10.2 10.2 0 0 0-.7 3.4c0 2.3 1.7 3.3 3.8 3.3 1 0 1.6-.2 3.5-.2l4 .2c1 0 1.7-.2 1.7-.7 0-1-1.3-1.7-2-2-3.5-.8-4.5-.8-5.5-2.3a3.3 3.3 0 0 1-.5-1.8h1.3c3.2 0 5.5 2.5 8.8 5 2.5 1.8 3.6 1.8 4.9 1.8 2.2 0 2.2-.4 4-.4 2.8 0 4.2 3.5 6.2 4.6a12.2 12.2 0 0 0 3 1.2 8 8 0 0 0 2 .2 8.6 8.6 0 0 1 5 2 5.8 5.8 0 0 1 1.3 1.5 3.6 3.6 0 0 1 .6 3.1.7.7 0 0 1-.6.5c-.8 0-1-.2-2-1l-2.3-1.7a4 4 0 0 0-2.5-.9 2 2 0 0 0-2.2 2.4 12.6 12.6 0 0 0 1 4.3c1.2 3.2 1.9 4 2.6 4.8a7.1 7.1 0 0 1 .7 1l.2.3c1.7 2 2.2 4.3 2 4.6Zm5 3.7c-.7-.6-2.2-1.3-2.3-2.4 0-.5.2-.7 0-1a6 6 0 0 0-.9-.9 13.1 13.1 0 0 1-1.2-1.3 33 33 0 0 1-1.8-3c-.7-1-1.7-2-2.4-3.4a19 19 0 0 1-1.7-4.2c-.3-1-.9-2.5 0-3.5.6-1 2-.5 2.8 0 4 2.5 6 7 7.5 11.1a61 61 0 0 1 3.1 8.6 16.3 16.3 0 0 1 1 2c0 .3-.6 1-1 .5l-3-2.5Zm6.2 11.8a5.7 5.7 0 0 1-1 1.8c0 .2-.3.4-.5.5-.4 0-.5-.3-.5-.6a10.8 10.8 0 0 1 0-1.7l.3-2.5a5.6 5.6 0 0 0-.8-2.6l-1.6-2.5a.4.4 0 0 1 .1-.5 1.5 1.5 0 0 1 1.4.2 5.3 5.3 0 0 1 1.1.8 5.7 5.7 0 0 1 1.4 2 6.7 6.7 0 0 1 .6 2.6 8 8 0 0 1-.4 2.5Z" fill="#c0a775"/><path d="M69.8 52.5c-1-.7-2.6-3.4-5-9.4a32.6 32.6 0 0 1-2.7-12.4c0-.4.1-2.8.4-2.8s.3 2.6 1.6 7.4a34.8 34.8 0 0 0 3.7 9.3c1.3 2.3 3 4.5 3.7 5a1.4 1.4 0 0 0-1.4.8 3.8 3.8 0 0 0-.3 2Zm-1 6.6a30.7 30.7 0 0 1-6-10.2 86.3 86.3 0 0 1-3.6-12.5 64 64 0 0 0-2.5-8.5c-.4-.6 2.7.8 4 7.6A93.5 93.5 0 0 0 65 49.3a30 30 0 0 0 4.3 6.6c-.8 0-1 .4-1 1.1s.4 1.5.4 2.1Zm-1 7.4a24.3 24.3 0 0 1-6.1-10.2c-1.9-4.5-2.7-8.8-4.2-12.6a27.7 27.7 0 0 0-4.2-7c-.4-.5 2.1-.4 5.3 6 1 1.8 4 10.5 5.4 13.7a35 35 0 0 0 4.4 6.7c-.5 0-.8.7-.8 1.4ZM129 54.8a49.2 49.2 0 0 0 10-23.7c0-.5 0-2.4-.3-2.4-.4 0-.8 3.8-2.5 8.5a59.4 59.4 0 0 1-4.8 9.5 19.3 19.3 0 0 1-4.2 5 1.6 1.6 0 0 1 1.6 1 5 5 0 0 1 0 2.1Zm1.4 8c1.8-1.6 3.7-4.5 6.7-10a84.7 84.7 0 0 0 5.5-17.7 26 26 0 0 1 3-7.6c.7-.7-2-1.3-4 5.3-.9 3.2-3 13-7.3 20.2-1.3 2.2-4.2 6-5 6.6a1.3 1.3 0 0 1 1.3 1.3v1.8Zm1.2 8.5c1.8-1.5 5.2-6.5 7.6-12.5 1.7-4.6 2.8-9.5 4.3-13.4 1.2-3.2 4.8-7.7 5.6-8.8.4-.6-3.3.8-6.4 7.2-1 1.8-4 11.5-5.6 14.8a34 34 0 0 1-6.2 8.7c.5 0 1.1 1.1 1.1 2a7 7 0 0 1-.4 2Zm-.9 8.6c3.5-1.8 5.8-4.4 8.6-10.2 3.3-6.7 2.6-8.4 4.5-12a28.2 28.2 0 0 1 5.2-6.6c.5-.6-3 .1-6 5.3-1 1.7-5 11.2-7 14.3a16 16 0 0 1-5 4.6 1.4 1.4 0 0 1 .8 1.4 7.3 7.3 0 0 1-1 3.2Zm-6.6 8.6A22.7 22.7 0 0 0 136 82c4.4-4.5 4-5.5 6.2-6.8a7.1 7.1 0 0 0 2.3-1.6c.6-.7-1.7-.8-4.5 1.3-1.6 1.2-3.3 4-6.7 6.4a20 20 0 0 1-3.6 2 33.5 33.5 0 0 1-5.4 5.2Z" fill="#c0a775"/></svg>