<svg xmlns="http://www.w3.org/2000/svg" viewBox="0 0 200 250"><path fill="#ff9601" d="M52.5 120.9a4.4 4.4 0 0 0-1.2-.5h.8a4.5 4.5 0 0 0 4.5-4.5v-1h-7.3a4.4 4.4 0 0 0-1.3.3l.7-.4a4.5 4.5 0 0 0 1.7-6.1l-.5-.9-6.3 3.7a4.4 4.4 0 0 0-1 .8l.4-.7a4.5 4.5 0 0 0-1.7-6.1l-.8-.5-3.6 6.3a4.4 4.4 0 0 0-.5 1.3v-1a4.5 4.5 0 0 0-4.5-4.4h-1v7.3a4.4 4.4 0 0 0 .3 1.4l-.4-.8a4.5 4.5 0 0 0-6.1-1.6l-.9.4 3.7 6.3a4.4 4.4 0 0 0 .8 1l-.7-.3a4.5 4.5 0 0 0-6.1 1.6l-.5.8 6.3 3.6a4.4 4.4 0 0 0 1.3.5h-1a4.5 4.5 0 0 0-4.4 4.5v1h7.3a4.4 4.4 0 0 0 1.4-.3l-.8.5a4.5 4.5 0 0 0-1.6 6l.4.9 6.3-3.7a4.4 4.4 0 0 0 1-.8l-.3.8a4.5 4.5 0 0 0 1.6 6l.8.5 3.6-6.3a4.4 4.4 0 0 0 .5-1.2v.8a4.5 4.5 0 0 0 4.5 4.5h1v-7.3a4.4 4.4 0 0 0-.3-1.3l.5.7a4.5 4.5 0 0 0 6 1.7l.9-.5-3.7-6.3a4.4 4.4 0 0 0-.8-1l.8.4a4.5 4.5 0 0 0 6-1.7l.5-.8Zm-6.3 5-.8.5 2.3 3.9a4.4 4.4 0 0 0-3.3-1.5h-1v4.5a4.4 4.4 0 0 0-2-2.9l-.9-.5-2.2 4a4.5 4.5 0 0 0-.4-3.7l-.5-.8-3.9 2.3a4.4 4.4 0 0 0 1.5-3.3v-1h-4.5a4.4 4.4 0 0 0 3-2l.4-.9-3.9-2.2a4.5 4.5 0 0 0 3.6-.4l.8-.5-2.2-3.9a4.4 4.4 0 0 0 3.2 1.5h1v-4.5a4.4 4.4 0 0 0 2.1 3l.8.4 2.3-3.9a4.5 4.5 0 0 0 .4 3.6l.4.8 3.9-2.2a4.4 4.4 0 0 0-1.5 3.2v1h4.5a4.4 4.4 0 0 0-2.9 2.1l-.5.8 4 2.3a4.5 4.5 0 0 0-3.7.4Z"/><path d="M90.9 114.4a9.6 9.6 0 1 0 5.9 17.2 4.3 4.3 0 0 0 .6.8 4.4 4.4 0 0 0 3.1 1.3V124a9.6 9.6 0 0 0-9.6-9.6Zm0 14.8A5.2 5.2 0 1 1 96 124a5.2 5.2 0 0 1-5.2 5.2ZM81.7 114.7a4.2 4.2 0 0 1-4.2 4.3h-2.6v14.8h-4V119h-6.8a4.2 4.2 0 0 1 4.2-4.3ZM169.4 114.4a9.6 9.6 0 1 0 9.6 9.6 9.6 9.6 0 0 0-9.6-9.6Zm0 14.8a5.2 5.2 0 1 1 5.1-5.2 5.2 5.2 0 0 1-5.1 5.2ZM158.6 131a9.6 9.6 0 0 1-15.4-2.8v-.1a9.7 9.7 0 0 1-.2-7.9l.2-.3a9.8 9.8 0 0 1 1.2-2 9.6 9.6 0 0 1 14.1-.8 4.6 4.6 0 0 1-4.8 2 4.6 4.6 0 0 0-.7-.1 5 5 0 0 0-1.1-.1 5.2 5.2 0 0 0 0 10.3 5 5 0 0 0 1.2-.1 4.9 4.9 0 0 0 .5-.2 4.6 4.6 0 0 1 5 2ZM140.2 131a9.6 9.6 0 0 1-14.3-1 9.5 9.5 0 0 1-1-1.8l-.1-.1a9.7 9.7 0 0 1-.1-7.9l.1-.3a9.8 9.8 0 0 1 1.3-2 9.6 9.6 0 0 1 14.1-.8 4.6 4.6 0 0 1-4.8 2 4.6 4.6 0 0 0-.7-.1 5 5 0 0 0-1.2-.1 5.2 5.2 0 0 0 0 10.3 5 5 0 0 0 1.3-.1 4.9 4.9 0 0 0 .5-.2 4.6 4.6 0 0 1 5 2ZM120.8 114.7v19h-.7a7.5 7.5 0 0 1-6.7-4l-1.8-3.4-2-3.7a1.5 1.5 0 0 0-1.3-.8v12h-4v-19h1.4a7.5 7.5 0 0 1 6.7 4l1.6 3 2.1 4a.8.8 0 0 0 .8.5v-11.6Z" fill="#013705"/><path d="M135 121.7h5.2a4.5 4.5 0 0 1-4.4 4.4h-5.2a4.5 4.5 0 0 1 4.5-4.4Z" fill="#013705"/></svg>