<svg xmlns="http://www.w3.org/2000/svg" viewBox="0 0 200 200" width="200" height="200"><path d="M38 77.2c2.8 7.1-1.8 11.8-6.4 16.4-4.2 4.7-8 9.6-.4 18.4-2.9-7.2 1.8-11.8 6.3-16.4 4.3-4.7 8-9.6.5-18.4" fill="#ef3d42"/><path d="M31.2 68c2.8 7.2-1.8 11.8-6.4 16.4-4.3 4.7-8 9.6-.5 18.4-2.8-7.2 1.8-11.8 6.4-16.4 4.3-4.7 8-9.6.5-18.4m116.1 28.4v14.7h6.5v-5.4h7v-3.2h-7v-2.9h14v11.5h6.4V99.6h5.8v-3.2h-32.7m-13.7 11.5v-2.6h8.3v-3.2h-8.3v-2.5h10.7v-3.2h-17.2v14.7h17.4v-3.2h-11" fill="#00b274"/><path d="M65.8 96.4H48v3.2h5.7v11.5h6.5V99.6h5.6v-3.2m4.9 9.1 3-5.7 2.8 5.7Zm7.8-9h-6.9l-8 14.6h4.2l1.3-2.5h9l1.3 2.5h7.1l-8-14.7" fill="#ef3d42"/><path d="M119.3 96.4v7.3L109 96.4h-5v14.7h4.4V103l10.6 8h4.7V96.4h-4.4" fill="#00b274"/><path d="M101.8 96.4H84.4v3.2h5.7v11.5h6.4V99.6h5.3v-3.2" fill="#ef3d42"/></svg>