<svg xmlns="http://www.w3.org/2000/svg" viewBox="0 0 200 250"><defs><style>.a{fill:#ef3d42}.b{fill:#00b274}</style></defs><path d="M38 102.2c2.8 7.1-1.8 11.8-6.4 16.4-4.2 4.7-8 9.6-.4 18.4-2.9-7.2 1.8-11.8 6.3-16.4 4.3-4.7 8-9.6.5-18.4" class="a"/><path d="M31.2 93c2.8 7.2-1.8 11.8-6.4 16.4-4.3 4.7-8 9.6-.5 18.4-2.8-7.2 1.8-11.8 6.4-16.4 4.3-4.7 8-9.6.5-18.4M147.3 121.4v14.7h6.5v-5.4h7v-3.2h-7v-2.9h14v11.5h6.4v-11.5h5.8v-3.2h-32.7M133.6 132.9v-2.6h8.3v-3.2h-8.3v-2.5h10.7v-3.2h-17.2v14.7h17.4v-3.2h-11" class="b"/><path d="M65.8 121.4H48v3.2h5.7v11.5h6.5v-11.5h5.6v-3.2M70.7 130.5l3-5.7 2.8 5.7Zm7.8-9h-6.9l-8 14.6h4.2l1.3-2.5h9l1.3 2.5h7.1l-8-14.7" class="a"/><path d="M119.3 121.4v7.3l-10.3-7.3h-5v14.7h4.4V128l10.6 8h4.7v-14.6h-4.4" class="b"/><path d="M101.8 121.4H84.4v3.2h5.7v11.5h6.4v-11.5h5.3v-3.2" class="a"/></svg>