<svg xmlns="http://www.w3.org/2000/svg" viewBox="0 0 200 200" width="200" height="200"><defs><style>.a{fill:#2a1670}.b{fill:#647db4}.c{fill:#fff}.d{fill:#232323}</style></defs><path d="M57.1 21h85v129.1h-85Z" class="a"/><path d="M142.2 150.1h-85v-11.6h50l35-13ZM57.8 157h38v2.6h-38Zm45.7 0h38v2.6h-38Z" class="b"/><path d="M100 166.4a5.4 5.4 0 0 1-8.3-4.6c0-3 2.2-6.2 5.4-11.7l2.7 4.8a14.5 14.5 0 0 0-2.4 6.8 5.3 5.3 0 0 0 2.5 4.6Z" class="b"/><path d="M108 161.8a5.4 5.4 0 0 1-8.2 4.6 5.3 5.3 0 0 0 2.6-4.6c0-2-1-4.2-2.6-6.9l2.8-4.8c3.1 5.4 5.4 8.7 5.4 11.6Z" class="a"/><path d="M70.3 31.9h6v8h-6Zm0 8.6h6v7.7h-6Zm0 8.1h6v7.7h-6Zm0 8.1h6v7.6h-6Zm0 8h6v7.7h-6Zm0 8.2h6v7.6h-6Z" class="c"/><path d="M130.8 56.2v81.7H65.2V91h5V81h6v10h5.2v35.7H104v-49a2 2 0 1 1 4.2 0v57.3h.9V72.6h4.5V60.3h4.1v74.6h1.3V56.2c0-3.2 2.6-4.6 5.8-4.6a7.3 7.3 0 0 1 4.2 1.2 4 4 0 0 1 1.7 3.5Z" class="c"/><path d="M77.8 35.2h-9a.5.5 0 0 1 0-1h9a.5.5 0 1 1 0 1Zm0 43.3h-9a.5.5 0 0 1 0-1h9a.5.5 0 1 1 0 1Zm46.4-6.7h-7.3a.4.4 0 1 1 0-.8h7.3a.4.4 0 1 1 0 .8Z" class="b"/><path d="M134.5 77.9h-4.8V67.7h4.1a.4.4 0 0 0 0-.7h-4v-6.3h4a.5.5 0 0 0 0-.9h-4V47.5a1.5 1.5 0 0 0-1.5-1.5h-2.9a1.5 1.5 0 0 0-1.5 1.5v4.6h1.8v-3.7a.7.7 0 0 1 .7-.7h.8a.7.7 0 0 1 .8.8v5.3h-9.4a.5.5 0 0 0 0 1h9.4v4.8h-15a.5.5 0 0 0 0 1h15v17.2h-11.5a.2.2 0 0 0-.1 0l-4.8 3.6v-8.3a.4.4 0 0 0-.3-.4h-4.6v-6a.7.7 0 0 1 .8-.6h12.3v-.8h-12.3a1.5 1.5 0 0 0-1.6 1.5v6h-4.8a.4.4 0 0 0-.4.4V110H85.2V108h1.2a1.5 1.5 0 0 0 1.4-1.5v-6a1.5 1.5 0 0 0-1.4-1.5H85v-2.7a1 1 0 0 0-1-.9h-2.7v.7h2.2a.5.5 0 0 1 .6.5V99H79V88.6a.4.4 0 0 0-.4-.4H67.8a.4.4 0 0 0-.3.4v17h-7.3v2h7.3v3.5H65v.8h2.4v5.6H65v.7h2.4v5.6H65v.8h2.4v5.5H65v.7h2.4v5.9a.4.4 0 0 0 .8 0v-5.8h10v5.9a.4.4 0 0 0 .8 0v-5.9h2.2v-.7H79v-5.6h2.2v-.8H79v-1.3h5v3.6h1v-3.6h4v1.6a1.5 1.5 0 0 0 1.5 1.6h10.2v8.1a.4.4 0 0 0 .8 0v-7.3h9.3v7.4a.4.4 0 1 0 .7 0V127l4.6 2.8v4.1a.4.4 0 1 0 .8 0v-11.5h10.9v7.3h1.8v-7.3h4.6v3.9a.4.4 0 0 0 .6 0v-48a.4.4 0 0 0-.4-.3Zm-49.3 22h1.2a.7.7 0 0 1 .7.7v6a.7.7 0 0 1-.7.7H85ZM73.8 89.5l4.1 4.3h-4Zm0 5.6 4 4h-4Zm0 5.3 4.3 4.4h-4.3ZM68.4 89h4l-4 4.2Zm4.6.5v4.3h-4.2Zm-4.6 5h4l-4 4.3Zm4.6.6v4h-3.9Zm-4.6 4.8h4l-4 4.2Zm4.6.5v4.4h-4.3Zm5.5 29.7H68.4v-5.5h10Zm0-6.3H68.4v-5.6h10Zm0-6.4H68.4v-5.5h10Zm0-6.3H68.4v-3.5h6.3v-2h3.8Zm0-7-4.2-4.2h4.2Zm0-5.3-4.2-4.3h4.2Zm0-5.6L74.3 89h4.2Zm.7 18.7h2.2v5.6h-2.2Zm5 9.9H79v-3.6h2.2v2.4H84Zm0-1.9h-1.8v-9.1h1.8Zm0-10h-1.8v-1a.7.7 0 0 1 .7-.8h1Zm0-2.6h-1.3a1.5 1.5 0 0 0-1.5 1.6v2.2h-2.2V100h5Zm4.8 14.5h-3.8v-1.2h3a.7.7 0 0 1 .8.8Zm11.8 3.1H90.4a.7.7 0 0 1-.8-.7v-1.7h11Zm0-3.1H89.6v-.4a1.5 1.5 0 0 0-1.5-1.5h-3v-9.1h15.5Zm10 3.9h-9.3v-6.4h9.4Zm0-7.1h-9.3V112h9.4Zm0-7.3h-9.3v-6.7h9.4Zm0-7.3h-9.3v-6.7h9.4Zm0-7.4h-9.3V90h9.4Zm0-7.4h-9.3v-6.5h9.4Zm0-7.2h-9.3v-8.5h4.4v2.6h.7v-2.6h4.3Zm5.5 39.6-4.4-2.7 4.3-3.2Zm-4.4-10 4.3-3.3v6Zm0-7.3 4.3-3.3v5.9Zm0-7.3 4.3-3.3v5.9Zm0-7.4 4.3-3.3v6Zm4.3-10.6v5.9l-4.3-2.7Zm-4.6 4 4.3 2.6-4.3 3.3Zm0 7.2L116 93l-4.3 3.2Zm0 7.4 4.3 2.7-4.3 3.2Zm0 7.4 4.3 2.7-4.3 3.2Zm0 7.3 4.3 2.7-4.3 3.2Zm0 7.3 4.1 2.6-4 3.1Zm.1 6.6 4.6-3.4v6.1Zm16.3-4.5h-11v-6.4h10.9Zm0-7.1h-11V108h10.9Zm0-7.4h-11v-6.6h10.9Zm0-7.3h-11v-6.6h10.9Zm0-7.3h-11V86h10.9Zm0-7.5h-11v-6.5h10.9Zm6.2 36.6h-4.5v-6.4h4.6Zm0-7.1h-4.5V108h4.6Zm0-7.4h-4.5v-6.6h4.6Zm0-7.3h-4.5v-6.6h4.6Zm0-7.3h-4.5V86h4.6Zm0-7.5h-4.5v-6.5h4.6Z" class="b"/><path d="M126 70.9a1.5 1.5 0 1 1 1.4-1.7v.1A1.5 1.5 0 0 1 126 71Zm0-2.6a1 1 0 1 0 .9 1.1 1 1 0 0 0-1-1ZM69.5 45.8v-1.2h5V46Zm0 10v-1.4h5v1.3Zm0 11.3v-1.3h5V67Z" class="b"/><path d="M42.5 137.5c5.3.2 5.3.2 13.5-.7 19.1-1.8 19.7-4 31-4.7a61 61 0 0 1 20.6 1.6 27.7 27.7 0 0 1 7.1-4.6c3.2-1.4 6.7-2.5 13.2-3.9 9-1.8 18.9-2.3 30-5.4-.8 1.2-4.1 4.3-9.4 6.6-7.2 3-7.9 2-15.6 5a24.5 24.5 0 0 0-8.1 4.5c2.7.7 3 .4 6.2 1.4a37 37 0 0 1-11.6 4.8 51.8 51.8 0 0 1-13.1 1.8c-14 .8-15 .2-18.7 1.2a11.6 11.6 0 0 1 6-3.9c-4.1-1.8-15.5-.4-31.5-.5-13.3 0-17.2-2.8-19.6-3.2Z" class="c"/><path d="m86.1 146 1-1.3a13 13 0 0 1 4.7-3.5c-2.9-.5-8-.4-14.7-.3q-6.7.3-15 .3a48 48 0 0 1-17.9-2.7l-3.3-1.1c5.3 0 7-.2 15-1a144.4 144.4 0 0 0 19.1-3 65.8 65.8 0 0 1 12-1.8c9-.5 15.5 0 20.5 1.5a27.6 27.6 0 0 1 7-4.3c3.3-1.7 6.9-2.8 13.3-4 3.5-.8 7-1.3 10.9-1.9a148.1 148.1 0 0 0 19-3.6l1.4-.4-.8 1.1c-.9 1.5-4.2 4.6-9.6 6.8a40.9 40.9 0 0 1-8 2.8 51 51 0 0 0-7.6 2.2 27.6 27.6 0 0 0-7.3 3.8l1.8.3a23.9 23.9 0 0 1 3.5 1l1 .2-.8.6a36.3 36.3 0 0 1-11.3 4.8h-.5a52.2 52.2 0 0 1-13.2 1.9l-11.8.5a27.4 27.4 0 0 0-6.8.7Zm-1-6.2c4 0 6.9.2 8.6.9l1.3.6-1.5.4a10.4 10.4 0 0 0-4.4 2.5 40 40 0 0 1 5.4-.3l11.8-.4a57 57 0 0 0 13-1.8l.4-.2a36 36 0 0 0 10-4 22.4 22.4 0 0 0-2.3-.6 24.2 24.2 0 0 1-2.7-.5l-.9-.3.6-.6c2.1-2 5.5-3.6 8.2-4.6a51.8 51.8 0 0 1 8-2.4 40 40 0 0 0 7.7-2.6 27 27 0 0 0 8.2-5.2 158 158 0 0 1-17.7 3.2c-3.7.6-7.3 1.1-10.8 1.9a53.1 53.1 0 0 0-13.1 3.9 26.9 26.9 0 0 0-6.7 4.1l-.5.4h-.3a60 60 0 0 0-20.3-1.5 64.9 64.9 0 0 0-12 1.7 145.4 145.4 0 0 1-19 3 86.3 86.3 0 0 1-10 .7c2.8 1 7.4 2 16 2.1q11.5 0 23-.4Z" class="a"/><path d="M70.3 168.4v2.7h-4v9.4H62V171h-3.7v-2.7Z" class="b"/><path d="M69.7 168.8v1.8H66v9.4h-3.4v-9.4h-4v-1.8Z" class="c"/><path d="M69.2 169.4v.7h-3.7v9.4H63V170h-4v-.7Z" class="d"/><path d="M141.6 168.4v2.7h-3.8v9.4h-4.5V171h-3.8v-2.7Z" class="b"/><path d="M141.2 168.8v1.8h-4v9.4H134v-9.4h-4v-1.8Z" class="c"/><path d="M140.6 169.4v.7h-3.8v9.4h-2.5V170h-3.8v-.7Z" class="d"/><path d="m129.5 171.8-7 6.4h7.3v2.3h-13.3v-2l7.7-6.9H117v-3.2h12.4Z" class="b"/><path d="m129 171.4-8 7.3h8.2v1.3H117v-1l8.6-7.9h-8.2v-2.3h11.6Z" class="c"/><path d="m128.4 171.1-9 8.2h9.3v.4h-11v-.4l9.3-8.7h-9v-1.2h10.4Z" class="d"/><path d="M75.6 180.5H71v-12.1h4.7l7.1 6.5v-6.5h4.7v12h-4.4l-7.6-7.2Z" class="b"/><path d="M75 180h-3.3v-11.2h3.8l7.8 7.4v-7.3h3.6V180h-3.3l-8.6-8.2Z" class="c"/><path d="M74.6 179.5H72v-10.1h3.2l8.6 8.1v-8.1h2.7v10H84l-9.3-8.8Z" class="d"/><path d="M110.7 168.4h4.7v12h-4.7Z" class="b"/><path d="M111.3 168.8h3.6V180h-3.6Z" class="c"/><path d="M111.8 177.5v-8.2h2.6v10.2h-2.7Z" class="d"/><path d="M109.7 174.6a4.2 4.2 0 0 1-.6 2.3c-1.6 2.5-5.5 4.1-9.8 4.1-5.8 0-10.6-2.8-10.6-6.4s4.8-6.3 10.6-6.3c4.9 0 9 2 10.1 4.9h-4.7c-.9-1.3-3-2.2-5.4-2.2-3.4 0-6.1 1.6-6.1 3.6s2.7 3.7 6 3.7a8 8 0 0 0 4.8-1.4h-8.5v-2.7h14.1a3.7 3.7 0 0 1 0 .4Z" class="b"/><path d="M109 174.6c0 3.3-4.4 6-9.7 6s-9.8-2.7-9.8-6 4.3-5.8 9.8-5.8c4.2 0 7.7 1.6 9 3.8H105a8.2 8.2 0 0 0-5.7-2c-3.8 0-6.8 1.9-6.8 4s3 4.1 6.8 4.1c2.6 0 4.9-.9 6-2.2H96v-1.9Z" class="c"/><path d="M108.3 175.2c-.4 2.7-4.3 5-9.1 5-5 0-9.1-2.5-9.1-5.5s4-5.5 9-5.5c3.7 0 6.7 1.2 8.3 3h-2.1a9.4 9.4 0 0 0-6-2c-4.1 0-7.4 2-7.4 4.4s3.3 4.6 7.3 4.6c3.3 0 6.2-1.5 7-3.3h-9.7v-.7Z" class="d"/></svg>