<svg xmlns="http://www.w3.org/2000/svg" viewBox="0 0 200 250"><defs><style>.a{fill:#2a1670}.b{fill:#647db4}.c{fill:#fff}.d{fill:#232323}</style></defs><path d="M51.8 36h93.6v142.1H51.8z" class="a"/><path d="M145.4 178.1H51.8v-12.8h55.1l38.5-14.2v27zM52.6 185.6h41.8v2.8H52.6zM102.8 185.6h41.8v2.8h-41.8z" class="b"/><path d="M98.9 196a5.9 5.9 0 0 1-9-5c0-3.4 2.4-6.9 5.9-12.9l3 5.3c-1.7 3-2.7 5.3-2.7 7.5a5.8 5.8 0 0 0 2.8 5Z" class="b"/><path d="M107.8 191a5.9 5.9 0 0 1-9 5 5.8 5.8 0 0 0 2.8-5c0-2.2-1-4.6-2.8-7.6l3.1-5.3c3.4 5.9 5.9 9.6 5.9 12.8Z" class="a"/><path d="M66.3 48H73v8.9h-6.7zM66.3 57.5H73v8.4h-6.7zM66.3 66.4H73v8.4h-6.7zM66.3 75.3H73v8.4h-6.7zM66.3 84.2H73v8.4h-6.7zM66.3 93.1H73v8.4h-6.7z" class="c"/><path d="M132.9 74.7v90H60.7V113h5.6V102h6.6v11h5.6v39.2h25v-54a2.2 2.2 0 1 1 4.6 0v63.2h1V92.8h5V79.2h4.5v82.2h1.4V74.7c0-3.5 2.9-5 6.4-5A8 8 0 0 1 131 71a4.4 4.4 0 0 1 1.9 3.8Z" class="c"/><path d="M74.6 51.6h-10a.6.6 0 0 1 0-1.1h10a.6.6 0 1 1 0 1.1ZM74.6 99.3h-10a.6.6 0 0 1 0-1.2h10a.6.6 0 1 1 0 1.2ZM125.6 91.9h-8a.4.4 0 1 1 0-.9h8a.4.4 0 1 1 0 .9Z" class="b"/><path d="M137 98.6h-5.3V87.4h4.5a.4.4 0 1 0 0-.8h-4.5v-6.9h4.5a.6.6 0 0 0 0-1h-4.5V65.2a1.7 1.7 0 0 0-1.6-1.7H127a1.7 1.7 0 0 0-1.7 1.7v5h2v-4a.8.8 0 0 1 .8-.8h.8a.8.8 0 0 1 .9.9v5.8h-10.3a.6.6 0 0 0 0 1.1h10.3v5.3h-16.5a.6.6 0 0 0 0 1.1h16.5v18.9h-12.6a.2.2 0 0 0-.1 0 .2.2 0 0 0-.1 0l-5.2 4v-9.2a.4.4 0 0 0-.4-.4h-5v-6.5a.8.8 0 0 1 .8-.8h13.6v-.8h-13.6a1.7 1.7 0 0 0-1.7 1.6V93h-5.3a.4.4 0 0 0-.4.4v40.5H82.7v-2H84a1.7 1.7 0 0 0 1.6-1.7v-6.6a1.7 1.7 0 0 0-1.6-1.6h-1.4v-3a1.1 1.1 0 0 0-1.1-1h-3v.8H81a.5.5 0 0 1 .6.5v2.7H76v-11.6a.4.4 0 0 0-.4-.4h-12a.4.4 0 0 0-.4.4v18.7h-8v2.2h8v3.9h-2.6v.8h2.6v6.2h-2.6v.8h2.6v6.1h-2.6v.9h2.6v6.1h-2.6v.8h2.6v6.4a.4.4 0 1 0 .9 0V157h11.1v6.4a.4.4 0 1 0 .8 0V157h2.4v-.8h-2.4V150h2.4v-.9h-2.4v-1.4h5.5v4h1v-4H87v1.8a1.7 1.7 0 0 0 1.6 1.7h11.3v9a.4.4 0 1 0 .9 0v-8.1H111v8.2a.4.4 0 1 0 .8 0v-7.6l5 3v4.6a.4.4 0 1 0 .9 0v-12.7h12v8h2v-8h5v4.3a.4.4 0 0 0 .7 0V99a.4.4 0 0 0-.4-.3Zm-54.3 24.2H84a.8.8 0 0 1 .8.8v6.6a.8.8 0 0 1-.8.8h-1.4Zm-12.5-11.4 4.5 4.7h-4.5Zm0 6.2 4.3 4.4h-4.3Zm0 5.8 4.7 4.8h-4.7Zm-6-12.6h4.5l-4.5 4.7Zm5.1.6v4.7h-4.6Zm-5.1 5.5h4.5l-4.5 4.7Zm5.1.7v4.4H65Zm-5.1 5.2h4.5l-4.5 4.7Zm5.1.6v4.8h-4.7Zm6 32.7H64.2V150h11.1Zm0-7H64.2V143h11.1Zm0-7H64.2v-6h11.1Zm0-6.9H64.2v-3.9h7v-2.2h4.1Zm0-7.7-4.6-4.7h4.6Zm0-5.9-4.6-4.7h4.6Zm0-6.1-4.6-4.7h4.6Zm.8 20.5h2.4v6.2h-2.4Zm5.5 10.9H76V143h2.4v2.6h3Zm0-2h-2v-10.1h2Zm0-11h-2v-1.2a.8.8 0 0 1 .9-.8h1Zm0-2.9h-1.4a1.7 1.7 0 0 0-1.7 1.7v2.5h-2.4v-12.4h5.5Zm5.3 15.9h-4.2v-1.3H86a.8.8 0 0 1 .9.9Zm13 3.5H88.4a.8.8 0 0 1-.8-.9v-1.8h12.1Zm0-3.5H87.6v-.4a1.7 1.7 0 0 0-1.7-1.7h-3.3v-10h17.1Zm11 4.3h-10.2v-7H111Zm0-7.8h-10.2v-7.2H111Zm0-8h-10.2V128H111Zm0-8.1h-10.2V120H111Zm0-8.1h-10.2v-7.3H111Zm0-8.1h-10.2v-7.2H111Zm0-8h-10.2v-9.3h4.8v2.8h.8v-2.8h4.7Zm6 43.6-4.8-2.9 4.7-3.6Zm-4.8-11 4.7-3.6v6.5Zm0-8 4.7-3.6v6.4Zm0-8.1 4.7-3.6v6.5Zm0-8.1 4.7-3.6v6.5Zm4.7-11.7v6.5l-4.7-2.9Zm-5 4.4 4.7 2.9-4.7 3.6Zm0 8 4.7 3-4.7 3.6Zm0 8.1 4.7 3-4.7 3.5Zm0 8.1 4.7 3-4.7 3.5Zm0 8.1 4.7 3-4.7 3.5Zm0 8 4.5 2.9-4.5 3.4Zm.1 7.3 5-3.8v6.8Zm17.9-5h-12.1v-7h12Zm0-7.8h-12.1v-7.3h12Zm0-8.1h-12.1v-7.3h12Zm0-8.1h-12.1v-7.2h12Zm0-8h-12.1v-7.3h12Zm0-8.2h-12.1v-7.2h12Zm6.8 40.2h-4.9v-7h5Zm0-7.8h-4.9v-7.3h5Zm0-8.1h-4.9v-7.3h5Zm0-8.1h-4.9v-7.2h5Zm0-8h-4.9v-7.3h5Zm0-8.2h-4.9v-7.2h5Z" class="b"/><path d="M127.6 90.9a1.7 1.7 0 1 1 1.6-1.7 1.7 1.7 0 0 1-1.6 1.7Zm0-2.8a1.1 1.1 0 1 0 1 1.1 1.1 1.1 0 0 0-1-1ZM65.4 63.3V62H71v1.4zM65.4 74.2v-1.4H71v1.4zM65.4 86.7v-1.4H71v1.4z" class="b"/><path d="M35.7 164.2c5.9.2 5.9.2 14.9-.7 21-2 21.7-4.5 34.1-5.2 10.6-.6 17.7.2 22.7 1.7a30.5 30.5 0 0 1 7.8-5c3.5-1.6 7.4-2.8 14.5-4.3 10-2 20.8-2.6 33-6-.9 1.4-4.5 4.8-10.3 7.3-7.9 3.4-8.7 2.2-17.2 5.5a27 27 0 0 0-8.9 5c3 .7 3.4.4 6.8 1.5a40.7 40.7 0 0 1-12.8 5.3 57 57 0 0 1-14.4 2c-15.3.9-16.5.2-20.6 1.3a12.8 12.8 0 0 1 6.6-4.3c-4.5-2-17-.5-34.6-.6-14.7 0-18.9-3-21.6-3.5Z" class="c"/><path d="m83.7 173.5 1.2-1.3a14.3 14.3 0 0 1 5.1-3.9c-3.2-.6-8.9-.5-16.2-.3-4.9.2-10.4.3-16.5.3-11.6-.1-16.7-1.9-19.7-3l-3.6-1.2c5.8 0 7.6-.2 16.5-1.1a158.9 158.9 0 0 0 21-3.3 72.4 72.4 0 0 1 13.2-2c9.8-.5 17.1 0 22.6 1.7a30.4 30.4 0 0 1 7.7-4.8c3.6-1.8 7.5-3 14.6-4.4 3.9-.8 7.8-1.4 12-2a163 163 0 0 0 21-4l1.4-.4-.8 1.2c-1 1.6-4.7 5-10.6 7.5a45 45 0 0 1-8.8 3 56.1 56.1 0 0 0-8.4 2.5 30.4 30.4 0 0 0-8 4.1l2 .4a26.3 26.3 0 0 1 3.8 1l1.2.3-1 .6a40 40 0 0 1-12.4 5.3l-.5.1a57.5 57.5 0 0 1-14.6 2c-6.3.4-10.3.5-13 .6a30.2 30.2 0 0 0-7.4.7Zm-1.1-6.8c4.4 0 7.6.3 9.5 1l1.4.7-1.6.5a11.4 11.4 0 0 0-4.9 2.7 44.1 44.1 0 0 1 5.9-.3l13-.5c7-.4 9.5-.8 14.3-2l.5-.2a39.7 39.7 0 0 0 11-4.4 24.7 24.7 0 0 0-2.5-.6 26.6 26.6 0 0 1-3-.6l-1-.3.7-.7c2.3-2.2 6-3.9 9-5a57 57 0 0 1 8.7-2.7 44 44 0 0 0 8.6-2.8 29.7 29.7 0 0 0 9-5.8 174 174 0 0 1-19.5 3.6c-4.1.6-8 1.2-11.9 2-7 1.4-10.8 2.6-14.4 4.3a29.6 29.6 0 0 0-7.4 4.6l-.5.4h-.3a66.1 66.1 0 0 0-22.4-1.7 71.4 71.4 0 0 0-13.2 1.9 160 160 0 0 1-21 3.3 95 95 0 0 1-11 .8c3.2 1 8.2 2.2 17.7 2.3a472.7 472.7 0 0 0 25.3-.5Z" class="a"/><path d="M66.3 198.2v3H62v10.3h-4.9v-10.3H53v-3Z" class="b"/><path d="M65.7 198.7v2h-4.2V211h-3.8v-10.3h-4.3v-2Z" class="c"/><path d="M65.1 199.3v.8H61v10.3h-2.6v-10.3H54v-.8Z" class="d"/><path d="M144.8 198.2v3h-4.2v10.3h-4.9v-10.3h-4.2v-3Z" class="b"/><path d="M144.3 198.7v2H140V211h-3.7v-10.3H132v-2Z" class="c"/><path d="M143.7 199.3v.8h-4.2v10.3h-2.7v-10.3h-4.2v-.8Z" class="d"/><path d="m131.5 202-7.7 7h8v2.5h-14.6v-2.2l8.4-7.5h-7.8v-3.6h13.7Z" class="b"/><path d="m130.9 201.5-8.8 8.1h9v1.4h-13.3v-1.1l9.5-8.7h-9v-2.5H131Z" class="c"/><path d="m130.3 201.2-9.9 9h10.2v.5h-12.2v-.5l10.3-9.5h-9.8v-1.4h11.4Z" class="d"/><path d="M72.1 211.5h-4.9v-13.3h5.2l7.8 7.2v-7.2h5.1v13.3h-4.8l-8.4-8Z" class="b"/><path d="M71.5 211h-3.7v-12.3H72l8.6 8.1v-8h4V211H81l-9.5-9Z" class="c"/><path d="M71 210.4h-2.7v-11.1h3.5l9.5 9v-9h3v11.1h-3L71 200.7Z" class="d"/><path d="M110.8 198.2h5.2v13.3h-5.2Z" class="b"/><path d="M111.4 198.7h4V211h-4Z" class="c"/><path d="M112 208.2v-9h2.9v11.2h-3Z" class="d"/><path d="M109.7 205.1a4.6 4.6 0 0 1-.7 2.5c-1.7 2.7-6 4.5-10.8 4.5-6.4 0-11.6-3.1-11.6-7s5.2-7 11.6-7c5.4 0 10 2.3 11.2 5.4h-5.2c-1-1.4-3.3-2.4-6-2.4-3.7 0-6.7 1.8-6.7 4s3 4 6.7 4a8.8 8.8 0 0 0 5.2-1.5H94v-3h15.6a4.1 4.1 0 0 1 0 .5Z" class="b"/><path d="M108.9 205.1c0 3.6-4.8 6.5-10.7 6.5s-10.8-2.9-10.8-6.5 4.8-6.4 10.8-6.4c4.6 0 8.5 1.7 10 4.2h-3.7a9 9 0 0 0-6.3-2.2c-4.1 0-7.4 2-7.4 4.4s3.3 4.5 7.4 4.5c2.9 0 5.4-1 6.6-2.5H94.7v-2Z" class="c"/><path d="M108.1 205.7c-.4 3-4.7 5.5-10 5.5-5.5 0-10-2.7-10-6s4.5-6.1 10-6.1c4 0 7.3 1.3 9 3.3h-2.3a10.4 10.4 0 0 0-6.6-2.1c-4.5 0-8.1 2.2-8.1 4.8s3.6 5 8 5c3.7 0 6.8-1.6 7.8-3.6H95.2v-.8Z" class="d"/></svg>