<svg xmlns="http://www.w3.org/2000/svg" viewBox="0 0 200 200" width="200" height="200"><path d="M94.6 112c-21.7-8.5-28.2-27.2-27.4-35.2.8-8 4-10 6.5-10.7 0 0-11.2-5.3-16 3.4a42.2 42.2 0 0 0 72.2 42.4s-13.7 8.9-35.3.2m2.1-68.4a42.2 42.2 0 0 0-35.4 19 16.1 16.1 0 0 1 8.5-1.1 40 40 0 0 1 52.1-9.7 42 42 0 0 0-25.2-8.1" fill="#005597"/><path d="M94.9 107a42.4 42.4 0 0 0 17 5.4 27.1 27.1 0 0 0 7-2.6c8.2-5.2 32.6-39 32.6-39s-13.3-2.8-19 1.4c-5.8 4.3-10.1 11-16.5 18.2s-9.2 11.7-14.9 13.2a25 25 0 0 1-11.7 0 57.7 57.7 0 0 0 5.5 3.5" fill="#005597"/><path fill="#e41b13" d="M134.3 108.6c5.1-3.7 17-20 17-20s-9-4.8-17.4 0c-8.3 4.9-8 6-16.3 12.9-8.3 6.8-14.4 7.6-19 7.2h-.8c12 5.5 27.4 6.4 36.5 0"/><path d="M151.5 43.8s-13-3.6-23.3 5.3c-7.5 6.5-23.5 49.8-36.2 52.2a19.2 19.2 0 0 1-6 .4 26.2 26.2 0 0 0 7.5-.4c12.5-2.5 29.3-42.5 37-48.5a23.7 23.7 0 0 1 17-4.6L139.6 62Zm5 96-1.6 13h8.6a3 3 0 0 0 2-.6 2.4 2.4 0 0 0 .7-1.5l.8-6a2 2 0 0 0-2.2-2.2h-4.2l.4-2.7Zm-121.3 0-2.2 3.5h4.4l-1.2 9.6h4.3l1.2-9.6h3.6l.4-3.5Zm38.3 0-1.7 13h4.4l.6-4.7h2.5l-.6 4.8H83l1.6-13.1h-4.3l-.6 4.8h-2.5l.6-4.8Zm25.1 0-1.6 13h4.3l.6-4.7h2.5l-.6 4.8h4.4l1.6-13.1h-4.4l-.6 4.8h-2.5l.6-4.8Zm43.6 0-.4 3.5h3.8l-1.1 9.6h4.3l1.2-9.6h3.1l2.3-3.5Zm-95 0-1.7 13H50l.3-2.4h4.1a2.8 2.8 0 0 0 2.8-2.2l.8-6.1a1.9 1.9 0 0 0-.5-1.6 2.3 2.3 0 0 0-1.7-.7h-8.6Zm15 0a1 1 0 0 0-1 .7l-4.6 12.3h4.5l.7-2.2H66l.3 2.2h4.4l-1.4-12.5a.7.7 0 0 0-.8-.6h-6.3Zm49 0-1.7 13h10.7l.5-3.4h-6.4l.2-1.6h6.4l.3-3H115l.2-1.5h6.3l.4-3.5Zm14.5 0a3 3 0 0 0-2 .7 2.4 2.4 0 0 0-.8 1.5l-.7 6.2a2 2 0 0 0 2.2 2.2h4.2l-.3 2.5h4.3l.3-2.5h4.2a2.8 2.8 0 0 0 2.7-2.2l.8-6.1a1.9 1.9 0 0 0-.4-1.6 2.3 2.3 0 0 0-1.8-.7Zm-36.4 0a3.9 3.9 0 0 0-2.6 1 3.2 3.2 0 0 0-1 2l-1 7.2a2.5 2.5 0 0 0 .6 2 3 3 0 0 0 2.3 1h4.7a3.7 3.7 0 0 0 3.7-3l.2-2.1h-4.4l-.2 1.5h-2.4l.7-6.1h2.5l-.2 1.3h4.4l.3-2.3c.2-1.8-1.4-2.5-3-2.5Zm37.8 3.5h2.3l-.4 3.7h-2.3Zm6.7 0h2.3l-.4 3.4a.4.4 0 0 1-.3.3h-2Zm-82.6 0h2.3l-.5 3.3a.4.4 0 0 1-.4.4h-1.9l.4-3Zm13.2.4h.9l.4 3.7H63l1.3-3.7Zm95.8 2.3h2.2l-.3 2.9a.6.6 0 0 1-.7.5h-1.7Z" fill="#005597"/></svg>