<svg xmlns="http://www.w3.org/2000/svg" width="180" height="180" viewBox="0 0 180 180"><path fill="#497285" d="M40 76.6V72H30V66h10v-4.4a1 1 0 0 1 1.6-.9l13.1 7.6a1 1 0 0 1 0 1.8l-13 7.5a1 1 0 0 1-1.6-1M48 42l1.5-4.1-9.5-3.4 2.2-6 9.4 3.5 1.5-4.2a1 1 0 0 1 1.8-.3L64.7 39a1 1 0 0 1-.6 1.7l-14.9 2.6a1 1 0 0 1-1.1-1.4M47 110.3l-1.6-4.1-9.4 3.4-2.1-5.9 9.4-3.4-1.5-4.2a1 1 0 0 1 1.1-1.4l15 2.6a1 1 0 0 1 .5 1.7l-9.7 11.6a1 1 0 0 1-1.7-.3m93-33.7V72h10V66h-10v-4.4a1 1 0 0 0-1.6-.9l-13.1 7.6a1 1 0 0 0 0 1.8l13 7.6a1.1 1.1 0 0 0 1.7-1m-8-34.7-1.6-4.1 9.5-3.5-2.2-5.9-9.4 3.5-1.5-4.2a1 1 0 0 0-1.8-.3L115.3 39a1 1 0 0 0 .6 1.7l14.9 2.6a1 1 0 0 0 1.1-1.4m1.1 68.4 1.6-4.1 9.4 3.4 2.1-5.9-9.4-3.4 1.5-4.2a1 1 0 0 0-1.1-1.4l-15 2.6a1 1 0 0 0-.5 1.7l9.7 11.6a1 1 0 0 0 1.7-.3m-21-23.8c0 13-10.2 21.2-22.7 21.2A21.3 21.3 0 0 1 68.7 95a18 18 0 0 0 1.5 2 15.2 15.2 0 0 0 11.5 5.2 14.4 14.4 0 0 0 9-3.2A12.8 12.8 0 0 0 95.2 89c0-5.3-2.2-9-4.6-13L88 71.1l-1-1.7-1.7-3.5a29.4 29.4 0 0 1-3.7-11.2 24 24 0 0 1-.2-2.8A21 21 0 0 1 86 38a19.1 19.1 0 0 1 5.4-4.6l.5-.2S89 38 89 42c0 6 3.2 10.5 7.4 15.5l3.1 3.8c6 7 12.5 15.7 12.5 25"/><path fill="#2b4450" d="M85.5 72.3c-1.3-2.6-4.9-8.4-6.1-14.4C73.2 66 68 73.2 68 82.7c0 10.9 6.5 16.8 13.7 16.8 5 0 10.8-3.3 10.8-10.6 0-6.4-3.9-10.2-7-16.6M77.9 95c-1.6 0-3.6-.9-5.5-4.6a20.6 20.6 0 0 1-1.9-9.4c3.6 9 5.6 9.5 7.3 10.8 2.1 1.6 1.3 3.2.1 3.2m72.1 41c0 10.6-26.9 19.1-60 19.1s-60-8.5-60-19.1c0-6.3 9.6-12 24.4-15.4-6.6 2.6-10.6 5.9-10.6 9.5 0 8.2 20.7 14.9 46.2 14.9s46.2-6.7 46.2-14.9c0-3.6-4-6.9-10.6-9.5 14.8 3.5 24.4 9 24.4 15.4"/><path fill="#385664" d="M130 128.2c0 7-18 12.6-40 12.6s-40-5.6-40-12.6c0-4.2 6.5-8 16.3-10.2-4.4 1.7-7 3.9-7 6.3 0 5.4 13.7 9.8 30.7 9.8s30.8-4.4 30.8-9.8c0-2.4-2.7-4.6-7.1-6.3 9.8 2.3 16.3 6 16.3 10.2"/><path fill="#497285" d="M113.6 123.8c0 4.2-10.6 7.5-23.6 7.5-13 0-23.6-3.3-23.6-7.5 0-2.4 3.8-4.6 9.6-6-2.6 1-4.1 2.3-4.1 3.7 0 3.3 8.1 5.8 18.2 5.8s18.1-2.6 18.1-5.8c0-1.4-1.6-2.7-4.1-3.7 5.7 1.4 9.5 3.6 9.5 6"/></svg>