<svg xmlns="http://www.w3.org/2000/svg" viewBox="0 0 1600 800" width="1600" height="800">
<defs>
<filter id="sh1">
<feDropShadow dx="4" dy="4" flood-opacity=".25" stdDeviation="4"/>
</filter>
<filter id="sh2">
<feDropShadow dx="-20" dy="0" flood-opacity=".25" stdDeviation="20"/>
</filter>
<filter id="sh3">
<feDropShadow dx="-16" dy="8" flood-opacity=".25" stdDeviation="12"/>
</filter>
</defs>
<polygon points="770 800 0 800 800 0 1570 0 770 800" fill="#e5e8e9" opacity=".8"/>
<polygon points="666 350 650 350 200 800 216 800 666 350" fill="#dea149" filter="url(#sh1)">
<animateMotion
      path="M-100,100 0,0"
    keyPoints="0;0.6;0.9;1"
      keyTimes="0;0.3;0.8;1"
      dur="2s"
      />
</polygon>
<polygon points="1080 0 1036 0 516 520 560 520 1080 0" fill="#da8956" filter="url(#sh1)">
<animateMotion
      path="M260,-260 0,0"
      keyPoints="0;0.6;0.9;1"
      keyTimes="0;0.3;0.8;1"
      dur="2s"
      />
</polygon>
<polygon points="1600 0 1466 0 1186 280 1320 280 1600 0" fill="#165f76" filter="url(#sh3)">
<animateMotion
      path="M260,-260 0,0"
      keyPoints="0;0.6;0.9;1"
      keyTimes="0;0.3;0.8;1"
      dur="2.6s"
      />
</polygon>
<polygon points="1166 150 966 150 316 800 516 800 1166 150" fill="#dea149" filter="url(#sh2)">
<animateMotion
      path="M-60,60 0,0"
      dur="1s"
      />
</polygon>
<polygon points="1140 330 900 330 430 800 670 800 1140 330" fill="#497285" filter="url(#sh2)">
<animateMotion
      path="M-60,120 0,0"
      dur="2.6s"
      />
</polygon>
</svg>