<svg xmlns="http://www.w3.org/2000/svg" width="180" height="180" viewBox="0 0 180 180"><path fill="#fbdb89" d="m46.1 94.2-1 .3C38.7 80 42.3 59.4 55 45.2l5.3 8.2a42.5 42.5 0 0 0-14.3 40.8"/><path fill="#f4b459" d="m125.4 42-16.9 9.5c-5.6-4.8-13.3-8-22.8-8.2A37.3 37.3 0 0 0 70.5 47l-6.1-9.7A51.6 51.6 0 0 1 92 29c12-.2 24 4.6 33.3 13"/><path fill="#e2574c" d="m139.5 94.6-24.4-7a27.7 27.7 0 0 0 3.8-15.2l16.5-18a49.3 49.3 0 0 1 4 40.2"/><path fill="#497285" d="M129 48 86.9 71.8a7.7 7.7 0 0 0-2.4 1.4A9 9 0 0 0 90 89.4a8.8 8.8 0 0 0 5.7-2 9 9 0 0 0 1.8-2l32.7-35.8a1 1 0 0 0-1.1-1.6M90 85a4.7 4.7 0 1 1 4.6-4.6A4.7 4.7 0 0 1 90 85m39 66H51a4.7 4.7 0 0 1 0-9.4h78a4.7 4.7 0 0 1 0 9.3m-31.5-28.6h-4.4V105H87v17.3h-4.4a1 1 0 0 0-1 1.6l7.6 13a1 1 0 0 0 1.8 0l7.6-13a1 1 0 0 0-1-1.6m-28.5 0h-4.4v-10h-6.3v10H54a1 1 0 0 0-.9 1.6l7.6 13a1 1 0 0 0 1.8 0l7.5-13a1 1 0 0 0-1-1.6m57.2 0h-4.4v-10h-6.3v10H111a1 1 0 0 0-.8 1.6l7.5 13a1 1 0 0 0 1.8 0l7.5-13a1 1 0 0 0-1-1.6"/></svg>