<svg xmlns="http://www.w3.org/2000/svg" viewBox="0 0 1280 460" width="1280" height="460"><defs><filter id="sh1"><feDropShadow dx="6" dy="6" flood-opacity=".4" stdDeviation="4"/></filter></defs><path fill="#fbb03b" filter="url(#sh1)" d="M1280 392.5v66.3L697.5 280.7h-.1l-186.2-56.9L0 67.5V1.2L705.8 217h.1l186.2 56.9L1280 392.5z"/><path fill="#322f40" d="m355.2 109.8-39-12 38 78 39 11.9-38-77.9zM216.6 67.4l-39-11.9 38 77.9 39 11.9-38-77.9zM285.9 88.6l-39-11.9 38 77.9 39 11.9-38-77.9zM493.8 152.1l-39-11.9 38 78 39 11.9-38-78zM424.5 131l-39-12 38 78 39 11.9-38-77.9zM46.7 81.8l-39-12L0 54.1V1.2l8.7 2.6 38 78zM563.1 173.3l-39-11.9 38 77.9 39 12-38-78zM78 25 39 13.1 77 91l39 11.9L78 25zM147.3 46.2l-39-11.9 38 77.9 39 11.9-38-77.9zM1048.2 321.7l-39-12 38 78 39 11.9-38-77.9zM978.9 300.5l-39-12 38 78 39 11.9-38-77.9zM1117.5 342.8l-38.9-11.9 37.9 78 39 11.9-38-78zM1280 434.1v24.7l-24.8-7.6-38-77.9 39 11.9 23.8 48.9zM1186.8 364l-38.9-11.9 38 77.9 38.9 12-38-78zM701.7 215.7l-39-11.9 38 77.9 39 11.9-38-77.9zM771 236.9 732 225l38 77.9 39 11.9-38-77.9zM632.4 194.5l-39-11.9 38 77.9 39 11.9-38-77.9zM840.3 258.1l-39-11.9 38 77.9 39 11.9-38-77.9zM909.6 279.3l-39-11.9 38 77.9 39 11.9-38-77.9z"/><path fill="#fbb03b" filter="url(#sh1)" d="M1280 196.9v63.5l-387.9 13.5-194.6 6.8h-.1L0 305.1v-63.5l511.2-17.8 194.6-6.8h.1l574.1-20.1z"/><path fill="#322f40" d="m331.6 230-40.8 1.5 61.3 61.3 40.7-1.4-61.2-61.4zM186.7 235.1l-40.7 1.4 61.3 61.3 40.7-1.4-61.3-61.3zM259.1 232.6l-40.7 1.4 61.3 61.3 40.7-1.4-61.3-61.3zM476.4 225l-40.7 1.4 61.3 61.3 40.7-1.4-61.3-61.3zM404 227.5l-40.8 1.4 61.3 61.4 40.8-1.5-61.3-61.3zM30.7 304 0 305.1v-31.8L30.7 304zM548.8 222.5l-40.7 1.4 61.3 61.3 40.7-1.4-61.3-61.3zM41.8 240.2l-40.7 1.4 61.3 61.3 40.7-1.4-61.3-61.3zM114.3 237.6l-40.8 1.5 61.3 61.3 40.8-1.5-61.3-61.3zM1055.8 204.8l-40.7 1.4 61.3 61.3 40.7-1.4-61.3-61.3zM983.4 207.3l-40.7 1.4L1004 270l40.7-1.4-61.3-61.3zM1128.3 202.2l-40.8 1.4 61.3 61.4 40.7-1.5-61.2-61.3zM1280 204.1v42.1l-47.6-47.6 40.7-1.4 6.9 6.9zM1200.7 199.7l-40.8 1.4 61.3 61.3 40.8-1.4-61.3-61.3zM693.7 217.4l-40.7 1.4 61.2 61.3 40.8-1.4-61.3-61.3zM766.1 214.9l-40.7 1.4 61.3 61.3 40.7-1.4-61.3-61.3zM621.3 219.9l-40.8 1.5 61.3 61.3 40.8-1.5-61.3-61.3zM838.5 212.3l-40.7 1.5 61.3 61.3 40.7-1.4-61.3-61.4zM911 209.8l-40.8 1.4 61.3 61.3 40.8-1.4-61.3-61.3z"/></svg>