<svg xmlns="http://www.w3.org/2000/svg" viewBox="0 0 1181 20" width="1181" height="20"><path fill="#fbb03b" d="M0 0h1181v20H0z"/><path fill="#322f40" d="M402 20h-35L348 0h35l19 20zM278 20h-35L224 0h35l19 20zM340 20h-35L286 0h35l19 20zM526 20h-35L473 0h35l18 20zM464 20h-35L410 0h35l19 20zM91 20H56L38 0h34l19 20zM29 20H0V0h10l19 20zM588 20h-35L535 0h35l18 20zM153 20h-35L100 0h35l18 20zM215 20h-35L162 0h35l18 20zM1023 20h-35L970 0h35l18 20zM961 20h-35L908 0h35l18 20zM1086 20h-35l-19-20h35l19 20zM1181 0v20h-6l-19-20h25zM1148 20h-35l-19-20h35l19 20zM713 20h-35L659 0h35l19 20zM775 20h-35L721 0h35l19 20zM651 20h-35L597 0h35l19 20zM837 20h-35L783 0h35l19 20zM899 20h-35L846 0h34l19 20z"/></svg>