<svg xmlns="http://www.w3.org/2000/svg" width="110" height="70" viewBox="0 0 110 70"><path fill="#497285" d="M105 50v10a10 10 0 0 1-10 10H15A10 10 0 0 1 5 60V50h5v10a5 5 0 0 0 5 5h80a5 5 0 0 0 5-5V50Zm0-40v10h-5V10a5 5 0 0 0-5-5H15a5 5 0 0 0-5 5v10H5V10A10 10 0 0 1 15 0h80a10 10 0 0 1 10 10"/><path fill="#497285" d="M25 19a2.5 2.5 0 1 0-2.5-2.5A2.5 2.5 0 0 0 25 19m10 0a2.5 2.5 0 1 0-2.5-2.5A2.5 2.5 0 0 0 35 19m10 0a2.5 2.5 0 1 0-2.5-2.5A2.5 2.5 0 0 0 45 19m10 0a2.5 2.5 0 1 0-2.5-2.5A2.5 2.5 0 0 0 55 19m10 0a2.5 2.5 0 1 0-2.5-2.5A2.5 2.5 0 0 0 65 19m10 0a2.5 2.5 0 1 0-2.5-2.5A2.5 2.5 0 0 0 75 19m10 0a2.5 2.5 0 1 0-2.5-2.5A2.5 2.5 0 0 0 85 19m-55-5a2 2 0 1 0-2-2 2 2 0 0 0 2 2m10 0a2 2 0 1 0-2-2 2 2 0 0 0 2 2m10 0a2 2 0 1 0-2-2 2 2 0 0 0 2 2m10 0a2 2 0 1 0-2-2 2 2 0 0 0 2 2m10 0a2 2 0 1 0-2-2 2 2 0 0 0 2 2m10 0a2 2 0 1 0-2-2 2 2 0 0 0 2 2m-45-4a1.5 1.5 0 1 0-1.5-1.5A1.5 1.5 0 0 0 35 10m10 0a1.5 1.5 0 1 0-1.5-1.5A1.5 1.5 0 0 0 45 10m10 0a1.5 1.5 0 1 0-1.5-1.5A1.5 1.5 0 0 0 55 10m10 0a1.5 1.5 0 1 0-1.5-1.5A1.5 1.5 0 0 0 65 10m10 0a1.5 1.5 0 1 0-1.5-1.5A1.5 1.5 0 0 0 75 10M25 56a2.5 2.5 0 1 0-2.5-2.5A2.5 2.5 0 0 0 25 56m10 0a2.5 2.5 0 1 0-2.5-2.5A2.5 2.5 0 0 0 35 56m10 0a2.5 2.5 0 1 0-2.5-2.5A2.5 2.5 0 0 0 45 56m10 0a2.5 2.5 0 1 0-2.5-2.5A2.5 2.5 0 0 0 55 56m10 0a2.5 2.5 0 1 0-2.5-2.5A2.5 2.5 0 0 0 65 56m10 0a2.5 2.5 0 1 0-2.5-2.5A2.5 2.5 0 0 0 75 56m10 0a2.5 2.5 0 1 0-2.5-2.5A2.5 2.5 0 0 0 85 56m-55 4a2 2 0 1 0-2-2 2 2 0 0 0 2 2m10 0a2 2 0 1 0-2-2 2 2 0 0 0 2 2m10 0a2 2 0 1 0-2-2 2 2 0 0 0 2 2m10 0a2 2 0 1 0-2-2 2 2 0 0 0 2 2m10 0a2 2 0 1 0-2-2 2 2 0 0 0 2 2m10 0a2 2 0 1 0-2-2 2 2 0 0 0 2 2m-45 3a1.5 1.5 0 1 0-1.5-1.5A1.5 1.5 0 0 0 35 63m10 0a1.5 1.5 0 1 0-1.5-1.5A1.5 1.5 0 0 0 45 63m10 0a1.5 1.5 0 1 0-1.5-1.5A1.5 1.5 0 0 0 55 63m10 0a1.5 1.5 0 1 0-1.5-1.5A1.5 1.5 0 0 0 65 63m10 0a1.5 1.5 0 1 0-1.5-1.5A1.5 1.5 0 0 0 75 63M34.7 37.6q0 6-2.1 7.5-1.7 1.2-9 1.2-6.9 0-8.8-1.4-2.2-1.6-2.2-7.3H16a8.6 8.6 0 0 0 .7 4.2 3.3 3.3 0 0 0 2.5 1.4h9a3.2 3.2 0 0 0 2.4-1.4 8.9 8.9 0 0 0 .8-4.2V23.4h3.3ZM67 46H63l-2.6-5H44.3l-2.7 5h-3.8l12-22.6h5.1Zm-8-8-6.1-11.9h-.9l-6.1 12Zm35.6 1.4q0 3.8-1.9 5.4a7.3 7.3 0 0 1-4.6 1.5H75.6A7.5 7.5 0 0 1 71 45q-1.8-1.6-1.8-5.5v-16h3.4v16a3.4 3.4 0 0 0 1.6 3.2 7.5 7.5 0 0 0 3.6.8q-7.7-.1 4-.1t4 0a7.6 7.6 0 0 0 3.7-.7 3.4 3.4 0 0 0 1.6-3.1v-16h3.4Z"/></svg>