<svg xmlns="http://www.w3.org/2000/svg" width="110" height="70" viewBox="0 0 110 70"><path fill="#497285" d="M105 50v10a10 10 0 0 1-10 10H15A10 10 0 0 1 5 60V50h5v10a5 5 0 0 0 5 5h80a5 5 0 0 0 5-5V50Zm0-40v10h-5V10a5 5 0 0 0-5-5H15a5 5 0 0 0-5 5v10H5V10A10 10 0 0 1 15 0h80a10 10 0 0 1 10 10"/><path fill="#497285" d="M25 19a2.5 2.5 0 1 0-2.5-2.5A2.5 2.5 0 0 0 25 19m10 0a2.5 2.5 0 1 0-2.5-2.5A2.5 2.5 0 0 0 35 19m10 0a2.5 2.5 0 1 0-2.5-2.5A2.5 2.5 0 0 0 45 19m10 0a2.5 2.5 0 1 0-2.5-2.5A2.5 2.5 0 0 0 55 19m10 0a2.5 2.5 0 1 0-2.5-2.5A2.5 2.5 0 0 0 65 19m10 0a2.5 2.5 0 1 0-2.5-2.5A2.5 2.5 0 0 0 75 19m10 0a2.5 2.5 0 1 0-2.5-2.5A2.5 2.5 0 0 0 85 19m-55-5a2 2 0 1 0-2-2 2 2 0 0 0 2 2m10 0a2 2 0 1 0-2-2 2 2 0 0 0 2 2m10 0a2 2 0 1 0-2-2 2 2 0 0 0 2 2m10 0a2 2 0 1 0-2-2 2 2 0 0 0 2 2m10 0a2 2 0 1 0-2-2 2 2 0 0 0 2 2m10 0a2 2 0 1 0-2-2 2 2 0 0 0 2 2m-45-4a1.5 1.5 0 1 0-1.5-1.5A1.5 1.5 0 0 0 35 10m10 0a1.5 1.5 0 1 0-1.5-1.5A1.5 1.5 0 0 0 45 10m10 0a1.5 1.5 0 1 0-1.5-1.5A1.5 1.5 0 0 0 55 10m10 0a1.5 1.5 0 1 0-1.5-1.5A1.5 1.5 0 0 0 65 10m10 0a1.5 1.5 0 1 0-1.5-1.5A1.5 1.5 0 0 0 75 10M25 56a2.5 2.5 0 1 0-2.5-2.5A2.5 2.5 0 0 0 25 56m10 0a2.5 2.5 0 1 0-2.5-2.5A2.5 2.5 0 0 0 35 56m10 0a2.5 2.5 0 1 0-2.5-2.5A2.5 2.5 0 0 0 45 56m10 0a2.5 2.5 0 1 0-2.5-2.5A2.5 2.5 0 0 0 55 56m10 0a2.5 2.5 0 1 0-2.5-2.5A2.5 2.5 0 0 0 65 56m10 0a2.5 2.5 0 1 0-2.5-2.5A2.5 2.5 0 0 0 75 56m10 0a2.5 2.5 0 1 0-2.5-2.5A2.5 2.5 0 0 0 85 56m-55 4a2 2 0 1 0-2-2 2 2 0 0 0 2 2m10 0a2 2 0 1 0-2-2 2 2 0 0 0 2 2m10 0a2 2 0 1 0-2-2 2 2 0 0 0 2 2m10 0a2 2 0 1 0-2-2 2 2 0 0 0 2 2m10 0a2 2 0 1 0-2-2 2 2 0 0 0 2 2m10 0a2 2 0 1 0-2-2 2 2 0 0 0 2 2m-45 3a1.5 1.5 0 1 0-1.5-1.5A1.5 1.5 0 0 0 35 63m10 0a1.5 1.5 0 1 0-1.5-1.5A1.5 1.5 0 0 0 45 63m10 0a1.5 1.5 0 1 0-1.5-1.5A1.5 1.5 0 0 0 55 63m10 0a1.5 1.5 0 1 0-1.5-1.5A1.5 1.5 0 0 0 65 63m10 0a1.5 1.5 0 1 0-1.5-1.5A1.5 1.5 0 0 0 75 63M36.7 38.2q0 4.1-1.7 6a6.6 6.6 0 0 1-4.4 2l-6.6.1a33.3 33.3 0 0 1-8-.6 5.5 5.5 0 0 1-3.7-3.2q-1-2.4-1-7.8t1-7.7a5.6 5.6 0 0 1 3.8-3.2A33.6 33.6 0 0 1 24 23q5.4 0 6.6.2a6.7 6.7 0 0 1 4.4 1.9q1.7 1.9 1.7 6h-3.4q0-3.6-1.6-4.4-1.3-.7-7.7-.7a36.6 36.6 0 0 0-6.2.4 3.4 3.4 0 0 0-2.7 2.2 21.8 21.8 0 0 0-.5 6 20.5 20.5 0 0 0 .6 6 3.4 3.4 0 0 0 2.6 2.3 36 36 0 0 0 6.2.3q6.4 0 7.7-.6 1.6-.8 1.6-4.5Zm31 7.8H64l-2.6-5H45.2l-2.7 5h-3.8l11.9-22.6h5.2Zm-7.9-8-6.2-11.9h-.8l-6.1 12ZM100 23.4 89.5 42q-2.3 4-7.6 4h-7.3v-3H82q2.8 0 3.8-1.9L69.5 23.4H74l13.6 15 8.6-15Z"/></svg>