<svg xmlns="http://www.w3.org/2000/svg" width="110" height="70" viewBox="0 0 110 70"><path fill="#497285" d="M105 50v10a10 10 0 0 1-10 10H15A10 10 0 0 1 5 60V50h5v10a5 5 0 0 0 5 5h14.2a42.7 42.7 0 0 0 9.9-15h5.3A46.3 46.3 0 0 1 36 65h16.5V50h5v15H74a48.2 48.2 0 0 1-8.4-15h5.3a41.8 41.8 0 0 0 9.9 15H95a5 5 0 0 0 5-5V50Zm0-40v10h-5V10a5 5 0 0 0-5-5H80.8a42.7 42.7 0 0 0-9.9 15h-5.3A46.3 46.3 0 0 1 74 5H57.5v15h-5V5H36a48.2 48.2 0 0 1 8.4 15h-5.3a41.8 41.8 0 0 0-9.9-15H15a5 5 0 0 0-5 5v10H5V10A10 10 0 0 1 15 0h80a10 10 0 0 1 10 10m-5 19v3.5h8v5h-8V41a.8.8 0 0 1-1.2.7l-10.4-6a.8.8 0 0 1 0-1.4l10.4-6a.8.8 0 0 1 1.2.7m-90 0v3.5H2v5h8V41a.8.8 0 0 0 1.2.7l10.4-6a.8.8 0 0 0 0-1.4l-10.4-6a.8.8 0 0 0-1.2.7m42.7 9.2q0 4.1-1.7 6a6.6 6.6 0 0 1-4.4 2l-6.6.1a33.3 33.3 0 0 1-8-.6 5.5 5.5 0 0 1-3.7-3.2q-1-2.4-1-7.8t1-7.7a5.6 5.6 0 0 1 3.8-3.2A33.6 33.6 0 0 1 40 23q5.4 0 6.6.2a6.7 6.7 0 0 1 4.4 1.9q1.7 1.9 1.7 6h-3.4q0-3.6-1.6-4.4-1.3-.7-7.7-.7a36.6 36.6 0 0 0-6.2.4 3.4 3.4 0 0 0-2.7 2.2 21.8 21.8 0 0 0-.5 6 20.5 20.5 0 0 0 .6 6 3.4 3.4 0 0 0 2.6 2.3 36 36 0 0 0 6.2.3q6.4 0 7.7-.6 1.6-.8 1.6-4.5Zm31 7.8h-5.5l-15-10.4H60V46h-3.4V23.4H60v9.2h3.3L77 23.4h5.8L66.8 34.1Z"/></svg>