<svg xmlns="http://www.w3.org/2000/svg" xmlns:xlink="http://www.w3.org/1999/xlink" viewBox="0 0 750 500"><defs><style>.a,.as,.at{fill:none;}.b{isolation:isolate;}.c{clip-path:url(#a);}.d{fill:url(#b);}.e{fill:url(#c);}.f{fill:url(#d);}.g{fill:url(#e);}.h{fill:url(#f);}.i{fill:url(#g);}.ab,.ad,.af,.ah,.aj,.al,.am,.ao,.ap,.j,.l,.n,.p,.r,.t,.v,.x,.z{opacity:0.57;mix-blend-mode:multiply;}.j{fill:url(#h);}.k{fill:url(#i);}.l{fill:url(#j);}.m{fill:url(#k);}.n{fill:url(#l);}.o{fill:url(#m);}.p{fill:url(#n);}.q{fill:url(#o);}.r{fill:url(#p);}.s{fill:url(#q);}.t{fill:url(#r);}.u{fill:url(#s);}.v{fill:url(#t);}.w{fill:url(#u);}.x{fill:url(#v);}.y{fill:url(#w);}.z{fill:url(#x);}.aa{fill:url(#y);}.ab{fill:url(#z);}.ac{fill:#c58759;}.ad{fill:url(#aa);}.ae{fill:#cd9f50;}.af{fill:url(#ab);}.ag{fill:url(#ac);}.ah{fill:url(#ad);}.ai{fill:#587182;}.aj{fill:url(#ae);}.ak{fill:url(#af);}.al{fill:url(#ag);}.am{fill:url(#ah);}.an{fill:#ca9945;}.ao{fill:url(#ai);}.ap{fill:url(#aj);}.aq{fill:url(#ak);}.ar{opacity:0.17;}.ar,.at{mix-blend-mode:overlay;}.as{stroke:#424242;}.as,.at{stroke-miterlimit:10;}.at{stroke:#fff;opacity:0.43;}.au,.av,.aw{mix-blend-mode:screen;}.au{fill:url(#al);}.av{fill:url(#am);}.aw{fill:url(#an);}</style><clipPath id="a"><rect class="a" width="750" height="500" transform="translate(750 500) rotate(-180)"/></clipPath><radialGradient id="b" cx="130.0703" cy="-94.8925" r="836.5888" gradientTransform="matrix(-1, 0, 0, 1, 750, 0)" gradientUnits="userSpaceOnUse"><stop offset="0" stop-color="#f3f3f3"/><stop offset="0.9697" stop-color="#bcb9bc"/></radialGradient><linearGradient id="c" x1="355.7424" y1="257.7424" x2="244.2409" y2="369.2439" gradientTransform="matrix(-1, 0, 0, 1, 750, 0)" gradientUnits="userSpaceOnUse"><stop offset="0" stop-color="#f3f3f3" stop-opacity="0"/><stop offset="0.9697" stop-color="#bcb9bc"/></linearGradient><linearGradient id="d" x1="418.7424" y1="130.7424" x2="307.2409" y2="242.2439" xlink:href="#c"/><linearGradient id="e" x1="783.7424" y1="121.7424" x2="672.2409" y2="233.2439" xlink:href="#c"/><linearGradient id="f" x1="605.7424" y1="216.7424" x2="494.2409" y2="328.2439" xlink:href="#c"/><linearGradient id="g" x1="324.7424" y1="414.6304" x2="213.2409" y2="526.1319" xlink:href="#c"/><radialGradient id="h" cx="570.224" cy="631.4722" r="80.0291" gradientTransform="matrix(-2.4764, 2.4764, 0.1484, 0.1484, 1439.2887, -1043.7363)" gradientUnits="userSpaceOnUse"><stop offset="0" stop-color="#bbb8b9"/><stop offset="0.9848" stop-color="#fff" stop-opacity="0"/></radialGradient><linearGradient id="i" x1="444.5403" y1="416.4487" x2="803.0584" y2="416.4487" gradientTransform="matrix(-1, 0, 0, 1, 750, 0)" xlink:href="#b"/><radialGradient id="j" cx="472.6605" cy="-9.4292" r="63.2796" gradientTransform="matrix(-7.7167, 0, 0, 0.5789, 3991.2522, 45.5056)" xlink:href="#h"/><linearGradient id="k" x1="566.1105" y1="168.1942" x2="244.7529" y2="-153.1634" gradientTransform="matrix(-1, 0, 0, 1, 750, 0)" xlink:href="#b"/><radialGradient id="l" cx="512.0045" cy="388.3278" r="63.2795" gradientTransform="matrix(-5.4565, 5.4565, 0.4094, 0.4094, 2955.2804, -2506.7104)" xlink:href="#h"/><linearGradient id="m" x1="171.939" y1="434.0357" x2="721.042" y2="434.0357" gradientTransform="matrix(-1, 0, 0, 1, 750, 0)" xlink:href="#b"/><radialGradient id="n" cx="445.3917" cy="470.0368" r="39.1892" gradientTransform="matrix(-5.4565, 5.4565, 0.4094, 0.4094, 2961.1257, -2500.8651)" xlink:href="#h"/><linearGradient id="o" x1="189.7215" y1="265.0834" x2="-24.1241" y2="51.2378" gradientTransform="matrix(-1, 0, 0, 1, 750, 0)" xlink:href="#b"/><radialGradient id="p" cx="519.9502" cy="274.0208" r="39.1892" gradientTransform="matrix(-7.7167, 0, 0, 0.5789, 4234.4454, 275.7563)" xlink:href="#h"/><linearGradient id="q" x1="567.1004" y1="453.934" x2="292.7477" y2="179.5813" gradientTransform="matrix(-1, 0, 0, 1, 750, 0)" xlink:href="#b"/><radialGradient id="r" cx="482.7903" cy="162.9128" r="18.6185" gradientTransform="matrix(-5.4565, 5.4565, 0.4094, 0.4094, 2939.1546, -2522.8362)" xlink:href="#h"/><linearGradient id="s" x1="276.2454" y1="66.5712" x2="493.414" y2="283.7398" gradientTransform="matrix(-1, 0, 0, 1, 750, 0)" xlink:href="#b"/><radialGradient id="t" cx="543.2006" cy="16.11" r="18.6185" gradientTransform="matrix(-5.4565, 5.4565, 0.4094, 0.4094, 2928.6526, -2533.3382)" xlink:href="#h"/><linearGradient id="u" x1="676.4719" y1="325.6028" x2="893.6405" y2="542.7714" gradientTransform="matrix(-1, 0, 0, 1, 750, 0)" xlink:href="#b"/><radialGradient id="v" cx="450.4741" cy="87.743" r="40.4951" gradientTransform="matrix(-7.7167, 0, 0, 0.5789, 3987.8376, -85.0802)" xlink:href="#h"/><linearGradient id="w" x1="15.9127" y1="-277.0731" x2="488.2523" y2="195.2665" gradientTransform="matrix(-1, 0, 0, 1, 750, 0)" xlink:href="#b"/><radialGradient id="x" cx="519.1769" cy="87.3725" r="37.0509" gradientTransform="matrix(-5.4565, 5.4565, 0.4094, 0.4094, 2933.7506, -2528.2402)" xlink:href="#h"/><linearGradient id="y" x1="409.8834" y1="118.2751" x2="842.0502" y2="550.4419" gradientTransform="matrix(-1, 0, 0, 1, 750, 0)" xlink:href="#b"/><radialGradient id="z" cx="532.3939" cy="-231.1188" r="37.0509" gradientTransform="matrix(-7.7167, 0, 0, 0.5789, 4019.6484, 393.1714)" xlink:href="#h"/><radialGradient id="aa" cx="503.0567" cy="-298.5337" r="17.8223" gradientTransform="matrix(-7.7167, 0, 0, 0.5789, 3920.922, 239.7015)" xlink:href="#h"/><radialGradient id="ab" cx="537.6922" cy="1670.5942" r="115.716" gradientTransform="matrix(-3.5022, 0, 0, 0.2098, 2265.6424, 212.0773)" xlink:href="#h"/><linearGradient id="ac" x1="100.5508" y1="496.6673" x2="618.9401" y2="496.6673" gradientTransform="matrix(-1, 0, 0, 1, 750, 0)" xlink:href="#b"/><radialGradient id="ad" cx="474.1217" cy="2427.9091" r="115.716" gradientTransform="matrix(-3.5022, 0, 0, 0.2098, 2332.4344, 27.745)" xlink:href="#h"/><radialGradient id="ae" cx="391.2718" cy="822.6649" r="76.2536" gradientTransform="matrix(-3.5022, 0, 0, 0.2098, 1967.6564, -120.3921)" xlink:href="#h"/><linearGradient id="af" x1="342.6214" y1="203.8212" x2="87.0284" y2="-51.7717" gradientTransform="matrix(-1, 0, 0, 1, 750, 0)" xlink:href="#b"/><radialGradient id="ag" cx="543.629" cy="-204.4712" r="85.2059" gradientTransform="matrix(-3.5022, 0, 0, 0.2098, 1944.9082, 293.398)" xlink:href="#h"/><radialGradient id="ah" cx="523.2395" cy="2013.0131" r="85.2059" gradientTransform="matrix(-3.5022, 0, 0, 0.2098, 2310.5011, 164.1212)" xlink:href="#h"/><radialGradient id="ai" cx="435.3783" cy="1833.0634" r="33.6491" gradientTransform="matrix(-1.86, 1.86, 0.1484, 0.1484, 1265.6262, -807.7628)" xlink:href="#h"/><radialGradient id="aj" cx="490.5785" cy="-156.9513" r="17.8223" gradientTransform="matrix(-7.7167, 0, 0, 0.5789, 3960.8064, 157.7359)" xlink:href="#h"/><linearGradient id="ak" x1="476.9375" y1="-39.9812" x2="684.8191" y2="167.9004" gradientTransform="matrix(-1, 0, 0, 1, 750, 0)" xlink:href="#b"/><radialGradient id="al" cx="295.9" cy="592.2064" r="536.122" gradientTransform="matrix(-1, 0, 0, 0.677, 750, 209.5187)" gradientUnits="userSpaceOnUse"><stop offset="0" stop-color="#f3f3f3"/><stop offset="1" stop-opacity="0"/></radialGradient><radialGradient id="am" cx="9.3704" cy="-34.2832" r="536.1192" gradientTransform="matrix(-1, 0, 0, 1, 750, 0)" xlink:href="#al"/><radialGradient id="an" cx="850.8445" cy="79.2126" r="536.1192" gradientTransform="matrix(-1, 0, 0, 1, 750, 0)" xlink:href="#al"/></defs><title>loading_page_bg_template_2</title><g class="b"><g class="c"><rect class="d" width="750" height="500"/><polygon class="e" points="673.019 9.297 862.157 9.297 240.381 631.073 51.243 631.073 673.019 9.297"/><polygon class="f" points="610.019 -117.703 799.157 -117.703 177.381 504.073 -11.757 504.073 610.019 -117.703"/><polygon class="g" points="245.019 -126.703 434.157 -126.703 -187.619 495.073 -376.757 495.073 245.019 -126.703"/><polygon class="h" points="423.019 -31.703 612.157 -31.703 -9.619 590.073 -198.757 590.073 423.019 -31.703"/><polygon class="i" points="704.019 166.185 893.157 166.185 271.381 787.961 82.243 787.961 704.019 166.185"/><path class="j" d="M-18.6377,601.5749c5.4224,5.4224,72.2816-52.6453,149.3342-129.698s135.12-143.9118,129.6981-149.3343S188.113,375.1881,111.06,452.2407-24.06,596.1526-18.6377,601.5749Z"/><polygon class="k" points="221.839 279 305.46 279 30.562 553.897 -53.058 553.897 221.839 279"/><ellipse class="l" cx="343.8936" cy="40.0468" rx="343.7611" ry="30.2906" transform="translate(72.4067 254.8989) rotate(-45)"/><polygon class="m" points="603.102 -284.079 669.224 -284.079 108.478 276.666 42.357 276.666 603.102 -284.079"/><path class="n" d="M77.4187,689.0845c11.8292,11.8292,130.2473-87.41,264.4943-221.6571S575.3993,214.7622,563.57,202.933,433.3229,290.3432,299.0757,424.59,65.59,677.2554,77.4187,689.0845Z"/><polygon class="o" points="520.142 188.444 578.061 188.444 86.877 679.628 28.958 679.628 520.142 188.444"/><path class="p" d="M572.7237,272.3671c7.3258,7.3259,80.6625-54.1333,163.8021-137.2729S881.1246-21.3822,873.7988-28.708,793.1363,25.4254,709.9966,108.565,565.3978,265.0413,572.7237,272.3671Z"/><polygon class="q" points="883.79 -78.903 924.739 -78.903 577.468 268.369 536.519 268.369 883.79 -78.903"/><ellipse class="r" cx="222.1684" cy="434.3942" rx="212.8923" ry="18.759" transform="translate(-242.0915 284.3278) rotate(-45)"/><polygon class="s" points="382.697 233.662 423.646 233.662 76.375 580.933 35.426 580.933 382.697 233.662"/><path class="t" d="M299.98,249.7185c3.48,3.4805,38.3222-25.7183,77.8212-65.2173S446.4994,110.16,443.019,106.68s-38.3222,25.7184-77.8213,65.2174S296.5,246.2381,299.98,249.7185Z"/><polygon class="u" points="447.766 82.833 467.22 82.833 302.234 247.819 282.78 247.819 447.766 82.833"/><path class="v" d="M-100.2461,508.75c3.48,3.4805,38.3222-25.7183,77.8212-65.2174s68.6978-74.3407,65.2174-77.8212S4.47,391.43-35.0288,430.9289-103.7266,505.27-100.2461,508.75Z"/><polygon class="w" points="47.539 341.864 66.994 341.864 -97.992 506.85 -117.447 506.85 47.539 341.864"/><ellipse class="x" cx="511.6839" cy="-34.2832" rx="219.9863" ry="19.3841" transform="translate(174.1106 351.7738) rotate(-45)"/><polygon class="y" points="677.562 -241.704 719.875 -241.704 361.032 117.139 318.719 117.139 677.562 -241.704"/><path class="z" d="M-5.695,482.7393c6.9261,6.9261,76.2613-51.18,154.8646-129.7829s136.709-147.9385,129.7829-154.8647-76.2614,51.18-154.8647,129.783S-12.6212,475.8132-5.695,482.7393Z"/><polygon class="aa" points="288.399 150.636 327.113 150.636 -1.21 478.959 -39.925 478.959 288.399 150.636"/><ellipse class="ab" cx="-88.652" cy="259.3713" rx="201.2762" ry="17.7354" transform="translate(-209.3688 13.2817) rotate(-45)"/><polygon class="ac" points="63.118 69.592 101.833 69.592 -226.49 397.915 -265.205 397.915 63.118 69.592"/><ellipse class="ad" cx="39.0066" cy="66.8732" rx="96.8183" ry="8.5312" transform="translate(-35.8617 47.1685) rotate(-45)"/><polygon class="ae" points="112.011 -24.415 130.634 -24.415 -27.297 133.515 -45.919 133.515 112.011 -24.415"/><ellipse class="af" cx="382.559" cy="562.6161" rx="285.2887" ry="20.0765" transform="translate(-285.7807 435.2964) rotate(-45)"/><polygon class="ag" points="528.54 297.927 649.449 297.927 251.969 695.407 131.06 695.407 528.54 297.927"/><ellipse class="ah" cx="671.9851" cy="537.19" rx="285.2886" ry="20.0765" transform="translate(-183.0308 632.5045) rotate(-45)"/><polygon class="ai" points="817.966 272.501 938.875 272.501 541.395 669.981 420.486 669.981 817.966 272.501"/><ellipse class="aj" cx="597.3605" cy="52.2265" rx="187.9972" ry="13.2298" transform="translate(138.0332 437.6945) rotate(-45)"/><polygon class="ak" points="641.06 -69.698 720.736 -69.698 458.807 192.23 379.132 192.23 641.06 -69.698"/><ellipse class="al" cx="41.0333" cy="250.494" rx="210.0682" ry="14.7831" transform="translate(-165.1077 102.383) rotate(-45)"/><polygon class="ai" points="148.524 55.594 237.554 55.594 -55.125 348.273 -144.155 348.273 148.524 55.594"/><ellipse class="am" cx="478.0333" cy="586.5091" rx="210.0682" ry="14.7831" transform="translate(-274.7118 509.8052) rotate(-45)"/><polygon class="an" points="585.524 391.609 674.554 391.609 381.875 684.288 292.846 684.288 585.524 391.609"/><path class="ao" d="M683.7364,318.0751c2.28,2.28,23.8545-15.5983,48.1882-39.932s42.2119-45.9084,39.932-48.1883-23.8545,15.5983-48.1882,39.9321S681.4565,315.7952,683.7364,318.0751Z"/><polygon class="ac" points="859.967 107.326 895.126 107.326 675.222 327.23 640.063 327.23 859.967 107.326"/><ellipse class="ap" cx="175.1805" cy="66.8732" rx="96.8183" ry="8.5312" transform="translate(4.0227 143.458) rotate(-45)"/><polygon class="aq" points="248.185 -24.415 266.808 -24.415 108.877 133.515 90.255 133.515 248.185 -24.415"/><g class="ar"><line class="as" x1="46.7037" y1="-63.3939" x2="-622.0286" y2="605.3385"/><line class="as" x1="50.6998" y1="-63.3939" x2="-618.0325" y2="605.3385"/><line class="as" x1="54.6958" y1="-63.3939" x2="-614.0365" y2="605.3385"/><line class="as" x1="58.6919" y1="-63.3939" x2="-610.0404" y2="605.3385"/><line class="as" x1="62.688" y1="-63.3939" x2="-606.0443" y2="605.3385"/><line class="as" x1="66.684" y1="-63.3939" x2="-602.0483" y2="605.3385"/><line class="as" x1="70.6801" y1="-63.3939" x2="-598.0522" y2="605.3385"/><line class="as" x1="74.6762" y1="-63.3939" x2="-594.0561" y2="605.3385"/><line class="as" x1="78.6722" y1="-63.3939" x2="-590.0601" y2="605.3385"/><line class="as" x1="82.6683" y1="-63.3939" x2="-586.064" y2="605.3385"/><line class="as" x1="86.6644" y1="-63.3939" x2="-582.0679" y2="605.3385"/><line class="as" x1="90.6604" y1="-63.3939" x2="-578.0719" y2="605.3385"/><line class="as" x1="94.6565" y1="-63.3939" x2="-574.0758" y2="605.3385"/><line class="as" x1="98.6525" y1="-63.3939" x2="-570.0798" y2="605.3385"/><line class="as" x1="102.6486" y1="-63.3939" x2="-566.0837" y2="605.3385"/><line class="as" x1="106.6447" y1="-63.3939" x2="-562.0876" y2="605.3385"/><line class="as" x1="110.6407" y1="-63.3939" x2="-558.0916" y2="605.3385"/><line class="as" x1="114.6368" y1="-63.3939" x2="-554.0955" y2="605.3385"/><line class="as" x1="118.6329" y1="-63.3939" x2="-550.0994" y2="605.3385"/><line class="as" x1="122.6289" y1="-63.3939" x2="-546.1034" y2="605.3385"/><line class="as" x1="126.625" y1="-63.3939" x2="-542.1073" y2="605.3385"/><line class="as" x1="130.6211" y1="-63.3939" x2="-538.1112" y2="605.3385"/><line class="as" x1="134.6171" y1="-63.3939" x2="-534.1152" y2="605.3385"/><line class="as" x1="138.6132" y1="-63.3939" x2="-530.1191" y2="605.3385"/><line class="as" x1="142.6093" y1="-63.3939" x2="-526.123" y2="605.3385"/><line class="as" x1="146.6053" y1="-63.3939" x2="-522.127" y2="605.3385"/><line class="as" x1="150.6014" y1="-63.3939" x2="-518.1309" y2="605.3385"/><line class="as" x1="154.5975" y1="-63.3939" x2="-514.1348" y2="605.3385"/><line class="as" x1="158.5935" y1="-63.3939" x2="-510.1388" y2="605.3385"/><line class="as" x1="162.5896" y1="-63.3939" x2="-506.1427" y2="605.3385"/><line class="as" x1="166.5857" y1="-63.3939" x2="-502.1466" y2="605.3385"/><line class="as" x1="170.5817" y1="-63.3939" x2="-498.1506" y2="605.3385"/><line class="as" x1="174.5778" y1="-63.3939" x2="-494.1545" y2="605.3385"/><line class="as" x1="178.5738" y1="-63.3939" x2="-490.1585" y2="605.3385"/><line class="as" x1="182.5699" y1="-63.3939" x2="-486.1624" y2="605.3385"/><line class="as" x1="186.566" y1="-63.3939" x2="-482.1663" y2="605.3385"/><line class="as" x1="190.562" y1="-63.3939" x2="-478.1703" y2="605.3385"/><line class="as" x1="194.5581" y1="-63.3939" x2="-474.1742" y2="605.3385"/><line class="as" x1="198.5542" y1="-63.3939" x2="-470.1781" y2="605.3385"/><line class="as" x1="202.5502" y1="-63.3939" x2="-466.1821" y2="605.3385"/><line class="as" x1="206.5463" y1="-63.3939" x2="-462.186" y2="605.3385"/><line class="as" x1="210.5424" y1="-63.3939" x2="-458.1899" y2="605.3385"/><line class="as" x1="214.5384" y1="-63.3939" x2="-454.1939" y2="605.3385"/><line class="as" x1="218.5345" y1="-63.3939" x2="-450.1978" y2="605.3385"/><line class="as" x1="222.5306" y1="-63.3939" x2="-446.2017" y2="605.3385"/><line class="as" x1="226.5266" y1="-63.3939" x2="-442.2057" y2="605.3385"/><line class="as" x1="230.5227" y1="-63.3939" x2="-438.2096" y2="605.3385"/><line class="as" x1="234.5188" y1="-63.3939" x2="-434.2135" y2="605.3385"/><line class="as" x1="238.5148" y1="-63.3939" x2="-430.2175" y2="605.3385"/><line class="as" x1="242.5109" y1="-63.3939" x2="-426.2214" y2="605.3385"/><line class="as" x1="246.507" y1="-63.3939" x2="-422.2253" y2="605.3385"/><line class="as" x1="250.503" y1="-63.3939" x2="-418.2293" y2="605.3385"/><line class="as" x1="254.4991" y1="-63.3939" x2="-414.2332" y2="605.3385"/><line class="as" x1="258.4952" y1="-63.3939" x2="-410.2371" y2="605.3385"/><line class="as" x1="262.4912" y1="-63.3939" x2="-406.2411" y2="605.3385"/><line class="as" x1="266.4873" y1="-63.3939" x2="-402.245" y2="605.3385"/><line class="as" x1="270.4833" y1="-63.3939" x2="-398.249" y2="605.3385"/><line class="as" x1="274.4794" y1="-63.3939" x2="-394.2529" y2="605.3385"/><line class="as" x1="278.4755" y1="-63.3939" x2="-390.2568" y2="605.3385"/><line class="as" x1="282.4715" y1="-63.3939" x2="-386.2608" y2="605.3385"/><line class="as" x1="286.4676" y1="-63.3939" x2="-382.2647" y2="605.3385"/><line class="as" x1="290.4637" y1="-63.3939" x2="-378.2686" y2="605.3385"/><line class="as" x1="294.4597" y1="-63.3939" x2="-374.2726" y2="605.3385"/><line class="as" x1="298.4558" y1="-63.3939" x2="-370.2765" y2="605.3385"/><line class="as" x1="302.4519" y1="-63.3939" x2="-366.2804" y2="605.3385"/><line class="as" x1="306.4479" y1="-63.3939" x2="-362.2844" y2="605.3385"/><line class="as" x1="310.444" y1="-63.3939" x2="-358.2883" y2="605.3385"/><line class="as" x1="314.4401" y1="-63.3939" x2="-354.2922" y2="605.3385"/><line class="as" x1="318.4361" y1="-63.3939" x2="-350.2962" y2="605.3385"/><line class="as" x1="322.4322" y1="-63.3939" x2="-346.3001" y2="605.3385"/><line class="as" x1="326.4283" y1="-63.3939" x2="-342.304" y2="605.3385"/><line class="as" x1="330.4243" y1="-63.3939" x2="-338.308" y2="605.3385"/><line class="as" x1="334.4204" y1="-63.3939" x2="-334.3119" y2="605.3385"/><line class="as" x1="338.4165" y1="-63.3939" x2="-330.3158" y2="605.3385"/><line class="as" x1="342.4125" y1="-63.3939" x2="-326.3198" y2="605.3385"/><line class="as" x1="346.4086" y1="-63.3939" x2="-322.3237" y2="605.3385"/><line class="as" x1="350.4046" y1="-63.3939" x2="-318.3276" y2="605.3385"/><line class="as" x1="354.4007" y1="-63.3939" x2="-314.3316" y2="605.3385"/><line class="as" x1="358.3968" y1="-63.3939" x2="-310.3355" y2="605.3385"/><line class="as" x1="362.3928" y1="-63.3939" x2="-306.3395" y2="605.3385"/><line class="as" x1="366.3889" y1="-63.3939" x2="-302.3434" y2="605.3385"/><line class="as" x1="370.385" y1="-63.3939" x2="-298.3473" y2="605.3385"/><line class="as" x1="374.381" y1="-63.3939" x2="-294.3513" y2="605.3385"/><line class="as" x1="378.3771" y1="-63.3939" x2="-290.3552" y2="605.3385"/><line class="as" x1="382.3732" y1="-63.3939" x2="-286.3591" y2="605.3385"/><line class="as" x1="386.3692" y1="-63.3939" x2="-282.3631" y2="605.3385"/><line class="as" x1="390.3653" y1="-63.3939" x2="-278.367" y2="605.3385"/><line class="as" x1="394.3614" y1="-63.3939" x2="-274.3709" y2="605.3385"/><line class="as" x1="398.3574" y1="-63.3939" x2="-270.3749" y2="605.3385"/><line class="as" x1="402.3535" y1="-63.3939" x2="-266.3788" y2="605.3385"/><line class="as" x1="406.3496" y1="-63.3939" x2="-262.3827" y2="605.3385"/><line class="as" x1="410.3456" y1="-63.3939" x2="-258.3867" y2="605.3385"/><line class="as" x1="414.3417" y1="-63.3939" x2="-254.3906" y2="605.3385"/><line class="as" x1="418.3378" y1="-63.3939" x2="-250.3945" y2="605.3385"/><line class="as" x1="422.3338" y1="-63.3939" x2="-246.3985" y2="605.3385"/><line class="as" x1="426.3299" y1="-63.3939" x2="-242.4024" y2="605.3385"/><line class="as" x1="430.3259" y1="-63.3939" x2="-238.4063" y2="605.3385"/><line class="as" x1="434.322" y1="-63.3939" x2="-234.4103" y2="605.3385"/><line class="as" x1="438.3181" y1="-63.3939" x2="-230.4142" y2="605.3385"/><line class="as" x1="442.3141" y1="-63.3939" x2="-226.4182" y2="605.3385"/><line class="as" x1="446.3102" y1="-63.3939" x2="-222.4221" y2="605.3385"/><line class="as" x1="450.3063" y1="-63.3939" x2="-218.426" y2="605.3385"/><line class="as" x1="454.3023" y1="-63.3939" x2="-214.43" y2="605.3385"/><line class="as" x1="458.2984" y1="-63.3939" x2="-210.4339" y2="605.3385"/><line class="as" x1="462.2945" y1="-63.3939" x2="-206.4378" y2="605.3385"/><line class="as" x1="466.2905" y1="-63.3939" x2="-202.4418" y2="605.3385"/><line class="as" x1="470.2866" y1="-63.3939" x2="-198.4457" y2="605.3385"/><line class="as" x1="474.2827" y1="-63.3939" x2="-194.4496" y2="605.3385"/><line class="as" x1="478.2787" y1="-63.3939" x2="-190.4536" y2="605.3385"/><line class="as" x1="482.2748" y1="-63.3939" x2="-186.4575" y2="605.3385"/><line class="as" x1="486.2709" y1="-63.3939" x2="-182.4614" y2="605.3385"/><line class="as" x1="490.2669" y1="-63.3939" x2="-178.4654" y2="605.3385"/><line class="as" x1="494.263" y1="-63.3939" x2="-174.4693" y2="605.3385"/><line class="as" x1="498.2591" y1="-63.3939" x2="-170.4732" y2="605.3385"/><line class="as" x1="502.2551" y1="-63.3939" x2="-166.4772" y2="605.3385"/><line class="as" x1="506.2512" y1="-63.3939" x2="-162.4811" y2="605.3385"/><line class="as" x1="510.2473" y1="-63.3939" x2="-158.485" y2="605.3385"/><line class="as" x1="514.2433" y1="-63.3939" x2="-154.489" y2="605.3385"/><line class="as" x1="518.2394" y1="-63.3939" x2="-150.4929" y2="605.3385"/><line class="as" x1="522.2354" y1="-63.3939" x2="-146.4968" y2="605.3385"/><line class="as" x1="526.2315" y1="-63.3939" x2="-142.5008" y2="605.3385"/><line class="as" x1="530.2276" y1="-63.3939" x2="-138.5047" y2="605.3385"/><line class="as" x1="534.2236" y1="-63.3939" x2="-134.5087" y2="605.3385"/><line class="as" x1="538.2197" y1="-63.3939" x2="-130.5126" y2="605.3385"/><line class="as" x1="542.2158" y1="-63.3939" x2="-126.5165" y2="605.3385"/><line class="as" x1="546.2118" y1="-63.3939" x2="-122.5205" y2="605.3385"/><line class="as" x1="550.2079" y1="-63.3939" x2="-118.5244" y2="605.3385"/><line class="as" x1="554.204" y1="-63.3939" x2="-114.5283" y2="605.3385"/><line class="as" x1="558.2" y1="-63.3939" x2="-110.5323" y2="605.3385"/><line class="as" x1="562.1961" y1="-63.3939" x2="-106.5362" y2="605.3385"/><line class="as" x1="566.1922" y1="-63.3939" x2="-102.5401" y2="605.3385"/><line class="as" x1="570.1882" y1="-63.3939" x2="-98.5441" y2="605.3385"/><line class="as" x1="574.1843" y1="-63.3939" x2="-94.548" y2="605.3385"/><line class="as" x1="578.1804" y1="-63.3939" x2="-90.5519" y2="605.3385"/><line class="as" x1="582.1764" y1="-63.3939" x2="-86.5559" y2="605.3385"/><line class="as" x1="586.1725" y1="-63.3939" x2="-82.5598" y2="605.3385"/><line class="as" x1="590.1686" y1="-63.3939" x2="-78.5637" y2="605.3385"/><line class="as" x1="594.1646" y1="-63.3939" x2="-74.5677" y2="605.3385"/><line class="as" x1="598.1607" y1="-63.3939" x2="-70.5716" y2="605.3385"/><line class="as" x1="602.1567" y1="-63.3939" x2="-66.5755" y2="605.3385"/><line class="as" x1="606.1528" y1="-63.3939" x2="-62.5795" y2="605.3385"/><line class="as" x1="610.1489" y1="-63.3939" x2="-58.5834" y2="605.3385"/><line class="as" x1="614.1449" y1="-63.3939" x2="-54.5873" y2="605.3385"/><line class="as" x1="618.141" y1="-63.3939" x2="-50.5913" y2="605.3385"/><line class="as" x1="622.1371" y1="-63.3939" x2="-46.5952" y2="605.3385"/><line class="as" x1="626.1331" y1="-63.3939" x2="-42.5992" y2="605.3385"/><line class="as" x1="630.1292" y1="-63.3939" x2="-38.6031" y2="605.3385"/><line class="as" x1="634.1253" y1="-63.3939" x2="-34.607" y2="605.3385"/><line class="as" x1="638.1213" y1="-63.3939" x2="-30.611" y2="605.3385"/><line class="as" x1="642.1174" y1="-63.3939" x2="-26.6149" y2="605.3385"/><line class="as" x1="646.1135" y1="-63.3939" x2="-22.6188" y2="605.3385"/><line class="as" x1="650.1095" y1="-63.3939" x2="-18.6228" y2="605.3385"/><line class="as" x1="654.1056" y1="-63.3939" x2="-14.6267" y2="605.3385"/><line class="as" x1="658.1017" y1="-63.3939" x2="-10.6306" y2="605.3385"/><line class="as" x1="662.0977" y1="-63.3939" x2="-6.6346" y2="605.3385"/><line class="as" x1="666.0938" y1="-63.3939" x2="-2.6385" y2="605.3385"/><line class="as" x1="670.0899" y1="-63.3939" x2="1.3576" y2="605.3385"/><line class="as" x1="674.0859" y1="-63.3939" x2="5.3536" y2="605.3385"/><line class="as" x1="678.082" y1="-63.3939" x2="9.3497" y2="605.3385"/><line class="as" x1="682.0781" y1="-63.3939" x2="13.3458" y2="605.3385"/><line class="as" x1="686.0741" y1="-63.3939" x2="17.3418" y2="605.3385"/><line class="as" x1="690.0702" y1="-63.3939" x2="21.3379" y2="605.3385"/><line class="as" x1="694.0662" y1="-63.3939" x2="25.334" y2="605.3385"/><line class="as" x1="698.0623" y1="-63.3939" x2="29.33" y2="605.3385"/><line class="as" x1="702.0584" y1="-63.3939" x2="33.3261" y2="605.3385"/><line class="as" x1="706.0544" y1="-63.3939" x2="37.3221" y2="605.3385"/><line class="as" x1="710.0505" y1="-63.3939" x2="41.3182" y2="605.3385"/><line class="as" x1="714.0466" y1="-63.3939" x2="45.3143" y2="605.3385"/><line class="as" x1="718.0426" y1="-63.3939" x2="49.3103" y2="605.3385"/><line class="as" x1="722.0387" y1="-63.3939" x2="53.3064" y2="605.3385"/><line class="as" x1="726.0348" y1="-63.3939" x2="57.3025" y2="605.3385"/><line class="as" x1="730.0308" y1="-63.3939" x2="61.2985" y2="605.3385"/><line class="as" x1="734.0269" y1="-63.3939" x2="65.2946" y2="605.3385"/><line class="as" x1="738.023" y1="-63.3939" x2="69.2907" y2="605.3385"/><line class="as" x1="742.019" y1="-63.3939" x2="73.2867" y2="605.3385"/><line class="as" x1="746.0151" y1="-63.3939" x2="77.2828" y2="605.3385"/><line class="as" x1="750.0112" y1="-63.3939" x2="81.2789" y2="605.3385"/><line class="as" x1="754.0072" y1="-63.3939" x2="85.2749" y2="605.3385"/><line class="as" x1="758.0033" y1="-63.3939" x2="89.271" y2="605.3385"/><line class="as" x1="761.9994" y1="-63.3939" x2="93.2671" y2="605.3385"/><line class="as" x1="765.9954" y1="-63.3939" x2="97.2631" y2="605.3385"/><line class="as" x1="769.9915" y1="-63.3939" x2="101.2592" y2="605.3385"/><line class="as" x1="773.9875" y1="-63.3939" x2="105.2553" y2="605.3385"/><line class="as" x1="777.9836" y1="-63.3939" x2="109.2513" y2="605.3385"/><line class="as" x1="781.9797" y1="-63.3939" x2="113.2474" y2="605.3385"/><line class="as" x1="785.9757" y1="-63.3939" x2="117.2435" y2="605.3385"/><line class="as" x1="789.9718" y1="-63.3939" x2="121.2395" y2="605.3385"/><line class="as" x1="793.9679" y1="-63.3939" x2="125.2356" y2="605.3385"/><line class="as" x1="797.9639" y1="-63.3939" x2="129.2316" y2="605.3385"/><line class="as" x1="801.96" y1="-63.3939" x2="133.2277" y2="605.3385"/><line class="as" x1="805.9561" y1="-63.3939" x2="137.2238" y2="605.3385"/><line class="as" x1="809.9521" y1="-63.3939" x2="141.2198" y2="605.3385"/><line class="as" x1="813.9482" y1="-63.3939" x2="145.2159" y2="605.3385"/><line class="as" x1="817.9443" y1="-63.3939" x2="149.212" y2="605.3385"/><line class="as" x1="821.9403" y1="-63.3939" x2="153.208" y2="605.3385"/><line class="as" x1="825.9364" y1="-63.3939" x2="157.2041" y2="605.3385"/><line class="as" x1="829.9325" y1="-63.3939" x2="161.2002" y2="605.3385"/><line class="as" x1="833.9285" y1="-63.3939" x2="165.1962" y2="605.3385"/><line class="as" x1="837.9246" y1="-63.3939" x2="169.1923" y2="605.3385"/><line class="as" x1="841.9207" y1="-63.3939" x2="173.1884" y2="605.3385"/><line class="as" x1="845.9167" y1="-63.3939" x2="177.1844" y2="605.3385"/><line class="as" x1="849.9128" y1="-63.3939" x2="181.1805" y2="605.3385"/><line class="as" x1="853.9089" y1="-63.3939" x2="185.1766" y2="605.3385"/><line class="as" x1="857.9049" y1="-63.3939" x2="189.1726" y2="605.3385"/><line class="as" x1="861.901" y1="-63.3939" x2="193.1687" y2="605.3385"/><line class="as" x1="865.897" y1="-63.3939" x2="197.1648" y2="605.3385"/><line class="as" x1="869.8931" y1="-63.3939" x2="201.1608" y2="605.3385"/><line class="as" x1="873.8892" y1="-63.3939" x2="205.1569" y2="605.3385"/><line class="as" x1="877.8852" y1="-63.3939" x2="209.1529" y2="605.3385"/><line class="as" x1="881.8813" y1="-63.3939" x2="213.149" y2="605.3385"/><line class="as" x1="885.8774" y1="-63.3939" x2="217.1451" y2="605.3385"/><line class="as" x1="889.8734" y1="-63.3939" x2="221.1411" y2="605.3385"/><line class="as" x1="893.8695" y1="-63.3939" x2="225.1372" y2="605.3385"/><line class="as" x1="897.8656" y1="-63.3939" x2="229.1333" y2="605.3385"/><line class="as" x1="901.8616" y1="-63.3939" x2="233.1293" y2="605.3385"/><line class="as" x1="905.8577" y1="-63.3939" x2="237.1254" y2="605.3385"/><line class="as" x1="909.8538" y1="-63.3939" x2="241.1215" y2="605.3385"/><line class="as" x1="913.8498" y1="-63.3939" x2="245.1175" y2="605.3385"/><line class="as" x1="917.8459" y1="-63.3939" x2="249.1136" y2="605.3385"/><line class="as" x1="921.842" y1="-63.3939" x2="253.1097" y2="605.3385"/><line class="as" x1="925.838" y1="-63.3939" x2="257.1057" y2="605.3385"/><line class="as" x1="929.8341" y1="-63.3939" x2="261.1018" y2="605.3385"/><line class="as" x1="933.8302" y1="-63.3939" x2="265.0979" y2="605.3385"/><line class="as" x1="937.8262" y1="-63.3939" x2="269.0939" y2="605.3385"/><line class="as" x1="941.8223" y1="-63.3939" x2="273.09" y2="605.3385"/><line class="as" x1="945.8183" y1="-63.3939" x2="277.0861" y2="605.3385"/><line class="as" x1="949.8144" y1="-63.3939" x2="281.0821" y2="605.3385"/><line class="as" x1="953.8105" y1="-63.3939" x2="285.0782" y2="605.3385"/><line class="as" x1="957.8065" y1="-63.3939" x2="289.0743" y2="605.3385"/><line class="as" x1="961.8026" y1="-63.3939" x2="293.0703" y2="605.3385"/><line class="as" x1="965.7987" y1="-63.3939" x2="297.0664" y2="605.3385"/><line class="as" x1="969.7947" y1="-63.3939" x2="301.0624" y2="605.3385"/><line class="as" x1="973.7908" y1="-63.3939" x2="305.0585" y2="605.3385"/><line class="as" x1="977.7869" y1="-63.3939" x2="309.0546" y2="605.3385"/><line class="as" x1="981.7829" y1="-63.3939" x2="313.0506" y2="605.3385"/><line class="as" x1="985.779" y1="-63.3939" x2="317.0467" y2="605.3385"/><line class="as" x1="989.7751" y1="-63.3939" x2="321.0428" y2="605.3385"/><line class="as" x1="993.7711" y1="-63.3939" x2="325.0388" y2="605.3385"/><line class="as" x1="997.7672" y1="-63.3939" x2="329.0349" y2="605.3385"/><line class="as" x1="1001.7633" y1="-63.3939" x2="333.031" y2="605.3385"/><line class="as" x1="1005.7593" y1="-63.3939" x2="337.027" y2="605.3385"/><line class="as" x1="1009.7554" y1="-63.3939" x2="341.0231" y2="605.3385"/><line class="as" x1="1013.7515" y1="-63.3939" x2="345.0192" y2="605.3385"/><line class="as" x1="1017.7475" y1="-63.3939" x2="349.0152" y2="605.3385"/><line class="as" x1="1021.7436" y1="-63.3939" x2="353.0113" y2="605.3385"/><line class="as" x1="1025.7397" y1="-63.3939" x2="357.0074" y2="605.3385"/><line class="as" x1="1029.7357" y1="-63.3939" x2="361.0034" y2="605.3385"/><line class="as" x1="1033.7318" y1="-63.3939" x2="364.9995" y2="605.3385"/><line class="as" x1="1037.7278" y1="-63.3939" x2="368.9956" y2="605.3385"/><line class="as" x1="1041.7239" y1="-63.3939" x2="372.9916" y2="605.3385"/><line class="as" x1="1045.72" y1="-63.3939" x2="376.9877" y2="605.3385"/><line class="as" x1="1049.716" y1="-63.3939" x2="380.9838" y2="605.3385"/><line class="as" x1="1053.7121" y1="-63.3939" x2="384.9798" y2="605.3385"/><line class="as" x1="1057.7082" y1="-63.3939" x2="388.9759" y2="605.3385"/><line class="as" x1="1061.7042" y1="-63.3939" x2="392.9719" y2="605.3385"/><line class="as" x1="1065.7003" y1="-63.3939" x2="396.968" y2="605.3385"/><line class="as" x1="1069.6964" y1="-63.3939" x2="400.9641" y2="605.3385"/><line class="as" x1="1073.6924" y1="-63.3939" x2="404.9601" y2="605.3385"/><line class="as" x1="1077.6885" y1="-63.3939" x2="408.9562" y2="605.3385"/><line class="as" x1="1081.6846" y1="-63.3939" x2="412.9523" y2="605.3385"/><line class="as" x1="1085.6806" y1="-63.3939" x2="416.9483" y2="605.3385"/><line class="as" x1="1089.6767" y1="-63.3939" x2="420.9444" y2="605.3385"/><line class="as" x1="1093.6728" y1="-63.3939" x2="424.9405" y2="605.3385"/><line class="as" x1="1097.6688" y1="-63.3939" x2="428.9365" y2="605.3385"/><line class="as" x1="1101.6649" y1="-63.3939" x2="432.9326" y2="605.3385"/><line class="as" x1="1105.661" y1="-63.3939" x2="436.9287" y2="605.3385"/><line class="as" x1="1109.657" y1="-63.3939" x2="440.9247" y2="605.3385"/><line class="as" x1="1113.6531" y1="-63.3939" x2="444.9208" y2="605.3385"/><line class="as" x1="1117.6491" y1="-63.3939" x2="448.9169" y2="605.3385"/><line class="as" x1="1121.6452" y1="-63.3939" x2="452.9129" y2="605.3385"/><line class="as" x1="1125.6413" y1="-63.3939" x2="456.909" y2="605.3385"/><line class="as" x1="1129.6373" y1="-63.3939" x2="460.9051" y2="605.3385"/><line class="as" x1="1133.6334" y1="-63.3939" x2="464.9011" y2="605.3385"/><line class="as" x1="1137.6295" y1="-63.3939" x2="468.8972" y2="605.3385"/><line class="as" x1="1141.6255" y1="-63.3939" x2="472.8932" y2="605.3385"/><line class="as" x1="1145.6216" y1="-63.3939" x2="476.8893" y2="605.3385"/><line class="as" x1="1149.6177" y1="-63.3939" x2="480.8854" y2="605.3385"/><line class="as" x1="1153.6137" y1="-63.3939" x2="484.8814" y2="605.3385"/><line class="as" x1="1157.6098" y1="-63.3939" x2="488.8775" y2="605.3385"/><line class="as" x1="1161.6059" y1="-63.3939" x2="492.8736" y2="605.3385"/><line class="as" x1="1165.6019" y1="-63.3939" x2="496.8696" y2="605.3385"/><line class="as" x1="1169.598" y1="-63.3939" x2="500.8657" y2="605.3385"/><line class="as" x1="1173.5941" y1="-63.3939" x2="504.8618" y2="605.3385"/><line class="as" x1="1177.5901" y1="-63.3939" x2="508.8578" y2="605.3385"/><line class="as" x1="1181.5862" y1="-63.3939" x2="512.8539" y2="605.3385"/><line class="as" x1="1185.5823" y1="-63.3939" x2="516.85" y2="605.3385"/><line class="as" x1="1189.5783" y1="-63.3939" x2="520.846" y2="605.3385"/><line class="as" x1="1193.5744" y1="-63.3939" x2="524.8421" y2="605.3385"/><line class="as" x1="1197.5704" y1="-63.3939" x2="528.8382" y2="605.3385"/><line class="as" x1="1201.5665" y1="-63.3939" x2="532.8342" y2="605.3385"/><line class="as" x1="1205.5626" y1="-63.3939" x2="536.8303" y2="605.3385"/><line class="as" x1="1209.5586" y1="-63.3939" x2="540.8264" y2="605.3385"/><line class="as" x1="1213.5547" y1="-63.3939" x2="544.8224" y2="605.3385"/><line class="as" x1="1217.5508" y1="-63.3939" x2="548.8185" y2="605.3385"/><line class="as" x1="1221.5468" y1="-63.3939" x2="552.8146" y2="605.3385"/><line class="as" x1="1225.5429" y1="-63.3939" x2="556.8106" y2="605.3385"/><line class="as" x1="1229.539" y1="-63.3939" x2="560.8067" y2="605.3385"/><line class="as" x1="1233.535" y1="-63.3939" x2="564.8027" y2="605.3385"/><line class="as" x1="1237.5311" y1="-63.3939" x2="568.7988" y2="605.3385"/><line class="as" x1="1241.5272" y1="-63.3939" x2="572.7949" y2="605.3385"/><line class="as" x1="1245.5232" y1="-63.3939" x2="576.7909" y2="605.3385"/><line class="as" x1="1249.5193" y1="-63.3939" x2="580.787" y2="605.3385"/><line class="as" x1="1253.5154" y1="-63.3939" x2="584.7831" y2="605.3385"/><line class="as" x1="1257.5114" y1="-63.3939" x2="588.7791" y2="605.3385"/><line class="as" x1="1261.5075" y1="-63.3939" x2="592.7752" y2="605.3385"/><line class="as" x1="1265.5036" y1="-63.3939" x2="596.7713" y2="605.3385"/><line class="as" x1="1269.4996" y1="-63.3939" x2="600.7673" y2="605.3385"/><line class="as" x1="1273.4957" y1="-63.3939" x2="604.7634" y2="605.3385"/><line class="as" x1="1277.4918" y1="-63.3939" x2="608.7595" y2="605.3385"/><line class="as" x1="1281.4878" y1="-63.3939" x2="612.7555" y2="605.3385"/><line class="as" x1="1285.4839" y1="-63.3939" x2="616.7516" y2="605.3385"/><line class="as" x1="1289.4799" y1="-63.3939" x2="620.7477" y2="605.3385"/><line class="as" x1="1293.476" y1="-63.3939" x2="624.7437" y2="605.3385"/><line class="as" x1="1297.4721" y1="-63.3939" x2="628.7398" y2="605.3385"/><line class="as" x1="1301.4681" y1="-63.3939" x2="632.7359" y2="605.3385"/><line class="as" x1="1305.4642" y1="-63.3939" x2="636.7319" y2="605.3385"/><line class="as" x1="1309.4603" y1="-63.3939" x2="640.728" y2="605.3385"/><line class="as" x1="1313.4563" y1="-63.3939" x2="644.7241" y2="605.3385"/><line class="as" x1="1317.4524" y1="-63.3939" x2="648.7201" y2="605.3385"/><line class="as" x1="1321.4485" y1="-63.3939" x2="652.7162" y2="605.3385"/><line class="as" x1="1325.4445" y1="-63.3939" x2="656.7122" y2="605.3385"/><line class="as" x1="1329.4406" y1="-63.3939" x2="660.7083" y2="605.3385"/><line class="as" x1="1333.4367" y1="-63.3939" x2="664.7044" y2="605.3385"/><line class="as" x1="1337.4327" y1="-63.3939" x2="668.7004" y2="605.3385"/><line class="as" x1="1341.4288" y1="-63.3939" x2="672.6965" y2="605.3385"/><line class="as" x1="1345.4249" y1="-63.3939" x2="676.6926" y2="605.3385"/><line class="as" x1="1349.4209" y1="-63.3939" x2="680.6886" y2="605.3385"/><line class="as" x1="1353.417" y1="-63.3939" x2="684.6847" y2="605.3385"/><line class="as" x1="1357.4131" y1="-63.3939" x2="688.6808" y2="605.3385"/><line class="as" x1="1361.4091" y1="-63.3939" x2="692.6768" y2="605.3385"/><line class="as" x1="1365.4052" y1="-63.3939" x2="696.6729" y2="605.3385"/><line class="as" x1="1369.4012" y1="-63.3939" x2="700.669" y2="605.3385"/><line class="as" x1="1373.3973" y1="-63.3939" x2="704.665" y2="605.3385"/><line class="as" x1="1377.3934" y1="-63.3939" x2="708.6611" y2="605.3385"/><line class="as" x1="1381.3894" y1="-63.3939" x2="712.6572" y2="605.3385"/><line class="as" x1="1385.3855" y1="-63.3939" x2="716.6532" y2="605.3385"/><line class="as" x1="1389.3816" y1="-63.3939" x2="720.6493" y2="605.3385"/><line class="as" x1="1393.3776" y1="-63.3939" x2="724.6454" y2="605.3385"/><line class="as" x1="1397.3737" y1="-63.3939" x2="728.6414" y2="605.3385"/><line class="as" x1="1401.3698" y1="-63.3939" x2="732.6375" y2="605.3385"/><line class="as" x1="1405.3658" y1="-63.3939" x2="736.6335" y2="605.3385"/><line class="as" x1="1409.3619" y1="-63.3939" x2="740.6296" y2="605.3385"/></g><rect class="a" width="750" height="500"/><polygon class="at" points="699.48 178.199 747.925 178.199 350.445 575.679 302 575.679 699.48 178.199"/><polygon class="at" points="661.224 -91.073 696.976 -91.073 403.642 202.261 367.89 202.261 661.224 -91.073"/><polygon class="at" points="211.648 178.199 247.4 178.199 -45.934 471.533 -81.686 471.533 211.648 178.199"/><polygon class="at" points="224.07 -67.455 259.822 -67.455 -33.512 225.88 -69.264 225.88 224.07 -67.455"/><polygon class="at" points="108.641 412 135.846 412 -87.366 635.213 -114.572 635.213 108.641 412"/><polygon class="at" points="69.277 138.888 96.482 138.888 -126.731 362.1 -153.936 362.1 69.277 138.888"/><polygon class="at" points="413.695 -84.325 440.9 -84.325 217.687 138.888 190.482 138.888 413.695 -84.325"/><polygon class="at" points="907.01 -119.01 934.215 -119.01 711.003 104.203 683.797 104.203 907.01 -119.01"/><polygon class="at" points="455.086 302.852 478.033 302.852 289.755 491.13 266.808 491.13 455.086 302.852"/><polygon class="at" points="779.641 -75.617 802.589 -75.617 614.311 112.661 591.363 112.661 779.641 -75.617"/><polygon class="at" points="660.85 358.397 683.797 358.397 495.519 546.675 472.572 546.675 660.85 358.397"/><polygon class="at" points="850.26 259.371 873.207 259.371 684.929 447.649 661.981 447.649 850.26 259.371"/><polygon class="at" points="485.129 165.232 508.077 165.232 319.799 353.51 296.851 353.51 485.129 165.232"/><ellipse class="au" cx="454.1" cy="610.4424" rx="536.1192" ry="362.9565"/><circle class="av" cx="740.6296" cy="-34.2833" r="536.1192"/><circle class="aw" cx="-100.8445" cy="79.2125" r="536.1192"/></g></g></svg>