<svg xmlns="http://www.w3.org/2000/svg" width="110" height="70" viewBox="0 0 110 70"><path fill="#497285" d="M105 0v20h-5V6.9L60 20h-5V10a5 5 0 0 0-5-5H15a5 5 0 0 0-5 5v10H5V10A10 10 0 0 1 15 0h35a10 10 0 0 1 10 10v4.8Zm0 50v20L60 55.3V60a10 10 0 0 1-10 10H15A10 10 0 0 1 5 60V50h5v10a5 5 0 0 0 5 5h35a5 5 0 0 0 5-5V50h5l40 13.1V50Zm-66.2-3h-3.4V27.5H16V47h-3.3V24.4h26Zm31.9 0h-3.8l-2.7-5H48.1l-2.7 5h-3.8l12-22.6h5.1Zm-8-8-6.1-11.9h-.9l-6.1 12Zm35-7.4a7.7 7.7 0 0 1-1.5 5.2 6.2 6.2 0 0 1-5 2H76.3V47H73V24.4h18.4q6.5 0 6.5 7.2Zm-3.3 0q0-4.1-3.2-4.1H76.3v8.2h15q3 0 3-4Z"/></svg>