<svg xmlns="http://www.w3.org/2000/svg" width="110" height="70" viewBox="0 0 110 70"><path fill="#497285" d="M105.5 0v20h-5V6.9L60.5 20h-5V10a5 5 0 0 0-5-5h-35a5 5 0 0 0-5 5v10h-5V10a10 10 0 0 1 10-10h35a10 10 0 0 1 10 10v4.8Zm0 50v20l-45-14.7V60a10 10 0 0 1-10 10h-35a10 10 0 0 1-10-10V50h5v10a5 5 0 0 0 5 5h35a5 5 0 0 0 5-5V50h5l40 13.1V50ZM19.2 39.8q0 4-2.3 5.4-1.8 1-7.6 1-6.2 0-7.9-1.7Q0 43 0 38.5h2.5q0 3 1 4 1.1.8 5.8.8 4.8 0 5.9-.6a3 3 0 0 0 1.5-2.9q0-2.3-1-2.9-.9-.5-5.8-.5-5.9 0-7.8-2-1.5-1.4-1.5-5 0-4 1.8-5.2Q4 23 9.9 23q5.7 0 7.4 1.7 1.4 1.5 1.4 5.7h-2.5q0-2.8-1-3.6-1-.8-5.3-.8a31 31 0 0 0-4.4.2 2.8 2.8 0 0 0-2.4 3 3.5 3.5 0 0 0 1.3 3.2q1.3.8 6.4.9 5.1 0 6.5.9 1.9 1.2 1.9 5.5m19.6-13.3h-7.5V46h-2.5V26.5h-7.5v-3h17.5ZM57 46H41V23.4h16v3H43.4V33h13.1v3h-13v7H57Zm24.4 0h-2.8l-2-5h-12l-2 5h-2.8l8.8-22.6h4Zm-6-8L71 26.1h-.6l-4.6 12Zm34.6 8h-2.5V26.5h-.5L97.6 46H96l-9.4-19.5h-.5V46h-2.5V23.4h4.5L96.8 42l8.7-18.6h4.5Z"/></svg>