<svg xmlns="http://www.w3.org/2000/svg" width="500" height="600"><defs><style>.a{fill:#bc5f0c}.b{fill:#c6721e}.c{fill:#2b4450}.e{fill:#497285}.f{fill:#e58010}.g{fill:#cc6e11}.k{fill:#07617d}.m{fill:#fff}.n{fill:#dea149}.o{fill:#da8956}.p{fill:#d9ddf6}.r{fill:#f9a828}</style></defs><path d="M218.7 445v14.5c-.1 2.5-1.7 5-5 6.8L140 509.1a26.4 26.4 0 0 1-24 0l-74-42.8c-3.3-1.9-5-4.4-5-7V445c0 2.5 1.8 5 5 7l74.1 42.7a26.4 26.4 0 0 0 24 0l73.5-42.7c3.3-2 5-4.4 5-6.9Z" class="a"/><path d="M213.7 438c6.6 3.8 6.6 10 0 13.9l-73.5 42.7a26.4 26.4 0 0 1-24 0l-74-42.7c-6.6-3.8-6.7-10 0-13.9l73.5-42.7a26.4 26.4 0 0 1 24 0Z" class="b"/><path d="M184.9 441.9c3 1.7 3 4.4 0 6.1l-51.5 30a11.7 11.7 0 0 1-10.6 0L71 448c-3-1.7-3-4.4 0-6.1l51.4-30a11.7 11.7 0 0 1 10.6 0Z" class="a"/><path d="m69.4 28.9-.1 39.9-32.1 18.7V47.7l32.2-18.8z" class="c"/><path fill="#2b6f7f" d="M37.2 47.7v39.8L4.7 68.8V28.9l32.5 18.8z"/><path d="M69.4 28.9 37.2 47.7 4.7 28.9l32.2-18.7 32.5 18.7z" class="e"/><path d="m122.4 307.3.8 1 4.7-2.6-18.9-23.2 12.6-1.6.4-.2.8.9 4.7-2.5-19-23.3 13.1-1.7.5-.2.8.9 4.7-2.6-19-23.2 13.1-1.7.5-.3.8 1 4.7-2.6-19.1-23.3 13.2-1.6.5-.3.8 1 4.6-2.6-19-23.3 13.2-1.6.5-.3.8 1 4.6-2.6-19-23.3 13.2-1.7.4-.2.8.9 4.7-2.5-20.3-24.9-4.7 2.6 18.2 22.3-14.4 1.8-4.7 2.6 3.4-.5-2.1 1.2 17.8 21.7-14.5 1.8-4.6 2.6 3.3-.4-2.1 1.1 17.8 21.7-14.5 1.8-4.6 2.6 3.3-.4-2 1.1 17.7 21.7-14.4 1.9-4.7 2.5 3.3-.4-2 1.1 17.7 21.7-14.4 1.9-4.7 2.5 3.3-.4-2 1.1 17.7 21.8-13.9 1.7-4.7 2.6 1.1-.1-.3.1 18.2 22.3-14.4 1.8-4.7 2.6 3.4-.4-2.1 1.1 17.8 21.7-14.5 1.9-4.6 2.5 3.3-.4-2.1 1.1 17.8 21.8-14.5 1.8-4.6 2.6 3.3-.5-2 1.2 17.7 21.7-14.4 1.8-4.7 2.6 3.3-.4-2 1.1 17.7 21.7-14.4 1.8-4.7 2.6 3.3-.4-2 1.1 17.7 21.7-13.9 1.8-4.7 2.6 19.5-2.5.4-.3.8 1 4.7-2.6-19-23.3 13.1-1.6.5-.3.8 1 4.7-2.6-19-23.3 13.1-1.6.5-.3.8 1 4.7-2.6-19.1-23.3 13.2-1.7.5-.2.8.9 4.6-2.5-19-23.3 13.2-1.7.5-.3.8 1 4.6-2.6-19-23.2 13.2-1.7.4-.3z" class="f"/><path d="m150.3 417.4-3.3-.4 2 1.1-17.7 21.7 13.9 1.8 4.7 2.6-19.4-2.5-.5-.3-.8 1-4.7-2.6 19-23.3-13.1-1.6-.5-.3-.8 1-4.7-2.6 19.1-23.3-13.2-1.6-.5-.3-.8 1-4.6-2.6 19-23.3-13.2-1.7-.5-.2-.8.9-4.6-2.5 19-23.3-13.2-1.7-.5-.3-.7 1-4.7-2.6 19-23.2-13.2-1.7-.4-.3-.8 1-4.7-2.6 19-23.2-12.6-1.6-.5-.2-.8.9-4.7-2.5 19-23.3-13.1-1.7-.5-.2-.8.9-4.7-2.5 19.1-23.3-13.2-1.7-.5-.3-.8 1-4.6-2.6 19-23.3-13.2-1.6-.5-.3-.8 1-4.6-2.6 19-23.3-13.2-1.6-.5-.3-.7.9-4.7-2.5 19-23.3-13.2-1.7-.4-.2-.8.9-4.7-2.5 20.3-24.9 4.7 2.6-18.2 22.3 14.4 1.8 4.7 2.6-3.4-.5 2.1 1.2-17.8 21.7 14.5 1.8 4.7 2.6-3.4-.4 2.1 1.1-17.8 21.7 14.5 1.8 4.6 2.6-3.3-.4 2 1.1-17.7 21.7 14.4 1.8 4.7 2.6-3.3-.4 2 1.1-17.7 21.8 14.4 1.8 4.7 2.6-3.3-.5 2 1.1-17.7 21.8 13.9 1.7 4.7 2.6-1.1-.1.3.1-18.2 22.3 14.4 1.8 4.7 2.6-3.4-.4 2.1 1.1-17.8 21.7 14.5 1.9 4.7 2.5-3.4-.4 2.1 1.1-17.8 21.8 14.5 1.8 4.6 2.6-3.3-.5 2 1.2-17.7 21.7 14.4 1.8 4.7 2.6-3.3-.4 2 1.1-17.7 21.7 14.4 1.8 4.7 2.6z" class="f"/><path d="m123.2 308.3-19.9 2.5 19.9 24.3-20 2.5 19.9 24.3-19.9 2.6 19.8 24.3-19.9 2.5 19.8 24.3-19.9 2.5 19.8 24.3-20.4 2.6-.3-.8 19.5-2.5-19.9-24.3 19.9-2.5-19.8-24.3 19.9-2.5-19.8-24.3 19.9-2.6-19.8-24.3 19.9-2.5-19.9-24.3 20-2.5-19.1-23.4h-.5l-.3-.8 19.5-2.5-19.9-24.2 19.9-2.6-19.8-24.3 19.9-2.5-19.8-24.3 19.9-2.5-19.8-24.3 19.9-2.6-19.9-24.2 20-2.6-19.4-23.7.3-.4 20.3 24.8-19.9 2.6 19.9 24.2-20 2.6 19.9 24.3-19.9 2.5L123 228l-19.9 2.5 19.8 24.3-19.9 2.6 19.8 24.2-19.3 2.5 19.7 24.2zM150.3 417.4l-19.8 24.3 19.4 2.5-.3.8-20.4-2.6 19.8-24.3-19.9-2.5 19.8-24.3-19.9-2.5 19.8-24.3-19.9-2.6 19.9-24.3-19.9-2.5 19.8-24.3-19.9-2.5 19.7-24.2-19.3-2.5 19.8-24.2-19.9-2.6 19.8-24.3L129 228l19.8-24.3-19.9-2.5 19.9-24.3-19.9-2.6 19.8-24.2-19.9-2.6 20.3-24.8.3.4-19.4 23.7 20 2.6-19.9 24.2 19.9 2.6-19.8 24.3 19.9 2.5-19.8 24.3 19.9 2.5-19.8 24.3 19.9 2.6-19.8 24.2 19.4 2.5-.3.8h-.4L130 307.6l20 2.5-19.9 24.3 19.9 2.5-19.8 24.3 19.9 2.6-19.8 24.3 19.9 2.5-19.8 24.3 19.9 2.5z" class="a"/><path d="M129.8 118.3V464l-3.8 1.8V120.1l3.8-1.8z" class="a"/><path d="M126 120.1v345.7l-3.8-1.8.1-345.7 3.7 1.8z" class="g"/><path d="M152.2 107.8v342.9l-3.8 1.8V109.6l3.8-1.8z" class="a"/><path d="M148.4 109.6v342.9l-3.8-1.8V107.8l3.8 1.8z" class="g"/><path d="M103.6 109.6v342.9l-3.7-1.8V107.8l3.7 1.8z" class="a"/><path d="M107.4 107.8v342.9l-3.8 1.8V109.6l3.8-1.8z" class="g"/><path fill="#ba5a19" d="m126.2 101.1-.1 34.9 39.1-22.7V78.4l-39 22.7z"/><path fill="#ce6f30" d="m126.2 101.1-.1 34.9-39.3-22.7v-35l39.4 22.8z"/><path fill="#f78536" d="m165.2 78.4-39 22.7-39.4-22.8 39.1-22.7 39.3 22.8z"/><path d="M226.8 175.5c1.5-.9 3.5-.8 5.8.6l259.2 149.6c4.5 2.6 8.2 9 8.2 14.2l-.4 214.2c0 2.6-1 4.5-2.4 5.3l-10.8 6.3c1.4-.9 2.4-2.7 2.4-5.3l.4-214.2c0-5.2-3.7-11.6-8.2-14.3L221.8 182.3c-2.3-1.3-4.3-1.4-5.8-.5Z" class="c"/><path d="M221.8 182.3c-4.5-2.6-8.2-.5-8.2 4.7l-.5 214.3c0 5.2 3.7 11.6 8.2 14.2l259.2 149.6c4.5 2.7 8.2.5 8.3-4.7l.4-214.2c0-5.2-3.7-11.6-8.2-14.3Z" class="k"/><path fill="#e5e8e9" d="m223.8 213.2-.4 191.7 255 147.2.4-191.7-255-147.2z"/><path d="M255.2 213c-2.4-1.3-4.3-.2-4.3 2.5a9.3 9.3 0 0 0 4.2 7.3c2.3 1.3 4.2.2 4.3-2.5a9.3 9.3 0 0 0-4.2-7.3ZM228 197.4c-2.3-1.4-4.2-.3-4.2 2.4a9.3 9.3 0 0 0 4.2 7.3c2.3 1.3 4.2.3 4.2-2.4a9.3 9.3 0 0 0-4.2-7.3ZM241.6 205.2c-2.3-1.3-4.2-.2-4.2 2.4a9.3 9.3 0 0 0 4.2 7.3c2.3 1.4 4.2.3 4.2-2.4a9.3 9.3 0 0 0-4.2-7.3Z" class="m"/><path d="m285 367.9-34.5-20a6.6 6.6 0 0 0-10 5.8v34.5a13.2 13.2 0 0 0 6.6 11.4l34.6 20a6.6 6.6 0 0 0 9.9-5.7v-34.5a13.2 13.2 0 0 0-6.6-11.5Z" class="n"/><path d="m362.7 412.7-34.6-20a6.6 6.6 0 0 0-10 5.8V433a13.2 13.2 0 0 0 6.6 11.5l34.6 20a6.6 6.6 0 0 0 10-5.8v-34.5a13.2 13.2 0 0 0-6.6-11.5Z" class="o"/><path d="m343.7 298.7 3 1.8a6.1 6.1 0 0 1 5.1.3l-3-1.8a6.1 6.1 0 0 0-5-.3Z" class="f"/><path d="M342.1 308.2v-28.7l4.6-2.7-3.1-1.8-4.6 2.7.1 28.7 3 1.8z" class="g"/><path d="M350.2 310.1a4 4 0 0 0-1.7-3.6l-3-1.8a4 4 0 0 1 1.6 3.6 12.2 12.2 0 0 1-2.8 7 11.7 11.7 0 0 1 2.4 2.8 12.5 12.5 0 0 0 3.5-8Z" class="p"/><path d="M354.8 307.4c0-5.6-3.4-8.3-8-6.9v-23.7l-4.7 2.7v28.7l2.4-1.3c3-1.8 5.6-.4 5.7 3.2a12.5 12.5 0 0 1-3.5 8 11.7 11.7 0 0 1 1.6 4.1c3.8-3.9 6.5-9.8 6.5-14.8Z" class="a"/><path d="m351 325-4.1 2.3c-1 .6-2.4.5-3.9-.4a11.9 11.9 0 0 1-5.4-9.5 3.7 3.7 0 0 1 1.6-3.4l4-2.4a3.7 3.7 0 0 0-1.5 3.4 12 12 0 0 0 5.4 9.5c1.5.9 2.9 1 3.9.4Z" class="p"/><path fill="#719aa8" d="m424 358.5-.2 51.5c0 2.6-.9 4.5-2.4 5.3l-4 2.4c1.4-.8 2.3-2.7 2.3-5.3l.2-51.6c0-5.2-3.7-11.6-8.3-14.3l-137.1-79.1c-2.3-1.3-4.4-1.4-5.9-.6l4.1-2.3c1.6-1 3.6-.8 5.9.5l137.1 79.2c4.6 2.6 8.3 9 8.3 14.3Z"/><path d="M411.6 346.6c4.6 2.6 8.3 9 8.3 14.3l-.2 51.5c0 5.3-3.7 7.4-8.3 4.7l-137.1-79.2c-4.5-2.6-8.3-9-8.2-14.2l.1-51.6c0-5.2 3.8-7.3 8.3-4.7ZM343 326.9c3 1.8 5.5.3 5.5-3.2a11.9 11.9 0 0 0-5.5-9.3c-3-1.8-5.4-.4-5.4 3a12 12 0 0 0 5.4 9.5" class="e"/><path d="M344.3 315.4a10.5 10.5 0 0 1-2.9 2.7 5.2 5.2 0 0 1-2.3.7h.1l-3-1.9-4.4 4.4a5.6 5.6 0 0 0 2.3 2.8l3 1.8a5.6 5.6 0 0 1-2.2-2.8l3.8-3.9 1.8 1a4 4 0 0 0 4-.3 9.7 9.7 0 0 0 2.2-1.8 11.7 11.7 0 0 0-2.4-2.7Z" class="g"/><path d="M344.5 319.9c-2.3 1.3-4.5.9-5.3-1.2l-4.3 4.4c1.5 3.7 5.4 4.6 9.6 2.1a17.6 17.6 0 0 0 3.8-3 11.7 11.7 0 0 0-1.6-4 9.7 9.7 0 0 1-2.2 1.7Z" class="a"/><path d="m277.4 300.7-.2 30.4 134 77.4.2-30.4-134-77.4zM407.7 356.6c-2-1.2-3.7-.2-3.7 2.1a8.2 8.2 0 0 0 3.7 6.5c2 1.1 3.7.2 3.7-2.2a8.2 8.2 0 0 0-3.7-6.4ZM383.8 342.8c-2-1.2-3.8-.3-3.8 2.1a8.2 8.2 0 0 0 3.7 6.4c2.1 1.2 3.8.3 3.8-2a8.2 8.2 0 0 0-3.7-6.5ZM395.7 349.7c-2-1.2-3.7-.3-3.7 2.1a8.2 8.2 0 0 0 3.7 6.4c2 1.2 3.7.3 3.7-2a8.2 8.2 0 0 0-3.7-6.5Z" class="m"/><path d="m357.3 271.7 8.8-5.1-11.4 20.1-8.7 5.1 11.3-20.1z" class="a"/><path d="m349.6 253.4 8.8-5.1 7.7 18.3-8.8 5.1-7.7-18.3z" class="a"/><path d="m330.4 242.3 8.7-5.1 19.3 11.1-8.8 5.1-19.2-11.1z" class="f"/><path d="m349.6 253.4 7.7 18.3-11.3 20.1-12.2-7-11.2-33.1 7.8-9.4 19.2 11.1zM347.7 212c.2.3.2.5 0 1v32.4a2 2 0 0 1-.7 1.4 5 5 0 0 1-4.4 0 1.7 1.7 0 0 1-1-1.4v-33.1a1.7 1.7 0 0 1 1-1.4 5 5 0 0 1 4.4 0c.7.4 1 .7.7 1.1Z" class="g"/><path d="m347.2 206.9 11.2-6.4v11.4l-11.2 6.5v-11.5z" class="a"/><path d="M0 6.5 11.2 0l347.2 200.5-11.2 6.4L0 6.5z" class="f"/><path d="M347.2 206.9v11.5L0 17.9V6.5l347.2 200.4z" class="g"/><path d="M393.9 556.5v14c0 1.4-1 2.6-2.6 3.6l-42 24.5a14 14 0 0 1-12.4 0L294.7 574c-1.8-1-2.6-2.3-2.6-3.6v-14.1c0 1.3 1 2.6 2.6 3.6l42.3 24.4a13.5 13.5 0 0 0 12.2 0l42.1-24.5c1.8-1 2.6-2.1 2.6-3.4Z" class="c"/><path d="M391.3 552.8c3.4 2 3.4 5.2 0 7.2l-42 24.4a13.6 13.6 0 0 1-12.3 0L294.7 560c-3.4-2-3.4-5.2 0-7.1l42-24.5a13.5 13.5 0 0 1 12.3 0Z" class="k"/><path d="M236 509.7v14h-.3l-12-6.9-6-3.5v-14.2l18.3 10.6z" class="a"/><path d="M219.7 510.4v14.2L190 541.7v-14.2l29.7-17.1z" class="f"/><path d="M258.6 522.7v14.2l-48.7 2.1v-14.2l25.8-1.1h.3l22.6-1z" class="b"/><path d="M272.3 530.7v14.2l-13.7-8v-14.2l13.7 8z" class="a"/><path d="m232.6 553.8 31-18v14.1l-31 18a14 14 0 0 1-12.3 0L178 543.5c-1.8-1-2.6-2.3-2.6-3.6v-14.1a3.8 3.8 0 0 0 1.3 2.5 6.6 6.6 0 0 0 .5.5 8 8 0 0 0 .8.6l18.8 10.8 23.5 13.5a13.5 13.5 0 0 0 12.3.1ZM277.2 525.8V540c0 1.3-.9 2.5-2.5 3.5l-2.4 1.4v-14.2l2.4-1.4a6 6 0 0 0 1.3-1l.4-.3a3.7 3.7 0 0 0 .6-1.2 3.3 3.3 0 0 0 .2-1Z" class="f"/><path d="m274.6 522.2-42.3-24.4a13.5 13.5 0 0 0-12.2 0l-2.4 1.3 18.3 10.6-26 15 48.6-2 13.7 8 2.4-1.4a6 6 0 0 0 1.3-1l.4-.3a3.7 3.7 0 0 0 .6-1.2 2.6 2.6 0 0 0 .2-.7v-.3c0-1.3-.9-2.6-2.6-3.6Z" class="r"/><path d="m253 529.6-55.4 2.3-7.6-4.4 29.7-17.1-10.7-6.2-31 18a4.3 4.3 0 0 0-2.5 3.6v.2a3.7 3.7 0 0 0 1.2 2.3 6.6 6.6 0 0 0 .5.5l.8.5 18.8 10.9 23.5 13.6a13.5 13.5 0 0 0 12.3 0l31-18Z" class="r"/><path d="m478.6 461.1-.2 91-90.9-52.5Z" class="n"/><path d="m478.6 489.7-.2 62.4-62.3-36Z" class="e"/><path d="m424.8 465.2 53.9-22.8v11l-43 18.2Z" class="o"/><path d="m360.6 484 99-41.8 3.7 2.1-99 41.9Z" class="n"/></svg>