<svg xmlns="http://www.w3.org/2000/svg" width="180" height="180" viewBox="0 0 180 180"><path fill="#90ebdb" d="m133.8 94.2 1.1.3c6.4-14.5 2.8-35.1-10-49.3l-5.3 8.2a42.5 42.5 0 0 1 14.2 40.8"/><path fill="#6abed8" d="m54.7 42 16.8 9.5c5.6-4.8 13.3-8 22.8-8.2a37.3 37.3 0 0 1 15.2 3.6l6.1-9.7A51.4 51.4 0 0 0 87.9 29a49 49 0 0 0-33.2 13"/><path fill="#0e8cb4" d="m40.5 94.6 24.3-7.1a27.7 27.7 0 0 1-3.7-15.1l-16.6-18a49.4 49.4 0 0 0-4 40.2"/><path fill="#497285" d="m49.7 49.6 32.7 35.8a10.1 10.1 0 0 0 1.9 2 9 9 0 0 0 14.7-7 9 9 0 0 0-3.5-7.1 10.3 10.3 0 0 0-2.4-1.4L51 48a1 1 0 0 0-1.3 1.6m35.6 30.7A4.7 4.7 0 1 1 90 85a4.7 4.7 0 0 1-4.7-4.7m43.6 70.6H51a4.7 4.7 0 1 1 0-9.4H129a4.7 4.7 0 1 1 0 9.4M97.5 120H93v17.3h-6.3V120h-4.4a1 1 0 0 1-.8-1.6l7.5-13a1 1 0 0 1 1.8 0l7.5 13a1 1 0 0 1-1 1.6M69 127.4h-4.4v10h-6.2v-10h-4.4a1 1 0 0 1-.9-1.6l7.5-13a1 1 0 0 1 1.8 0l7.6 13a1 1 0 0 1-1 1.6m57.1 0h-4.4v10h-6.2v-10H111a1 1 0 0 1-.9-1.6l7.5-13a1 1 0 0 1 1.8 0l7.6 13a1 1 0 0 1-1 1.6"/></svg>