<svg xmlns="http://www.w3.org/2000/svg" width="110" height="70" viewBox="0 0 110 70"><path fill="#497285" d="M105 12v8h-5v-8a7 7 0 0 0-7-7H17a7 7 0 0 0-7 7h3.5a.8.8 0 0 1 .7 1.2l-6 10.4a.8.8 0 0 1-1.4 0l-6-10.4a.8.8 0 0 1 .7-1.2H5v-.6A12.1 12.1 0 0 1 8 4a11.9 11.9 0 0 1 9-4h76a12 12 0 0 1 12 12m3.5 46H105v.6a12.3 12.3 0 0 1-3 7.4 11.9 11.9 0 0 1-9 4H17A12 12 0 0 1 5 58v-8h5v8a7 7 0 0 0 7 7h76a7 7 0 0 0 7-7h-3.5a.8.8 0 0 1-.7-1.2l6-10.4a.8.8 0 0 1 1.4 0l6 10.4a.8.8 0 0 1-.7 1.2"/><path fill="#497285" d="M39.3 39.4q0 6.6-7.2 6.6h-18V23.4h17.3a7.8 7.8 0 0 1 5.1 1.6 6 6 0 0 1 2 4.8q0 3.4-2.6 4.4a4.3 4.3 0 0 1 2.6 2 6 6 0 0 1 .8 3.2m-4.1-9.6q0-3.3-3.8-3.3h-14v6.4h14a5 5 0 0 0 2.7-.6 2.7 2.7 0 0 0 1-2.5Zm.7 9.7a3.2 3.2 0 0 0-1-2.6 4 4 0 0 0-2.8-1H17.4v7H32q3.8 0 3.8-3.4Zm27.9-13H46.5V46H43V23.4h20.7Zm30.9 23.7h-3.4a17 17 0 0 0-.1-2.6q-.3-1.6-1.5-1.6H67V23.4h3.4V43h19.4V23.4h3.4V43h1.6Z"/></svg>