<svg xmlns="http://www.w3.org/2000/svg" width="110" height="70" viewBox="0 0 110 70"><path fill="#497285" d="M105 12v8h-5v-8a7 7 0 0 0-7-7H17a7 7 0 0 0-7 7h3.5a.8.8 0 0 1 .7 1.2l-6 10.4a.8.8 0 0 1-1.4 0l-6-10.4a.8.8 0 0 1 .7-1.2H5v-.6A12.1 12.1 0 0 1 8 4a11.9 11.9 0 0 1 9-4h76a12 12 0 0 1 12 12m3.5 46H105v.6a12.3 12.3 0 0 1-3 7.4 11.9 11.9 0 0 1-9 4H17A12 12 0 0 1 5 58v-8h5v8a7 7 0 0 0 7 7h76a7 7 0 0 0 7-7h-3.5a.8.8 0 0 1-.7-1.2l6-10.4a.8.8 0 0 1 1.4 0l6 10.4a.8.8 0 0 1-.7 1.2"/><path fill="#497285" d="M40 23.4 27.5 46h-4L11.3 23.4h3.5L25.3 43h.5l10.5-19.6ZM67.2 46h-3.4V36H44.5v10h-3.3V23.4h3.3V33h19.4v-9.6h3.4Zm30.4-7.8q0 4.1-1.7 6a6.6 6.6 0 0 1-4.4 2l-6.6.1a33.3 33.3 0 0 1-8-.6 5.6 5.6 0 0 1-3.8-3.2q-1-2.4-1-7.8t1-7.7a5.6 5.6 0 0 1 3.9-3.2A33.6 33.6 0 0 1 85 23q5.4 0 6.6.2a6.7 6.7 0 0 1 4.4 1.9q1.7 1.9 1.7 6h-3.4q0-3.6-1.6-4.4-1.3-.7-7.7-.7a36.3 36.3 0 0 0-6.2.4 3.4 3.4 0 0 0-2.7 2.2 21.8 21.8 0 0 0-.5 6 20.5 20.5 0 0 0 .6 6 3.4 3.4 0 0 0 2.6 2.3 36.4 36.4 0 0 0 6.2.3q6.4 0 7.7-.6 1.6-.8 1.6-4.5Z"/></svg>