<svg xmlns="http://www.w3.org/2000/svg" xmlns:xlink="http://www.w3.org/1999/xlink" width="750" height="500" viewBox="0 0 750 500"><defs><linearGradient id="b" x1="315.92" x2="204.42" y1="217.92" y2="329.42" gradientTransform="matrix(-1 0 0 1 750 0)" gradientUnits="userSpaceOnUse"><stop offset="0" stop-color="#56657d" stop-opacity="0"/><stop offset="1" stop-color="#56657d"/></linearGradient><linearGradient xlink:href="#b" id="c" x1="473.5" x2="361.48" y1="185.34" y2="297.36"/><linearGradient xlink:href="#b" id="d" x1="706" x2="594.5" y1="44" y2="155.5"/><linearGradient xlink:href="#b" id="e" x1="549.39" x2="437.89" y1="160.39" y2="271.89"/><linearGradient xlink:href="#b" id="f" x1="216.55" x2="105.05" y1="306.44" y2="417.94"/><linearGradient xlink:href="#a" id="g" x1="444.54" x2="749.16" y1="389.5" y2="389.5" gradientTransform="matrix(-1 0 0 1 750 0)"/><linearGradient xlink:href="#a" id="h" x1="625.91" x2="458.29" y1="228" y2="60.38" gradientTransform="matrix(-1 0 0 1 750 0)"/><linearGradient xlink:href="#a" id="i" x1="195.39" x2="71.25" y1="270.76" y2="146.62" gradientTransform="matrix(-1 0 0 1 750 0)"/><linearGradient xlink:href="#a" id="j" x1="171.94" x2="541.41" y1="344.22" y2="344.22" gradientTransform="matrix(-1 0 0 1 750 0)"/><linearGradient xlink:href="#a" id="k" x1="516.37" x2="302.4" y1="403.2" y2="189.23" gradientTransform="matrix(-1 0 0 1 750 0)"/><linearGradient xlink:href="#a" id="l" x1="276.25" x2="493.41" y1="66.57" y2="283.74" gradientTransform="matrix(-1 0 0 1 750 0)"/><linearGradient xlink:href="#a" id="m" x1="683.5" x2="766.77" y1="332.63" y2="415.9" gradientTransform="matrix(-1 0 0 1 750 0)"/><linearGradient xlink:href="#a" id="n" x1="273.39" x2="445.29" y1="-19.6" y2="152.3" gradientTransform="matrix(-1 0 0 1 750 0)"/><linearGradient xlink:href="#a" id="o" x1="411.23" x2="817.83" y1="119.62" y2="526.22" gradientTransform="matrix(-1 0 0 1 750 0)"/><linearGradient xlink:href="#a" id="p" x1="100.55" x2="423.53" y1="398.96" y2="398.96" gradientTransform="matrix(-1 0 0 1 750 0)"/><linearGradient xlink:href="#a" id="q" x1="344.54" x2="147.99" y1="205.74" y2="9.19" gradientTransform="matrix(-1 0 0 1 750 0)"/><linearGradient id="r" x1="502.95" x2="680.48" y1="-13.97" y2="163.56" gradientTransform="matrix(-1 0 0 1 750 0)" gradientUnits="userSpaceOnUse"><stop offset=".03" stop-color="#3e4654"/><stop offset="1" stop-color="#56657d"/></linearGradient><radialGradient id="a" cx="130.07" cy="-94.89" r="836.59" gradientTransform="matrix(-1 0 0 1 750 0)" gradientUnits="userSpaceOnUse"><stop offset="0" stop-color="#56657d"/><stop offset="1" stop-color="#3e4654"/></radialGradient><filter id="sh1"><feDropShadow dx="4" dy="4" flood-opacity=".15" stdDeviation="8"/></filter><style>.s{filter:url(#sh1)}.y{stroke:#424242;opacity:.15}.z{fill:none;stroke:#94adb9;opacity:.3}</style></defs><path fill="url(#a)" d="M0 0h750v500H0z"/><path fill="url(#b)" d="M682.32 0H750v121.45L371.45 500H182.31L682.32 0z" class="s"/><path fill="url(#c)" d="M493.18 0h189.14l-500.9 500H0v-7.7L493.18 0z" class="s"/><path fill="url(#d)" d="M118.32 0h189.13L0 307.45V118.32L118.32 0z" class="s"/><path fill="url(#e)" d="M391.32 0h189.13l-500 500H0V391.32L391.32 0z" class="s"/><path fill="url(#f)" d="M704.02 166.19H750v143.15L559.34 500H370.2l333.82-333.81z" class="s"/><path fill="url(#g)" d="M221.84 279h83.62l-221 221H.84l221-221z" class="s"/><path fill="url(#h)" d="M319.02 0h66.12L108.48 276.67H42.36L319.02 0z" class="s"/><path fill="url(#i)" d="M750 54.89v40.95L577.47 268.37h-40.95L750 54.89z" class="s"/><path fill="url(#j)" d="M520.14 188.44h57.92L266.5 500h-57.91l311.55-311.56z" class="s"/><path fill="url(#k)" d="M382.7 233.66h40.95L157.31 500h-40.95L382.7 233.66z" class="s"/><path fill="url(#l)" d="M447.77 82.83h19.45L302.23 247.82h-19.45L447.77 82.83z" class="s"/><path fill="url(#m)" d="M47.54 341.86h19.45L0 408.86V389.4l47.54-47.54z" class="s"/><path fill="url(#n)" d="M435.86 0h42.31L361.03 117.14h-42.31L435.86 0z" class="s"/><path fill="url(#o)" d="M288.4 150.64h38.71L0 477.75v-38.72l288.4-288.39z" class="s"/><path fill="#c58759" d="M63.12 69.59h38.71L0 171.42v-38.71l63.12-63.12z" class="s"/><path fill="#cd9f50" d="M87.6 0h18.62L0 106.22V87.6L87.6 0z" class="s"/><path fill="url(#p)" d="M528.54 297.93h120.91L447.38 500H326.47l202.07-202.07z" class="s"/><path fill="#587182" d="M750.01 340.45 750 461.38 711.38 500H590.47l159.54-159.55z" class="s"/><path fill="url(#q)" d="M571.36 0h79.68L458.81 192.23h-79.68L571.36 0z" class="s"/><path fill="#587182" d="M148.52 55.59h89.03L0 293.15v-89.03L148.52 55.59z" class="s"/><path fill="#ca9945" d="M585.52 391.61h89.03L566.16 500h-89.03l108.39-108.39z" class="s"/><path fill="#c58759" d="m750.01 217.28-.01 35.17-74.78 74.78h-35.16l109.95-109.95z" class="s"/><path fill="url(#r)" d="M223.77 0h18.62L108.88 133.51H90.25L223.77 0z" class="s"/><path d="M3.29 0 0 3.29M7.29 0 0 7.29M11.28 0 0 11.28M15.28 0 0 15.28M19.27 0 0 19.27M23.27 0 0 23.27M27.27 0 0 27.27M31.26 0 0 31.26M35.26 0 0 35.26M39.25 0 0 39.25M43.25 0 0 43.25M47.25 0 0 47.25M51.24 0 0 51.24M55.24 0 0 55.24M59.23 0 0 59.23M63.23 0 0 63.23M67.23 0 0 67.23M71.22 0 0 71.22M75.22 0 0 75.22M79.22 0 0 79.22M83.21 0 0 83.21M87.21 0 0 87.21M91.2 0 0 91.2M95.2 0 0 95.2M99.2 0 0 99.2M103.19 0 0 103.19M107.19 0 0 107.19M111.18 0 0 111.18M115.18 0 0 115.18M119.18 0 0 119.18M123.17 0 0 123.17M127.17 0 0 127.17M131.16 0 0 131.16M135.16 0 0 135.16M139.16 0 0 139.16M143.15 0 0 143.15M147.15 0 0 147.15M151.14 0 0 151.14M155.14 0-.04 155.18M159.14 0 0 159.14M163.13 0 0 163.13M167.13 0 0 167.13M171.12 0 0 171.13M175.12 0 0 175.12M179.12 0 0 179.12M183.11 0 0 183.11M187.11 0 0 187.11M191.11 0 0 191.11M195.1 0 0 195.1M199.1 0 0 199.1M203.09 0 0 203.09M207.09 0 0 207.09M211.09 0 0 211.09M215.08 0 0 215.08M219.08 0 0 219.08M223.07 0 0 223.07M227.07 0-.04 227.11M231.07 0-.04 231.11M235.06 0-.04 235.1M239.06 0-.04 239.1M243.05 0-.04 243.09M247.05 0-.04 247.09M251.05 0-.04 251.09M255.04 0-.04 255.08M259.04 0-.04 259.08M263.03 0-.04 263.08M267.03 0-.04 267.07M271.03 0-.04 271.07M275.02 0-.04 275.06M279.02 0-.04 279.06M283.01 0-.04 283.06M287.01 0-.04 287.05M291.01 0-.04 291.05M295 0 0 295M299 0-.04 299.04M303 0-.04 303.04M306.99 0-.04 307.03M310.99 0-.04 311.03M314.98 0-.04 315.02M318.98 0-.04 319.02M322.98 0 0 322.98M326.97 0 0 326.97M330.97 0 0 330.97M334.96 0 0 334.96M338.96 0 0 338.96M342.96 0 0 342.96M346.95 0 0 346.95M350.95 0 0 350.95M354.94 0 0 354.94M358.94 0 0 358.94M362.94 0 0 362.94M366.93 0 0 366.93M370.93 0 0 370.93M374.92 0 0 374.92M378.92 0 0 378.92M382.92 0-.04 382.96M386.91 0-.04 386.95M390.91 0-.04 390.95M394.9 0-.04 394.95M398.9 0-.04 398.94M402.9 0 0 402.9M406.89 0 0 406.89M410.89 0 0 410.89M414.88 0 0 414.88M418.88 0 0 418.88M422.88 0 0 422.88M426.87 0-.04 426.91M430.87 0 0 430.87M434.87 0 0 434.87M438.86 0 0 438.86M442.86 0 0 442.86M446.85 0 0 446.85M450.85 0 0 450.85M454.85 0 0 454.85M458.84 0 0 458.84M462.84 0 0 462.84M466.83 0 0 466.83M470.83 0 0 470.83M474.83 0 0 474.83M478.82 0 0 478.82M482.82 0 0 482.82M486.81 0 0 486.81M490.81 0 0 490.81M494.81 0 0 494.81M498.8 0 0 498.8M502.8 0 2.75 500.05M506.79 0 6.74 500.05M510.79 0 10.74 500.05M514.79 0 14.74 500.05M518.78 0 18.73 500.05M522.78 0 22.73 500.05M526.77 0 26.72 500.05M530.77 0 30.72 500.05M534.77 0 34.72 500.05M538.76 0 38.71 500.05M542.76 0 42.71 500.05M546.75 0 46.7 500.05M550.75 0 50.7 500.05M554.75 0 54.7 500.05M558.74 0 58.69 500.05M562.74 0 62.69 500.05M566.74 0 66.68 500.05M570.73 0 70.68 500.05M574.73 0 74.68 500.05M578.72 0 78.67 500.05M582.72 0 82.67 500.05M586.72 0 86.66 500.05M590.71 0 90.66 500.05M594.71 0 94.66 500.05M598.7 0 98.65 500.05M602.7 0 102.65 500.05M606.7 0 106.64 500.05M610.69 0 110.64 500.05M614.69 0 114.64 500.05M618.68 0 118.63 500.05M622.68 0 122.63 500.05M626.68 0 126.63 500.05M630.67 0 130.62 500.05M634.67 0 134.62 500.05M638.66 0 138.61 500.05M642.66 0 142.61 500.05M646.66 0 146.61 500.05M650.65 0 150.6 500.05M654.65 0 154.6 500.05M658.64 0 158.59 500.05M662.64 0 162.59 500.05M666.64 0 166.59 500.05M670.63 0 170.58 500.05M674.63 0 174.58 500.05M678.63 0 178.57 500.05M682.62 0 182.57 500.05M686.62 0 186.57 500.05M690.61 0 190.56 500.05M694.61 0 194.56 500.05M698.61 0 198.55 500.05M702.6 0 202.55 500.05M706.6 0 206.55 500.05M710.59 0 210.54 500.05M714.59 0 214.54 500.05M718.59 0 218.53 500.05M722.58 0 222.53 500.05M726.58 0 226.53 500.05M730.57 0 230.52 500.05M734.57 0 234.52 500.05M738.57 0 238.51 500.05M742.56 0 242.51 500.05M746.56 0 246.51 500.05M750.01.54 250.5 500.05M750.01 4.54 254.5 500.05M750.01 8.54 258.5 500.05M750.01 12.53 262.49 500.05M750.01 16.53 266.49 500.05M750.01 20.52 270.48 500.05M750.01 24.52 274.48 500.05M750.01 28.52 278.48 500.05M750.01 32.51 282.47 500.05M750.01 36.51 286.47 500.05M750.01 40.5 290.46 500.05M750.01 44.5 294.46 500.05M750.01 48.5 298.46 500.05M750.01 52.49 302.45 500.05M750.01 56.49 306.45 500.05M750.01 60.48 310.44 500.05M750.01 64.48 314.44 500.05M750.01 68.48 318.44 500.05M750.01 72.47 322.43 500.05M750.01 76.47 326.43 500.05M750.01 80.46 330.42 500.05M750.01 84.46 334.42 500.05M750.01 88.46 338.42 500.05M750.01 92.45l-407.6 407.6M750.01 96.45l-403.6 403.6M750.01 100.44 350.4 500.05M750.01 104.44 354.4 500.05M750.01 108.44 358.4 500.05M750.01 112.43 362.39 500.05M750.01 116.43 366.39 500.05M750.01 120.43 370.38 500.05M750.01 124.42 374.38 500.05M750.01 128.42 378.38 500.05M750.01 132.41 382.37 500.05M750.01 136.41 386.37 500.05M750.01 140.41 390.37 500.05M750.01 144.4 394.36 500.05M750.01 148.4 398.36 500.05M750.01 152.39 402.35 500.05M750.01 156.39 406.35 500.05M750.01 160.39 410.35 500.05M750.01 164.38 414.34 500.05M750.01 168.38 418.34 500.05M750.01 172.37 422.33 500.05M750.01 176.37 426.33 500.05M750.01 180.37 430.33 500.05M750.01 184.36 434.32 500.05M750.01 188.36 438.32 500.05M750.01 192.35l-307.7 307.7M750.01 196.35l-303.7 303.7M750.01 200.35l-299.7 299.7M750.01 204.34 454.3 500.05M750.01 208.34 458.3 500.05M750.01 212.33 462.29 500.05M750.01 216.33 466.29 500.05M750.01 220.33 470.29 500.05M750.01 224.32 474.28 500.05M750.01 228.32 478.28 500.05M750.01 232.31 482.27 500.05M750.01 236.31 486.27 500.05M750.01 240.31 490.27 500.05M750.01 244.3 494.26 500.05M750.01 248.3 498.26 500.05M750.01 252.3 502.26 500.05M750.01 256.29 506.25 500.05M750.01 260.29 510.25 500.05M750.01 264.28 514.24 500.05M750.01 268.28 518.24 500.05M750.01 272.28 522.24 500.05M750.01 276.27 526.23 500.05M750.01 280.27 530.23 500.05M750.01 284.26 534.22 500.05M750.01 288.26 538.22 500.05M750.01 292.26 542.22 500.05M750.01 296.25l-203.8 203.8M750.01 300.25l-199.8 199.8M750.01 304.24 554.2 500.05M750.01 308.24 558.2 500.05M750.01 312.24 562.26 499.99M750.01 316.23 566.25 499.99M750.01 320.23 570.25 499.99M750.01 324.22 574.24 499.99M750.01 328.22 578.24 499.99M750.01 332.22 582.24 499.99M750.01 336.21 586.23 499.99M750.01 340.21 590.23 499.99M750.01 344.2 594.22 499.99M750.01 348.2 598.16 500.05M750.01 352.2 602.16 500.05M750.01 356.19 606.15 500.05M750.01 360.19 610.15 500.05M750.01 364.19 614.14 500.05M750.01 368.18 618.14 500.05M750.01 372.18 622.2 499.99M750.01 376.17 626.19 499.99M750.01 380.17 630.19 499.99M750.01 384.17 634.19 499.99M750.01 388.16 638.18 499.99M750.01 392.16 642.12 500.05M750.01 396.15l-103.9 103.9M750.01 400.15l-99.9 99.9M750.01 404.15l-95.9 95.9M750.01 408.14l-91.91 91.91M750.01 412.14l-87.91 87.91M750.01 416.13l-83.92 83.92M750.01 420.13l-79.92 79.92M750.01 424.13l-75.92 75.92M750.01 428.12l-71.93 71.93M750.01 432.12l-67.93 67.93M750.01 436.11l-63.94 63.94M750.01 440.11l-59.94 59.94M750.01 444.11l-55.94 55.94M750.01 448.1l-51.95 51.95M750.01 452.1l-47.95 47.95M750.01 456.09l-43.96 43.96M750.01 460.09l-39.9 39.9M750.01 464.09l-35.9 35.9M750.01 468.08l-31.91 31.91M750.01 472.08l-27.91 27.91M750.01 476.08l-23.92 23.91M750.01 480.07l-19.92 19.92M750.01 484.07l-15.92 15.92M750.01 488.06l-11.93 11.93M750.01 496.06l-3.94 3.93" class="y"/><path d="m377.68 500 321.8-321.8h48.44L426.12 500M605.9 0 403.64 202.26h-35.75L570.15 0M0 389.85 211.65 178.2h35.75L0 425.6M0 156.62 156.62 0M192.37 0 0 192.37M20.64 500l88-88h27.21l-88 88M0 208.16l69.28-69.27h27.2L0 235.37M356.57 0 217.69 138.89h-27.21L329.37 0M750 65.2l-39 39h-27.2L750 38M455.09 302.85h22.94L289.75 491.13h-22.94l188.28-188.28zM726.97 0 614.31 112.66h-22.95L704.02 0M519.25 500l141.6-141.6h22.95L542.19 500M750 382.58l-65.07 65.07h-22.95L750 359.63M485.13 165.23h22.95L319.8 353.51h-22.95l188.28-188.28z" class="z"/></svg>